/* XPM */
static char *vortice2[] = {
/* columns rows colors chars-per-pixel */
"64 64 128 2 ",
"   c #010000",
".  c #0A0002",
"X  c #0C000B",
"o  c #120000",
"O  c #1C0000",
"+  c #11000F",
"@  c #130012",
"#  c #1F001C",
"$  c #240000",
"%  c #2C0000",
"&  c #330000",
"*  c #3C0000",
"=  c #21001E",
"-  c #240021",
";  c #280025",
":  c #2D0029",
">  c #32002E",
",  c #350031",
"<  c #3A0035",
"1  c #3E0039",
"2  c #450000",
"3  c #4C0000",
"4  c #560000",
"5  c #5B0000",
"6  c #630000",
"7  c #6C0000",
"8  c #750000",
"9  c #790000",
"0  c #40003A",
"q  c #4B0045",
"w  c #4F0048",
"e  c #55004D",
"r  c #5C0054",
"t  c #64005C",
"y  c #68005F",
"u  c #6C0062",
"i  c #700066",
"p  c #73006A",
"a  c #79006F",
"s  c #7D0072",
"d  c #850000",
"f  c #890000",
"g  c #940000",
"h  c #9E0000",
"j  c #A50000",
"k  c #AD0000",
"l  c #B40000",
"z  c #BC0000",
"x  c #BC002D",
"c  c #AE003E",
"v  c #B50035",
"b  c #B90030",
"n  c #B20039",
"m  c #C30000",
"M  c #CD0000",
"N  c #D40000",
"B  c #DD0001",
"V  c #D5000C",
"C  c #D80008",
"Z  c #D80008",
"A  c #CF0013",
"S  c #CD0016",
"D  c #CC0017",
"F  c #CD0016",
"G  c #C7001E",
"H  c #CB0018",
"J  c #C9001B",
"K  c #CA001A",
"L  c #CC0018",
"P  c #C8001D",
"I  c #C9001B",
"U  c #D10010",
"Y  c #D10011",
"T  c #D10012",
"R  c #C50020",
"E  c #C40022",
"W  c #C10025",
"Q  c #C00026",
"!  c #C20024",
"~  c #9F0052",
"^  c #9E0053",
"/  c #9C0055",
"(  c #9C0056",
")  c #9D0054",
"_  c #95005E",
"`  c #94005F",
"'  c #96005D",
"]  c #990059",
"[  c #98005B",
"{  c #99005A",
"}  c #AB0041",
"|  c #AA0043",
" . c #AB0041",
".. c #A2004D",
"X. c #A1004E",
"o. c #A2004E",
"O. c #A2004E",
"+. c #A00050",
"@. c #A00051",
"#. c #A00050",
"$. c #8F0066",
"%. c #8E0067",
"&. c #8F0067",
"*. c #8F0066",
"=. c #8B006B",
"-. c #8E0068",
";. c #8C006A",
":. c #8A006D",
">. c #89006E",
",. c #8A006D",
"<. c #910063",
"1. c #940060",
"2. c #910064",
"3. c #900065",
"4. c #910063",
"5. c #870070",
"6. c #860071",
"7. c #870071",
"8. c #850073",
"9. c #860072",
"0. c #800075",
"q. c #800076",
"w. c #810077",
"e. c #830076",
"r. c #820077",
"t. c #840074",
"y. c #850074",
"u. c #820076",
/* pixels */
"B 2     r r.r.x B B g o     < a r.r.` x B B B B m g 8 3 % O .     . O % 3 8 g m B B B B x ` r.r.a <     o g B B x r.r.r     2 B ",
"2   . t r.:.J B N 4     = u r.r.] G B B B l 6 $                                 $ 6 l B B B J ] r.r.u =     4 N B J :.r.t .   2 ",
"  X u r.:.U B m %     q r.r.2.E B B N 9 $       . - 1 e t p s r.r.s p t e 1 - .       $ 9 N B B E 2.r.r.q     % m B U :.r.u X   ",
". t r.2.V B k o   @ u r.r.n B B N 7 o     X < t r.r.r.r.r.r.r.r.r.r.r.r.r.r.r.r.t < X     o 7 N B B n r.r.u @   o k B V 2.r.t . ",
"r r.$.V B j .   - s r.$.J B B f o     = r r.r.r.r.` } x J V B B B B V J x } ` r.r.r.r.r =     o f B B J $.r.s -   . j B V $.r.r ",
"r.:.U B j .   : s r.+.B B z &     = t r.r.r.X.E B B B B B B B B B B B B B B B B E X.r.r.r.t =     & m B B +.r.r.:   . j B U :.r.",
"r.J B k .   > r.r.c B B g .   X e r.r.:.n V B B B z d 5 * O .     . O * 5 d z B B B V n :.r.r.e X   . g B B c r.r.>   . k B J r.",
"x B m o   : r.r.v B B 6     : s r.r.n B B B l 6 O                             O 6 l B B B n r.r.s :     6 B B v r.r.:   o m B x ",
"B N %   = s r.v B B 3     q r.r.( V B B h &       X : q r u a s s a u r q : X       & h B B V ( r.r.q     3 B B n r.s =   % N B ",
"B 4   @ s r.c B B *     t r.r.v B B l &     X < t r.r.r.r.r.r.r.r.r.r.r.r.r.r.t < X     & l B B v r.r.t X   * B B } r.s @   4 B ",
"g     u r.+.B B 3   X y r.:.D B N 6     X q s r.r.r.( n E D Z B B Z D E n ( r.r.r.s q X     6 N B D :.r.u X   3 B B +.r.u     g ",
"o   q r.$.B B 7   . u r.2.V B z %     < s r.r.( x B B B B B B B B B B B B B B x ( r.r.s <     % z B V 2.r.u .   6 B B $.r.q   o ",
"  # r.r.J B g     t r.$.V B k o   @ u r.r.+.D B B B k 8 3 $ o     o $ 3 8 k B B B D ( r.r.u @   o k B V $.r.t     g B D r.r.#   ",
"  u r.n B m .   q r.:.V B h .   ; s r.$.E B B m 7 O                         O 7 m B B E $.r.s ;   . h B V :.r.q   . m B n r.u   ",
"< r.$.B B &   : r.r.D B k .   , r.r.X.B B M 5       + , e u a s s a u e , +       5 M B B X.r.r.,   . k B D r.r.:   & B B $.r.< ",
"a r.E B f   X s r.b B z o   , r.r.n B B g o     : t r.r.r.r.r.r.r.r.r.r.r.r.t :     o g B B n r.r.,   o z B b r.s X   f B E r.a ",
"r.] B N o   r r.( B B %   ; r.r.v B B 5     - u r.r.r.X.b J V B B V J b X.r.r.r.u -     5 B B b r.r.;   % B B ( r.r   o N B ] r.",
"r.E B 7   = r.r.V B 6   @ s r.n B N 2     q r.r.$.x B B B B B B B B B B B B x $.r.r.q     2 N B n r.s @   6 B V r.r.=   7 B E r.",
"2.B N o   t r.n B l     u r.X.B B 2   X t r.r.n B B B k 6 & o     o & 6 k B B B v r.r.t X   2 B B X.r.u     l B n r.t   o N B 2.",
"x B 9   = r.:.B B %   < r.$.B B 5   X u r.$.D B B f O                     O f B B D $.r.u X   5 B B $.r.<   & B B :.r.=   9 B b ",
"B B $   r r.n B h   X s r.E B g     t r.2.V B m %     X 1 r p s s u r 1 +     % m B V 2.r.t     g B E r.s X   h B n r.r   O B Z ",
"B k   X r.r.V B &   q r.+.B M o   w r.$.V B j o   X e r.r.r.r.r.r.r.r.r.r.e X   o k B V $.r.w   o M B +.r.q   & B V r.r.X   k B ",
"B 6   < r.( B l   X s r.D B 5   - r.r.D B j     ; s r.r.X.x V B B U x X.r.r.s :     j B D r.r.-   5 B D r.s X   l B ( r.<   6 B ",
"B $   t r.E B 6   < r.( B m     u r.v B z .   < r.r.( U B B B B B B B B U +.r.r.<   . z B v r.u     m B ( r.<   6 B E r.t   $ B ",
"m   . r.r.B B O   y r.x B 7   : r.$.B B %   : r.r.v B B z 6 $     $ 6 z B B v r.r.:   % B B $.r.:   7 B x r.t   O B B r.r..   m ",
"g   - r.] B z   X r.r.B B O   t r.x B f   X s r.v B B 5                 5 N B v r.s X   f B x r.t   O B B r.r.X   z B ` r.-   g ",
"7   1 r.} B d   : r.( B k   + r.r.B B O   e r.+.B B *     < t s s t <     * B B +.r.e   O B B r.r.@   k B ( r.:   d B } r.0   7 ",
"2   e r.x B 5   q r.n B 8   , r.X.B j   + r.r.V B 5   X u r.r.r.r.r.r.u X   5 B V r.r.+   j B X.r.,   8 B n r.q   5 B x r.e   2 ",
"%   t r.J B &   r r.E B 3   e r.x B 6   1 r.X.B z     u r.$.E B B E $.r.u     z B X.r.1   6 B x r.e   3 B E r.r   * B J r.t   % ",
"o   p r.V B O   i r.U B $   u r.J B &   r r.E B 6   < r.2.B B B B B B 2.r.<   6 B E r.r   & B J r.u   $ B U r.i   O B V r.p   O ",
".   s r.B B .   s r.V B o   a r.V B o   p r.V B $   t r.E B B B B B B E r.t   $ B V r.p   o B V r.a   o B V r.s   . B B r.s   o ",
"    r.r.B B     r.r.B B     s r.B B     s r.B B     s r.B B B B B B B B r.s     B B r.s     B B r.s     B B r.r.    B B r.r.    ",
"    r.r.B B     r.r.B B     s r.B B     s r.B B     s r.B B B B B B B B r.s   . B B r.s     B B r.s     B B r.s     B B r.s     ",
".   s r.B B .   s r.V B o   a r.Z B o   p r.U B $   t r.E B B B B B B x r.t   $ B V r.p   o B V r.a   o B V r.a   o B Z r.a   o ",
"o   p r.V B O   i r.U B $   u r.J B &   r r.E B 6   < r.2.B B B B B B 2.r.<   6 B E r.r   & B J r.u   $ B U r.i   O B V r.p   O ",
"%   t r.J B &   r r.E B 3   e r.x B 6   1 r.X.B z     u r.2.E B B E 2.r.u     z B X.r.1   6 B x r.e   3 B E r.r   & B J r.t   % ",
"2   e r.x B 5   q r.n B 8   , r.X.B j   + r.r.V B 5   X u r.r.r.r.r.r.u X   5 B V r.r.+   j B X.r.,   8 B n r.q   5 B x r.e   2 ",
"7   1 r.} B d   : r.( B k   @ r.r.B B O   e r.X.B B *     < t s s t <     * B B X.r.e   O B B r.r.@   k B ( r.:   d B } r.0   7 ",
"g   - r.] B z   X r.r.B B O   t r.x B f   X s r.v B B 5                 5 N B v r.s X   f B x r.t   O B B r.r.X   z B ` r.-   g ",
"m   . r.r.B B o   y r.x B 7   : r.$.B B %   : r.r.v B B z 6 $   . $ 6 z B B v r.r.:   % B B 2.r.:   7 B x r.y   O B B r.r..   m ",
"B $   t r.E B 6   < r.( B m     u r.v B z .   < r.r.+.U B B B B B B B B U +.r.r.<   . z B v r.u     m B ( r.<   6 B E r.t   $ B ",
"B 6   < r.( B l   X s r.D B 5   - r.r.D B h     ; s r.r.X.E V B B V E X.r.r.s :     h B D r.r.-   5 B D r.s X   l B ( r.<   6 B ",
"B k   X r.r.V B &   q r.+.B M o   e r.$.V B h .   X e r.r.r.r.r.r.r.r.r.r.e X   . h B V $.r.e   o M B +.r.q   & B V r.r.X   k B ",
"B B O   r r.n B h   X s r.E B g     t r.2.V B z %     X 1 r p s s p r 1 @     % z B V 2.r.t     g B E r.s X   h B n r.r   O B Z ",
"x B 9   = r.:.B B %   < r.$.B B 5   X u r.$.D B B f O                     O f B B D $.r.u X   5 B B $.r.<   % B B :.r.=   9 B b ",
"2.B N .   t r.n B l     u r.X.B B 2   X y r.r.v B B B k 6 & o     o & 6 k B B B v r.r.y X   2 B B X.r.u     l B n r.t   . N B ` ",
"r.E B 7   = r.r.V B 6   @ s r.n B N 2     q r.r.$.x B B B B B B B B B B B B x $.r.r.q     2 N B n r.s @   6 B V r.r.-   7 B E r.",
"r.] B N o   r r.( B N %   ; r.r.v B B 5     - u r.r.r.X.b J V B B V J b X.r.r.r.u -     5 B B b r.r.;   % B B ( r.r   o M B ] r.",
"a r.E B f   X s r.x B z .   , r.r.n B B g o     : t r.r.r.r.r.r.r.r.r.r.r.r.t :     o g B B n r.r.,   . z B x r.s X   f B E r.a ",
"< r.$.B B &   : r.r.D B k .   , r.r.X.B B M 5       + , e u a s s a u e , +       5 M B B X.r.r.,   . k B D r.r.:   & B B $.r.< ",
"  u r.n B m .   q r.:.V B h     ; s r.$.E B B m 7 O                         O 7 m B B E $.r.s ;     h B V :.r.q   . m B n r.u   ",
"  # r.r.D B g     t r.$.V B j .   @ u r.r.+.D B B B k 8 3 $ .     . $ 3 8 k B B B D +.r.r.u @   . j B V 2.r.t     g B D r.r.#   ",
"o   q r.$.B B 6   X u r.2.V B z %     1 s r.r.( x B B B B B B B B B B B B B B x ( r.r.s 1     % z B V 2.r.u X   6 B B $.r.q   o ",
"g     u r.+.B B 3   X u r.:.D B N 6     X q s r.r.r.( n E U Z B B Z U E n ( r.r.r.s q X     5 N B D :.r.u X   3 B B +.r.u     g ",
"B 4   @ s r.c B B *     t r.r.v B B l &     X < y r.r.r.r.r.r.r.r.r.r.r.r.r.r.y < X     & l B B v r.r.t X   * B B c r.s @   4 B ",
"B N %   = s r.v B B 3     q r.r.( V B B h &       X : q r u a s s a u r q : X       & h B B V ( r.r.q     3 B B v r.s =   % N B ",
"x B m o   : r.r.v B B 6     : s r.r.n B B B l 6 O                             O 6 l B B B n r.r.s :     6 B B v r.r.:   o m B x ",
"r.J B k .   > r.r.c B B g .   X e r.r.:.n Z B B B z d 5 * O .     . O * 5 d z B B B Z n :.r.r.e X   . g B B c r.r.>   . k B J r.",
"r.:.U B j .   : r.r.+.B B z &     = t r.r.r.( E B B B B B B B B B B B B B B B B E ( r.r.r.t =     & m B B +.r.r.>   . j B U :.r.",
"r r.$.V B j .   - s r.$.J B B f o     = r r.r.r.r.` } x J V B B B Z U J x } ` r.r.r.r.r =     o f B B J $.r.s -   . j B V $.r.r ",
". t r.2.V B k o   @ u r.r.n B B N 7 o     X < t r.r.r.r.r.r.r.r.r.r.r.r.r.r.r.r.t < X     o 7 N B B n r.r.u @   o k B V 2.r.t . ",
"  X u r.:.D B m %     q r.r.2.E B B N 9 $       . - 1 e t p a s s a p t e 1 - .       $ 9 N B B E 2.r.r.q     % m B D :.r.u X   ",
"2   . t r.:.J B N 4     = u r.r.] J B B B l 6 O                                 O 6 l B B B J ] r.r.u =     4 N B J :.r.t .   2 ",
"B 2     r r.r.v B B g o     < s r.r.` x B B B B m g 7 3 % O .     . O % 3 7 g m B B B B x ` r.r.s <     o g B B v r.r.r     2 B "
};
