/* XPM */
static char *vortice0[] = {
/* columns rows colors chars-per-pixel */
"64 64 130 2 ",
"   c #010000",
".  c #0B0001",
"X  c #0D000C",
"o  c #120000",
"O  c #1B0000",
"+  c #11000F",
"@  c #140012",
"#  c #180016",
"$  c #1C0019",
"%  c #230000",
"&  c #2A0000",
"*  c #320000",
"=  c #3D0000",
"-  c #21001E",
";  c #250022",
":  c #2B0027",
">  c #2C0029",
",  c #32002E",
"<  c #340030",
"1  c #3B0036",
"2  c #3E0038",
"3  c #450000",
"4  c #4A0000",
"5  c #550000",
"6  c #5B0000",
"7  c #650000",
"8  c #6B0000",
"9  c #750000",
"0  c #7A0000",
"q  c #43003D",
"w  c #470041",
"e  c #4B0045",
"r  c #4F0048",
"t  c #53004C",
"y  c #5A0052",
"u  c #64005C",
"i  c #68005F",
"p  c #6C0062",
"a  c #700066",
"s  c #75006B",
"d  c #79006F",
"f  c #7D0073",
"g  c #8F0000",
"h  c #940000",
"j  c #9C0000",
"k  c #A20000",
"l  c #AC0000",
"z  c #B20000",
"x  c #BD0000",
"c  c #BE002A",
"v  c #AE003E",
"b  c #B60033",
"n  c #B80031",
"m  c #C20000",
"M  c #CC0000",
"N  c #D50000",
"B  c #DD0001",
"V  c #D5000C",
"C  c #D80008",
"Z  c #CD0016",
"A  c #C7001E",
"S  c #C9001B",
"D  c #CA001A",
"F  c #CB0018",
"G  c #CC0018",
"H  c #C8001C",
"J  c #C8001D",
"K  c #CA001A",
"L  c #D10011",
"P  c #D00012",
"I  c #D00013",
"U  c #D00012",
"Y  c #C30023",
"T  c #C40022",
"R  c #C20024",
"E  c #C10026",
"W  c #C30023",
"Q  c #9F0052",
"!  c #9E0053",
"~  c #9B0056",
"^  c #9B0057",
"/  c #9C0055",
"(  c #9C0055",
")  c #990059",
"_  c #9A0058",
"`  c #98005A",
"'  c #99005A",
"]  c #98005B",
"[  c #990059",
"{  c #A70047",
"}  c #A70047",
"|  c #AB0041",
" . c #AB0042",
".. c #AC0040",
"X. c #A80046",
"o. c #AA0043",
"O. c #A60048",
"+. c #A2004D",
"@. c #A1004E",
"#. c #A1004F",
"$. c #A4004C",
"%. c #A2004D",
"&. c #8F0066",
"*. c #8E0067",
"=. c #8B006B",
"-. c #8D0069",
";. c #8E0068",
":. c #8C006A",
">. c #8A006D",
",. c #89006E",
"<. c #88006F",
"1. c #8B006B",
"2. c #910063",
"3. c #910064",
"4. c #900065",
"5. c #900065",
"6. c #870070",
"7. c #870071",
"8. c #850073",
"9. c #860072",
"0. c #830075",
"q. c #810076",
"w. c #830076",
"e. c #820077",
"r. c #840074",
"t. c #850074",
"y. c #840075",
"u. c #820077",
"i. c #880070",
"p. c #880070",
/* pixels */
"  y e.e.E B N 5     : s e.e. .C B B z 5 .       X : q t u s f e.e.f s u t q : X       . 5 z B B C  .e.e.s :     5 N B E e.e.y   ",
"y e.i.J B M *     t e.e.] L B B k =       $ w p e.e.e.e.e.e.e.e.e.e.e.e.e.e.e.e.p w $       * k B B L ] e.e.t     * M B J i.e.y ",
"e.<.Z B m O   + p e.e.n B B x =       1 p e.e.e.e.~ v c D V B B B B V D c v ~ e.e.e.e.p 1       = x B B n e.e.p +   O m B Z <.e.",
"e.D B x O   $ s e.4.Z B B 8     . q d e.e.<. .D B B B B B B B B B B B B B B B B D  .<.e.e.d q .     8 B B Z 4.e.s $   O x B D e.",
"E B x O   - f e.~ B B m &     , d e.e.] E B B B B l 0 5 * O .     . O * 5 0 l B B B B E ] e.e.d ,     & m B B ~ e.f -   O x B E ",
"B M O   - f e.$.B B h .   @ u e.e.] D B B B h 3 .                             . 3 h B B B D ] e.e.u @   . h B B $.e.f -   O M B ",
"B *   $ f e.$.B B 9     > f e.<.c B B M 8 O       @ , w y s f e.e.f s y w , @       O 8 M B B c <.e.f >     9 B B $.e.f $   * B ",
"5   + s e.$.B B 7     w e.e.$.B B N 8 .     @ w s e.e.e.e.e.e.e.e.e.e.e.e.e.e.s w @     . 8 N B B $.e.e.w     7 B B $.e.s @   5 ",
"    p e.] B B 7     t e.e.b B B j O     ; u e.e.e.<.$.b E L C B B C L E b $.<.e.e.e.u ;     O j B B b e.e.t     8 B B ] e.p     ",
"  r e.4.B B 9     y e.e.J B N 6     $ u e.e.<. .D B B B B B B B B B B B B B B D  .<.e.e.u $     6 N B D <.e.y     0 B B 4.e.t   ",
": e.e.Z B h     t e.<.D B M &     w e.e.<.b B B B N k 8 3 % O     O % 3 8 j N B B B b <.e.e.w     & M B Z <.e.t     h B Z e.e.: ",
"s e.n B m .   q e.e.Z B x O   @ p e.e. .B B B j 4 .                         . 4 j B B B  .e.e.p @   O x B Z e.e.w   . m B n e.s ",
"e.] B B &   : e.e.J B x O   $ d e.&.Z B B h &       $ 2 y p d f f d p y 2 $       & j B B Z 4.e.d $   O x B J e.e.>   & B B ] e.",
"e.Z B 8   @ f e.n B m O   ; f e.~ B B m =     X q s e.e.e.e.e.e.e.e.e.e.e.e.s q X     = m B B ~ e.f ;   O m B n e.f @   8 B Z e.",
" .B x     u e.$.B B &   $ f e.{ B B h .   X w f e.e.<. .c Z V B B V Z c  .<.e.e.f w X   . h B B { e.f $   & B B $.e.u     x B  .",
"C B 3   , e.<.B B 6   @ d e. .B B 8     > d e.e.$.D B B B B B B B B B B B B D $.e.e.d >     8 B B  .e.d @   6 B B <.e.,   = B C ",
"B l   . s e.E B j     p e.~ B B 6     w e.e.~ L B B N h 6 * O     O * 6 h N B B L ~ e.e.w     6 B B ~ e.p     j B E e.s .   l B ",
"B 3   q e.] B N O   w e.4.B B 8     y e.e.n B B x 5 .                     . 5 x B B n e.e.y     8 B B 4.e.w   O N B ] e.q   3 B ",
"z     d e.J B 8   $ e.e.Z B h     y e.<.D B N 7       - w u s f f s u w -       7 N B D <.e.y     h B Z e.e.$   8 B D e.d     z ",
"5   1 e.] B M .   u e. .B m .   w e.<.L B m &     , a e.e.e.e.e.e.e.e.e.e.a ,     & x B L <.e.w   . m B  .e.u   . M B ] e.1   6 ",
".   p e.E B 8   ; e.<.B B =   > e.e.D B z O   + u e.e.<.v E V B B L E v <.e.e.u +   O z B D e.e.>   = B B <.e.;   8 B E e.a   . ",
"  $ e.<.B B O   u e.b B h   X d e.n B m O   - d e.<.c B B B B B B B B B B c <.e.d -   O x B c e.d X   h B n e.u   O B B <.e.$   ",
"  w e. .B j   @ e.<.B B &   w e.~ B N &   ; f e.~ B B B h 4 O   . % 4 h B B B $.e.f ;   & N B ~ e.w   & B B <.e.#   j B  .e.w   ",
"  p e.D B 4   w e. .B k   X f e.L B 8   @ f e. .B B h O                 O h B B  .e.f @   7 B Z e.f X   j B  .e.w   4 B D e.p   ",
"X e.e.B B .   s e.D B 4   q e.$.B m     u e.$.B B 7     @ w p f f p w @     7 B B $.e.u     x B $.e.q   4 B D e.s   . B B e.e.X ",
": e.~ B l   @ e.<.B N     s e.D B 6   , e.<.B B 7     w e.e.e.e.e.e.e.e.w     7 B B <.e.,   5 B D e.s     N B <.e.@   l B ~ e.> ",
"q e.v B 0   < e.$.B k   $ e.<.B N .   a e.c B h     u e.e. .D B B D  .e.e.u     h B c e.a   . N B &.e.$   k B $.e.<   0 B v e.q ",
"y e.c B 6   w e.b B 8   2 e. .B h   - e.<.B B O   w e.<.Z B B B B B B Z <.e.w   O B B <.e.-   h B  .e.2   8 B b e.w   6 B c e.y ",
"i e.D B *   u e.E B 3   y e.c B 6   w e.v B g   @ e.e.Z B x 3 . . 3 x B Z e.e.@   g B v e.w   6 B c e.y   3 B E e.u   * B D e.i ",
"s e.V B O   s e.L B %   p e.Z B *   u e.E B 4   w e. .B x .         . x B  .e.w   4 B E e.u   * B Z e.p   % B L e.s   O B V e.s ",
"f e.B B .   f e.B B O   d e.V B O   s e.V B O   p e.D B 3             3 B D e.p   O B V e.s   O B V e.d   O B B e.f   . B B e.d ",
"e.e.B B     e.e.B B     f e.B B     f e.B B     f e.B B .             . B B e.f     B B e.f     B B e.f     B B e.e.    B B e.f ",
"e.e.B B     e.e.B B     f e.B B     f e.B B .   f e.B B .             . B B e.f     B B e.f     B B e.f     B B e.f     B B e.f ",
"f e.B B .   f e.B B O   d e.V B O   s e.V B %   p e.D B 3             3 B D e.p   O B V e.s   O B C e.d   O B V e.s   O B C e.d ",
"s e.V B O   s e.L B %   p e.Z B *   u e.E B 4   w e. .B x .         . x B  .e.w   4 B E e.u   * B Z e.p   % B L e.a   O B V e.s ",
"i e.D B *   u e.E B 3   y e.c B 6   w e.v B g   @ e.e.Z B x 3 . . 3 x B Z e.e.@   g B v e.w   6 B c e.y   3 B E e.u   * B D e.i ",
"y e.c B 6   w e.b B 8   2 e. .B h   - e.<.B B O   w e.<.Z B B B B B B Z <.e.w   O B B <.e.-   h B  .e.2   8 B b e.w   6 B c e.y ",
"q e.v B 0   < e.$.B j   $ e.&.B N .   a e.c B h     y e.e. .D B B D  .e.e.u     h B c e.a   . N B &.e.$   j B $.e.<   0 B v e.q ",
"> e.~ B l   @ e.<.B N     s e.D B 5   , e.<.B B 7     w e.e.e.e.e.e.e.e.w     7 B B <.e.,   5 B D e.s     N B <.e.@   l B ~ e.> ",
"X e.e.B B .   s e.D B 4   q e.$.B x     u e.$.B B 6     @ w p e.f p w @     6 B B $.e.i     x B $.e.q   4 B D e.s   . B B i.e.X ",
"  p e.D B 4   w e. .B j   X f e.L B 7   @ f e. .B B h O                 O h B B  .e.f @   7 B Z e.f X   j B  .e.w   4 B D e.p   ",
"  w e. .B j   # e.<.B B &   w e.~ B N &   ; f e.~ B B B g 4 O     O 4 g B B B $.e.f ;   & N B ~ e.w   & B B <.e.#   j B  .e.w   ",
"  $ e.<.B B O   u e.n B h   X d e.c B m O   ; f e.<.c B B B B B B B B B B c <.e.f ;   O x B c e.d X   h B n e.u   O B B <.e.$   ",
".   p e.E B 8   ; e.<.B B =   > e.e.D B z O   @ i e.e.<.v E V B B V E v &.e.e.i @   O z B D e.e.>   = B B <.e.;   8 B E e.a   . ",
"5   1 e.] B M .   u e. .B m .   w e.<.L B x &     , a e.e.e.e.e.e.e.e.e.e.a ,     & m B L <.e.w   . x B  .e.u   . M B ] e.1   6 ",
"z     d e.D B 8   $ e.e.Z B h     y e.<.D B N 7       - w u s f f s u w -       8 B B D <.e.y     h B Z e.e.$   8 B D e.d     z ",
"B 3   q e.] B N O   w e.&.B B 8     y e.e.n B B x 5 .                     . 5 x B B n e.e.y     8 B B 4.e.w   O N B ~ e.q   = B ",
"B l   . s e.E B j     p e.~ B B 6     w e.e.~ L B B N h 6 & O     O & 6 h N B B L ~ e.e.w     6 B B ~ e.p     h B E e.s X   l B ",
"C B =   , e.<.B B 5   @ d e. .B B 8     > d e.e.$.D B B B B B B B B B B B B D $.e.e.d >     8 B B  .e.f @   5 B B <.e.,   = B C ",
" .B x     u e.$.B N &   $ f e.{ B B h .   X w f e.e.<. .c Z V B B V Z c  .<.e.e.f w X   . g B B { e.f $   & N B $.e.u     x B  .",
"e.Z B 8   @ f e.n B m O   ; f e.~ B B x =     X q s e.e.e.e.e.e.e.e.e.e.e.e.s q X     = x B B ~ e.f ;   O m B b e.f @   8 B Z e.",
"e.] B B &   > e.e.J B m O   - d e.&.Z B B h &       $ 2 y p d f f d p y 2 $       & h B B Z 4.e.d -   O x B D e.e.>   & B B ] e.",
"s e.n B m .   w e.<.Z B x O   @ p e.e.v B B B j 4                             4 j B B B v e.e.p @   O x B Z <.e.w   . m B n e.s ",
": e.e.Z B h     t e.<.Z B M &     w e.e.<.b B B B N j 8 3 % .     . % 3 8 j N B B B b <.e.e.w     & M B Z <.e.t     h B Z e.e.: ",
"  t e.4.B B 9     y e.e.J B N 6     $ u e.e.<. .D B B B B B B B B B B B B B B D  .<.e.e.u $     6 N B D <.e.y     9 B B 4.e.t   ",
"    p e.] B B 7     t e.e.b B B j O     ; u e.e.e.<.$.b E L C B B C L E b $.<.e.e.e.u ;     O j B B n e.e.t     7 B B ] e.p     ",
"5   @ s e.$.B B 7     w e.e.$.B B N 8 .     @ w s e.e.e.e.e.e.e.e.e.e.e.e.e.e.s w @     . 8 N B B $.e.e.w     7 B B $.e.s @   5 ",
"B *   $ f e.$.B B 9     > f e.<.c B B M 8 O       @ < w u a d f f d a u w < @       O 8 M B B c <.e.f >     9 B B $.e.f $   * N ",
"B M O   - f e.$.B B h .   @ u e.e.] D B B B j 3 .                             . 3 j B B B D ] e.e.u @   . h B B $.e.f -   O M B ",
"E B x O   - f e.~ B B x &     , d e.e.] E B B B B l 0 5 * O .     . O * 5 0 l B B B B E ] e.e.d ,     & x B B ~ e.f -   O x B E ",
"e.D B x O   $ s e.4.Z B B 8     . q d e.e.<. .D B B B B B B B B B B B B B B B B D  .<.e.e.d q .     8 B B Z 4.e.s $   O x B D e.",
"e.<.Z B m %   + p e.e.n B B x =       1 p e.e.e.e.~ v c D V C B B C V D c v ~ e.e.e.e.p 1       = x B B n e.e.p +   % m B Z <.e.",
"y e.i.J B M *     t e.e.] L B B k *       $ w a e.e.e.e.e.e.e.e.e.e.e.e.e.e.e.e.a w $       * k B B L ] e.e.t     * M B J i.e.y ",
"  y e.e.E B B 6     > s e.e. .B B B z 5 .       X : q t i s f e.f d a i t q : X       . 5 z B B B  .e.e.s >     6 B B E e.e.y   "
};
