/* XPM */
static char *vortice1[] = {
/* columns rows colors chars-per-pixel */
"64 64 132 2 ",
"   c #010000",
".  c #0B0000",
"X  c #0C000B",
"o  c #100000",
"O  c #1A0000",
"+  c #11000F",
"@  c #130011",
"#  c #190017",
"$  c #1D001A",
"%  c #240000",
"&  c #2B0000",
"*  c #330000",
"=  c #3D0000",
"-  c #22001F",
";  c #250022",
":  c #2A0026",
">  c #2D0029",
",  c #3B0036",
"<  c #3E0039",
"1  c #440000",
"2  c #4D0000",
"3  c #560000",
"4  c #5C0000",
"5  c #620000",
"6  c #740000",
"7  c #7B0000",
"8  c #43003E",
"9  c #460040",
"0  c #4B0045",
"q  c #4F0048",
"w  c #52004B",
"e  c #570050",
"r  c #5B0053",
"t  c #65005C",
"y  c #68005F",
"u  c #6B0062",
"i  c #700066",
"p  c #74006A",
"a  c #78006E",
"s  c #7D0072",
"d  c #840000",
"f  c #8D0000",
"g  c #920000",
"h  c #9C0000",
"j  c #A40000",
"k  c #A90000",
"l  c #BC0000",
"z  c #BC002C",
"x  c #AE003F",
"c  c #B50035",
"v  c #B80031",
"b  c #B2003A",
"n  c #C40000",
"m  c #CC0000",
"M  c #D30000",
"N  c #DD0001",
"B  c #D2000F",
"V  c #D3000E",
"C  c #D5000C",
"Z  c #D4000D",
"A  c #D4000E",
"S  c #D6000B",
"D  c #D80008",
"F  c #D80008",
"G  c #CF0014",
"H  c #CE0015",
"J  c #CD0016",
"K  c #CC0017",
"L  c #CE0015",
"P  c #C6001F",
"I  c #CB0018",
"U  c #C9001B",
"Y  c #CA001A",
"T  c #C8001C",
"R  c #C9001C",
"E  c #CA001A",
"W  c #D00013",
"Q  c #D10011",
"!  c #C30023",
"~  c #C50020",
"^  c #C40022",
"/  c #C00026",
"(  c #C10026",
")  c #C00027",
"_  c #C20025",
"`  c #9F0051",
"'  c #9D0054",
"]  c #9C0055",
"[  c #9D0055",
"{  c #97005C",
"}  c #96005D",
"|  c #95005E",
" . c #94005F",
".. c #95005E",
"X. c #990059",
"o. c #9A0058",
"O. c #990059",
"+. c #A70047",
"@. c #AC0041",
"#. c #AB0042",
"$. c #A60048",
"%. c #A5004A",
"&. c #A1004E",
"*. c #A1004F",
"=. c #A3004C",
"-. c #A00050",
";. c #A00051",
":. c #A00050",
">. c #8F0066",
",. c #8E0067",
"<. c #8F0067",
"1. c #8F0067",
"2. c #8E0068",
"3. c #8C006A",
"4. c #89006E",
"5. c #8C006B",
"6. c #920062",
"7. c #930062",
"8. c #900065",
"9. c #910063",
"0. c #870071",
"q. c #850073",
"w. c #860072",
"e. c #830075",
"r. c #810077",
"t. c #830076",
"y. c #820077",
"u. c #840074",
"i. c #850074",
"p. c #820077",
"a. c #880070",
"s. c #880070",
/* pixels */
"u.( N M 1     w u.u.] S N N 7 o     # w s u.u.u.2.;.x z T S N N N N S T z x ;.2.u.u.u.s w #     o 7 N N S ;.y.y.w     1 M N ( u.",
"( N M *   X t u.u.z N N j %     - t u.u.u.| c W N N N N N N N N N N N N N N N N W c | u.u.u.t -     % j N N z u.y.t X   * M N ( ",
"N m &   + i u.2.J N M 4     @ r u.u.u.@.J N N N M h 6 2 * O .     . O & 2 6 h M N N N J @.u.u.u.r @     4 M N J 2.u.i +   & m N ",
"M *   @ p u.| S N l %     8 s u.a.b D N N n 7 *                                 * 7 n N N D b a.u.s 8     % l N S | u.p @   * M ",
"1   @ p u.o.N N j .   @ t u.u.%.S N N k 1         # , w t p s u.u.s p t w , #         1 j N N S %.y.u.t @   . j N N o.u.p @   1 ",
"  X i u.o.N N f     : s u.,.T N N j *       > r s u.u.u.u.u.u.u.u.u.u.u.u.y.u.s r >       * j N N T ,.u.s :     f N N o.u.i X   ",
"  t y.| N N d     < u.u.%.D N m 2     X 8 a u.u.u.6.%.c ( S N N N N S ( v %.6.y.u.u.a 8 X     2 n N N %.u.u.<     d N N | u.t   ",
"q u.2.S N g     9 u.u.c N N g .     8 s u.u.6.c S N N N N N N N N N N N N N N S c 6.u.u.s 8     . g N N c u.u.9     g N S ,.u.w ",
"u.u.J N j     9 u.u.z N N 4     ; p u.u.] T N N N m g 5 = % o     o % = 5 g m N N N T ] u.u.p ;     4 N N z u.u.8     j N J u.u.",
"u.z N l .   < u.u.( N M =     9 u.u.| T N N m 7 &                             & 7 m N N T | u.u.9     * m N ( u.u.,   . l N z u.",
";.N M %   : u.u.z N m &   X u u.u.c N N m 5 .       ; 8 r u a s s a u r 8 ;       . 4 n N N c u.u.u X   & m N z u.u.:   % M N ;.",
"S N 4   @ s u.b N M &   @ p u.,.J N N 7 .     ; w s u.u.u.u.u.u.u.u.u.u.u.u.s w ;     . 7 N N J ,.u.p @   & M N c u.s @   4 N S ",
"N k     y u.;.N N =   @ p u.| D N l &     : u u.u.u.| x ( J D N N D J ( x | u.y.u.u :     & l N D | u.p @   = N N %.y.u     k N ",
"N %   8 u.,.N N 4   X p u.] N N h .   @ r u.u.2.b S N N N N N N N N N N N N S b 2.u.u.r @   . h N N ] u.p X   4 N N 2.y.8   % N ",
"7   @ s u.T N g     u u.| N N d     > s u.2.v N N N n d 2 & o     o & 2 d n N N N v 2.u.s >     d N N | u.u     g N T y.s @   7 ",
"o   r u.%.N n .   9 u.,.S N d     8 u.u.%.S N N g *                         * g N N S %.u.u.8     d N D ,.u.9   . n N %.u.r   . ",
"  # u.a.S N 1   : u.u.J N h     9 u.u.v N N j %       > 9 t p s s p t 9 >       % j N N v u.u.9     h N J u.u.:   1 N S a.u.#   ",
"  r u.b N j     p u.c N l .   9 u.u.( N M 4     @ q s u.u.u.y.u.u.u.u.u.u.s q @     4 M N ( u.u.8   . l N c u.p     j N b u.r   ",
"# u.u.D N *   8 u.| N N &   > y.u.( N m &     9 s u.u.o.b T S N N S T c o.y.y.s 9     & m N ( u.u.>   & N N | u.8   * N D u.u.# ",
"w u.@.N k   X s u.T N 7   @ s u.v N m %   @ u y.u.%.W N N N N N N N N N N W %.u.u.u @   % m N v u.s @   6 N T u.s X   k N @.u.9 ",
"s y.W N 1   8 u.] N n .   r u.%.N M *   # p u.2.T N N n 6 = O   . % = 6 n N N T 2.u.p #   * M N %.u.r   . n N ] u.8   1 N W y.a ",
"u.| N m     a u.T N 4   : u.2.S N 3   @ p u.o.S N n 2                     2 n N S o.y.p @   3 N D 2.u.:   4 N T u.a     m N | u.",
"u.c N 7   : u.6.N m .   u u.v N j     u u.] N N h .     > w p s s u w >     . g N N ] u.u     j N v u.u   . m N 6.u.:   7 N c u.",
"u.W N *   r u.c N 7   ; u.2.N N %   9 u.6.N N 7     : i u.u.u.u.u.u.u.u.i :     7 N N 6.y.9   % N N 2.u.;   7 N c u.r   * N W u.",
"2.N M     s u.S N &   w u.b N g   @ s u.T N g     9 u.u.6.c W N N J c 6.u.u.9     g N T u.s @   g N b u.w   & N S u.s     M N 2.",
";.N h   # u.6.N m     s u.S N *   q u.%.N n .   9 u.u.c N N N N N N N N v u.u.9   . n N %.u.w   * N S u.s     n N 6.u.#   h N %.",
"b N 6   , u.+.N g   ; u.| N n     s u.W N 2   : u.u.( N N 7 * . . * 7 N N P u.u.:   2 N W y.s     l N | u.;   f N %.y.,   6 N b ",
"( N 2   q u.v N 5   8 u.x N d   > u.o.N n     p u.v N n &             & n N c u.p     n N o.u.>   d N x y.8   5 N v u.q   2 N ( ",
"T N &   t u.T N =   r u.( N 2   q u.c N 6   > u.6.N N &   @ r s s r @   & N N 6.u.>   6 N c u.q   2 N ( u.r   1 N P u.t   & N T ",
"S N o   p u.S N O   u u.J N &   t u.T N =   e u.c N 7   @ s u.u.u.u.s @   7 N c u.r   = N T u.t   & N J u.u   O N S u.p   O N S ",
"N N .   s u.N N .   a u.S N o   a u.S N O   p u.W N *   e u.u.u.u.u.u.r   * N W u.p   O N S u.a   o N S y.a   . N N u.s   . N S ",
"N N     u.y.N N     s u.N N     s y.N N     s u.N N     s u.u.u.u.u.u.s     N N u.s     N N u.s     N N u.s     N N u.u.    N N ",
"N N     u.u.N N     s u.N N     s u.N N     s u.N N     s u.u.u.u.u.u.s   . N N u.s     N N u.s     N N u.s     N N u.s     N N ",
"N N .   s u.N N .   a u.S N o   a y.S N O   u u.W N *   r u.u.u.u.u.u.e   * N J u.p   O N S u.a   o N S u.a   o N S u.a   o N S ",
"S N O   p u.W N O   u u.J N &   t u.T N =   e u.c N 7   @ s u.u.y.y.s @   7 N c u.r   = N T u.t   & N J u.u   O N W u.p   O N S ",
"T N &   t y.T N =   r y.( N 2   q u.c N 6   > u.6.N N &   @ r s s e @   & N N 6.u.>   6 N c u.q   2 N ( u.r   1 N T u.t   & N T ",
"( N 2   q u.v N 5   8 u.x N d   > u.o.N n     p u.v N n &             & n N v u.p     n N o.y.>   d N @.u.8   5 N v u.q   2 N ( ",
"b N 6   , u.@.N g   ; u.| N n     s u.W N 2   > u.u.( N N 7 & . . & 7 N N P u.u.>   2 N W u.s     n N | u.;   f N +.u.,   6 N b ",
"%.N h   # u.6.N m     s u.S N *   w u.%.N n .   9 u.u.c N N N N N N N N v u.u.9   . n N %.u.w   * N S u.s     n N 6.u.#   h N ;.",
"2.N M     s u.S N &   w u.b N g   @ s u.T N g     9 u.u.6.c W N N J c 6.u.u.9     g N T u.s @   g N b u.w   & N S u.s     M N 2.",
"u.W N *   r u.c N 7   ; u.2.N N %   9 u.6.N N 7     : i u.u.u.y.u.u.u.u.i :     7 N N 6.u.9   % N N 2.y.;   7 N c u.r   * N W y.",
"u.c N 7   : u.6.N m .   u u.v N j     u u.] N N h .     > r p s s p r >     . g N N ] u.u     j N v u.u   . m N 6.u.:   7 N c y.",
"u.| N m     a u.T N 4   : u.2.S N 3   @ p u.] N N n 2                     2 n N N ] u.p @   3 N S 2.u.:   4 N T u.a     m N | y.",
"s u.W N 1   8 u.] N n .   r u.%.N M *   # p u.6.T N N n 6 = O     O = 6 n N N T 6.u.p #   * M N %.u.r   . n N ] u.8   1 N W y.s ",
"w u.@.N k   X s u.T N 7   @ s u.v N m %   @ u u.u.%.W N N N N N N N N N N W %.u.y.u @   % m N v u.s @   6 N T u.s X   k N @.u.q ",
"# u.u.D N *   8 u.| N N &   > y.u.( N m &     9 s u.u.o.c T S N N S T c o.u.u.s 9     & m N ( u.u.>   & N N | u.8   * N D u.u.# ",
"  r u.b N j     p u.c N l .   9 u.u.( N M 4     @ q s u.u.u.u.u.u.u.u.y.u.s w @     4 M N ( u.u.8   . l N c u.p     j N b u.r   ",
"  # u.a.S N 1   : u.u.J N h     9 u.u.v N N j %       > 9 t p s s p t 9 >       % j N N v u.u.9     h N J u.u.:   1 N S 2.u.#   ",
".   r u.%.N n .   w u.,.D N d     8 u.u.%.S N N g *                         * g N N S %.y.y.8     d N N 6.u.w   . n N %.y.r   . ",
"7   @ s u.T N g     u u.| N N d     > s u.2.v N N N n d 2 & o     o & 2 d n N N N v 2.u.s >     d N N | u.u     g N T u.s @   7 ",
"N %   8 u.,.N N 4   X p u.] N N h .   @ r y.u.2.b S N N N N N N N N N N N N S b 2.u.u.r @   . g N N ] u.p X   4 N N ,.u.8   % N ",
"N k     u u.%.N N =   @ p u.o.D N l &     > u u.u.u.| x ( J D N N D J ) x | u.u.u.u :     & l N D o.u.p @   * N N %.u.u     k N ",
"S N 4   @ s u.c N m %   @ p y.,.J N N 6       ; w s u.u.u.u.u.u.u.u.u.y.u.u.s w ;     . 6 N N J ,.u.p @   % m N c u.s @   4 N S ",
";.N M %   : y.y.z N m &   X u y.u.c N N n 5 .       ; 8 r u a s s a u r 8 ;       . 4 n N N c u.u.u X   % m N z u.u.:   % M N ;.",
"u.z N l .   < u.u.( N M =     9 u.u.| T N N m 7 &                             & 7 m N N T | u.u.9     * m N ( u.u.<   . l N z u.",
"u.u.J N j     9 u.u.z N N 4     ; p u.u.] T N N N m g 5 = % .     . % = 5 g m N N N T ] u.u.p ;     4 N N z u.u.9     j N J u.u.",
"w u.,.S N g     9 y.y.c N N g .     8 s u.u.6.c S N N N N N N N N N N N N N N S c 6.u.u.s 8     . g N N c u.u.9     g N S ,.u.w ",
"  t u.| N N d     < y.u.%.N N m 2     X 8 a u.u.u.6.%.v P W D N N D W ( v +.6.u.u.y.a 8 X     2 m N N %.u.u.<     d N N | u.t   ",
"  X i u.o.N N f     : s u.,.T N N j *       : r s y.u.y.u.u.u.u.u.u.u.u.u.u.u.s r :       * j N N T ,.y.s :     f N N o.u.i X   ",
"1   @ p u.o.N N j .   @ t u.u.%.S N N j 1         # , w t p s u.s a i t w , #         1 j N N S %.y.y.t @   . j N N o.y.p @   1 ",
"M *   @ p u.| S N l %     8 s u.a.b D N N n 7 *                                 * 7 n N N D b a.u.u.8     % l N S | u.p @   * M ",
"N m &   X u u.2.J N M 4     @ r u.u.u.@.J N N N M h 6 2 & O .     . O & 2 6 h M N N N J @.u.u.u.r @     4 M N J 2.u.u X   & m N ",
"( N M *   X t u.u.z N N j %     - t u.u.u.| c W N N N N N N N N N N N N N N N N W c | u.u.u.t -     % j N N z u.y.t X   * M N ( ",
"u.( N M 1     9 u.u.%.S N N 7 .     # w s u.u.u.2.;.b z T S N N N D W T z b ;.2.u.u.u.s w #     . 7 N N S %.u.u.9     1 M N ( u."
};
