/* XPM */
static char *porta6[] = {
/* columns rows colors chars-per-pixel */
"64 64 220 2 ",
"   c None",
".  c #100000",
"X  c #1C120C",
"o  c #270B00",
"O  c #2A1101",
"+  c #22150B",
"@  c #2B1B0E",
"#  c #311400",
"$  c #331903",
"%  c #3C1D05",
"&  c #381B0A",
"*  c #37230B",
"=  c #3A2718",
"-  c #492409",
";  c #46270A",
":  c #542C0D",
">  c #5B320F",
",  c #4D2D12",
"<  c #472A19",
"1  c #592F11",
"2  c #42301E",
"3  c #543112",
"4  c #5D3414",
"5  c #5C361A",
"6  c #5D391B",
"7  c #55361C",
"8  c #633615",
"9  c #693714",
"0  c #653916",
"q  c #6A3A15",
"w  c #643B1B",
"e  c #6B3D1A",
"r  c #723D16",
"t  c #733E19",
"y  c #793D15",
"u  c #4C392B",
"i  c #563624",
"p  c #573A26",
"a  c #493F30",
"s  c #683E21",
"d  c #653E24",
"f  c #6D411D",
"g  c #74421C",
"h  c #7C451D",
"j  c #7A491E",
"k  c #7A4317",
"l  c #5B4927",
"z  c #544029",
"x  c #5E4430",
"c  c #664221",
"v  c #6B4223",
"b  c #664129",
"n  c #69492C",
"m  c #734523",
"M  c #794722",
"N  c #764924",
"B  c #7B4A24",
"V  c #724729",
"C  c #734A2C",
"Z  c #7B4C2B",
"A  c #7D522C",
"S  c #79512A",
"D  c #604933",
"F  c #764D32",
"G  c #784E32",
"H  c #7C5132",
"J  c #76583C",
"K  c #695637",
"L  c #6A5847",
"P  c #7B654A",
"I  c #85471D",
"U  c #844B1F",
"Y  c #894C1E",
"T  c #814217",
"R  c #8D501D",
"E  c #834B24",
"W  c #8A4D21",
"Q  c #824E2B",
"!  c #825027",
"~  c #8A5226",
"^  c #85532B",
"/  c #8B532B",
"(  c #8C592F",
")  c #945424",
"_  c #92562C",
"`  c #935A2D",
"'  c #9C5C2D",
"]  c #995526",
"[  c #835434",
"{  c #8C5632",
"}  c #875935",
"|  c #8D5B34",
" . c #85593A",
".. c #8D5B39",
"X. c #915732",
"o. c #945B33",
"O. c #9A5D33",
"+. c #945E3A",
"@. c #9A5F38",
"#. c #8B683D",
"$. c #926137",
"%. c #9B6135",
"&. c #95623B",
"*. c #9C643B",
"=. c #986A3D",
"-. c #A0612F",
";. c #A36435",
":. c #A1663B",
">. c #A46B3D",
",. c #AE6B3B",
"<. c #A56937",
"1. c #AD703F",
"2. c #B76F3A",
"3. c #C2773E",
"4. c #816144",
"5. c #946242",
"6. c #9F6741",
"7. c #9C6C4A",
"8. c #936B49",
"9. c #91764E",
"0. c #997448",
"q. c #926F52",
"w. c #8D7250",
"e. c #947950",
"r. c #997E56",
"t. c #A36C43",
"y. c #A96D45",
"u. c #A36D48",
"i. c #A06743",
"p. c #A67144",
"a. c #AB7245",
"s. c #AC754B",
"d. c #AE794C",
"f. c #A4724D",
"g. c #B27443",
"h. c #B47846",
"j. c #B2754C",
"k. c #B27B4B",
"l. c #BA7C4C",
"z. c #BA7946",
"x. c #AD7B52",
"c. c #A77753",
"v. c #B37C53",
"b. c #BD7F54",
"n. c #9B7D60",
"m. c #C27B47",
"M. c #9F855A",
"N. c #A08355",
"B. c #A38459",
"V. c #A4885B",
"C. c #AB8B5D",
"Z. c #BC8254",
"A. c #B5825A",
"S. c #BC835A",
"D. c #B78B5D",
"F. c #B7915E",
"G. c #9E8160",
"H. c #A38562",
"J. c #A88E61",
"K. c #A88762",
"L. c #BC8A63",
"P. c #B58C66",
"I. c #AB9165",
"U. c #BE926B",
"Y. c #B6976A",
"T. c #CD844C",
"R. c #D78A4E",
"E. c #C28453",
"W. c #CA8753",
"Q. c #CC8A55",
"!. c #C3865A",
"~. c #C48B5C",
"^. c #C98D5B",
"/. c #C18855",
"(. c #D48E55",
"). c #D58E59",
"_. c #CD925E",
"`. c #D8945B",
"'. c #CA8F62",
"]. c #C18B63",
"[. c #C49365",
"{. c #CB9263",
"}. c #C29C6B",
"|. c #C9986C",
" X c #D29464",
".X c #D39865",
"XX c #DC9B67",
"oX c #D3966A",
"OX c #D39A6D",
"+X c #DC9C6A",
"@X c #C59E71",
"#X c #CC9B71",
"$X c #D99F71",
"%X c #E79E68",
"&X c #F19F64",
"*X c #DCA16E",
"=X c #CFA373",
"-X c #DBA274",
";X c #D8A777",
":X c #EBA46E",
">X c #E7A469",
",X c #FCAC6F",
"<X c #E4A673",
"1X c #EBA875",
"2X c #E4AB7A",
"3X c #E8AA7A",
"4X c #FAAD76",
"5X c #F3AD7B",
"6X c #F4AD75",
"7X c #EBB27F",
"8X c #FDB479",
"9X c #DFAE89",
"0X c #E4AD82",
"qX c #EEB485",
"wX c #F3BA8A",
"eX c #F7B887",
"rX c #EFC893",
"tX c #FBC293",
"yX c #FDCA9B",
"uX c #F7C190",
/* pixels */
"                                                                                                qX9Xq.L L J !.5X*X{.-X7XwX0XyXyX",
"                                                                                                3X0Xq.x p J A.1X:X<X+X+X3X3XtXtX",
"                                                                                                <X<X7.i z D 0.+X`.). XXX.X*XwXwX",
"                                                                                                 X X8.u a u [ (.(.z.E.XXXX+XqXyX",
"                                                                                                ^.!.f.[ [ [ O.3.`.Q.W.:X6X+X7XtX",
"                                                                                                 X^.Z.W.R.R.T.,.l.Q.T.`.>X^.-XwX",
"                                                                                                -XOX-XqX%X).+XoX{. XXX%X1X<XwXtX",
"                                                                                                 X-X#XL.}.$X:X4XeXeX5X1X7XqXwXuX",
"                                                                                                S.v.L.U.#X3X4X,X8X,X&X&X:X6X4X8X",
"                                                                                                !.v.=XrX;X#X;X;X#X[.[.D.[.$X{.~.",
"                                                                                                E.OXc.7 2 = = @ + X + + X a 2 O ",
"                                                                                                ^.+XZ.[ F n b p i 2 i i < P 4.C ",
"                                                                                                _.{.'. XoX{.~.'.oXc.c.S.l.U.;X:X",
"                                                                                                Q.~.Z.Z.S.S.v.d.S.7. .+.1.P.#XXX",
"                                                                                                E.Z.Z.b.S.{.].x.c.5...o.%.K.#X+X",
"                                                                                                s.s.s.t.S.OX{.v.7.7.t.:.+.n.@XXX",
"                                                                                                t.s.*.t.~.{.Z.p.5.[ } *.6.G.}. X",
"                                                                                                s.v.j.a.b.l.t.} H b C *.y.H.P.~.",
"                                                                                                *.j.k.t.y.t.+.C b d H *.y.H.Y.{.",
"                                                                                                +.y.s.&.+.&...C v C | o.*.H.@X{.",
"                                                                                                &.t.a.{ [ &.&.Z F [ H Z Q H.@X^.",
"                                                                                                >.a.t.{ { o.+.Z G [ [ Q E K.@X{.",
"                                                                                                *.a.a.O.o.o.o.[ C [ >.:.o.I.}.~.",
"                                                                                                @.s.v.+.{ ..o...H &.l.g.O.Y.@XE.",
"                                                                                                :.x.f.{ | { o.+.[ +.g.h.%.Y.}.a.",
"                                                                                                6.u.*.o.o.| %.*.~ ~ O.:.o.I.}.g.",
"                                                                                                *.u.t.o.] o.*.*.%.,.,.,.~ r.#X`.",
"                                                                                                *.s.i.` ;.*.o.o.-.2.m.;.M e.}.).",
"                                                                                                *.s.t.o.%.o.~ o.o.O.%.^ g B.Y.E.",
"                                                                                                >.s.t.| [ A n 7 6 s m Z E C.F.l.",
"                                                                                                z.l.t...F b i < 5 v Z Q ^ B.D.k.",
"                                                                                                l.l.t.[ F C Z Z E M Z Q ^ r.V.s.",
"                                                                                                g.g.*.Q Z Z Z ~ ] ^ B E ~ e.J.A.",
"                                                                                                ' ;.{ m C Z o.' ~ ~ ~ ~ ~ 9.I.].",
"                                                                                                X.~ V d w v Q ^ B Q ] ' ` 9.J.S.",
"                                                                                                O.o.V v w 5 6 w m m ] ;.' w.V.A.",
"                                                                                                O.X.C v s w w e m B O.O.~ P M.L.",
"                                                                                                ~ Q v m m s f m m ~ O.~ e K N.A.",
"                                                                                                ^ ^ ~ | m 5 M ~ ~ ] ] E w D N.d.",
"                                                                                                ` o.*.[ w 5 ^ ` j B m e 5 l 0.t.",
"                                                                                                ^ Q Z w 8 B { m q g g e 3 l #.*.",
"                                                                                                ! m v m E ) ] Y Y W W h , z #.>.",
"                                                                                                ~ h t W ) ] ' ' ) ~ E g : , 0.s.",
"                                                                                                ~ h r h I ) ' ` E k U h 9 C x.a.",
"                                                                                                B h r 8 q U ] E 0 r T I %.d.k.>.",
"                                                                                                B h t e q h E h q r W :.a.a.>.*.",
"                                                                                                g q 9 g g E B g r E a.k.%.%.>.%.",
"                                                                                                r 8 e M E E M q ( k.a.| *.t.>.a.",
"                                                                                                B m N B m g B *.v.t.| | &.*.p.p.",
"                                                                                                Z Z Z B e 1 w [ H C [ | &.a.t.6 ",
"                                                                                                S Q Q m 4 - - % # $ % w 5.&.7 $ ",
"                                                                                                ! ^ E ^ [ A [ Z N w 6 v H v n #.",
"                                                                                                B h h >.l.s.s.a.s.d.*.$.$.| t.p.",
"                                                                                                f q e >.z.d.k.k.d.k.a.h.l.l.k.t.",
"                                                                                                w 4 q >.k.d.Z./.~.~.~.^.^._.~.k.",
"                                                                                                w f g ^ ^ N Z ! A N A ^ N c S A ",
"                                                                                                g j g > - ; # # O o O $ O . * , ",
"                                                                                                g j g 8 : : - % # O O $ % $ * 3 ",
"                                                                                                M N f e w 0 e w w 6 w c v m e N ",
"                                                                                                B N g f 0 4 e h ` %.o.B 0 e g | ",
"                                                                                                B B m e 8 4 e g ) <.~ w 4 > f $.",
"                                                                                                B B f f e 0 f g h B 4 ; , : 0 ^ ",
"                                                                                                m N w w w 8 0 h B g e 0 r t 0 Z ",
"                                                                                                c f 0 4 4 4 8 y Y U I Y R W h ^ "
};
