/* XPM */
static char *porta7[] = {
/* columns rows colors chars-per-pixel */
"64 64 167 2 ",
"   c None",
".  c #2B1B0E",
"X  c #321600",
"o  c #3D1D04",
"O  c #352316",
"+  c #3E2B1A",
"@  c #402006",
"#  c #492707",
"$  c #492409",
"%  c #552C0C",
"&  c #5C310E",
"*  c #472712",
"=  c #452E1C",
"-  c #592F11",
";  c #5D3414",
":  c #56341A",
">  c #5D3619",
",  c #54391E",
"<  c #5E381A",
"1  c #633615",
"2  c #683714",
"3  c #653917",
"4  c #6A3A16",
"5  c #643B1B",
"6  c #6B3D1A",
"7  c #723D16",
"8  c #793D15",
"9  c #753E19",
"0  c #4B3626",
"q  c #4C3A2E",
"w  c #573723",
"e  c #533923",
"r  c #5B3924",
"t  c #5A3E2D",
"y  c #663C21",
"u  c #683E21",
"i  c #6D411D",
"p  c #74421C",
"a  c #7B451D",
"s  c #784A1F",
"d  c #55402E",
"f  c #5E4430",
"g  c #664121",
"h  c #6D4223",
"j  c #65412A",
"k  c #6C462B",
"l  c #744523",
"z  c #794721",
"x  c #764923",
"c  c #7B4924",
"v  c #724729",
"b  c #744A2C",
"n  c #7B4C2B",
"m  c #7C5027",
"M  c #7D512F",
"N  c #604933",
"B  c #754D32",
"V  c #715339",
"C  c #7B5C3F",
"Z  c #6F5B4A",
"A  c #655444",
"S  c #86471C",
"D  c #874B1F",
"F  c #884B1F",
"G  c #844B23",
"H  c #894C21",
"J  c #824E2A",
"K  c #825027",
"L  c #8A5226",
"P  c #85522A",
"I  c #8C542D",
"U  c #955423",
"Y  c #995320",
"T  c #93562B",
"R  c #98572B",
"E  c #93592D",
"W  c #9C5B2C",
"Q  c #835534",
"!  c #8C5632",
"~  c #875936",
"^  c #8E5A34",
"/  c #875939",
"(  c #8E5C39",
")  c #915732",
"_  c #945B33",
"`  c #9A5D34",
"'  c #945F3A",
"]  c #9A5F38",
"[  c #9D6135",
"{  c #95613C",
"}  c #9C633B",
"|  c #9D683F",
" . c #A36436",
".. c #A56A3B",
"X. c #AF6A3B",
"o. c #C2773E",
"O. c #9F6740",
"+. c #936B49",
"@. c #986E49",
"#. c #9D724D",
"$. c #926F52",
"%. c #A06743",
"&. c #A46B43",
"*. c #A96F46",
"=. c #A36D48",
"-. c #A67047",
";. c #AC7146",
":. c #A4724D",
">. c #AB744B",
",. c #AE794B",
"<. c #B27344",
"1. c #B87544",
"2. c #BC7C47",
"3. c #B2754C",
"4. c #B47B4B",
"5. c #BA7B4C",
"6. c #AA7450",
"7. c #A67C53",
"8. c #AF7B54",
"9. c #B37C54",
"0. c #BD7F54",
"q. c #BC8254",
"w. c #B18059",
"e. c #BD8359",
"r. c #BD8A64",
"t. c #BF9068",
"y. c #CD844B",
"u. c #D5884E",
"i. c #D88B4E",
"p. c #C28553",
"a. c #CC8753",
"s. c #C18855",
"d. c #CA8B56",
"f. c #C2865B",
"g. c #C58A5C",
"h. c #C88A5B",
"j. c #D28D57",
"k. c #D58E59",
"l. c #CF905D",
"z. c #C18D63",
"x. c #CA8F62",
"c. c #CB9263",
"v. c #C6916A",
"b. c #D19464",
"n. c #D29867",
"m. c #D2966B",
"M. c #D39A6D",
"N. c #DC9C69",
"B. c #CA9A70",
"V. c #DD9F72",
"C. c #E59F6B",
"Z. c #CFA373",
"A. c #D6A675",
"S. c #D9A275",
"D. c #D8A97B",
"F. c #EFA16F",
"G. c #FCAC6F",
"H. c #E3A673",
"J. c #E9A873",
"K. c #E5AC7A",
"L. c #FAAC75",
"P. c #F0AF7D",
"I. c #DFAE89",
"U. c #E0AA81",
"Y. c #EFB68A",
"T. c #F2B584",
"R. c #EFC893",
/* pixels */
"                                                                                                                Y.I.$.Z A C f.P.",
"                                                                                                                K.U.$.f t V w.J.",
"                                                                                                                H.H.@.w d N #.N.",
"                                                                                                                b.b.+.0 q q Q j.",
"                                                                                                                h.f.:.Q Q Q ` o.",
"                                                                                                                n.h.q.a.u.i.y...",
"                                                                                                                S.M.S.T.C.k.N.m.",
"                                                                                                                n.S.B.r.v.V.F.L.",
"                                                                                                                e.9.r.t.B.K.L.G.",
"                                                                                                                f.9.Z.R.D.B.A.A.",
"                                                                                                                p.M.7., = + O . ",
"                                                                                                                h.N.q.Q B k j r ",
"                                                                                                                l.c.x.b.m.c.g.x.",
"                                                                                                                d.g.q.q.e.e.9.,.",
"                                                                                                                p.q.q.0.q.c.z.8.",
"                                                                                                                >.>.>.*.e.M.c.9.",
"                                                                                                                *.>.| *.g.c.q.-.",
"                                                                                                                >.9.>.;.0.5.*.~ ",
"                                                                                                                } 3.3.*.*.*.{ v ",
"                                                                                                                ' *.>.{ ' { ( v ",
"                                                                                                                { *.*.! Q { { n ",
"                                                                                                                ..;.*.! ! ` { n ",
"                                                                                                                } ;.;.` ) ) ) Q ",
"                                                                                                                ] >.9.) ^ ( ) ( ",
"                                                                                                                } 8.:.! ^ ! ) ' ",
"                                                                                                                O.=.} ) ) ^ [ } ",
"                                                                                                                } =.*.) R ) } } ",
"                                                                                                                } 6.%.E  .} ) ) ",
"                                                                                                                } >.*.) [ ) ! ) ",
"                                                                                                                ..>.*.^ Q M k : ",
"                                                                                                                1.5.*./ B j w * ",
"                                                                                                                5.5.*.Q B v n n ",
"                                                                                                                <.<.} J n n n I ",
"                                                                                                                R  .! v v n ) R ",
"                                                                                                                ) I v y 3 h J P ",
"                                                                                                                ` ) v h 3 > < 3 ",
"                                                                                                                ` ) v h u 3 3 6 ",
"                                                                                                                I J h v v u i v ",
"                                                                                                                P P I ^ v > z I ",
"                                                                                                                E ) } Q 3 > P E ",
"                                                                                                                P J n 3 1 c ! v ",
"                                                                                                                P v h p G U R F ",
"                                                                                                                L a 8 H U Y R R ",
"                                                                                                                L a 8 a D U R R ",
"                                                                                                                c a 8 1 4 D R G ",
"                                                                                                                c a 9 6 4 a G a ",
"                                                                                                                p 4 2 p p G c p ",
"                                                                                                                8 1 6 v G G z 4 ",
"                                                                                                                c v x c v p c } ",
"                                                                                                                n n n c 6 - 3 Q ",
"                                                                                                                m J J x ; $ $ o ",
"                                                                                                                P P G P Q M P n ",
"                                                                                                                c a a ..5.>.>.;.",
"                                                                                                                h 4 6 ..2.,.3.3.",
"                                                                                                                3 ; 4 ..3.,.q.s.",
"                                                                                                                3 i p P P x n m ",
"                                                                                                                p c p & $ @ X X ",
"                                                                                                                p s p 1 % % # o ",
"                                                                                                                z x i 6 3 3 6 3 ",
"                                                                                                                c x p i 3 ; 6 a ",
"                                                                                                                c c v 6 1 ; 6 p ",
"                                                                                                                c c i i 6 4 i p ",
"                                                                                                                v x 3 3 3 1 3 a ",
"                                                                                                                g i 3 ; ; ; 1 8 "
};
