/* XPM */
static char *porta3[] = {
/* columns rows colors chars-per-pixel */
"64 64 245 2 ",
"   c None",
".  c #110300",
"X  c #180B01",
"o  c #140C08",
"O  c #2A1101",
"+  c #26160B",
"@  c #311501",
"#  c #331A02",
"$  c #3B1C03",
"%  c #371908",
"&  c #250D00",
"*  c #3C2309",
"=  c #382616",
"-  c #392E24",
";  c #43260A",
":  c #4A250A",
">  c #442A0D",
",  c #4B2B0D",
"<  c #472305",
"1  c #542C0E",
"2  c #492B15",
"3  c #552F13",
"4  c #4A3115",
"5  c #533314",
"6  c #5C3414",
"7  c #5D391C",
"8  c #57361A",
"9  c #5B320F",
"0  c #633614",
"q  c #643917",
"w  c #6A3B16",
"e  c #643C1B",
"r  c #6B3D1A",
"t  c #693714",
"y  c #723D16",
"u  c #743E18",
"i  c #49382C",
"p  c #563925",
"a  c #493F30",
"s  c #673E22",
"d  c #411F03",
"f  c #6C411D",
"g  c #65421C",
"h  c #74421C",
"j  c #7C451D",
"k  c #7A481D",
"l  c #584528",
"z  c #5E4430",
"x  c #6B4423",
"c  c #694628",
"v  c #734523",
"b  c #744A25",
"n  c #7B4A24",
"m  c #734C2B",
"M  c #7B4C2B",
"N  c #774724",
"B  c #75522D",
"V  c #7C522D",
"C  c #79542A",
"Z  c #674B35",
"A  c #764D32",
"S  c #7C5532",
"D  c #7D5934",
"F  c #765738",
"G  c #6A5536",
"H  c #79643A",
"J  c #6E613C",
"K  c #49421D",
"L  c #6C5845",
"P  c #776648",
"I  c #71695E",
"U  c #86491D",
"Y  c #8D501D",
"T  c #834B24",
"R  c #8B4D22",
"E  c #824E2A",
"W  c #845126",
"Q  c #8A5226",
"!  c #84542C",
"~  c #8B542B",
"^  c #88582D",
"/  c #935524",
"(  c #92562C",
")  c #945A2D",
"_  c #9B5C2D",
"`  c #985826",
"'  c #825533",
"]  c #8B5632",
"[  c #845A34",
"{  c #8B5C34",
"}  c #855D39",
"|  c #8A5D3A",
" . c #945C33",
".. c #9B5D33",
"X. c #945E3A",
"o. c #935934",
"O. c #8D623B",
"+. c #896238",
"@. c #946236",
"#. c #9B6234",
"$. c #93633B",
"%. c #9B643B",
"&. c #9C6A3F",
"*. c #95693B",
"=. c #9E602C",
"-. c #A7652E",
";. c #A36333",
":. c #AA6534",
">. c #A2663B",
",. c #A46B3D",
"<. c #AC6C3B",
"1. c #AA6A37",
"2. c #B26B38",
"3. c #AC713E",
"4. c #B4713D",
"5. c #BB723C",
"6. c #A05F29",
"7. c #C2783E",
"8. c #856341",
"9. c #936441",
"0. c #9D6D43",
"q. c #9B6D4A",
"w. c #986843",
"e. c #997349",
"r. c #997953",
"t. c #907051",
"y. c #A36C43",
"u. c #AB6E43",
"i. c #A26B46",
"p. c #A57245",
"a. c #AB7244",
"s. c #A3734B",
"d. c #AC754B",
"f. c #AC794C",
"g. c #B37443",
"h. c #B37946",
"j. c #BB7A45",
"k. c #B3764A",
"l. c #B37B4D",
"z. c #BA7C4B",
"x. c #BA7644",
"c. c #AB7B52",
"v. c #A67955",
"b. c #B27D53",
"n. c #BB7E52",
"m. c #9B7D60",
"M. c #C17D4C",
"N. c #C57B45",
"B. c #9D8358",
"V. c #BD814C",
"C. c #A7845A",
"Z. c #B38256",
"A. c #BB8255",
"S. c #B4845C",
"D. c #BC845A",
"F. c #BD895C",
"G. c #B38C5B",
"H. c #B7915E",
"J. c #A78762",
"K. c #B38661",
"L. c #B68B64",
"P. c #BB8C64",
"I. c #BA8E69",
"U. c #AC9166",
"Y. c #BE926B",
"T. c #B99367",
"R. c #BE9975",
"E. c #9E8160",
"W. c #C3834C",
"Q. c #CC844B",
"!. c #CA8448",
"~. c #D4894E",
"^. c #C48452",
"/. c #CA8753",
"(. c #C58955",
"). c #CB8A55",
"_. c #C38659",
"`. c #C48C5C",
"'. c #CB8D5B",
"]. c #D38E58",
"[. c #CD915D",
"{. c #C7915E",
"}. c #D3925E",
"|. c #DA955A",
" X c #C38D61",
".X c #C98F61",
"XX c #C49365",
"oX c #CB9364",
"OX c #C3946B",
"+X c #C39B6C",
"@X c #CC9A6C",
"#X c #D29463",
"$X c #D49965",
"%X c #DB9A66",
"&X c #D39B6B",
"*X c #DC9D6A",
"=X c #D49668",
"-X c #C59C72",
";X c #CB9C73",
":X c #C49A74",
">X c #DB9F71",
",X c #E69F68",
"<X c #F19F64",
"1X c #DCA16C",
"2X c #CEA27A",
"3X c #CAA278",
"4X c #D3A275",
"5X c #DCA373",
"6X c #D3A57A",
"7X c #DAA97B",
"8X c #E3A26C",
"9X c #EBA46D",
"0X c #F8AA6C",
"qX c #E4A673",
"wX c #ECA975",
"eX c #EBAD7B",
"rX c #E6AA77",
"tX c #F4AD75",
"yX c #F2AE7B",
"uX c #F9AD74",
"iX c #EBB27E",
"pX c #F4B17C",
"aX c #FDB47A",
"sX c #FFBD7C",
"dX c #FEB374",
"fX c #FFC07D",
"gX c #D8AD86",
"hX c #DCB38D",
"jX c #DCB488",
"kX c #D0B18F",
"lX c #E7B78A",
"zX c #F3B583",
"xX c #F4BA8A",
"cX c #F8BA88",
"vX c #E9BC95",
"bX c #ECB68A",
"nX c #D8BFA2",
"mX c #FDC28B",
"MX c #ECC398",
"NX c #FCC394",
"BX c #FCCB9B",
"VX c #F7C699",
"CX c #DEC8AA",
"ZX c #F2CFA9",
"AX c #F3DCC6",
/* pixels */
"                                                bXhXt.L L F _.eX1XoX5XiXxXgXBXBXBXBXBXBXNXVXBXbXjXZXVXBXBXjXjXvX2XvXVXbXbXlXgXhX",
"                                                eXgXt.z p F Z.wX9XqX*X*XrXeXNXNXiXxXxXNXNXxXNXbXjXVXvXMXVXVXvX6XlXBXMXlXlXjXhXCX",
"                                                qXqXq.p l Z e.*X|.}.=X*X$X1XxXxXqXxXyXzXxXxXxXlXhXvX2X6XlXlX7XlXxXvXlXjXjX;XMXAX",
"                                                #X#Xq.i i i ' ].].x.^.%X%X*XzXBXxXxXwXpXmXxXzX7XkXhX6X6X6X4X;XjX6X-X-X;X;X;XvXAX",
"                                                `._.s.' ' ' ..7.|.)./.9XyX*XeXNXzXpX9XyXxXzXzX7XkXjX6XjX7X&X;X-XK.K.Y.I.K.L.kXCX",
"                                                #X`.A./.~.~.Q.<.z.).Q.|.8X`.5XxXeXwX9XyXeXeXpXeX2X6X6X6X6X6X-XY.C.v.L.P.C.F.gXCX",
"                                                5X&X5XzX,X].*X=XoX#X%X,XwXqXbXNXxXzXzXxXyXqXeXpXqX5X5X5XrXiXeX5X5X5X1X&XoX1XiXbX",
"                                                #X5X;XP.OX>X9XuXcXcXyXwXeXzXxXNXBXBXmXzXyXqXiXzXpXtXyXtXdXaXaXaXaXaXaXuX8XtXtX9X",
"                                                D.b.P.Y.;XeXuX0XdX0X<X<X9XtXuXaXmXmXmXwX8XyXaXaXdX0XaXcXsXsXsXsXfXsXsXsXdXdXdX0X",
"                                                _.b.4XMX7X;X4X4X@XXXXXF.XX&XoX`. XoXoXb.y.b.A.D.F.b.c.A.A.A.A.l.l.l.f.p.0.0.f.Z.",
"                                                ^.&Xv.8 2 = = + + + + + + i 4 O + O % = * % @ & - i X X X X . . . . . . . . = I ",
"                                                `.*XA.' A c c p p 2 p p 2 P 8.m c c M | | | ' m L P p z G Z Z Z Z G G F F Z t.kX",
"                                                [.oX.X=X=XoX`..X@Xv.v.D.M.Y.7X9X*X*X8XpXaXpXpX9X;X2XOXOX;X;X;X;X2X;X4X7X4XoXgXZX",
"                                                ).`.A.D.D.D.b.f.D.q.' X.3.L.;X%XoXoX*XwXpXqX9X>XY.R.Y.P.Y.Y.OX:X-XOXT.OXP.Z.R.CX",
"                                                ^.A.A.n.D.oX Xc.v.9.| X.#.K.;X*X=X[.*XeXzXqX*X&XL.U.L.P.Y.Y.P.Y.OXY.I.I.T.Z.R.CX",
"                                                d.d.d.y.D.&XoXb.q.q.y.>.X.m.-X%X#X$X*XqXqXqX$X.XL.L.OXOXK.K.OXZ.OX;XOXOXOXXX2XnX",
"                                                y.d.&.y._.oXA.y.9.' ' %.0.E.OX#XoXoX$X%X}.*X%XoXP.T.4X&XP.K.Z.s.I.+XZ.Y.OXXX4XhX",
"                                                d.b.l.a.n.z.y.[ S c m %.u.J.L.`.`.`.$X8X].#X*X&XT.C.XXOXOX:XOXOXOXY.r.K.Y.P.+XgX",
"                                                %.l.l.y.u.y.X.m c s S %.u.J.Y.oX.X(.}.8X}.}.].`.Z.v.P.P.@X@XZ.P.+XP.C.K.L.K.Y.gX",
"                                                X.u.d.$.X.$.| m c m { X...J.-XoX`.`.`.%X*X*X].(.b.c.`.A.&X5XF. X@XP.C.C.K.v.L.:X",
"                                                $.y.u.] ' $.$.M A ' S M E J.-X`.`.`./.].8X*X).).d.0.`.^.$X1XoXoXoXF.c.v.v.c.P.3X",
"                                                >.a.y.] ] X.X.M A ' ' E T J.3XoX#X`./.].1X#XM.`.a.X.D.A.F.{.`.`.f.c.v.r.v.s.Z.3X",
"                                                %.u.u...X.X.X.' m ^ ,.>.X.U.+X_.[.`.W./.`.`.W.).l.%.A.b.Z.F.l.d.$.e.e.q.s.s.Z.6X",
"                                                ..d.b.X.] | X.X.S $.z.g...U.-X^.`.[./.^.l.n.^./.l.,.F.Z.b.l.f.s.9.q.0.s.p.d.`.`.",
"                                                %.c.s.] { ] X.X.' X.g.g.#.T.+Xa.A.].W.^.g.l.^./.a.,.F.`.oX`.c.0.} 9.y.0.b. X`.^.",
"                                                0.i.%.X.X.{ #.%.~ ~ ..>.X.U.+Xg.`.}.M.M.l.l.^.^.g.,.A.`.eX@Xf.$.S +.%.c.XX^.W.Q.",
"                                                %.i.y.X.( X.%.%...<.4.<.~ r.@X|.8X$X/./._.z.z.z.<.,.A.F.OXs.&.0.' } c.D.z.x.W.).",
"                                                %.d.i.) ;.>.X.X.-.5.N.;.n r.+X}.%X[.W.`.#Xz.z.M.,.%.D.f.0.$.p.&.[ s.`.g.4.N.W.].",
"                                                %.d.y.X.#.X.~ X.X...#.^ h C.T.^.^.z.j.].#X`.l.z.%.#.A.y.*.s.p.s.d.A.j.4.N.Q.~.].",
"                                                ,.d.y.{ ^ V c 8 7 s v M T G.H.z._.z.M.).}.`.d.,.{ X.l.0.0.0.f. X).5.5.N.N.~.|.c.",
"                                                x.z.y.| A c p > 8 c M E ^ C.G.l.D.n.M.`.[.D.,.y.] ' d.&.0.A.`.^.g.:.5.N.Q.j.S J ",
"                                                z.z.y.' A m M n n n M E ^ r.C.d.D.l.g.^.`.n.>.y.{ X.a.s.F.`.W.x.4.4.N.M.d.q > P ",
"                                                g.g.%.E M M M ~ ( ^ n T ~ r.J.Z.D.l.g.A.D.A.;.>.X.#.V.`.l...:.5.2.2.4.X.8 * c B.",
"                                                ) ;.] v m M X.) Q ~ ~ ~ ~ t.U.P.D.l.l.A.D.A.#.>.#.,.).3.;.<.2.) / R u 3 , 0 { r.",
"                                                ( ~ m s q c E ^ n E ( ) ) t.U.D.b.f.l.A.l.z.4.u.a.u.u.;.;.:.:.:.E < * 3 f n { t.",
"                                                ..X.m c q 6 7 q v n ( ;.) t.C.Z.Z.Z.A.z.1.4.z.g.%.%...) :.:.:...3 # 4 c V ' 9.r.",
"                                                ..( m c s q q r v n ..) ~ P C.P.P.Z.d.g.;.<.z.%.( ~ ..:.5.N.X.< * 7 V +.$.$.0.0.",
"                                                ~ E c v v s r v v ~ ..~ r G C.Z.c.p.y.u.x.<.#.....;.1.x.Q.#.; * c | { +.$.$.$.+.",
"                                                ^ E ~ { v 6 n ~ Q ( ( T q Z C.f.y.%.>.,.,.#...;.:.5.!.^.^ $ ; g | $.{ [ +.$.$.+.",
"                                                ( X.%.' q 6 ^ ) k n v r 0 l e.,.X.>.u.#.) #.;.:.5.Q.j.c $ , c V { { ' [ +.$.@.+.",
"                                                ~ E M q 0 n ] h w h h r 5 l *.%.,.<.,.;.<.<.2.7.~.a.q # , N [ ' $.{ V [ [ ^ +.+.",
"                                                W v c v T / ` U U T T h 3 l *.,.<.#.) ;.4.4.j.Q.$.< , c N ^ ^ { $.[ V [ { { @.+.",
"                                                Q j u R / ` ) ) / Q T h 1 3 0.d.#.#.<.:.:.z.l.~ $ @ c 0.{ V { { $.^ M | +.$.$.+.",
"                                                Q j u j U / ) ) T j U j w m c.a.@.#.) #.g.s.v : < x 9.$.{ { { { [ ' V [ +.$.9.+.",
"                                                T j y 0 w U ( T q y U U #.f.l.,.@.X.) h.s.6 $ 9 r B [ ^ { { [ $.' S [ [ +.9.9.} ",
"                                                n j u r w j T j w y R >.a.a.,.%.#.#.z.y.q d 1 h V m B S [ { ' +.' V } [ [ } } [ ",
"                                                h w t h j T n h y U a.l.#.#.,.#.,.V.%., < q N W ^ B B S [ [ ' [ m B +.[ D D S S ",
"                                                y 0 r v T T n w ( l.a.{ %.y.,.a.l.[ , : v E j W { S c D [ ' ' S S S [ ' D D S S ",
"                                                n v N n v h n %.b.y.{ { $.&.p.p.N ; , v ~ ~ j Q | F m S [ [ ^ V S [ [ [ D S m D ",
"                                                n n M n r 9 q ' S m S { $.a.y.7 $ 6 n V n E W ) { F V ' [ +.[ n ^ +.^ { S m m D ",
"                                                M T E v 6 < < $ @ % $ q 9.$.8 # 5 n ~ @.{ ^ ~ ) @.H ^ { { { ^ n ^ X.W ^ V v N C ",
"                                                W ^ T ^ ' V ' M N q 7 c S c c +.s.c.b.`.`.F.D.`.XXY.XX&XoXXX@XoXoX&XXX`.`.D.A.Z.",
"                                                n j j ,.z.d.d.a.d.a.%.@.@.X.y.p.&.a.l.h.z.z.h.V.W.W.W.V.h.V.(.W.W.W.V.W.l.a.<.g.",
"                                                c w w ,.j.f.l.l.d.l.3.h.z.z.l.y.,.3.4.4.1.;.=.-.-.-.-.` / ) ) ` ` ` ` ) / Q / ` ",
"                                                q 6 w ,.l.f.A.(.`.`.`.`.`.[.`.l.A.(.V.g.1.#.Q ) ;.=.) ) ~ W ~ ( ) ( ~ ~ ( Q ( ) ",
"                                                q r h ^ ^ N M W V N V ^ n c B V ^ ^ M k n n f 0 x b w r r q q q 7 6 q g g q q g ",
"                                                h n h 9 < < @ @ O & O # O . * , > > , , 6 6 1 , 8 K * * * * # * # # > , ; > > > ",
"                                                h k h 0 1 1 : $ @ O O # $ # * 5 5 5 5 q g f q 6 l l 4 5 4 > > > ; > 5 5 4 5 5 8 ",
"                                                n N f r q q r q q 7 q x c v r N $.^ ^ X.@.$.^ ^ D J B V B B m x c V V V V V ' D ",
"                                                n N h f q 6 r j ) #.X.n q r h { s.a.#.,.a.a.X.~ D H [ ^ V [ ^ c V { ^ ^ [ { { } ",
"                                                n n v r 0 6 r h / 1.~ q 6 9 f @.0.p.%.3.h.,.@.~ D H [ V V m m f N D m V [ [ } B ",
"                                                n n f f r q f h j n 6 ; 3 1 q ^ 0.+.{ &.%.X.*.] [ H D ' V x N N B S B V S } } S ",
"                                                v N q q q 0 q j n h r w y u q M { { +.0.{ $.s.{ +.H C [ V x m S S S S S S S D B ",
"                                                x f q 6 6 6 0 u U U U U Y R j ^ { %.%.y.0.0.p.$.8.P C V S S [ | [ ' V B S S D V "
};
