/* XPM */
static char *porta0[] = {
/* columns rows colors chars-per-pixel */
"64 64 243 2 ",
"   c #0F0705",
".  c #120300",
"X  c #190900",
"o  c #240900",
"O  c #2B1201",
"+  c #261609",
"@  c #341A03",
"#  c #371904",
"$  c #3B2307",
"%  c #3E240A",
"&  c #3A2617",
"*  c #3A3128",
"=  c #411F03",
"-  c #43260A",
";  c #482508",
":  c #442A0D",
">  c #4B2B0D",
",  c #542C0D",
"<  c #5B320F",
"1  c #462B15",
"2  c #4B2D12",
"3  c #542F12",
"4  c #4B3215",
"5  c #533315",
"6  c #5B3414",
"7  c #543419",
"8  c #58371A",
"9  c #5D3A1C",
"0  c #643615",
"q  c #643A16",
"w  c #6A3B16",
"e  c #643C1B",
"r  c #6B3D1A",
"t  c #733D18",
"y  c #47372A",
"u  c #593A24",
"i  c #493F30",
"p  c #653E22",
"a  c #49421D",
"s  c #66411C",
"d  c #6C411D",
"f  c #74431C",
"g  c #7A471C",
"h  c #7C451D",
"j  c #594528",
"k  c #554434",
"l  c #644323",
"z  c #6B4423",
"x  c #6D4925",
"c  c #684529",
"v  c #6D4A29",
"b  c #774624",
"n  c #744A25",
"m  c #7B4B24",
"M  c #744C2B",
"N  c #7B4D2B",
"B  c #75522D",
"V  c #7A5329",
"C  c #7C522D",
"Z  c #674B35",
"A  c #774D32",
"S  c #6A5433",
"D  c #7C5432",
"F  c #785737",
"G  c #7C5A34",
"H  c #6E613C",
"J  c #79643A",
"K  c #5A4D42",
"L  c #6C5845",
"P  c #776648",
"I  c #71695E",
"U  c #86491D",
"Y  c #8D501D",
"T  c #834C24",
"R  c #8A4E23",
"E  c #824E2A",
"W  c #845126",
"Q  c #8B5226",
"!  c #84542C",
"~  c #8B552B",
"^  c #89582D",
"/  c #935525",
"(  c #985927",
")  c #92562B",
"_  c #935A2D",
"`  c #9B5C2D",
"'  c #835632",
"]  c #8B5632",
"[  c #845A34",
"{  c #8C5C34",
"}  c #855C39",
"|  c #8A5D3A",
" . c #945C34",
".. c #9B5E32",
"X. c #935E3A",
"o. c #A15E2B",
"O. c #9D602C",
"+. c #886239",
"@. c #946135",
"#. c #9C6234",
"$. c #93643C",
"%. c #9B643B",
"&. c #956A3C",
"*. c #9C6A3E",
"=. c #A5642E",
"-. c #A36433",
";. c #AA6534",
":. c #A2663A",
">. c #A46A3C",
",. c #AA6938",
"<. c #AB6B3B",
"1. c #B16A34",
"2. c #B36E3C",
"3. c #AC713D",
"4. c #B3723E",
"5. c #BB733C",
"6. c #C2783E",
"7. c #8A6543",
"8. c #926542",
"9. c #9D6C43",
"0. c #986A46",
"q. c #99734A",
"w. c #8F7355",
"e. c #997953",
"r. c #A36C43",
"t. c #A26B46",
"y. c #AB6E42",
"u. c #B36F41",
"i. c #A57245",
"p. c #AC7244",
"a. c #A3734B",
"s. c #AC754A",
"d. c #AC7A4C",
"f. c #B37443",
"g. c #B47946",
"h. c #BB7A45",
"j. c #B2764A",
"k. c #B8774D",
"l. c #B47B4C",
"z. c #BA7C4B",
"x. c #A57954",
"c. c #AB7B52",
"v. c #B27D53",
"b. c #BB7E52",
"n. c #C47C45",
"m. c #C27D4B",
"M. c #9E8358",
"N. c #B5804C",
"B. c #BD814D",
"V. c #A88459",
"C. c #B38255",
"Z. c #BB8254",
"A. c #BC845A",
"S. c #B58A5A",
"D. c #BC8A5D",
"F. c #B7915E",
"G. c #9B8463",
"H. c #A68863",
"J. c #B58964",
"K. c #B68B64",
"L. c #BB8C64",
"P. c #AA9267",
"I. c #B99367",
"U. c #BE926B",
"Y. c #BE9975",
"T. c #C4834D",
"R. c #CB844B",
"E. c #CB864C",
"W. c #D5894E",
"Q. c #C48452",
"!. c #C98653",
"~. c #C58954",
"^. c #CC8A54",
"/. c #C38659",
"(. c #C48C5C",
"). c #D48E55",
"_. c #D18E5A",
"`. c #C7915E",
"'. c #CD915D",
"]. c #D3925C",
"[. c #DA9559",
"{. c #E99C5E",
"}. c #C38D61",
"|. c #C88D61",
" X c #C49364",
".X c #CB9363",
"XX c #C3946B",
"oX c #C89A6C",
"OX c #D39463",
"+X c #D79665",
"@X c #D49965",
"#X c #DC9C65",
"$X c #D49B6B",
"%X c #DC9D6A",
"&X c #C59C72",
"*X c #C49A74",
"=X c #CB9C73",
"-X c #D99F72",
";X c #E69D65",
":X c #F19F64",
">X c #DCA16C",
",X c #CCA279",
"<X c #D4A375",
"1X c #DCA373",
"2X c #D3A57B",
"3X c #D8A87C",
"4X c #E4A36C",
"5X c #EBA46A",
"6X c #F3A86A",
"7X c #FCAC6D",
"8X c #FFB06E",
"9X c #E4A673",
"0X c #E6AA77",
"qX c #EBAA75",
"wX c #EBAD7A",
"eX c #F6AD74",
"rX c #F2AE7A",
"tX c #EDB27D",
"yX c #FDB374",
"uX c #F3B27C",
"iX c #FCB57B",
"pX c #FEBB7C",
"aX c #FFC07D",
"sX c #DCAD83",
"dX c #D6AE88",
"fX c #CFB08B",
"gX c #DDB388",
"hX c #DDB28C",
"jX c #E8B387",
"kX c #E3B58B",
"lX c #EABA8D",
"zX c #F2B583",
"xX c #F4BA8A",
"cX c #F9BB88",
"vX c #E8BC94",
"bX c #D8BFA2",
"nX c #FEC28B",
"mX c #EDC295",
"MX c #F9C596",
"NX c #FCCB9B",
"BX c #DEC8AA",
"VX c #F2CFA9",
"CX c #F3DCC6",
/* pixels */
"xXhXw.L L F /.rX>X.X1XtXxXsXNXNXNXNXNXNXMXMXNXlXhXVXmXNXNXhXgXvX,XvXmXvXlXkXgXhXmXMXlXlXlXlXkXvXkX3X&XsX(.v.OX@X1XK.y k K 7.sXzX",
"wXsXw.k u F C.qX5X9X%X%X0XwXMXMXtXxXxXMXMXxXMXxXgXNXvXmXmXNXvX2XkXNXmXlXkXsXgXBXkXkXlXvXmXkXsXvXhX,XI..XQ.(.%X9XuXXXy y y 0.zXtX",
"9X9X0.u k Z q.%X[.].$X%X@X>XxXxX9XxXrXzXxXxXxXjXhXvX2X2XkXkX3XjXxXvXkXgXsX=XmXCXvXkXkXvXlXsXlXmXsX=X}.%XqXqXwXzXNXC.& y i q.uXrX",
"OXOX0.y i i ' ).).h./.#X#X%XzXNXxXxXqXuXnXxXzX3XfXhX2X2X1X2X=XsX2X=X=X=X=X=XvXCXvXgXkXlX3XsXmXjXsX=X(.tXnXzXzXzXxXx.& y k q.uX6X",
"(./.a.' ' ' ..6.[.^.!.5XeX%XwXcXzXuXqXrXxXzXzX3XfXgX2XsX3X-X=X&XH.H.U.K.H.K.fXBXgXsXgXvXsX3XjXsX3X<X(.wXnXzXzXtXwXoXe.w.0. XtX4X",
"OX(.Z.!.W.W.R.<.z.^.R.[.4X(.1XxXwXqX5XrXwXwXuXwX,X2X2X2X2X2X&XU.V.c.K.L.V.D.dXBXgXgXgXjX3X<X3X1X2X<X.XwXxXzXzXxXxXcXnXnXuXqX6X5X",
"1X$X1XzX;X_.%X$X.XOX#X;XqX9XlXMXxXzXzXxXrX9XwXuX9X1X1X1X0XtXwX1X1X1X>X$X.X>XtXlX0X1XwXqX5XqXqX9X%X>X#XqXiXuXiXpXiXuX4X;XiX4X].5X",
"OX1X=XL.XX-X5XeXcXcXrXqXwXzXxXMXNXNXnXzXrX9XtXzXuXeXeXeXyXiXiXiXiXiXiXeX;XeXeX6X{.;X5X:X:X6X6X5X[.;X5X:X6X6X6X5X5X;X.X(.iX#Xf.W.",
"A.v.L.U.=XwXeXeXyX7X:X:X5XeXeXiXnXnXnXqX4XrXiXiXyX6XiXcXpXpXpXpXaXpXpXpXyXyXyX7X7X6XeX7X7X7XyX8X7X8X6X6X6X7XyX7X7X6XeXcXpX(./ 5.",
"/.v.<XmX3X=X<X<X=X X XD. X-X.X(.}..X.Xv.r.v.Z.A.D.v.c.Z.A.Z.Z.l.l.l.d.i.r.0.d.C.0.$.*.*.*.%.0.*.$.+.q.0.! {  .%.%.%.{ { %.r...T.",
"Q.$Xx.8 1 & & + + + + + + i 1 + + + @ % % @ @ o * y X X X X . . . . . . .   & I + . . X X X o o .   * % X O + o o o o X ;  .<.Z.",
"(.%XZ.' A c c u u 1 u u 1 P 7.M v c N | | | ' M L P u j S Z Z Z Z S S F F Z w.fXe.8.8.| +.8.8.0.7.F G.c.,.A.L.0.%.p.r.a.Z.Z.N.Q.",
"'..X|.OX$X.X(.|.oXx.x.A.m.U.1X5X%X%X4XuXiXuXuXqX=X,XXXXX=X=X=X=X,X=X<X3X<X.XdXVXMXzXqX0X1X$X1X<X-XL.fXnXnXMXuXOX;X6XpXpX%X'.'.].",
"^.(.Z.Z.A.A.v.d.A.0.' X.p.K.=X%X.X.X%XqXuX9XqX-XXXY.U.L.U.U.XX&X&XU.I.XXL.Z.Y.BXsX1X>X#X~.b.Z.v.l.%.fXNXtX].!.!.(.#X4Xl.%.l.~.B.",
"Q.Z.Z.b.A..X}.c.x.8.|  .%.H.=X%X$X'.%XwXzX9X%X$XK.P.K.L.U.U.L.U.XXU.U.I.I.C.Y.BX2X$XOX^.T.h.h.h.y.}.jXwX).z.(.%X9X$X%.N n %.l.p.",
"s.s.s.r.A.$X.Xv.0.0.r.%.X.e.&X%XOX@X%X9X9X9X@X|.K.K.XXXXK.K.XXC.U.=X XXXXX X,XbXXX(.Q.T.5.2.2.<.|.wX#X[.].(.#X4XOX] f ' $.p.h.f.",
"r.s.*.r./..XZ.i.8.' [ %.0.G.XXOX.X'.#X#X].%X#XOXL.I.<X$XL.K.C.a.U.oXC.U.XX X,XhX(.z.z.h.2.o.-.'.#X].[.].OX4X#Xz.R t b r.Z.z.T.^.",
"s.v.j.p.b.b.r.[ F c M %.y.H.K.(.(.(.@X4X_.OX%X$XI.V. X XXX&XXXXXXXU.e.K.U.D.oXdXZ.j.>.f.<.-.(.#X^.R.).].#XOXp.R h _ l.Q.~.T.T.R.",
"%.j.l.r.y.r.X.M c p F %.y.H.U..X|.~.].4X].]._.(.C.x.D.L.=X=XC.L.oXL.V.K.K.C.U.fXZ.r.#.f.Q.Q.^.R.R.^.].%X'. .E / -.z.(.].!.Q.~.T.",
"X.y.s.$.X.$.| M z M {  .%.H.&X.X(.(.(.OX%X%X_.~.v.c.(.Z.$X1XD.}.=XL.V.V.V.c.K.&Xl.>.p.(.].T.h.T.)._.OX}.{ w Q n.m.Q.#X^.j.!.T.m.",
"%.r.y.] ' $.$.N A ' F N E H.&X(.(.(.!._.4X%X^.^.s.0.(.Q.@X>X.XoX.XS.x.x.c.c.L.,Xp.l..X]._.T.l.z.!.(.V.' t R g.[.m.Q._.z.(.OXn.!.",
":.p.r.] ]  .X.N A ' ' E b H.&X.XOX(.!._.>XOXm.(.p. .Z.Z.D.`.(.(.d.c.x.e.x.a.C.,XD.@X(.^.].(.b.'.(.| w.7.E f.].).n.T.z.p.~.T.B.~.",
"%.p.y... . . .' M ' :.:. .P.oX(.(.(.T.!.(.(.T.^.l.%.Z.v.Z.D.Z.s.$.q.q.0.x.a.C.<X.XQ.!.OXOX(.OX.X$.6 w.e.:.z.T.R.R.m.f.>.g.g.Z.B.",
"..s.v.X.] |  .| F $.z.f...P.&XQ.(.'.!.Q.j.b.Q.!.j.>.D.Z.v.l.d.a.8.0.0.a.a.s.(.(.T.T.].'.OX4XD.z r b G.C.2.f.z.m.m.m.h.>.l.s.v.Z.",
"%.c.a.] { ]  .X.' X.f.g.#.I.oXp.Q._.T.Q.p.j.Q.!.p.>.D.(..X(.c.q.} 8.r.q.v.}.(.T._.OX(.].%Xd.9 7 ] @.P.D.h.m.T.Q.f.l.l.y.s.a.c.l.",
"0.r.%. . .{ #.%.~ ~ ..:. .P.oXf.(.].m.m.j.j.Q.Q.f.>.Z.(.wX=Xd.$.F +.%.c. XQ.T.R.^.Q.[.%X| 6 e } a.i.P.C.h.z.f.g.s.j.z.l.s.i.l.s.",
"%.r.r. .)  .%.%...<.2.<.~ e.=X[.4X@X!.!./.z.z.z.<.>.Z.D.XXa.*.0.' } c.A.z.h.T.^.^.].(.M - e | x.s.p.H.V.r.r.>.s.z.f.B.z.j.f.Z.B.",
"%.s.r._ -.:. . .=.5.n.-.b e.oX].@X'.R.(.OXz.z.m.>.%.A.d.0.$.i.*.[ a.(.f.2.n.T.).;XZ.t - 9 | a.0.*.0.G.V.>.>.p.z.y.y.z.f.p.y.g.B.",
"%.s.r. .#...~  . ...#.! f V.I.Q.Q.z.h._.OX(.l.z.%.#.Z.r.&.a.i.i.s.Z.h.2.n.R.W.).r.p 6 n | x.q.$.$.$.M.C.2.f.h.z.<.f.m.h.f.>.p.f.",
">.s.r.{ ' C c 7 9 p n N E V.F.z./.z.m.^.].}.s.>.{  .d.0.0.0.d.}.^.5.5.n.n.W.[.c.u 5 M ' 8.[ | a.X.| P.D.2.f.g.p.>.p.h.4.>.s.l.f.",
"h.z.r.} A c u 1 8 z N E ! V.S.l.A.b.m.(.'.A.>.r.] ' s.*.0.Z.(.Q.f.;.5.m.R.g.F H l z ' N F F M 0.$.} P.D.u.f.g.y.>.<.f.p.*.r.s.<.",
"z.z.r.' A M N m E b N ! ! e.V.s.A.j.f.Q.(.b.:.r.{  .p.a.D.(.T.h.2.4.n.m.s.9 : P G ' ' n F 8.F X.0.+.P.D.2.f.h.h.f.4.f.p.%.%.p.<.",
"u.f.%.E N N N ~ ) ! b E ~ e.H.C.A.j.f.Z.A.A.-.:. ...B.(.l...;.5.1.1.4...5 $ v M.q.[ ' N F | C | *.&.V.Z.2.h.m.h.<.2.f.u.:.r.f.,.",
"` -.] n M N  .` Q ~ ~ ~ ~ q.P.}.A.l.l.Z.A.A.-.:. .>.~.3.-.<.1.` ) R t 3 > 0 { e.0.| 8.F F F n { 0.$.M.d.2.z.h.4.-.<.<.;.:.>.>.-.",
"] ~ M p r z E E b E ) ` _ q.H.A.v.s.l.Z.v.z.2.y.p.r.y.-.-.;.;.;.E ; % 2 d b { q.8.8.8.C M F C X.X.8.M.l.<.p.<.2.,.<.<.-... . ...",
"..] M z r 8 8 e n n ) -.` w.V.C.C.Z.Z.k.,.2.z.f.%.%...` ;.;.1...3 @ 4 z C ' 0.e.+.| +.C N ' {  .[ 8.e.d.,.>.y.h.h.-...:. .{ { ..",
"..] M z p e e r n b ..` ~ P M.L.L.Z.s.f.-.<.z.%.] ~ ..;.5.n. .; % 9 C +.$.$.0.q.F } } N N { @.C N 8.q.&...:.j.Z.l.<.;.-.^ { { _ ",
"~ E z n n p r n n ~ ..~ r S V.C.c.i.r.u.h.<.#.....-.1.h.R.#.- $ z | { +.$.$.$.+.G ' ' N N [ ' n M ' 0.+.E ~ >.>.:.4.1.<.%.] ~ _ ",
"! E ~ { n 8 b ~ Q ) ) E e Z M.d.r.%.:.>.>.#.#.-.;.5.R.Q.! @ - e | $.{ [ +.$.$.+.F ' ! N M C N n M N [ [ b E ..O...2.1.-. .b ! #.",
"_  .%.' e 8 ! ) h b n r 6 j q.r. .:.y.#._ #.-.;.5.R.h.z @ > z C { { ' [ +.$.@.+.M C b n p n ~ ! C ' G [ ! ! _ _ ~ :.2.-.! f ~ -.",
"! E N e 0 b ] f w f f r 5 j &.:.>.>.>.-.<.<.1.6.W.p.e @ > n [ ' $.{ C [ [ ! +.+.n ! [ C z n ! ! C ' G ^ ~ ~ _ ~ b  .<._ b b R Q ",
"E n p n E / ( Y Y R R f 2 j &.>.>.#._ -.2.4.h.R.$.; > z n ! ! { $.[ C { { { @.+.C C ! C N b N N C ' B b Q _ #.W n _ -._ Q ~ ^ ~ ",
"Q h t R / / o.` / Q E t , 2 q.s.#.#.<.;.;.z.l.~ @ @ n 0.{ C { { $.! N | +.$.$.+.F N N M M n C ' F ' v n ) -.,.` _ @._ U ) / ~ { ",
"R h t h U / ` ` E h U h w M c.p.@.#._ #.f.a.n ; ; l 8.$.{ { { { [ [ C [ +.$.8.+.v M C B n b ! ! [ [ x b ( -.#.` ` #._ E Q _ E f ",
"E h t 0 w Y ) R e t U U #.d.d.>.@. ._ g.a.6 @ < r B [ ! { { [ $.' F [ [ +.0.0.} M M F C C ! ] N N F l N _ _ ~ b W _ ^ W b b f b ",
"b h t r w h R h r t R :.p.3.>.%.#.#.z.r.q = , f C v B F [ { ' +.' C } [ [ } } [ B C C N ~ ! E E b F j N _ ~ ! b E ~ ! n d z d f ",
"f w w f t E b f t b p.l.#.#.>.#.>.B.%.> ; e n W ! B B F [ [ ' [ M B +.[ F G F F C ^ ! ! E b b ! ' [ c N ~ W ~ W E ! b e e z d f ",
"t 0 w h T E b w ^ d.p.{ %.r.>.p.l.[ > ; n E h W { F v G [ ' ' F F F [ ' F G F F [ ! [ ' n b b n d C n n ! W ! b b n n e e M n h ",
"b n n b h f b %.v.r.{ { $.*.i.i.n - > n ~ ~ h Q } G v F [ [ ^ C F [ [ [ [ F M G G ' [ ' C ! ! n n  .z e ' ~ N d s 6 l e z n d f ",
"N N N b r < e ' F M ' { $.p.r.9 @ 6 b C b E W _ { G B ' [ +.[ b ^ +.^ { F M M G [ | $.{ ! ~ @._ #.%.9 e ' N d z z 5 8 e z n f d ",
"b E E n 6 ; ; @ @ @ @ e 8.$.7 @ 5 b ~ @.{ ! ~ ` @.J ^ { { { ! b ~  .E ! C n n C C b ! ~ E W ~ R Q  .6 , 9 3 , 0 z 9 > 3 z N b f ",
"E ! E ! ' C ' N n e 9 z F z v +.a.v.v.(.(.D.A.(. XI. X$X.X}.oX.X.X$X X(.(.A.Z.Z.Z.d.Z.(.Z.Z.B.z.Z.Z.r.0.0.r.i.p.a.a.*.p.*.d n b ",
"b h h >.z.s.s.p.s.s.*.@.@. .r.i.*.p.l.g.z.z.g.B.T.T.T.B.g.B.^.T.T.T.B.T.l.p.<.f.p.*.p.z.g.3.3.3.:.>.4.<.<.3.3.4.4.<.<.f._ 6 6 f ",
"d w r >.h.d.l.l.s.l.p.g.z.z.l.r.>.3.4.4.,.-.O.=.=.=.=.( / ( ` ( ( ( ( _ / Q / ( / / ( O.=.` =.O.( =.=.` / ( ( / O.` %.%.z - 2 q ",
"e 6 w >.l.d.Z.~.(.(.(.(.(.'.(.l.~.~.B.f.,.#.Q _ -.O.` _ ~ W ~ ^ _ ^ ~ ~ ~ Q ^ _ .._ / #.-.-.-.#.O.,.,.-.` #.#.` #.#.$.$.n @ ; q ",
"e r f ! ! n N W C n C ! b z B C ^ ^ C h b b d 0 x n w r r e q s 9 6 e s e e e s z e e d e s z n n n e s n d d r e s z n 9 % > d ",
"f h f < ; = @ @ O o O @ + . $ > : : : > 5 6 , > 8 a $ - % $ @ $ @ @ : > - : : : $ % - % $ $ - : > : @ + % : ; : @ : 4 5 2 : 5 n ",
"f h f 0 , , ; @ @ O + @ @ @ % 5 5 4 5 e s d q 6 j j 4 5 4 : : : - : 5 5 4 5 5 8 4 4 4 4 : > 5 5 5 4 % % 2 2 2 7 : 7 8 9 % $ l M ",
"b n d d e q r e e 9 e l z n r n $.! !  .@.$.^ ! G H B C B B M z v C C C C ! ' G F F } F M M C [ F B z 9 p z C F b F C v 5 2 p N ",
"b n f d q 6 r h _ .. .b q r f { a.p.#.>.p.p. .~ G J G ! C ' ! z C { ! ^ [ { { } G F F B B M [ | B F u 2 7 p z N ~ { [ z z M M n ",
"b b n d 0 6 r f / :.~ e 6 < d @.0.i.%.3.g.>.@.~ G J [ C C M M d n G M C [ [ } B x x n x x n [ F M F u 2 9 u 7 e r n M z M F v M ",
"b b d d r w d f h b 6 - 2 , q ! 0.+.+.*.%. .*.~ [ J G ' C x n n B F B C F } } F v x x x x M [ B M F l 4 8 7 9 9 9 p l M F M M F ",
"n n e e e 0 0 h b f r w t t q N { { $.0.{ $.a.{ +.J C ' C x M F F F F F F F G B x x x x x x M M M F l 5 7 p 9 9 5 9 z v M F F A ",
"l d q 6 6 6 0 t Y U U Y Y R h ! { %.%.i.0.q.i.$.7.P B C F F [ | [ F C B F F G C B M n C C d z C C G v 8 e z 9 7 5 9 l c c M F M "
};
