/* XPM */
static char *porta2[] = {
/* columns rows colors chars-per-pixel */
"64 64 246 2 ",
"   c None",
".  c #120300",
"X  c #190A00",
"o  c #140C08",
"O  c #220B00",
"+  c #281306",
"@  c #331A02",
"#  c #371904",
"$  c #3C2409",
"%  c #382616",
"&  c #392E24",
"*  c #43260B",
"=  c #442A0D",
"-  c #4B2B0D",
";  c #482408",
":  c #542C0E",
">  c #492B15",
",  c #4B3215",
"<  c #533315",
"1  c #5C3415",
"2  c #5D391C",
"3  c #57361A",
"4  c #573011",
"5  c #633614",
"6  c #643917",
"7  c #6A3B16",
"8  c #643C1B",
"9  c #6B3D1A",
"0  c #693714",
"q  c #733D17",
"w  c #49382C",
"e  c #573924",
"r  c #493F30",
"t  c #673E22",
"y  c #411F03",
"u  c #6B411D",
"i  c #65411B",
"p  c #74421C",
"a  c #7C451D",
"s  c #7A481D",
"d  c #584528",
"f  c #5E4430",
"g  c #6C4423",
"h  c #6E4925",
"j  c #6C4A2A",
"k  c #664428",
"l  c #734523",
"z  c #744A25",
"x  c #7B4B24",
"c  c #744C2B",
"v  c #7B4D2B",
"b  c #774724",
"n  c #75512D",
"m  c #7C522D",
"M  c #7A5329",
"N  c #674B35",
"B  c #764D32",
"V  c #7C5432",
"C  c #7C5A34",
"Z  c #795939",
"A  c #6A5536",
"S  c #79643A",
"D  c #6E613C",
"F  c #49421D",
"G  c #6C5845",
"H  c #776648",
"J  c #71695E",
"K  c #86491D",
"L  c #8D501D",
"P  c #834C24",
"I  c #824E2A",
"U  c #8A4D22",
"Y  c #855126",
"T  c #8A5226",
"R  c #83542C",
"E  c #8B552C",
"W  c #89582D",
"Q  c #935525",
"!  c #92562C",
"~  c #945A2C",
"^  c #9B5C2D",
"/  c #985826",
"(  c #825633",
")  c #8B5632",
"_  c #845A34",
"`  c #8B5C34",
"'  c #855C39",
"]  c #8A5D3A",
"[  c #935C33",
"{  c #9B5D33",
"}  c #935E3A",
"|  c #935934",
" . c #A15E2B",
".. c #9E602B",
"X. c #8D613B",
"o. c #886238",
"O. c #946236",
"+. c #9C6234",
"@. c #93633B",
"#. c #9B643B",
"$. c #9C6A3E",
"%. c #95693B",
"&. c #A5642E",
"*. c #A36333",
"=. c #AA6534",
"-. c #A2663B",
";. c #A46B3C",
":. c #AD6B3B",
">. c #AA6A37",
",. c #B36D3A",
"<. c #B06934",
"1. c #AB713D",
"2. c #B3713E",
"3. c #BB723C",
"4. c #C2783E",
"5. c #8C6341",
"6. c #866743",
"7. c #936541",
"8. c #9C6C43",
"9. c #996A46",
"0. c #987349",
"q. c #997953",
"w. c #907051",
"e. c #A36C43",
"r. c #AB6E43",
"t. c #A26B46",
"y. c #A57245",
"u. c #AB7244",
"i. c #A3734B",
"p. c #AC754B",
"a. c #AC794C",
"s. c #B27443",
"d. c #BA7643",
"f. c #B37946",
"g. c #BB7A45",
"h. c #B3764A",
"j. c #B37B4C",
"k. c #BA7C4B",
"l. c #B8774D",
"z. c #AB7B52",
"x. c #A67954",
"c. c #B27D53",
"v. c #BB7E52",
"b. c #926C50",
"n. c #C17D4C",
"m. c #C57B45",
"M. c #9D8358",
"N. c #BD814C",
"B. c #A7845A",
"V. c #B38256",
"C. c #BB8255",
"Z. c #B4845C",
"A. c #BC845A",
"S. c #BD8A5C",
"D. c #B38C5B",
"F. c #B7915E",
"G. c #A78762",
"H. c #B68B64",
"J. c #BB8C64",
"K. c #B58964",
"L. c #AC9166",
"P. c #BE926B",
"I. c #B99367",
"U. c #BE9975",
"Y. c #9E8160",
"T. c #C3824D",
"R. c #CB844B",
"E. c #D4894E",
"W. c #C48452",
"Q. c #C98653",
"!. c #C58955",
"~. c #CC8A55",
"^. c #C38659",
"/. c #C48C5C",
"(. c #CB8C5B",
"). c #D18E5A",
"_. c #D58E55",
"`. c #CD915D",
"'. c #C7915E",
"]. c #D3925D",
"[. c #DB965A",
"{. c #C38D61",
"}. c #C98F61",
"|. c #C49365",
" X c #CB9363",
".X c #C3946B",
"XX c #C79B6C",
"oX c #D29463",
"OX c #D49965",
"+X c #DB9B66",
"@X c #D49B6C",
"#X c #DC9D6A",
"$X c #D59666",
"%X c #C59C72",
"&X c #CB9C73",
"*X c #C49A74",
"=X c #DB9F71",
"-X c #E89E65",
";X c #F19F64",
":X c #DCA16C",
">X c #CCA279",
",X c #D3A275",
"<X c #DCA373",
"1X c #D3A57B",
"2X c #DBAA7C",
"3X c #D9A77A",
"4X c #E3A26C",
"5X c #EBA56D",
"6X c #EDA265",
"7X c #F8AA6B",
"8X c #E4A673",
"9X c #ECAA75",
"0X c #EBAD7B",
"qX c #E6AA77",
"wX c #F2AE7B",
"eX c #F7AD74",
"rX c #EBB27E",
"tX c #F4B17C",
"yX c #FDB47A",
"uX c #FFBD7C",
"iX c #FEB374",
"pX c #FFB16F",
"aX c #E99C5E",
"sX c #FFC07D",
"dX c #DBAD83",
"fX c #D6AE88",
"gX c #DDB38C",
"hX c #DDB388",
"jX c #D0B18F",
"kX c #E3B58A",
"lX c #EABA8D",
"zX c #E6B588",
"xX c #F3B583",
"cX c #F4BA8A",
"vX c #F8BA88",
"bX c #E8BC94",
"nX c #EAB488",
"mX c #D8BFA2",
"MX c #FDC28B",
"NX c #EDC295",
"BX c #FCC394",
"VX c #FCCB9B",
"CX c #F6C598",
"ZX c #DEC8AA",
"AX c #F2CFA9",
"SX c #F3DCC6",
/* pixels */
"                                nXhXw.G G H {.wX:XoX<XxXcXdXCXCXCXCXVXVXBXVXVXlXhXAXCXCXCXdXhXbX>XbXCXlXbXzXhXgXNXBXbXlXlXlXzXbX",
"                                0XdXw.f e A Z.9X5X8X+X+XqX0XBXBXrXvXcXBXBXcXBXnXhXCXbXNXCXCXbX1XzXVXNXlXzXdXhXZXhXnXlXbXCXzXdXbX",
"                                8X8X0.e e N 0.+X[.].@X+XOX:XcXcX8XcXwXxXvXcXvXxXgXbX>X1XzXzX2XzXcXbXzXhXdX&XNXSXbXzXzXbXlXdXlXNX",
"                                oXoX9.w w w ( )._.f.^.+X+X+XxXCXcXcX9XtXMXcXxX2XjXgX1X1X3X,X&XdX1X%X%X&X&X&XbXSXbXhXhXlX2XdXNXzX",
"                                (.^.i.( ( ( { 4._.~.Q.5XwX+X0XBXxXtX5XwXcXxXxX2XjXgX1XdX2X1X&X%XG.G.P.I.K.H.jXZXhXdXhXlXdX2XzXdX",
"                                OX(.C.Q.E.E.R.:.k.~.R._.5X(.<XcX0X5X5XwX0X0XtX0X1X1X1X1X1X1X%XP.Z.x.H.J.Z.S.fXZXhXhXhXzX2X,X2X3X",
"                                <X@X<XxX-X).+X@X XoX+X-X9X8XcXBXcXxXxXvXwX8X0XxX8X<X<X<XqXrX0X<X<X<X:X@X X:XrXlXqX<X0X9X5X9X9X8X",
"                                OX<X&XJ..X=X5XeXvXvXwX9X0XxXcXBXCXCXMXxXwX8XrXxXyXwXwXwXiXyXyXiXyXyXyXeX-XwXwX6XaX-X5X;X;X6X7X6X",
"                                A.c.J.P.&X0XeX7XiX7X;X;X5XwXeXyXMXMXMX9X4XwXyXyXiX9XyXvXuXuXuXuXsXuXuXuXiXiXiX7X9X9XeX7X7X7XiXpX",
"                                ^.c.,XNX2X&X,X,XXX|.|.S.|.@X X^.{. X Xc.t.c.C.A.S.c.z.C.C.C.C.j.j.j.a.y.8.8.a.Z.8.@.$.$.$.#.8.$.",
"                                !.@Xx.3 > % % + + + + + + r > + + + @ % $ @ @ O & w X X X X . . . . . . . . % J + . . X X X O O ",
"                                (.+XC.( B j k e e > e e > H 6.c j j v ] ] ] ( c G H e d A N N N N A A Z A N w.jXq.7.5.] o.5.7.7.",
"                                `. X}.oX@X X^.}.@Xx.x.A.n.P.3X5X+X+X4XtXyXtXtX5X&X>X.X.X&X&X&X&X>X&X,X2X,X XfXAXBXxX9XqX<X@X<X,X",
"                                ~.^.C.C.A.A.c.j.A.0.' } u.H.&X+X X X+X9XtX8X5X=X.XU.P.J.P.P..X*X%X.XI..XJ.C.U.ZX2X<X:X+X~.v.C.c.",
"                                !.C.C.v.A. X{.z.x.5.] | #.G.&X+X@X X+X0XxX8X+X@XH.L.H.J..XP.J.P..XP.I.I.I.Z.U.ZX1X@XoX~.T.g.g.d.",
"                                p.p.p.t.A.@X Xc.0.0.t.-.} q.%X@XoXOX+X8X8X8XOX}.H.I..X.XK.K..XZ..X&X.X.X.X|.>XmX.X^.!.T.3.,.,.:.",
"                                t.p.$.t.^. XC.i.7.( ( #.8.Y..XoX X`.+X+X].+X+XoXJ.I.<X@XI.K.Z.i.I.XXZ.P..X|.,XgX^.k.k.d.,. .*.`.",
"                                p.c.h.u.v.k.t._ V k c #.r.G.I.^.^.^.oX4X(.oX+X@XI.Z.|.|..X%X.X.X.XP.q.G.P.S.XXfXC.s.-.2.:.*.!.+X",
"                                #.h.j.t.r.t.} c k t V #.r.G.P. X}.!.].4X].].).(.Z.x.S.J.XXXXZ.J.XXJ.Z.G.H.Z.P.fXC.t.+.s.!.!.~.R.",
"                                } r.p.@.} @.] c k c ` | #.G.%X X^.(.(.$X+X+X(.!.c.z.^.C.@X<XS.{.XXJ.Z.Z.Z.x.H.*Xj.-.u.(.].T.g.T.",
"                                @.t.u.) ( @.@.v B ( V v I G.%X(.(.(.Q.).4X+X~.~.p.8.^.!.OX:X X X XS.z.x.x.z.H.>Xu.j. X].).T.j.k.",
"                                -.u.r.) ) } } v B ( ( I P G.%X XoX(.!.(.+XoXn.(.u.| A.C.S.'.^.^.a.z.x.q.x.i.Z.>XS.OX(.~.].(.v.`.",
"                                -.r.r.{ | | | ( c ( -.-.| L.P.^.`.(.T.Q.(.(.T.~.j.#.C.C.C.S.j.p.@.0.0.0.x.i.Z.1X X!.Q.oXoX(.$X X",
"                                { p.c.| ) ] | ] V @.k.s.{ L.%X!.(.`.Q.!.h.v.!.Q.h.-.S.C.C.j.a.i.5.9.8.i.i.p.^.(.T.T.].`.oX4XS.k ",
"                                #.z.i.) ` ) | } ( } s.s.+.I.XXu.C.).T.!.s.h.!.Q.u.-.S.^. X^.z.0.' 7.t.0.c.{.(.!.).$X~.].+Xa.2 3 ",
"                                8.t.#.| | ` +.#.E E { -.| L.XXs.^.].n.n.h.h.!.!.s.-.C.^.0XXXa.@.V o.#.z.|.!.T.Q.~.!.[.+X] 1 8 ' ",
"                                #.t.t.| ! | #.#.+.:.,.:.E q.XX[.4XOXQ.!.^.k.k.k.:.-.C.S..Xi.$.8.( ' z.A.k.d.T.~.~.].(.c * 8 ] x.",
"                                #.p.t.~ *.#.| | &.3.m.*.x q.XX].OX`.T.(.oXk.k.n.-.#.A.a.8.@.y.$._ i.^.s.,.m.T._.-XC.z * 2 5.i.7.",
"                                #.p.t.| +.| E | | { +.R p M.I.!.!.k.g.).oX^.j.k.#.+.C.t.%.i.y.y.p.C.g.,.m.R.E._.t.t 1 z ] x.0.@.",
"                                -.p.t.| ( m j 3 2 t z v P B.F.k.^.k.n.~.].{.p.-.` O.a.8.8.8.a.{.~.3.3.m.m.E.[.z.e < c ( 7._ ] i.",
"                                d.k.t.] B k e > 3 k v I R B.D.j.A.v.T.(.`.A.-.t.) ( p.$.8.C.(.!.s.=.3.m.R.g.V D g k ( v V C c 8.",
"                                k.k.t.( B c v v P x v R R q.B.p.A.h.s.!.(.v.-.t.` | u.i.S.(.T.d.,.2.m.n.p.8 = H C V ( z V 5.V } ",
"                                s.s.#.I v B v E ! R x P E q.L.Z.A.h.s.C.A.C.*.-.| +.N.^.j.{ =.3.<.<.2.| 3 $ j M.w._ ( v V ] m ] ",
"                                ^ *.) z c v | ^ T E E E E w.L.{.A.j.j.C.A.C.*.-.| -.!.1.*.:.<.^ ! U q < - 5 ` q.9.] 7.V m V z ` ",
"                                | E l t 8 k I R x I ! ^ ~ w.L.A.c.p.j.C.k.k.2.r.p.t.r.*.*.=.=.=.I ; $ : u x ` w.5.5.7.m c V m } ",
"                                { | l k 8 3 3 8 z z ! *.^ w.B.Z.Z.C.C.h.>.,.k.s.#.#.{ ^ =.=.<.{ < @ , k m ( 7.q.o.] o.m v ( ` | ",
"                                { | c k t 8 6 9 z x { ^ E H M.J.J.C.p.s.*.:.k.#.| ! { =.3.m.| ; $ 2 m o.@.@.8.0.C ' ' v v ` O.m ",
"                                E I k z z t 9 z z E { E 9 A B.Z.z.y.t.r.d.:.+.{ { *.<.m.R.+.* $ k ] ` o.@.@.@.o.C ( ( v v _ ( z ",
"                                R R E ` z 3 x E T ! ! P 8 N B.a.t.#.-.-.-.+.+.*.=.3.R.!.R # * 8 ] @.` _ o.@.@.o.V ( R v l m v z ",
"                                ~ | #.( 8 3 R ! a x z 9 1 d 0.-.| -.r.+.^ +.*.=.3.R.g.k # - k m ` ` ( _ o.@.O.o.c m M z k z E R ",
"                                R I v 8 5 x ) z 7 p p 9 < d %.#.-.-.-.*.:.:.<.4.E.u.8 @ - z _ ( @.` m _ _ R O.o.z R W m k z R R ",
"                                Y z t z P Q / K K P P p : d %.-.-.+.~ *.,.2.g.R.O.; - k z R R ` @._ m _ ` ` O.o.m m R m v x v v ",
"                                T a q U Q /  .^ Q T P p : : 0.a.+.+.:.=.=.k.j.E # @ z 8.` m ` ` @.R v ] o.@.@.o.V v v c c z M ( ",
"                                T a q a K Q ^ ^ P a K a 7 c z.u.O.+.~ +.s.p.z ; * g 7.@.` ` ` ` _ ( m _ o.@.7.o.j c m n z x R R ",
"                                x a q 5 7 K ! P 8 q K K +.a.j.-.O.| ~ f.i.1 # : 9 n _ R ` ` _ @.( V _ _ o.7.7.' c c V m m R ) v ",
"                                x a q 9 7 a P a 7 q U -.u.u.-.#.+.+.k.t.6 * : p m j n V _ ` ( o.( m ' _ _ ' ' _ c m m v R R P I ",
"                                a 7 0 p p P x p q K u.j.+.+.-.+.-.N.$.- * 8 z Y R n n V _ _ ( _ c n o._ C C V V m W R R P x x R ",
"                                q 5 9 x P P x 7 W j.u.` #.t.-.u.j._ - ; z I a Y ` Z j C _ ( ( V V V _ ( V C V V C R _ ( z x x z ",
"                                x z z x z p x #.j.t.` ` @.$.y.y.z * - z E E a T ' Z j V _ _ W m V _ _ _ _ Z n C C _ _ ( m R R z ",
"                                v v v x 9 4 8 ( V c ( ` @.u.t.2 # 1 x m x P Y ~ ` Z n ( _ o._ x W o.W ` V c c C _ ] @.` R E O.~ ",
"                                M I I z 1 ; ; # @ @ $ 8 7.@.3 @ < x E O.` R E ^ O.S W ` ` ` R x E | Y R m z z M m x R E P Y E U ",
"                                Y R P R ( v I v z 8 2 k V k j o.i.c.c.^.^.S.A.^.|.I.|.@X X{. X X X@X|.^.S.A.C.C.C.a.C.^.C.C.N.k.",
"                                x a a -.k.p.p.u.p.p.$.O.O.| t.y.$.u.j.f.k.k.f.N.T.T.T.N.f.N.!.T.T.T.N.T.j.u.:.s.1.$.u.k.f.1.1.1.",
"                                u 7 9 -.g.a.j.j.a.j.u.f.k.k.j.t.-.1.2.2.>.*...&.&.&.&./ Q / ^ / / / / ~ Q T Q / Q Q / ..&.^ &...",
"                                8 1 7 -.j.a.C.!.^.^.^.(.(.`.^.j.C.!.N.s.>.+.T ~ *...^ ~ E Y E W ~ W E E E T W ~ { ~ Q +.*.*.*.+.",
"                                8 u p R R z v Y m z m R x k n m R W M s x x u 6 h z 7 9 9 8 6 i 2 1 8 i i 8 8 i k 8 8 u 8 i k z ",
"                                p x p 4 ; * @ @ + O + @ + . $ - = = = - 1 1 : - 3 F $ * $ $ @ $ @ @ = - * = = = $ $ * $ $ $ * = ",
"                                p s p 5 : : ; # @ + + @ # @ $ < < < < 8 i u 6 1 d d , < , - = = * = < < , < < 3 , , , , = - < < ",
"                                x z u 9 8 6 9 8 8 2 8 g k z 9 z @.R R | O.@.W R C D n m n n c k j m m m m R ( C C V ' V c c m _ ",
"                                x z p u 6 1 9 a ~ { | x 6 9 p ` i.u.+.-.u.u.| E C S C R m ( R k m ` R W _ ` ` ' C V V n n c _ ] ",
"                                x x z 9 5 1 9 p Q >.E 8 1 4 u O.8.y.#.1.f.-.O.E C S _ m m c c u z C c m _ _ ' n h h z h h z _ V ",
"                                x x u u 9 7 u p a x 1 * : : 6 R 8.o.o.$.#.| $.) _ S C ( m h z z n V n m V ' ' Z j h h h h c _ n ",
"                                z z 8 8 8 5 5 a s p 9 7 q q 6 v ` ` @.8.` @.i.` o.S M ( m h c V V V V Z V Z C n h h h h h h c c ",
"                                g u 6 1 1 1 5 q K K K K L U a R o.$.#.y.8.0.y.@.6.H n m V V _ ] _ V m n V V C m n c z m m u k m "
};
