/* XPM */
static char *porta4[] = {
/* columns rows colors chars-per-pixel */
"64 64 235 2 ",
"   c None",
".  c #150700",
"X  c #1C120C",
"o  c #250D00",
"O  c #2A1101",
"+  c #26160B",
"@  c #311501",
"#  c #341A03",
"$  c #3B1C03",
"%  c #371908",
"&  c #3B2409",
"*  c #3A2515",
"=  c #392E24",
"-  c #411F03",
";  c #44260A",
":  c #4A250A",
">  c #4B2B0D",
",  c #462508",
"<  c #542C0E",
"1  c #5A2D0C",
"2  c #5B320F",
"3  c #492B15",
"4  c #473116",
"5  c #543214",
"6  c #5C3414",
"7  c #5D391B",
"8  c #58361B",
"9  c #592F11",
"0  c #633615",
"q  c #643917",
"w  c #6A3B16",
"e  c #643C1B",
"r  c #6B3D1A",
"t  c #693714",
"y  c #723D16",
"u  c #743E18",
"i  c #49382C",
"p  c #563925",
"a  c #493F30",
"s  c #673E22",
"d  c #49421D",
"f  c #6C411D",
"g  c #74421C",
"h  c #7C451D",
"j  c #7A481D",
"k  c #584528",
"l  c #5E4430",
"z  c #6B4323",
"x  c #684528",
"c  c #734523",
"v  c #794722",
"b  c #754A25",
"n  c #7B4A24",
"m  c #744B2B",
"M  c #7B4C2B",
"N  c #724729",
"B  c #74522C",
"V  c #7D522C",
"C  c #795329",
"Z  c #644932",
"A  c #764D32",
"S  c #7D5332",
"D  c #7C5A34",
"F  c #765838",
"G  c #6A5232",
"H  c #79643A",
"J  c #6E613C",
"K  c #6C5845",
"L  c #79674A",
"P  c #86491D",
"I  c #8D501D",
"U  c #834B24",
"Y  c #8A4D21",
"T  c #824E2A",
"R  c #845126",
"E  c #8A5226",
"W  c #84542C",
"Q  c #8B542C",
"!  c #88582E",
"~  c #945425",
"^  c #92562C",
"/  c #935A2D",
"(  c #9B5C2D",
")  c #985726",
"_  c #835533",
"`  c #8B5632",
"'  c #845A34",
"]  c #8C5C34",
"[  c #8B5D3A",
"{  c #85593A",
"}  c #945C33",
"|  c #9B5D33",
" . c #945E3A",
".. c #935934",
"X. c #A05F29",
"o. c #9E602C",
"O. c #8A633B",
"+. c #956236",
"@. c #9B6234",
"#. c #94633B",
"$. c #9B643B",
"%. c #9C6A3F",
"&. c #95693B",
"*. c #A7652E",
"=. c #A36333",
"-. c #AA6434",
";. c #A2663B",
":. c #A46B3D",
">. c #AD6B3B",
",. c #AA6A37",
"<. c #B26C38",
"1. c #AC713E",
"2. c #BC713C",
"3. c #B2723E",
"4. c #C2783E",
"5. c #826442",
"6. c #9D6D43",
"7. c #986845",
"8. c #987449",
"9. c #926F52",
"0. c #977B53",
"q. c #8D7250",
"w. c #A36C43",
"e. c #AB6E43",
"r. c #A26B46",
"t. c #A57245",
"y. c #AB7245",
"u. c #A4744B",
"i. c #AC754B",
"p. c #AC794C",
"a. c #B27343",
"s. c #B37946",
"d. c #B3764A",
"f. c #B37B4C",
"g. c #BA7C4B",
"h. c #BC7845",
"j. c #AD7B52",
"k. c #A77853",
"l. c #B27D53",
"z. c #BB7E52",
"x. c #9B7D60",
"c. c #C17D4C",
"v. c #C67C45",
"b. c #9F855A",
"n. c #BD814C",
"m. c #A58659",
"M. c #BB8255",
"N. c #B4835B",
"B. c #BC845A",
"V. c #BD895C",
"C. c #B38357",
"Z. c #B7915E",
"A. c #9E8160",
"S. c #A68862",
"D. c #BC8C64",
"F. c #B68A63",
"G. c #AC9166",
"H. c #BE926B",
"J. c #B79568",
"K. c #BD9B74",
"L. c #C4834E",
"P. c #CC844A",
"I. c #D4894E",
"U. c #C48453",
"Y. c #CA8753",
"T. c #C58955",
"R. c #CC8A55",
"E. c #C38659",
"W. c #C48C5C",
"Q. c #CB8D5B",
"!. c #D28E5B",
"~. c #D48E55",
"^. c #CD915D",
"/. c #C7915E",
"(. c #D3925E",
"). c #DB955A",
"_. c #C38D61",
"`. c #C98F61",
"'. c #C49466",
"]. c #CB9263",
"[. c #C4946B",
"{. c #CB9C6D",
"}. c #C69A6A",
"|. c #D29463",
" X c #D49965",
".X c #DB9A66",
"XX c #D39B6B",
"oX c #DC9D6A",
"OX c #D49668",
"+X c #C59D72",
"@X c #CC9D73",
"#X c #C49771",
"$X c #DB9F71",
"%X c #E79E68",
"&X c #F19F64",
"*X c #DDA16D",
"=X c #CFA279",
"-X c #D4A375",
";X c #DCA374",
":X c #D3A47A",
">X c #DBAA7C",
",X c #D9A77A",
"<X c #E3A26C",
"1X c #EBA46D",
"2X c #F8AB6F",
"3X c #E4A673",
"4X c #ECA975",
"5X c #E3AB7A",
"6X c #EBAD7B",
"7X c #E8A875",
"8X c #F4AD76",
"9X c #F2AE7B",
"0X c #FAAD76",
"qX c #EBB17E",
"wX c #F4B17C",
"eX c #FDB47B",
"rX c #FFBD7E",
"tX c #FCB274",
"yX c #DAAE88",
"uX c #DBB28C",
"iX c #DEB790",
"pX c #E8B588",
"aX c #F3B583",
"sX c #F4BA8A",
"dX c #F9BD8C",
"fX c #F8B885",
"gX c #EABB94",
"hX c #EAB388",
"jX c #FDC28B",
"kX c #EFC595",
"lX c #FCC394",
"zX c #FCCB9B",
"xX c #F7C699",
"cX c #FFD3A2",
"vX c #F6CAA3",
/* pixels */
"                                                                hXyX9.K K F _.9X*X].;XhXsXyXzXzXzXzXzXcXlXxXcXpXuXvXxXzXzXyXuXgX",
"                                                                5XyX9.l p F C.7X1X3XoXoX7X5XlXlXqXdXsXlXlXdXlXhXuXxXgXkXxXxXgX:X",
"                                                                3X3X7.p k Z 8.oX).(.OXoX X*XsXdX3XsX9XaXdXsXdXhXiXgX=X:XhXpX,XhX",
"                                                                |.|.7.i i i _ !.~.s.E..X.XoXaXzXsXsX7XwXjXsXaX,XyXiX:X:X:X-X@XyX",
"                                                                Q.E.u._ _ _ | 4.).Y.Y.1X8XoX7XlXaXwX4X9XsXaXaX,XyXuX:XyX,X-X@X#X",
"                                                                |.Q.M.Y.I.I.P.,.g.Y.P.).1XQ.;XsX7X4X1X9X7X7XwX5X=X:X:X:X:X:X#XH.",
"                                                                ;XXX;XaX%X!.oXOX].|..X%X7X3XsXlXsXfXfXdX9X3X7XwX3X;X;X;X7XqX5X;X",
"                                                                XX,X@XD.[.$X1XtXfXfX9X7X7XhXsXlXzXzXjXaX9X3XqXaXwX9X8X8XtXeXeXeX",
"                                                                N.l.F.H.@X5XtX2XtX2X&X&X1X8X0XeXjXjXjX7X<X9XeXeXtX4XeXfXrXrXrXrX",
"                                                                E.l.=XkX,X@X-X-X{.'.'.V.'.$X].W._.].].l.w.l.M.N.V.l.j.M.N.M.M.f.",
"                                                                T.XXk.8 3 * * + + X + + X a 4 O + + % * & % @ o = i . . . . . . ",
"                                                                Q.oXM.{ A x x p p 3 p p 3 L 5.N x x M [ [ [ _ N K L p l G G Z Z ",
"                                                                (.].`.|.OX].W.`.{.k.k.N.c.H.,X1XoXoX1XwXeXwXwX4X@X=X[.[.@X@X@X@X",
"                                                                Y.W.M.M.N.N.l.p.N.7.[  .,.F.@XoX].].oX7XwX3X4X$X[.K.H.F.H.H.[.#X",
"                                                                T.M.M.z.N.]._.j.k.7.[ ..@.S.@XoXOX^.oX7XaX3XoXXXF.G.F.F.H.H.F.H.",
"                                                                i.i.i.w.N.XX].l.7.7.w.;. .x.#X X|. XoX3X3X3X X`.F.J.[.[.F.F.[.C.",
"                                                                w.i.$.w.E.].M.t.7._ ' 6.6.A.}.|.].(..X.X(.oX.X].F.H.-XXXF.F.C.u.",
"                                                                i.l.d.y.z.z.w.' S x N $.y.S.J.W.Q.W. X<XQ.|.oXXXH.C.'.[.[.#X[.[.",
"                                                                $.d.f.w.e.w. .N x s S $.e.S.H.].`.T.(.<X(.(.!.Q.C.k.F.F.{.{.C.F.",
"                                                                 .e.i.#. .#.[ N z N ]  .$.S.#X].W.Q.Q..XoXoXQ.T.l.j.W.M.XX;XV._.",
"                                                                #.w.y.` _ #.#.M A { S M T S.#XQ.Q.Q.Y.!.<XoXY.Y.i.6.W.T. X*X].].",
"                                                                :.y.w.` ` |  .M A _ _ T U S.#X].|.Q.T.Q.*X|.c.Q.y...V.M.V./.W.W.",
"                                                                $.y.y.| ......_ N _ :.;...G.}.E.Q.Q.L.Y.Q.Q.L.Y.f.$.M.C.C.V.f.i.",
"                                                                | i.l...` [ ..[ S #.g.a.| G.#XT.Q.^.Y.T.d.z.T.Y.d.:.V.C.l.f.p.u.",
"                                                                $.j.u.` ] ` .. ._  .a.s.@.J.}.y.M.!.L.T.y.d.T.Y.y.:.V.W.].W.j.8.",
"                                                                6.r.$.....` @.$.Q ` | ;...G.}.a.W.(.c.c.d.d.T.T.a.:.M.W.5X{.p.#.",
"                                                                $.r.w...^ ..$.$.@.,.3.,.Q 0.{.).<X XY.T.E.g.g.c.,.:.M.V.[.u.$.6.",
"                                                                $.i.r.^ =.$.....*.2.v.=.v 0.}.(. XQ.L.Q.|.g.g.c.:.$.N.p.6.&.t.$.",
"                                                                $.i.w...@...Q ....| @.R g m.J.T.T.g.h.!.|.W.f.g.$.@.M.w.&.u.t.t.",
"                                                                :.i.w.] _ V x 8 7 s N M U m.Z.g.E.g.c.Y.(._.i.:.] ..p.6.6.6.p._.",
"                                                                h.g.w.[ A x p 3 7 z M T R m.Z.f.N.z.c.Q.(.N.:.w.` _ i.$.6.M.Q.T.",
"                                                                g.g.w._ A N M M U v M T R 0.m.i.N.d.a.T.Q.z.;.w.] ..y.u.V.Q.L.h.",
"                                                                a.a.$.T M M M Q ^ R n U Q 0.S.C.N.d.a.M.N.M.=.;...| n.W.f.| -.2.",
"                                                                ( =.` N N M ..( E Q Q Q Q q.G._.N.f.f.M.N.M.=.;...:.T.,.=.,.<.( ",
"                                                                ^ Q N s e z T R n T ^ ( ^ q.S.N.l.i.f.M.g.g.3.e.i.w.e.=.=.-.-.-.",
"                                                                | ..N z e 7 7 e N v ^ =.( q.m.C.C.C.M.g.,.3.c.a.$.$.| ( -.-.-.| ",
"                                                                | ^ N z s s e r N n | ( Q L b.F.F.C.i.a.=.,.g.$...Q | -.2.v...: ",
"                                                                Q T z N N s f N N Q | Q r G m.C.j.t.w.a.h.,.@.| | =.,.h.P.@.; & ",
"                                                                R R Q ] N 7 v Q E ^ ^ U e Z m.p.w.$.;.:.:.@.@.=.-.2.P.T.R $ ; e ",
"                                                                ^ ..$._ e 7 R ^ j n N r 7 k 8.:...;.e.=.^ @.=.-.2.P.h.z $ > z V ",
"                                                                R T M e 0 n ` N w g g r 5 k &.;.:.:.:.=.,.,.<.4.I.y.e # > b ' _ ",
"                                                                U N s N U ) ) I I Y Y g > k &.:.:.@.^ =.3.3.h.Y.#.: > z b R R ] ",
"                                                                E h y Y ) ) ( ( ) E U u < > 6.i.@.@.,.-.-.g.f.Q $ @ N 6.] V ] ] ",
"                                                                Y h y h P ) ( ( U h P h t N j.y.+.@.^ @.a.u.N , ; z 7.#.+.] ] ] ",
"                                                                U h y 0 w P ^ Y e y P P @.p.p.:.+...^ s.u.7 $ 1 r B ' R ] ] ' #.",
"                                                                n h u r w h U h r y Y ;.y.t.:.$.@.@.g.w.q - < g V m B S ' ] _ O.",
"                                                                g w t g u U n g y U y.f.@.@.:.@.:.n.$.> ; e b R R B B S ' ' _ ' ",
"                                                                y 0 r N U U v w ! f.y.] $.w.:.y.f.' > , N T g R ] F x F ' _ _ S ",
"                                                                n N b n N g n $.l.w.] ] #.$.t.t.b ; > g Q Q h E [ F x S ' ' ! V ",
"                                                                n M M n r 9 e _ S N _ ] #.y.w.7 $ 7 n M n U R ^ ] F V _ ' O.' n ",
"                                                                M U U N 7 : : $ @ % $ e 7.#.8 # 5 n Q +.+.R Q ( +.H R ] ! ] R n ",
"                                                                R R U R _ V R M b e 7 z S z x O.u.l.l.W./.V.N.W.'.H.'.{.].'.{.].",
"                                                                n h h :.g.i.i.y.i.i.$.+.+.] 6.t.$.y.f.s.g.g.s.n.L.L.L.n.s.n.T.L.",
"                                                                z w r :.h.p.f.f.i.f.y.s.g.g.f.w.:.1.3.3.,.=.o.*.*.*.*.) ) ^ ( ) ",
"                                                                e 7 w :.f.p.M.T.W.W.W.Q.Q.^.W.f.M.T.n.a.,.@.E ^ =.o.( ^ R R ! ! ",
"                                                                e f g R R b M R V b V R n z B V ! ! M j n n f 0 z C f r r e q f ",
"                                                                g j g 2 , ; @ @ O o O # O . & > > > > > 7 8 < > 8 d & ; & & # & ",
"                                                                g j g 0 < < , $ @ O O # $ # & 5 5 5 5 e f f q 7 k k 4 5 > > > > ",
"                                                                v j f r e q r q e 7 e z z N r b #.R R ..+.#.! R F J B V B B N z ",
"                                                                n b g f 0 7 w h ^ @...n q r g ] u.y.@.:.y.y...Q F H ' R V ' R z ",
"                                                                n n N r 0 7 r g ) ,.Q e 7 2 f +.6.t.&.1.i.$.+.Q F H ' R V N N f ",
"                                                                n n f f r q f g h n 7 ; > < q R 6.+.+.6.$.] $.Q ' H F _ V z b b ",
"                                                                N b e e e 0 0 h n g r q y u q M ] ] #.6.] #.u.] O.H C ' V z N S ",
"                                                                z f q 7 7 7 0 u I P P I I Y h R +.$.$.t.6.6.6.#.5.L B V S S ' O."
};
