/* XPM */
static char *porta10[] = {
/* columns rows colors chars-per-pixel */
"64 64 30 1 ",
"  c #2E1604",
". c #2C1808",
"X c #503013",
"o c #683C19",
"O c #563A24",
"+ c #73431D",
"@ c #754D2B",
"# c #625031",
"$ c #706049",
"% c #8B582F",
"& c #966439",
"* c #A96A39",
"= c #8C4F1F",
"- c #966D48",
"; c #AF7649",
": c #C37D49",
"> c #C2783E",
", c #B88456",
"< c #B68E67",
"1 c #9D835C",
"2 c #C98A56",
"3 c #CF9869",
"4 c #D6A476",
"5 c #F1AD75",
"6 c #EA9E64",
"7 c #FFC07D",
"8 c #EEB88A",
"9 c #DAB088",
"0 c #F6C698",
"q c #F3DCC6",
/* pixels */
"89-$$@25634589000000000890000998480888990088888884392;334<O##-98",
"59-#O@,5643355005880080890800084800889908888089894<3223453OOO-85",
"44-O##-33233368858588888984488488889930q88888980932355580,XOO-55",
"33-OOO%22;26638088550884994444394333338q89884908932508888;XO#-55",
"22;%%%&>32265358855588849949443311<<1<90999894894425088553---356",
"32,2222*;2236248556555554444443<1;<<,<90999844444435888888005556",
"4348623333665480888854554444555444633658545565543665555555665626",
"343<3465885558800008545855555555555565556666655636665556663256;2",
",;<<3555556665550005655555585555755555555555555555555555555852=*",
"2;404344333<3432233;-;,,<;;,,,,;;;;;--;,-&&&&&-&&%--%%&&&&%%&-&2",
"23;OXXX......OX... X.   OO            X$.         O.  .     X&*,",
"23,%@##OOXOOX$-@@#@%%%%@$$OO#######@@#-9---%&----@1;*,<-&;-;,,,2",
"232333223;;,:<46336555553433333343444390085543444<90005365553222",
"22,,,,;;,-%&;<33333554543<<<<<333<<3<,<094662;,;;&905222266;&;2,",
"2,,;,32;;-%&&13332358433<<<<<<<<3<<<<,<043322;;;;2852;2343&@@&;;",
";;;-,33;---&&-3333344432<<33<<3,<33333493222****256322663%+%&;;;",
"-;&-23,;-%%&-13332662363<<43<<,;<3,<33492;;;*&*26232366;=o+-,;22",
";;;;;;-%@#@&;1<222362333<,3333333<-<<<39,;*;**26222263;=+%;22222",
"&;;-;-&@#o@&;1<322262222,;<<33,<3<1<<,<9,-&;222222232&%=*;222222",
"&;;&&&%@+@%&&13322233322;;2,34<23<111;<3;*;222;22232%o=::262;22:",
"&-;%%&&@@%@@%13222226322;-2236333,;;;;<4;;3222;;22,%o=;3:22;23:2",
"*;-%%&&@@%%%+133322263:2;&,,<222;;;-;;,4<32222;22%--%;22:2;;22,2",
"&;;&&&&%@%**&<3222222222;&,;,<,;&---;;,432233233&X--*;222:;*;;,,",
"&;;&%%&%@&;;&<322222;;22;*<,;;;;---;;;22222236<+o+1,*;;:::;*;;;,",
"&;;%%%&&%&;;&<3;2222;;22;*<232;-%---;22223223;OO%&<<;:22;;;;;;;;",
"--&&&%&&%%&*&<3;22::;;22;*,253;&@&&;32222233%Xo%;;<,;;;;;;;;;;;;",
"&--&%&&&&***%-3363222;;;**,<3;&-%%;,;;22222@Xo%;;;1,--*;;;,;;;,,",
"&;-%**&&**:*+-3232223;;:*&,;-&;&%;2;*:226,oXO%;-&-1,**;;;;;;;;;,",
"&;-&&&%&&&&%+,<22;;232;;&&,-&;;;;,;*:222-oX@%;-&&&1,*;;;*;:;;*;;",
"*;-%%@#OOo@@%,<;2;:222;*%&;---;22**::23;OX@%-%%;&%<<*;;;*;;**;;;",
";;-%@#OXO+@%%,,;,;:22,*-%%;&-,22;**:2;@$++%@@@@-&%<<;;;;**;;&-;*",
";;-%@@@@%+@%%-,;,;;22;*-%&;;<22;**::;OX$@%%@@-@&-&<<*;;;;*;;&&;*",
";;&%@@@%%%+%%-1,,;;,,,**&&,2;&*****&X.@1-%%@@%@%&&,,*;:;**;;*-;*",
"&*%@@@&&=%%%%-<2,;;,,,**&*2****&%=oXXo%--%-@@@@%-&1;*;;*********",
"%%@oo+%%+%%&%-1,;;;,;;*;;-;*****%X.X++%----@@@@&&-1;*;******&&&&",
"&%@+oOOo@@%*&-,,,,,;**;;&&&&***&X X+@%--&%&@@%%&%--;**;;;*&*&%%&",
"&%@+oooo@+&&%$1<<,;;**;&%%&**:&XXO@&&&--@%%@@%&@@--&&*;,;***%%%%",
"%%+@@oo@@%&%o#,,;;-;;*&&&**;2&X +%%&&&&%@%%@@%%@@%-%%%******&%%%",
"%%%%@O+%=%%%o#1;-&***&&***22% Xo%&%%%&&%@%%@@@@@@@%%+%&&&***&+%&",
"%&&%oO%%++@oXO--&*;&%&***2;+ X+@%%%%%&&%@@+@o@%%@%@%%%%%%***%+%*",
"%%@oo+%+o++oXO&********>2;o X@%%&%@%%%%&@%%@+@%%@%@%%%%%+&*%++==",
"%@o@%=%====+XO&**&%***;2&XX+@%%%&%@%%%&&@@%@@+@@@%@+=%&=@%*%=%%%",
"=+o===&&==%oXX-;&&***;;%  @-%@%%&%@%%&-&@@@@@@@%@%@@%**&%&%=%=%%",
"=+o+==&&%+=+o@;;&&%&;;@XX+-&%%%%%%@%%&-&@@@@@+%%%%@+%*&&&&%%=%%+",
"%+ooo=%=oo==&;;*&&%;;X Xo@%%%%%&%@%%&--%@@@@@%%@@@+@%%%+=%%=++++",
"++ooo+=+oo=*;**&&&;-oXX+@@@@%%%%%@%%%%%%@@@@%%%%+@O@%%%+%%%@++++",
"+oo+o%++o+;;&&*&*,&XXo@=%@@@%%%%@@%%@@@@@%%%%++%%%#@%=%=%%+oo+++",
"ooo+=%+o%;;%&-*;;%XX@%+=%@@@%%%@@@%%@@@@%%%%@++@+@@@%=%++@@oo@@+",
"+@@++++&;-%%&&;;@XX@%%+=%@@@%%%@@%%%%@@@@%%%@%%@@&+o%%@++X+o+@++",
"@@@+oXo%@@%%&;-O X+@+%=%%@@%%%%+%%%%@@@@%%&%%%&%&&Oo%@+++XOo+@++",
"+%%@XXX    o-&O X+%&%%%&&$%%%%%+%&%%@@@@@+%%%%%==&XXOXXo+OXX+@++",
"%%%%%@%@@oO+@+@&;;;22<,23<33323333322,,,,;,2,,,;,,----;;;;&;&+@+",
"+++*;;;;;;-&&&-;&;;;;;;,222,;,2222,2;;*;;&;;;**************;%XX+",
"+oo*;;;;;;;;;;;-******&****%=%&&%%%%===&==%&*&*&%**&=%%=&&&&+XXo",
"oXo*;;,22222222;22,;*&=%*&&%%=%%%%%%%=%%&%=&***&&***&&&&&&&&@ Xo",
"oo+%%@@=@@@%++@@%%@++++o@@ooooo+OXo+ooo++oo+o++@@@o+@++oo++@O.X+",
"+++XX       .  XXXXXXXXXOO X.. .  XXXXXX..X...XXXX ..XXX XXXXXX@",
"+++oXXX   .   .XXXXo++oXOOXXXXXXXXXXXOOOXXXXXXXXXX..XXXOXOOO..+@",
"+@++oooooOo++@o@&%%&&&%%@$@@@@@+@@@@@%%@@@%@@@@%@@+Oo+@@+@@@XXo@",
"+@++oXo+%&&+oo+%;;&*;;&%@$@%@%%+@%%%%&&%@@@@@@%%@@OXOo+@%%%++@@@",
"++@+oXo+=*%oXX+&-;&*;*&%@$%@@@@+@@@@%%%@@@@@@@%@@@OXOOOoo@@+@@@@",
"++++oo++++XXXXo%-%%&&&&%%$@%@@@@@@@@@%%@@@@@@@%@@@+XOOOOOo+@@@@@",
"@@ooooo+++ooooo@%%&-%&;%&$@%@@@@@@@@@@@@@@@@@@@@@@+XOoOOXO+@@@@@",
"++oXXXoo======+%%&&;--;&-$@@@@%%%@@@@@@@@@@@@++@@@@Oo+OOXO+##@@@"
};
