/* XPM */
static char *porta5[] = {
/* columns rows colors chars-per-pixel */
"64 64 229 2 ",
"   c None",
".  c #1C120C",
"X  c #100000",
"o  c #250D00",
"O  c #2A1101",
"+  c #26160B",
"@  c #311501",
"#  c #331903",
"$  c #3B1C04",
"%  c #371908",
"&  c #38220C",
"*  c #3A2515",
"=  c #411F03",
"-  c #4A2505",
";  c #492409",
":  c #4C2B0D",
">  c #452408",
",  c #542C0E",
"<  c #5A2D0C",
"1  c #5B320F",
"2  c #4D2D12",
"3  c #472A17",
"4  c #543214",
"5  c #5C3414",
"6  c #5C361A",
"7  c #5D391B",
"8  c #55361C",
"9  c #4E3018",
"0  c #633615",
"q  c #643916",
"w  c #6A3A15",
"e  c #643B1B",
"r  c #6B3D1A",
"t  c #693714",
"y  c #723D16",
"u  c #733E19",
"i  c #793D15",
"p  c #4C392B",
"a  c #563624",
"s  c #573A26",
"d  c #493F30",
"f  c #683E21",
"g  c #653E24",
"h  c #6C411D",
"j  c #74421C",
"k  c #7C451D",
"l  c #7A491E",
"z  c #7A4317",
"x  c #584528",
"c  c #5E4430",
"v  c #6B4223",
"b  c #664129",
"n  c #694729",
"m  c #734523",
"M  c #794722",
"N  c #764924",
"B  c #7B4A24",
"V  c #734A2C",
"C  c #7B4C2B",
"Z  c #724729",
"A  c #7E522C",
"S  c #7A5029",
"D  c #764D32",
"F  c #784E32",
"G  c #7C5132",
"H  c #76583C",
"J  c #655035",
"K  c #6A5847",
"L  c #7B654A",
"P  c #85471D",
"I  c #844B1F",
"U  c #894C1E",
"Y  c #814217",
"T  c #8D501D",
"R  c #834B24",
"E  c #8A4D21",
"W  c #824E2A",
"Q  c #845126",
"!  c #8A5226",
"~  c #85532B",
"^  c #8B542C",
"/  c #88592F",
"(  c #945424",
")  c #92562C",
"_  c #945B2D",
"`  c #9B5C2E",
"'  c #995526",
"]  c #835434",
"[  c #8B5632",
"{  c #875934",
"}  c #8D5C34",
"|  c #8B5C3A",
" . c #85593A",
".. c #945B33",
"X. c #9A5D33",
"o. c #945E3A",
"O. c #945934",
"+. c #8B653A",
"@. c #956236",
"#. c #9C6234",
"$. c #94623B",
"%. c #9B643B",
"&. c #9C6A3E",
"*. c #966A39",
"=. c #9E602C",
"-. c #A4642F",
";. c #A36334",
":. c #A2663B",
">. c #A46B3D",
",. c #AD6B3B",
"<. c #A96836",
"1. c #B26D3A",
"2. c #AB713E",
"3. c #B2723E",
"4. c #BA7039",
"5. c #C2783E",
"6. c #946242",
"7. c #9C6D43",
"8. c #9C6C4A",
"9. c #9B6843",
"0. c #97744A",
"q. c #926F52",
"w. c #977B53",
"e. c #876A4A",
"r. c #A36C43",
"t. c #AB6E44",
"y. c #A26B46",
"u. c #A47144",
"i. c #AB7245",
"p. c #A5744A",
"a. c #AC754B",
"s. c #AE794C",
"d. c #B27343",
"f. c #B37846",
"g. c #BE7A45",
"h. c #B3764A",
"j. c #B37A4C",
"k. c #BA7C4B",
"l. c #B87647",
"z. c #AD7B53",
"x. c #A77753",
"c. c #B27C52",
"v. c #BB7E52",
"b. c #9B7D60",
"n. c #C17D4C",
"m. c #C37A43",
"M. c #9F855A",
"N. c #BD824C",
"B. c #A38659",
"V. c #BC8255",
"C. c #B5825A",
"Z. c #BC845A",
"A. c #B6875A",
"S. c #B7915E",
"D. c #9E8160",
"F. c #A38562",
"G. c #A88A62",
"H. c #BC8A63",
"J. c #B58C66",
"K. c #AB9165",
"L. c #B8956A",
"P. c #C5824E",
"I. c #CC854D",
"U. c #D78A4E",
"Y. c #C48453",
"T. c #CA8753",
"R. c #C38855",
"E. c #CC8A55",
"W. c #C38659",
"Q. c #C48B5C",
"!. c #CB8D5B",
"~. c #D28E5B",
"^. c #D48E55",
"/. c #CD915D",
"(. c #D3925E",
"). c #DB955A",
"_. c #C38C62",
"`. c #C98F61",
"'. c #C49365",
"]. c #CB9263",
"[. c #C29C6B",
"{. c #C9986C",
"}. c #D29463",
"|. c #D59965",
" X c #DB9A66",
".X c #D2966A",
"XX c #D49A6B",
"oX c #DC9D6A",
"OX c #DA9763",
"+X c #C59E71",
"@X c #CC9B71",
"#X c #DB9F71",
"$X c #E79E68",
"%X c #F19F64",
"&X c #DDA16C",
"*X c #DBA274",
"=X c #D9A879",
"-X c #CFA373",
";X c #E3A26C",
":X c #EBA46D",
">X c #FCAC6F",
",X c #E4A673",
"<X c #EAA774",
"1X c #ECA975",
"2X c #E4AA7A",
"3X c #EBAD7B",
"4X c #E6A977",
"5X c #FAAD76",
"6X c #F2AE7B",
"7X c #F4AD75",
"8X c #ECB17E",
"9X c #F3B17C",
"0X c #FCB57C",
"qX c #FEB374",
"wX c #DFAE89",
"eX c #E4AD82",
"rX c #EBB487",
"tX c #F3B583",
"yX c #F4B788",
"uX c #F4BA8A",
"iX c #F9BD8C",
"pX c #F8B884",
"aX c #F7BF93",
"sX c #FDC28B",
"dX c #FCC394",
"fX c #FDCB9A",
"gX c #FBC695",
"hX c #EFC893",
"jX c #FFD3A2",
/* pixels */
"                                                                                rXwXq.K K H W.6X&X].*X8XyXeXfXfXfXfXfXjXdXgXjXrX",
"                                                                                2XeXq.c s H A.<X:X,XoXoX4X2XdXdX8XiXyXdXdXaXdXrX",
"                                                                                ,X,X8.a s c 8.oX).(..XoX|.&XuXiX,XuX6XtXiXuXiXrX",
"                                                                                |.|.8.p p p ] ~.^.f.W.|.|.oXtXfXuXuX<X9XsXuXtX=X",
"                                                                                !.W.p.G ] ] X.5.).E.T.:X7XoX3XdXtX9X<X6XyXtXtX=X",
"                                                                                |.!.V.T.U.U.I.,.k.E.I.).;X!.*XuX3X<X:X6X3X3X9X2X",
"                                                                                *X|.*XtX$X~.oX.X].|.|.$X<X,XuXdXuXpXpXiX6X,X3X9X",
"                                                                                |.*X@XH.[.#X:X5XpXpX6X<X3XtXuXdXfXfXsXtX6X,X8XtX",
"                                                                                Z.c.H.L.@X2X5X>XqX>X%X%X<X7X5X0XsXsXsX<X;X6X0X0X",
"                                                                                W.c.-XhX=X@X=X=X{.'.'.Z.'.#X].Q.`.'.].c.r.c.V.Z.",
"                                                                                Y.|.x.8 3 * * + + . + + . d 3 O + + % & & % @ o ",
"                                                                                !.oXV.] D n b s a 3 a a 3 L e.Z n n C  . . .] Z ",
"                                                                                /.].`.|..X].Q.`..Xx.x.Z.k.L.=X:XoXoX;X9X0X9X0X<X",
"                                                                                E.Q.V.V.Z.Z.c.s.Z.8. .o.2.J.@X|.].].oX<X9X,X<X#X",
"                                                                                Y.V.V.v.V.].`.z.x.6. .O.#.F.@XoX.X].oX3XtX,XoX|.",
"                                                                                a.a.a.r.Z.|.].C.8.8.r.:.o.b.+X|.|.|.$X,X,X,X|.`.",
"                                                                                r.a.&.r.Q.].V.p.6.] { %.9.D.[.|.].(.OX|.(.oX|.].",
"                                                                                a.c.h.i.v.k.r.} G b Z %.t.F.J.Q.!.Q.|.;X!.|.oX|.",
"                                                                                %.h.h.r.t.r.o.Z b g G %.t.F.L.].`.R.(.;X(.(.~.!.",
"                                                                                o.t.a.$.o.$. .Z v Z } O.%.F.+X].Q.!.!.OXoXoX!.R.",
"                                                                                $.r.i.[ ] $.$.C D ] G C W F.+X!.!.!.T.~.;XoXE.E.",
"                                                                                >.i.t.[ [ O.o.C F ] ] W R G.+X].|.!.Y.!.oX|.n.!.",
"                                                                                %.i.i.X.O.O.O.] Z ] >.:.O.K.[.W.!.!.P.T.!.!.P.E.",
"                                                                                X.a.c.O.[  .O. .G $.k.d.X.L.+XY.!./.T.Y.h.v.Y.T.",
"                                                                                %.z.p.[ } [ O.o.] o.d.f.#.L.[.i.V.~.P.Y.d.h.Y.T.",
"                                                                                9.y.%.O.O.} #.%.^ ^ X.:.O.K.[.d.Q.(.n.n.h.h.Y.Y.",
"                                                                                %.y.r.O.' O.%.%.#.,.1.,.^ w.{.).;X|.T.Y.W.k.k.k.",
"                                                                                %.x.y.) ;.%.O.O.-.4.m.;.M w.[.(.|./.P.!.|.k.k.n.",
"                                                                                %.a.r.O.#.O.^ O.O.X.#.Q z B.L.Y.Y.k.g.~.|.Q.h.k.",
"                                                                                >.a.r.} ] A n 8 7 f Z C R B.S.k.W.k.n.E.(.`.a.r.",
"                                                                                l.k.r. .D b a 3 7 v C W Q B.S.h.Z.v.n.!./.Z.r.r.",
"                                                                                k.k.r.] D Z C C R M C W ] w.B.a.Z.h.d.Y.!.v.:.r.",
"                                                                                d.d.%.W C C C ^ ' Q B R ^ w.G.A.Z.h.d.V.Z.V.;.:.",
"                                                                                ` ;.[ Z Z C O.` ! ^ ^ ^ ^ 0.K.H.Z.h.h.V.Z.V.;.:.",
"                                                                                ) ^ Z g e v W Q B W ' ` ) 0.G.Z.c.a.h.V.k.g.3.t.",
"                                                                                X.O.Z v e 7 7 e Z Z ' ;.` q.B.A.A.C.V.k.<.1.n.d.",
"                                                                                X.) Z v f e e r Z B X.` ^ L M.H.H.C.a.d.;.,.k.%.",
"                                                                                ^ W v Z Z f h Z Z ^ #.^ r J M.A.z.u.r.t.l.,.#.X.",
"                                                                                Q Q ^ } Z 7 M ^ ! ) ' R e J M.s.r.%.:.>.>.#.#.;.",
"                                                                                ) O.%.] e 7 Q ) l B Z r 5 x 0.>.O.:.t.#.) #.;.<.",
"                                                                                Q W C e 0 B [ Z w z z r 4 x +.:.>.>.>.;.,.,.1.5.",
"                                                                                Q Z v Z R ( ' U U R E z 2 x *.>.>.#.) ;.1.3.g.I.",
"                                                                                ! z u E ( ' ` ` ( ! R z , 2 7.a.#.#.,.<.<.k.h.^ ",
"                                                                                ! z i z P ( ` ) R z U z t Z z.i.@.#.) #.d.p.Z - ",
"                                                                                B z i 0 w U ' E e i Y U #.s.h.>.@.O.) f.p.5 $ < ",
"                                                                                B z u r w z E z r i E >.i.i.>.&.#.#.k.r.q = , z ",
"                                                                                z w t z z R R z i R i.h.#.#.>.#.>.N.%.: > e N Q ",
"                                                                                i 0 r Z R R M w / h.i.} %.r.>.i.h.{ : - Z W z Q ",
"                                                                                B Z B B Z z B %.c.r.} } $.&.u.u.N ; : Z ^ ^ z ! ",
"                                                                                C C C B r 1 e ] G Z ] } $.i.r.7 $ 5 B A B Q Q ) ",
"                                                                                S W W N 5 ; ; $ @ % $ e 6.$.8 # 4 B ^ @.} Q Q ` ",
"                                                                                Q Q R Q ] A ] C N e 7 v G v n +.p.z.c.Q.Q.Z.Z.Q.",
"                                                                                B z z >.k.a.a.i.a.s.&.@.@.O.r.u.&.i.f.f.k.k.f.N.",
"                                                                                v w r >.g.s.h.h.s.h.i.f.k.k.h.r.>.2.3.3.,.;.=.-.",
"                                                                                e 5 w >.h.s.V.R.Q.Q.Q.!././.Q.h.V.R.N.d.,.#.! ) ",
"                                                                                e h z Q Q N B Q A N A Q B v F A / / S l B B h q ",
"                                                                                z B z 1 ; & @ O O o O # O X & : : : : : 4 5 , : ",
"                                                                                z l z 0 , , - $ @ O O # $ # & 4 4 4 4 e h h q 5 ",
"                                                                                Z N h r e q r e e 7 e v v Z r N $.Q Q O.@.$.^ Q ",
"                                                                                B N z h q 5 r z ) #.O.B q r z } p.i.#.>.i.i.O.^ ",
"                                                                                B B Z r 0 5 r z ( <.^ e 5 1 h @.7.u.*.2.s.&.@.^ ",
"                                                                                N B h h r w h z z B 5 ; 2 , q Q 7.+.+.7.%.} &.^ ",
"                                                                                v N e e e 0 q z B z r q i u q C } } $.7.} $.p.} ",
"                                                                                v h q 5 5 5 0 i U U P U T E z Q +.&.%.u.7.7.u.$."
};
