/* XPM */
static char *porta1[] = {
/* columns rows colors chars-per-pixel */
"64 64 247 2 ",
"   c None",
".  c #120300",
"X  c #190900",
"o  c #0F0705",
"O  c #240B00",
"+  c #2B1201",
"@  c #261609",
"#  c #331A02",
"$  c #371904",
"%  c #3E240A",
"&  c #3B2407",
"*  c #382515",
"=  c #3A3128",
"-  c #43260B",
";  c #442A0D",
":  c #4B2B0D",
">  c #482408",
",  c #542C0D",
"<  c #4B2D12",
"1  c #462B16",
"2  c #552F13",
"3  c #4C3215",
"4  c #533315",
"5  c #5B3414",
"6  c #553419",
"7  c #5D3A1C",
"8  c #58371A",
"9  c #5B320F",
"0  c #633615",
"q  c #643917",
"w  c #6A3B16",
"e  c #643C1B",
"r  c #6B3D1A",
"t  c #693714",
"y  c #733E17",
"u  c #593A24",
"i  c #493A2C",
"p  c #653E22",
"a  c #411F03",
"s  c #6B411D",
"d  c #66411B",
"f  c #74421C",
"g  c #7C451D",
"h  c #7A481D",
"j  c #594528",
"k  c #5E4430",
"l  c #6C4423",
"z  c #6D4925",
"x  c #684628",
"c  c #734523",
"v  c #744A25",
"b  c #7B4B24",
"n  c #744C2B",
"m  c #7B4D2B",
"M  c #774624",
"N  c #75522D",
"B  c #7C522D",
"V  c #7A5329",
"C  c #674B35",
"Z  c #764D32",
"A  c #7C5432",
"S  c #7C5A34",
"D  c #785838",
"F  c #6A5433",
"G  c #79643A",
"H  c #6E613C",
"J  c #49421D",
"K  c #6C5845",
"L  c #776648",
"P  c #71695E",
"I  c #86491D",
"U  c #8D501D",
"Y  c #834C24",
"T  c #8A4E22",
"R  c #824E2A",
"E  c #845126",
"W  c #8B5226",
"Q  c #84542C",
"!  c #8B552B",
"~  c #88582D",
"^  c #935525",
"/  c #92552B",
"(  c #935A2C",
")  c #9C5C2D",
"_  c #985927",
"`  c #835632",
"'  c #8B5632",
"]  c #845A34",
"[  c #8B5C34",
"{  c #855C39",
"}  c #8A5D3A",
"|  c #935C34",
" . c #9B5D32",
".. c #935E3A",
"X. c #955A35",
"o. c #A15E2B",
"O. c #9D602C",
"+. c #8D613B",
"@. c #886239",
"#. c #946236",
"$. c #9C6234",
"%. c #93643C",
"&. c #9B643B",
"*. c #9C6A3E",
"=. c #956A3C",
"-. c #A5642E",
";. c #A36433",
":. c #AA6534",
">. c #A2663B",
",. c #A46B3C",
"<. c #AC6C3B",
"1. c #AA6938",
"2. c #B36D3C",
"3. c #B06934",
"4. c #AC713D",
"5. c #B3723E",
"6. c #BB723C",
"7. c #C2783E",
"8. c #885D42",
"9. c #8A6542",
"0. c #926542",
"q. c #9D6C43",
"w. c #986A45",
"e. c #99734A",
"r. c #997953",
"t. c #8E7456",
"y. c #A36C43",
"u. c #AB6E42",
"i. c #A26B46",
"p. c #A57245",
"a. c #AB7244",
"s. c #A3734B",
"d. c #AC754B",
"f. c #AC7A4C",
"g. c #B37443",
"h. c #BB7643",
"j. c #B47946",
"k. c #BB7A45",
"l. c #B2764A",
"z. c #B37B4D",
"x. c #BA7C4B",
"c. c #B8774D",
"v. c #AB7B52",
"b. c #A67954",
"n. c #B27D53",
"m. c #BB7E52",
"M. c #B56F40",
"N. c #9B7D60",
"B. c #C17E4B",
"V. c #C47B45",
"C. c #9E8358",
"Z. c #BD814C",
"A. c #A88459",
"S. c #B38255",
"D. c #BB8255",
"F. c #B4845C",
"G. c #BC845A",
"H. c #BC8A5D",
"J. c #B58A5A",
"K. c #B7915E",
"L. c #9B8463",
"P. c #A68863",
"I. c #B68B64",
"U. c #BB8C64",
"Y. c #B58964",
"T. c #AA9267",
"R. c #BE926B",
"E. c #B99367",
"W. c #BE9975",
"Q. c #C4834D",
"!. c #CB854C",
"~. c #D4894E",
"^. c #C48452",
"/. c #C98653",
"(. c #CC8A54",
"). c #C48C5C",
"_. c #CB8D5B",
"`. c #C48857",
"'. c #D28E58",
"]. c #CD915D",
"[. c #C7915E",
"{. c #D3915C",
"}. c #DA9559",
"|. c #C38D61",
" X c #C88D61",
".X c #C49365",
"XX c #CB9363",
"oX c #C3946B",
"OX c #C89B6C",
"+X c #D39462",
"@X c #D49965",
"#X c #DC9B65",
"$X c #D49B6C",
"%X c #DC9D6A",
"&X c #D79665",
"*X c #C59C72",
"=X c #CB9C73",
"-X c #C49A74",
";X c #D99F72",
":X c #E89E64",
">X c #F19F64",
",X c #DCA16C",
"<X c #CCA279",
"1X c #D4A375",
"2X c #DCA373",
"3X c #D3A57B",
"4X c #DBAA7D",
"5X c #D8A87C",
"6X c #E4A26C",
"7X c #ECA46B",
"8X c #F7AA6B",
"9X c #E4A673",
"0X c #EBAA75",
"qX c #EBAD7B",
"wX c #E6AA77",
"eX c #F5AD77",
"rX c #ECB27D",
"tX c #F3B17C",
"yX c #FCB47A",
"uX c #FFBC7C",
"iX c #FEB374",
"pX c #FFB06E",
"aX c #E99C5E",
"sX c #FFC07D",
"dX c #DCAD83",
"fX c #D6AE88",
"gX c #DDB28C",
"hX c #DDB388",
"jX c #CFB08B",
"kX c #E3AD82",
"lX c #E3B58B",
"zX c #EABA8D",
"xX c #E7B486",
"cX c #F2B583",
"vX c #F4BA8A",
"bX c #F8BA88",
"nX c #E8BC94",
"mX c #F4BF92",
"MX c #D8BFA2",
"NX c #FDC28B",
"BX c #EDC295",
"VX c #FCC493",
"CX c #FCCB9B",
"ZX c #F6C598",
"AX c #F2CFA9",
"SX c #DEC8AA",
"DX c #F3DCC6",
/* pixels */
"                vXgXt.K K D |.tX,XXX2XxXvXkXCXCXCXCXCXCXVXCXCXzXgXAXZXCXCXdXgXnX<XnXZXnXzXlXhXgXBXVXzXzXzXzXlXnXlXfX<XkX`.n.+X&X",
"                wXkXt.k u F F.7X7X9X#X#XwXwXVXVXrXmXvXVXVXmXVXvXgXZXnXBXZXZXnX3XlXCXBXnXlXdXgXSXgXlXzXnXZXlXdXnXgX1XU.XX^.`.#X9X",
"                9X9Xw.u j C e.#X}.{.$X#X&X,XvXmX9XvXtXcXmXvXmXxXgXnX<X3XxXlX5XxXmXzXlXhXdX=XBXDXnXlXlXnXzXdXzXBXhXOX|.#X0X0XwXbX",
"                +X+Xw.i i i ` '.'.j.`.#X#X#XcXCXvXvX0XtXNXvXcX5XjXgX3X3X2X1X=XdX3X*X*X=X=X=XnXDXnXhXgXzX5XkXBXxXkX=X`.rXNXxXxXbX",
"                _.`.s.` ` `  .7.}.(./.7XeX#XwXVXcXtX7XtXvXcXcX5XjXgX3XdX5X1X=X*XP.P.R.I.Y.U.jXSXgXdXgXnXdX5XxXdX5X1X`.wXNXxXxXrX",
"                +X_.D./.~.~.!.<.x.(.!.}.7X_.2XvXwX7X7XtXwXwXtXwX<X3X3X3X3X3X*XR.A.b.I.U.A.H.fXSXgXgXgXxX5X1X5X2X3X1XXXwXmXcXbXmX",
"                2X$X2XcX:X'.#X$XXX+X#X:X7X9XvXVXvXbXbXmXtX9XwXtX9X2X2X2XwXrXwX2X2X2X,X$XXX,XrXzXwX2XwX0X7X0X0X9X#X,X#X0XyXtXyXyX",
"                $X2X=XU.oX;X7XeXbXbXtX0XwXxXvXVXCXCXNXcXtX9XrXcXtXeXeXeXiXyXyXyXyXyXyXiX:XeXiX7XaX:X7X>X>X7X8X7X}.aX7X>X8X8X8X7X",
"                G.n.U.R.=XwXiXiXiX8X>X>X7XeXiXyXNXNXNX0X6XtXyXyXiX8XyXbXuXuXuXuXsXuXuXuXiXiXiX8X8X8XiX8X8X8XiXpX8XpX8X8X8X8XiX8X",
"                `.n.1XBX5X=X1X1XOX.X.XH..X$XXX`.|.XXXXn.y.n.D.G.H.n.v.D.D.D.D.c.c.c.f.p.y.q.f.F.q.%.*.*.*.&.q.*.%.@.e.w.Q [ | &.",
"                ^.$Xb.8 1 * * @ @ @ @ @ @ i 1 @ @ @ # * % # # O = i X X X X . . . . . . . o * P @ . . X X X O O . o = * X O @ O ",
"                _.#XD.` Z x x u u 1 u u 1 L 9.n x x m } } } ` n K L u j C C C C C F F K F C t.jXr.9.9.} @.9.0.w.8.D L.v.1.G.I.q.",
"                ].XX X+X$XXX`. XOXb.b.G.B.R.2X7X,X#X7XtXyXtXtX7X=X<XoXoX=X=X=X=X<X=X1X5X1X.XfXAXVXcX0XwX2X$X2X1X$XU.jXNXNXVXtX&X",
"                (.`.D.D.G.G.n.f.G.w.{ ..4.I.=X#XXXXX#X0XtX9X7X;XoXW.R.U.R.R.oX-X*XoXU.oXU.S.W.SXdX2X,X#X`.m.D.n.c.&.jXCXrX{./.^.",
"                ^.D.D.m.G.XX|.v.b.0.} | &.P.=X#X$XXX#XwXcX9X#X$XI.T.I.U.R.R.U.R.oXR.R.U.U.J.W.SX3X$X+X(.Q.k.k.h.u.|.xXwX{.B._.#X",
"                d.d.d.y.G.$XXXn.w.w.i.&...N.*X#X+X&X#X9X9X9X&X XI.E.oXoXY.Y.oXF.oX=X.XoXoX.X<XMXoX`.^.Q.6.2.2.<._.wX#X}.{.'.#X6X",
"                i.d.*.y.`.XXD.p.0.` ` &.q.L.oX+XXX].#X#X{.#X#XXXU.U.1X$XU.Y.F.s.R.oXF.R.oX.X1XgX`.x.x.h.2.o.;.].#X{.}.{.&X6X#Xx.",
"                d.n.l.a.m.m.y.] A x n &.u.P.E.`.`.`.&X6X_.+X#X$XU.A..X.XoX*XoXoXoXR.r.I.R.H.oXfXD.g.,.5.<.;.`.#X(.!.'.{.#X&Xa.T ",
"                &.l.n.y.u.y...n x p A &.u.P.R.XX X`.{.6X{.{.'._.F.b.H.U.OXOXF.U.oXU.A.Y.I.F.R.jXD.y.$.g.^.^.(.!.!.(.{.#X].| Y ^ ",
"                ..u.d.%...%.} n x n [ ..&.P.*XXX`._._.&X#X#X_.`.v.v.`.D.$X2XH.|.OXU.A.A.A.b.I.-Xc.,.a._.{.Q.k.Q.'.{.+X|.} t W V.",
"                &.y.u.' ` ..%.m Z ` A m R P.*X_._._./.'.6X#X(.(.d.q.`.^.&X,XXXXXXXH.v.b.b.v.U.<Xa.c.XX{.'.Q.l.x./._.S.` y T j.}.",
"                >.g.y.' '  ...m Z ` ` R Y P.*XXX+X_.^._.,X+XB._.a.| G.D.H.[.`.`.f.v.b.r.b.s.F.<XH.&X_.(.{._.m.].`.} t.9.Y g.{.'.",
"                &.a.u. .| | | ` n ` >.>.| T.oX`.]._.Q./._._.^.(.c.&.D.S.S.H.c.d.%.e.e.w.b.s.F.3XXX^./.+X+X_.&XXX%.5 t.r.>.x.Q.!.",
"                 .d.n...' } | } A %.x.g. .T.*X^._.]./.^.l.m.`./.c.,.H.S.S.c.f.s.9.w.q.s.s.d.`._.Q.Q.{.XX+X6XU.x r b L.F.2.g.x.B.",
"                &.v.s.' [ ' | ..` ..g.j.$.W.oXa.^.'.Q.^.d.l.^./.a.,.H.`.XX`.v.e.{ 0.y.q.n.`._.^.'.&X(.{.,Xf.7 6 ' #.T.H.h.B.Q.^.",
"                q.i.&.| | ' $.&.! !  .>.| T.oXg.`.{.B.B.l.l.^.^.g.,.D.`.wXOXf.%.A @.&.v..X^.Q.!.(.^.}.#X@.5 e { s.p.T.S.h.x.g.j.",
"                &.i.y.| / | &.&.$.<.2.<.! r.OX}.6X&X/.^.`.x.x.B.<.,.D.H.oXs.*.q.` { v.G.x.6.Q.(.(.{._.n - e } b.d.a.P.A.y.y.,.d.",
"                &.d.i.( ;.&.| | -.6.V.;.b r.oX{.&X].Q._.+Xx.x.B.,.&.G.f.q.=.p.*.] s.`.g.2.V.Q.'.:XD.c - 7 0.s.w.*.y.L.A.,.,.a.x.",
"                &.d.y.| $.| ! | |  .$.Q f A.E.^.^.x.k.'.+X`.c.x.&.$.D.y.=.s.p.p.f.D.k.2.V.!.~.'.y.p 5 c } b.w.%.%.%.C.S.2.g.k.B.",
"                ,.d.y.[ ` B x 6 7 p c m Y A.K.x.`.x.B.(.{.|.d.,.[ | f.q.q.q.f.|.(.6.6.V.V.~.}.b.u 4 n ` 0.] { i...} T.H.2.g.k.a.",
"                h.x.y.{ Z x u 1 6 x m R Q A.J.c.G.m.B._.].G.,.y.' ` d.*.q.D._.^.g.:.6.B.!.k.A K x x ` m A D n 0.%.{ T.H.M.g.j.u.",
"                x.x.y.` Z n m m Y b m R Q r.A.d.G.l.g.^._.m.>.y.[ | a.s.H._.Q.h.2.5.V.B.d.e ; L S A ` c A 0.A ..q.@.T.J.2.g.k.h.",
"                g.g.&.R m m m ! / Q b Y ! r.P.F.G.l.g.D.G.D.$.>.|  .D.`.c. .:.6.3.3.5.| 6 & x C.e.] ` m A } B } &.%.A.S.2.h.B.h.",
"                ) ;.' c n m | ) W ! ! ! ! e.T.U.G.c.c.D.G.D.$.>.#.,.(.4.;.<.3.) / T y 2 : 0 [ r.w.} 0.A A A M [ q.%.C.f.2.x.k.5.",
"                / ! n p e x R R b R / ) ( e.P.G.n.d.c.D.x.x.5.u.a.u.u.;.;.:.:.:.R > % < s b [ e.9.9.0.B n A B ....9.C.c.<.a.<.2.",
"                 .| n x e 6 7 e c c / ;.) t.A.F.F.S.D.c.1.2.x.g.&.&. .) :.:.3. .2 # 3 x Q ` w.r.@.} @.B m ` [ [ ] 0.r.f.1.,.u.k.",
"                 ./ n x p e e r c b  .) ! L C.U.U.S.d.g.;.<.x.&./ !  .:.6.V.| > % 7 B @.%.%.q.e.D { { m m [ #.B n 0.e.=. .>.l.D.",
"                ! R x c c p s c c ! $.! r F C.F.v.p.y.u.h.<.$. . .;.1.h.!.$.- & x [ [ @.%.%.%.@.S ` ` m m ] ` M n ] w.@.R ! ,.,.",
"                Q Q ! [ c 6 b / W ( / Y e C A.f.y.&.>.,.,.$.$.;.:.6.!.^.Q $ - r } %.[ ] @.%.%.@.A Q Q m n B m c n m @.] b Y  .$.",
"                ( | &.` e 6 Q ( h b c r 5 j e.,.| >.u.$.( $.;.:.6.!.k.x $ : x B [ [ ` ] @.%.#.@.n B V M x c ! Q B ` S ] Q Q ( ( ",
"                Q R m e 0 b ' f t f f r 4 j =.>.,.,.,.;.<.<.3.7.~.a.e # : M ] ` %.[ B ] ] Q @.@.M Q ] B x c Q Q B ` S ~ ! ! ( ! ",
"                Y c x c Y ^ _ I I T T f < j =.,.,.$.( ;.2.5.k.!.%.> : x M Q Q [ %.] B ] [ [ #.@.B B Q B m b m m A ` N b W (  .W ",
"                W g y T ^ ^ o.) ^ W Y y , < q.a.$.$.<.:.:.x.c.! $ # c q.[ B [ [ %.Q m } @.%.%.@.A m m n n M V ` A ` z M ^ ;.1.) ",
"                T g y g I ^ ) ( Y g I g t n v.a.#.$.( $.g.s.c > - l 0.%.[ [ [ [ ] ` B ] @.%.0.@.x n B N M b Q Q ] { z b _ ;.$.) ",
"                Y g y 0 t I / T e y I I $.f.c.,.#.| ( j.s.5 $ 9 r N ] Q [ [ ] %.` A ] ] @.w.0.{ n n A B B Q ' m B A l m ( ( ! b ",
"                b g y r t g T g r y T >.a.a.,.&.$.$.x.y.q a , f B z N A ] [ ` @.` B { ] ] { { ] n B B m ! Q Y m b A j m ( ! Q b ",
"                f t t f f Y Y g y Y a.c.$.$.,.$.,.Z.&.: - e M E Q N N A ] ] ` ] n N @.] A S A A B ~ Q Q Y b b B ` ] x m ! E ! E ",
"                y 0 r c Y Y b t ~ c.a.[ %.y.,.a.c.] : > c R g E [ D x S ] ` ` A A A ] ` ` S A A S Q ] ` M b b M s B c c Q E Q b ",
"                b c b b c f b &.n.y.[ [ %.*.p.p.M - : c ! ! g W } D N S ] ] ~ B A ] ] ] ] A n S D S ] ` B Q Q M f | x e ` ! m x ",
"                m m m b r 9 e ` A n ` [ %.u.y.7 $ 5 b B b Q E ( [ D B ` ] @.] b ~ @.~ [ A n n S ] } %.[ Q ~ #.( $.&.7 e ` m s x ",
"                V Q Y M 5 > > $ # # $ e 0.%.6 # 4 b ! #.[ Q ! ) #.G Q [ [ [ Q b ! | Y Q B c M V B b Q ! Y E ! T W | 5 , 7 2 , 0 ",
"                E Q Y Q ` m ` m M e 7 x A x x @.s.v.n.`.`.H.G.`..XR..X$XXX|.XXXXXX$X.X`.`.G.D.S.S.f.S.`.D.D.Z.x.D.D.p.q.q.y.p.a.",
"                b g g ,.x.d.d.a.d.d.*.#.#.| y.p.*.a.c.j.x.x.j.Z.Q.Q.Q.Z.j.Z.`.Q.Q.Q.Z.Q.x.a.<.g.4.,.a.x.j.4.4.4.1.,.5.<.<.4.4.5.",
"                s t t ,.k.f.c.c.d.c.a.j.x.x.c.y.,.4.5.5.1.;.O.-.-.-.o._ ^ ( ) _ _ _ _ ( ^ W ^ _ ^ ^ ( O.-.) -.O._ -.-.) ^ _ _ ^ ",
"                e 5 q ,.c.f.D.^.`.`.`._._.].`.c.D.`.Z.g.1.$.W ( ;.O.) ( ! E ~ ~ ( ~ ! ! ! W ~ (  .( ^ $.;.;.;.$.O.1.1.;.) $.$.) ",
"                e s f Q Q M b Y B M B Q b x N B ~ ~ V h b b s 0 z v t r r e q e 7 5 e d e e e d x e e s e d x M M M d d M s s r ",
"                f b f 9 > - # # @ O @ # @ . & : ; ; : : 5 5 , : 8 J & - % & # & # # ; : - ; ; ; & & - % & & - ; ; ; + @ % ; - ; ",
"                f h f 0 , , > $ # @ @ # $ # % 4 4 4 4 e d s q 5 j j 3 4 3 ; ; ; - ; 4 4 3 4 4 8 3 3 3 3 ; : 4 4 4 3 % % < < < 6 ",
"                b M s r e q r e e 7 e l x c r M %.Q Q | #.%.~ Q S H N B N N n x x B B B B Q ` S S A { A n n B ] A N x 7 p x B A ",
"                b M f s q 5 r g ( $.| b q r f [ s.a.$.,.a.a.| ! S G ] Q B ` Q x B [ Q ~ ] [ [ { S A A N N n ] } N A u < 6 p x m ",
"                b b c r 0 5 r f ^ 1.! e 5 9 s #.q.p.&.4.j.,.#.! S G ] B B n n s M S n B ] ] { N z z M z z M ] A n A u < 7 u 6 e ",
"                b b s s r q s f g b 5 - < , q Q q.@.@.*.&.| *.' ] G S ` B z M M N A N B A { { D x z z z z n ] N n A l 4 6 6 7 7 ",
"                c M e e e 0 q g g f r t y y q m [ [ %.q.[ %.s.[ @.G V ` B z n A A A A D A A S N z z z z z z n n n A l 4 6 p 7 7 ",
"                l s q 5 5 5 0 y I I I I U T g Q [ &.&.p.q.q.p.%.9.L N B A A ] } ] ` B N A A S B N n M B B s x B B S x 6 e x 7 6 "
};
