/* XPM */
static char *viewfinder[] = {
/* columns rows colors chars-per-pixel */
"96 96 3 1 ",
"  c #000000",
". c #31E00F",
"X c #39FF13",
/* pixels */
"                                                                                                ",
"                                                                                                ",
"                                                                                                ",
"                                                                                                ",
"                                                                                                ",
"                                                                                                ",
"                                                                                                ",
"                                                                                                ",
"                                                                                                ",
"                                                                                                ",
"                                                                                                ",
"                                                                                                ",
"                                                                                                ",
"                                                                                                ",
"                                                                                                ",
"                                                                                                ",
"                                                                                                ",
"                                                                                                ",
"                                                                                                ",
"                                               XX                                               ",
"                                               XX                                               ",
"                                               XX                                               ",
"                                               XX                                               ",
"                                               XX                                               ",
"                                               XX                                               ",
"                                               XX                                               ",
"                                          XXXXXXXXXXXX                                          ",
"                                       XXXX    XX    XXXX                                       ",
"                                     XXX       XX       XXX                                     ",
"                                    XX         XX         XX                                    ",
"                                  XX        XXXXXXXX        XX                                  ",
"                                 XX      XXXX  XX  XXXX      XX                                 ",
"                                XX     XXX     XX     XXX     XX                                ",
"                               XX    XXX       XX       XXX    XX                               ",
"                              XX    XX         XX         XX    XX                              ",
"                              X    XX          XX          XX    X                              ",
"                            XX    XX           XX           XX    X                             ",
"                            XX   XX            XX            XX   XX                            ",
"                            X    X             XX             X    X                            ",
"                           XX   XX             XX             XX   XX                           ",
"                           X    X              XX              X    X                           ",
"                           X   XX              XX              XX   X                           ",
"                          XX   X               XX               X   XX                          ",
"                          X    X               XX               X    X                          ",
"                          X   XX               XX               XX   X                          ",
"                          X   XX               XX                X   X                          ",
"                          X   X                XX                X   X                          ",
"                   XXXXXXXXXXXXXXXXXXXXXXXXXXXXXXXXXXXXXXXXXXXXXXXXXXXXXXXXXX                   ",
"                   XXXXXXXXXXXXXXXXXXXXXXXXXXXXXXXXXXXXXXXXXXXXXXXXXXXXXXXXXX                   ",
"                          X   X                XX                X   X                          ",
"                          X   XX               XX                X   X                          ",
"                          X   XX               XX               XX   X                          ",
"                          X    X               XX               X    X                          ",
"                          XX   X               XX               X   XX                          ",
"                           X   XX              XX              XX   X                           ",
"                           X    X              XX              X    X                           ",
"                           XX   XX             XX             XX   XX                           ",
"                            X    X             XX             X    X                            ",
"                            XX   XX            XX           XXX   XX                            ",
"                             X    XX           XX           XX    X                             ",
"                              X    XX          XX         XXX    X.                             ",
"                              XX    XX         XX         XX    XX                              ",
"                               XX    XXX       XX       XXX    XX                               ",
"                                XX     XXX     XX     XXX     XX                                ",
"                                 XX      XXXX  XX  XXXX      XX                                 ",
"                                  XX        XXXXXXXX        XX                                  ",
"                                    XX         XX         XX                                    ",
"                                     XXX       XX       XXX                                     ",
"                                       XXXX    XX    XXXX                                       ",
"                                          XXXXXXXXXXXX                                          ",
"                                               XX                                               ",
"                                               XX                                               ",
"                                               XX                                               ",
"                                               XX                                               ",
"                                               XX                                               ",
"                                               XX                                               ",
"                                               XX                                               ",
"                                                                                                ",
"                                                                                                ",
"                                                                                                ",
"                                                                                                ",
"                                                                                                ",
"                                                                                                ",
"                                                                                                ",
"                                                                                                ",
"                                                                                                ",
"                                                                                                ",
"                                                                                                ",
"                                                                                                ",
"                                                                                                ",
"                                                                                                ",
"                                                                                                ",
"                                                                                                ",
"                                                                                                ",
"                                                                                                ",
"                                                                                                "
};
