/* XPM */
static char *EW[] = {
/* columns rows colors chars-per-pixel */
"64 64 228 2 ",
"   c #4C2E0E",
".  c #512D0D",
"X  c #4E310E",
"o  c #57330E",
"O  c #4A2E12",
"+  c #4D3816",
"@  c #4B351B",
"#  c #4D3A1C",
"$  c #543412",
"%  c #533915",
"&  c #5B3914",
"*  c #543B1B",
"=  c #5B3B1B",
"-  c #60350D",
";  c #653B15",
":  c #623D1D",
">  c #4D3B23",
",  c #533C22",
"<  c #5B3E22",
"1  c #533F2A",
"2  c #623D22",
"3  c #5F411B",
"4  c #79430F",
"5  c #6C4017",
"6  c #65441D",
"7  c #6B421C",
"8  c #7C4A15",
"9  c #754418",
"0  c #79461A",
"q  c #764A1D",
"w  c #7B4C1C",
"e  c #77501B",
"r  c #7D511E",
"t  c #4E412A",
"y  c #554427",
"u  c #5B4124",
"i  c #54442C",
"p  c #5B442B",
"a  c #574832",
"s  c #5B5D37",
"d  c #6B4422",
"f  c #65482B",
"g  c #764723",
"h  c #764C24",
"j  c #7B4D22",
"k  c #755225",
"l  c #7C5324",
"z  c #75552B",
"x  c #7B542C",
"c  c #7B5A2A",
"v  c #665237",
"b  c #7D5532",
"n  c #7A5B36",
"m  c #59613D",
"M  c #63643C",
"N  c #6B663D",
"B  c #706B3F",
"V  c #566442",
"C  c #5C6544",
"Z  c #5C6946",
"A  c #586748",
"S  c #5C6C4B",
"D  c #5B704D",
"F  c #5A6D51",
"G  c #567252",
"H  c #646443",
"J  c #636A45",
"K  c #6A6845",
"L  c #6B6C44",
"P  c #646B49",
"I  c #64714D",
"U  c #6C724A",
"Y  c #6D744F",
"T  c #7D6955",
"R  c #823F16",
"E  c #904D0E",
"W  c #96510E",
"Q  c #9B540E",
"!  c #864E15",
"~  c #834C1C",
"^  c #87521A",
"/  c #82521D",
"(  c #945114",
")  c #9C5512",
"_  c #9B5917",
"`  c #9A5B1B",
"'  c #A34C0D",
"]  c #A8550E",
"[  c #A4590F",
"{  c #AA590F",
"}  c #B35A0F",
"|  c #A25711",
" . c #A65514",
".. c #A65C14",
"X. c #AA5E15",
"o. c #A55D1A",
"O. c #AA5F18",
"+. c #B25E14",
"@. c #B75E17",
"#. c #9B611E",
"$. c #AE6016",
"%. c #A5611B",
"&. c #AC6019",
"*. c #B36116",
"=. c #BB6116",
"-. c #B4631B",
";. c #BA641B",
":. c #B6691E",
">. c #BA691E",
",. c #834D21",
"<. c #825423",
"1. c #835926",
"2. c #82542A",
"3. c #845A2A",
"4. c #8A5C29",
"5. c #9A582A",
"6. c #825A37",
"7. c #9A5E33",
"8. c #A85B24",
"9. c #A55D2D",
"0. c #AC5D2B",
"q. c #A65E31",
"w. c #976139",
"e. c #9E643B",
"r. c #AD6222",
"t. c #AA662A",
"y. c #AD622D",
"u. c #B36521",
"i. c #BB6B22",
"p. c #B86A24",
"a. c #B4642D",
"s. c #BC662C",
"d. c #B56B2B",
"f. c #B3702C",
"g. c #BE722B",
"h. c #A56233",
"j. c #AC6333",
"k. c #A4653B",
"l. c #A8673A",
"z. c #AA693D",
"x. c #B36534",
"c. c #B96731",
"v. c #B56835",
"b. c #B16639",
"n. c #B36A3A",
"m. c #BC6C39",
"M. c #B67435",
"N. c #BB7533",
"B. c #BE7937",
"V. c #BD733A",
"C. c #BC7B3B",
"Z. c #C2631C",
"A. c #C26D22",
"S. c #C37125",
"D. c #C3742C",
"F. c #CA762A",
"G. c #CD792D",
"H. c #D1762A",
"J. c #D27C2D",
"K. c #C26B33",
"L. c #C46E3B",
"P. c #C27633",
"I. c #C47A35",
"U. c #CD7C34",
"Y. c #C4723D",
"T. c #C37D3B",
"R. c #CC7E3A",
"E. c #D07E39",
"W. c #866748",
"Q. c #9A6844",
"!. c #856E57",
"~. c #8A7256",
"^. c #8B745C",
"/. c #92755A",
"(. c #967A5C",
"). c #9D7C5C",
"_. c #A76A42",
"`. c #B46D41",
"'. c #BB7943",
"]. c #A87C51",
"[. c #8E7F65",
"{. c #9A7E61",
"}. c #A17F60",
"|. c #C67844",
" X c #BB813F",
".X c #CF8036",
"XX c #C5813D",
"oX c #CC813C",
"OX c #D38135",
"+X c #D2833B",
"@X c #D8883F",
"#X c #BB8243",
"$X c #BB8449",
"%X c #A7825D",
"&X c #9D8164",
"*X c #9B856A",
"=X c #9A8A73",
"-X c #A98766",
";X c #AB8865",
":X c #B48C66",
">X c #B9926B",
",X c #A28E74",
"<X c #A8947A",
"1X c #BC9A78",
"2X c #BDA67C",
"3X c #C48344",
"4X c #CB8442",
"5X c #C8874B",
"6X c #D28542",
"7X c #D38945",
"8X c #D98A44",
"9X c #D28C4B",
"0X c #D58F4F",
"qX c #C79C6E",
"wX c #C29672",
"eX c #C6A57C",
"rX c #D1A87F",
"tX c #AF9B84",
"yX c #B8A689",
"uX c #BEAA8D",
"iX c #BFB494",
"pX c #C5AA88",
"aX c #CCAD8A",
"sX c #D0AE89",
"dX c #C6B08E",
"fX c #C2AF92",
"gX c #C3B293",
"hX c #CBB192",
/* pixels */
"U.9XW.f yXqXH.E.U.E.E.G.9X/.u tXqXJ.E.U.E.E.U.U.6X).< <XeXU.U.U.U.6X).< <XeXU.U.U.U.U.U.+X%X* ,XpXR.U.U.U.U.U.U.E.;Xu *XpX+XE.E.",
") i.&.W.qX' ..........) :.-.6.eX' ............| -.i.2.eX| [ ....| &.i.2.eX] [ ........| X.S.<.eXO.[ ............X.S.! 1Xu.[ ....",
"O.*.^ 4.E.[ O.O.O.O.O.O.*.( 1.E.X.O.O.O.O.O.O.O.*.) c E.X.O.O.O.O.-.) l E.X.X.O.O.O.O.O.$.) l E.*...O.O.O.O.O.O.&...k I.-...O.O.",
"..Z.W.U E...O.&.&.&.&...+.Q.I U.X.O.O.&.O.O.&.X.;.k.H U.X.O.O.&.X.;.k.D U.+.X.&.O.O.&...+.l.A R.-.X.&.O.O.O.O.O.X.x.M T.;...O.O.",
"[ Z.Q.L J.| &.X.X.X...r.|.l.B J.| O.O.O.X.O.X...-.b.x E.X.O.O.O...*.z.L E.X.O.X.X.X...&.|.m.M U.+...&.O.X.O.X...X.m.x I.-...&.O.",
";.D.5.2.9X*.+.i.i.-.@.|.wX5.l 9X-.-.-.-.;.-.u.-.Z.e.P 7X>.*.-.-.;.i.9.j 9X>.+.;.i.;.+.L.wXj.w 7Xi.$.-.-.;.-.-.-.=.x.C 5XF.$.-.-.",
"x.5.  1 -Xf.` j.x.9.h.l.5.  1 -Xg.Q W | j.Q 9.l.h.  @ {.N.[ .._ j.q.  @ {.N._ 0.x.9.9.l.9.o O /.I.) ( ) j.) 8.j.k.;   !.#X[ _ _ ",
"L 0 6 6 7 c P , O f U N w 6 6 6 k ^ l 1 + u 2.c J 6 6 6 <.f O u U l 6 6 7 x P i + < I L w 7 6 6 h ^ l p + , b <.J f 6 6 r k # = ",
"qXJ.+X+XOXU.9X~.u yXeXG.+X+XOX3X;XOX9X(.< tXeXE.U.+X+XE.7X*X$ t.eX+X+X+X.XU.7X).* <XpXoXE.+XOXoX;XoX+X;X* =XaX+XU.+X+X.X+X>Xi ) ",
"X.X.X.X.O.| A.u.6.eX] X.X.{ r.|.s...>.i.2.eXO.X.X.O.O.X.-.I.8 $.X.X.X.X.X.X.-.S.2.pX-.{ X.X.O.Y.m.X.*.G.! pXd.] X.X.X.X.+..X! ) ",
"X.O.O.O.O.O.*.( 3.OX[ O...r.|.I...X.*.( c OXX.O.O.O.O.O.*...w &.X.O.O.O.O.O.*.) l OXX...X.O.Y.R.X...X.o.x U.*...O.O.O.O.X.X.w o.",
"&.&.&.&.O.X.;.w.L E.X.X.O.Y.U...O.X.;.e.J E.X.X.&.&.&.X.-.z.C &.$.&.&.&.&.X.-.k.C U.-...O.m.E.X.X.&.*.j.Z T.-...&.&.&.&.X.x.H #.",
"X.&.X.O.X...Z.Q.U J.| &.&.X...X.X...-.j.r OX..X.X.X.X...*.`.C X.X.&.X.&.X...*.n.S E.X...&.O...X.X.X.$.m.r U.-...X.X.X.X.X.K.P _ ",
"-.+.-.-.-.-.A.w.L @X*.-.-.-.-.-.-.-.A.7.l 7Xi.m.-.-.-.-.;.z.m -.;.+.-.-.-.-.;.h.H 7X>.$.-.-.-.-.-.-.;.j.j 6Xi.m.-.-.-.-.-.v.C %.",
"f.5.8...b.a.5.  1 ;Xg.Q Q ..b.0.0.x.h.  > ).T.&Xj.0.x.x.8.$ O o.I.5.9.| x.a.0.$ @ {.T.| ) | x.q.0.x.l.; O ^.XX&X_.0.x.x.0.6 O ( ",
"n L g > + f x = = f ^ ^ q > + < 2.c C = 3 6 l D H , + < x 3 3 7 x J j , @ < b f 3 f l ^ j , + , x l J u = 6 r J S i + * x f & 3 ",
"R.E.9X!.u yXeXJ.+XU.R.E.9X^.< tXeXE.R.+X+XU.R.U.7X(.* <XpX+X+XoXR..X9X(.* <XpX+XOXU.R.E.7X&X# *XpX+XU.+X+XE.R.U.+X-X> {.hX7XE.+X",
"+.X.S.t.W.rXX.*.-.-.&.X.S.d.6.sXO.X.+.-.-.-.&.X.>.g.b aXu.+.-.-.&.X.i.F.b aXu.X.-.-.&.X.-.G.<.pXd.X.+.-.-.-.&.X.+.U.j yXN.X.-.-.",
"X...*.E 4.+X[ O.X.X.X...*.( 3.+X[ X.O.X.X.X.X.O.&.Q ^ +XX...X.X.X.X.$._ <.+XX...X.X.X.X.$...l +XX...O.X.X.X.O.O.O.X.8 R.-...X.X.",
"O.X.i.5.1.OX..&.&.&.O.X.;.w.L U.X.O.&.&.&.&.&.X.-.9.l E.O.O.&.&.&.X.-.q.l E.O.O.&.&.&.X.-.j.m U.-...&.&.&.&.&.O.&.x.q I.i...&.O.",
"O...Z.W.U E...O.&.&.&.X.i.q.l +XX.O.O.O.O.O.&.X.;.k.P oXX.X.O.O.&.X.;.k.S oX+.X.&.&.&.X.-.j.l E.-...&.&.O.O.O.O.X.x.C #X;...&.O.",
"X...Z.Q.U J.| &.X.X.O...;.k.L U...O.O.O.X.X.O...;.z.J U.X.X.X.X.X...=.l.J E.X.O.O.X.O...*.v.C R.+...&.&.X.X.X.X.X.m.J XX-...X.X.",
"-.$.A.7.3.@XX.-.-.-.+.+.Z.e.U +X+.&.-.-.-.-.+.+.>.h.l +X;.n.-.*.-.&.;.j.l 6X-.*.-.-.-.+.;.j.A 6X=.X.&.-.-.-.*.+.-.m.j oXA.n.u.*.",
"j.m.9.. i :XS.| n.j.j.n.t.o i :XI.) ..o.n.j.t.n.j.o > %X3X).j.j.j.v.j.- > -XU...b.j.t.v.j.; + &X4X......x.j.t.v.x.7 O /.5X;Xz.q.",
"w ^ d @ * d j # @ i G M 0 % $ a J ! q # @ t G J w * % i C ^ w u w ^ h # * 6 l , @ , A C j * $ y S r w , # , A S j = % * C l ! u ",
"E.E.'.;XJ.F.9XT = <XeXU.E.+XE.U.R.E.9X~.* <XuXU.E.+XE.U.T.E.R.U.E.E.|.-XU.G.4X/.@ *XiXoXU.oX+XU.T.E.6X).@ {.iX4XU.+X+XU.T.R.E.R.",
"-.$.d.m.-.X.F.d.6.sX+.*.-.-.-.-.-.X.S.N.b aXu.+.-.-.-.-.-.-.-.-.-.-.u.m.-.$.i.U.2.gXc.+.-.-.-.-.-.&.-.E.j uXV.} -.-.-.-.-.-.-.-.",
"......&.a...*.W 3.+X[ ..X...........*.Q <.+X[ ..........X.............O.a...$.| ^ +XX...............X.X.r oX+...o...............",
"O.O.X.&.&...;.w.L J...&.O.O.O.&.O.X.;.e.J J.X.&.&.&.O.&.&.O.O.&.&.&.O.O.&.X.*.j.J E.X.O.&.&.O.&.&.X.+.j.C U.*...&.&.O.&.&.X.X.X.",
"&.+.+.X.&.X.Z.Q.U OXX.&.+.+.+.+.&.X.Z.Q.I +X+.X.+.+.X.+.$.&.*.-.&.+.+.X.$.$.=.z.S +X-.$.+.+.X.+.&.$.=.z.A oX;.X.*.*.X.X.+.&.$.-.",
"..r.a.&.c.m.h.$ a >XF.| ..&.d.X.a.m.j.& i :XU.....&.c.X.a.x.n.x...o.a.&.a.c.x.; > ;XoXX...O.m.X.a.m.v.7 @ &X6XX...X.m.&.t.x.x.x.",
"k S A s R n C + * f ! k C V V s ,.c C + % f l C C m V m H x C : w C A m 8 x C + $ p ^ w C V V s j <.C # $ u l M C m V m C l H p ",
"U.5X!.i <X1XI.U.I.F.P.I.5X^.y <X1XI.I.T.I.F.P.T.3X(.> =XuXI.I.P.I.3X(.1 *XyXT.I.U.F.P.I.3X&X1 [.yXT.I.T.U.F.P.T.XX-Xt ^.uX3XP.T.",
"X.S.d.6.sX+.+.-.-.-.-.X.A.g.2.aXu.+.*.-.-.-.-.+.>.F.,.aXi.+.*.-.$.;.F.,.dXd.} -.-.-.-.-.;.E.! pXV.+.*.-.-.-.-.*.+.OX! 1X|.X.*.-.",
"..*.( 1.+X[ X.X.X.X.X...$.) <.+X{ ....X.X.X.X.O.$.) l +XX...O.X.O.$.) r +XX...O.X.X.X.X.X...w R.*...O.X.X.X.X.X.X.X.q '.;.| O.X.",
"X.;.w.L E.X.O.&.O.O.&.X.+.e.P U.X.O.&.O.&.&.&.X.-.h.H E.-.X.&.&.X.*.k.S E.-.X.&.&.&.&.X.+.j.S T.;...&.&.&.&.&.&.X.x.H C.>...&.O.",
"..;.Q.L E...&.X.X.X.X.&.L.z.J U.X.O.O.O.X.&.O...-.b.k E.X.X.&.&...*.z.J E.X...O.X.X.X.X.m.m.C T.*...&.&.X.&.X.X.X.m.k B.>...&.O.",
"+.i.7.<.8XX.+.-.-.*.+.|.wX9.l 8X-.&.&.-.-.-.-.-.=.k.C +X;.$.-.-.+.;.j.j @X;.+.-.-.-.+.K.>Xn.9 oXi.X.&.-.-.-.-.-.*.m.H #XA.X.-.-.",
"m.h.. i :XF._ x.x.t.t.m.j.o > ;XU.| ..o.x...0.n.j.& > &XR.{ ..o.x.j.; @ &XR...t.m.x.t.n.n.; O (.+X..) ..x.o.8.b.n.9 O ^.9XX...o.",
"J 0 * * : c V , $ y G M 0 * * u j ! w , # * j l V * % u ^ q $ y S j = * = l C t $ * A S w & * * h ! w , # * h ^ C y o , j w * # ",
"2XH.+XE.U.U.9X!.* <XpXU.E.+XE.C.-XE.6X^.* ,XpXE.U.+X+XU.+X&X+ #.dX+XE.+XU.U.4X).@ &XgX4XE.+XOXU.}.4X+X-X# ^.gX6XU.oX+XU.U.:Xi E ",
"u.-.-.-.-.X.S.N.n aX-.+.-.*.-.|.m.X.i.P.x dXd.+.-.-.-.-.i.4Xw X.i.-.-.-.-.&.;.E.j fXN.+.-.-.*.Y.'.&.-.+Xw yX'.X.-.-.-.-.-.7X<.) ",
"X.o.....X...*.W <.+X[ ....o.V.R.X...$.Q l +X{ ..........X.X.8 ..X...X.X.....X...w 6XX.......x.|.&...X.X.8 3X-.| X.......X.*.8 _ ",
"&.&.O.&.&.X.;.7.L U.X.X.O.V.+XX.X.X.-.h.J U.+.X.&.&.O.O.*.j.V o.*.&.&.&.&.&.*.h.C U.-...X.v.6X-...O.+.j.C T.;...&.&.&.&.X.a.H ` ",
"O.&.O.O.O...;._.U U.X.O.O.&.$...&.X.-.j.l OXX.X.O.O.O.X.+.n.A o.+.O.O.O.O.X.+.n.A oX*...O.&.&...X.X.$.m.l T.-.[ O.O.O.X.X.K.P ` ",
"&.+.&.-.-.$.;.k.L +XX.&.&.$.X.-.&.X.;.j.^ +X-.c.*.$.&.$.=.n.V &.*.X.$.-.&.$.=.x.S oX;.X.&.$.X.-.&.$.*.m.w T.i.a.-.$.&.&.$.K.H #.",
"F.o.t.X.m.K.t.& i :XG.....O.m.x.a.m.j.; > %X4X-Xj.a.m.m.a.7 + &.U.O.t.X.m.m.x.; @ -X+XX...X.m.m.a.v.n.9 O (.7X;X_.a.m.m.m.j @ ` ",
"z H 9 * = d h + + p ^ 8 q * = = j x C + + < l D C < = : h * + : l M h = = : h * + , l 8 8 = = = j j C # X , w J S u = = j = + = ",
"T.XX3XT * <XeXU.U.P.T.U.5X!.# ,XeXI.T.R.R.P.I.I.3X~.@ {.uXoXU.T.T.XX4X/.+ {.pXoXU.I.T.R.oX{.@ ~.uXoXI.XXR.I.T.T.XX&X> W.uX4XU.T.",
"-.+.F.M.n sXa.;.>.>.-.&.F.B.b hXd.*.;.>.>.>.-.*.A.R.x gXN.*.;.>.-.*.i.R.x gXV.*.>.i.i.-.i.6Xj uX'.-.;.>.i.i.i.-.;.7Xj tX3X+.i.i.",
"....*.W 1.+X[ ..........$.Q <.6X[ ..............X...<.6XX...........X...^ 6XX...........X.X.8 4X+.| ............X.*.8 3X-.[ ....",
"&.X.u.5.^ E.X.&.&.&.&.X.;.w.L U.X.O.&.&.&.&.&.O.-.9.w E.-.X.&.&.&.O.-.9.w E.-.X.&.&.&.O.*.t.C I.;...&.&.&.&.&.&.$.a.9 N.i...&.&.",
"&.X.;.e.L .XX.O.&.&.&.X.-.k.k +XX.X.&.&.&.&.&.X.*.k.C oX-.X.&.&.&.X.-.k.C oX-...&.&.O.X.&.x.h T.-...&.&.O.O.O.O.X.m.H #X>...&.O.",
"O...;.e.U U.X.O.O.O.&.X.;.k.B U.X.O.&.&.&.&.&.X.+.k.S +X+...O.&.O.X.*.l.S +X+...&.O.X.X.X.x.M XX-...&.&.O.O.O.X.X.m.S #X;.[ O.O.",
"$.X.i.q.1.OXX.$.$.$.X.X.=.z.I OX+.&.&.&.$.$.X.X.-.x.l OX-.a.&.$.$.X.-.b.l +X-.X.$.$.X.X.*.n.S XX;.X.&.&.$.$.X.X.$.m.h B.>.a.&.X.",
"m.L.x.& p >XG.X.m.m.a.K.x.: i >XU.X.X.&.m.m.a.m.v.5 * ;X4X:Xn.x.v.m.v.9 @ ;X+XX.m.m.x.m.m.q # -X7X*.X.$.m.m.a.m.m.,.O ).7X:X`.s.",
"q ,.d O @ f w = : f Z L g O   a L 8 9 = : 2 C H g O + i J k g 2 q w h + + p j & : 2 C P h $   p P e 4 = = : s P h $ O 1 P z j 2 ",
"C.I.].{.I.g.$XT @ *XyXC.B.T.T.N.'.I.3X!.+ {.yX XN.T.T.N.'.P.B.C.C.I.C.).C.g.C.^.+ ~.yX#XN.T.T.N.'.C.T.(.@ W.yX$XN.T.T.N.'.B.I.C.",
"i.:.m.'.>.-.U.C.b hXm.;.i.i.i.i.>.-.F.|.x hXV.;.i.i.i.i.;.i.i.i.i.i.c.'.i.:.F.6Xj gX|.;.i.i.i.i.>.i.i.7Xj yX5X@.i.i.i.i.;.i.i.i.",
"....[ O.t...*.) <.7X[ ..............X...^ 9X] ........................O.t...X.X.! 9XX.| ............X.*.8 3X-.[ ................",
"&.&.X.&.r.X.;.7.B J.X.&.&.&.&.&.&.$.-.q.M J.X.O.&.&.&.&.&.&.O.O.&.&.&.X.r.&.*.h.m U.-...&.&.&.&.&.&.+.t.m I.;...&.&.&.&.&.&.&.O.",
"&.X.X.X.X...;._.U OXX.&.&.X.X.X.X...=.`.I OXX.X.&.O.X.O.X.X.X.X.&.X.X.X.X.X.+.`.A oX+...&.&.X.X.X.X.} m.F XX;...&.&.X.X.X.X.X.X.",
"*.;.s.-.m.L.s.; a qXOX+.+.;.s.+.m.L.K.9 p >X+X+.+.;.s.+.D.m.K.K.*.+.s.+.m.L.K.0 t :X8X-.+.+.s.*.m.L.K.! # ;X9X=.} +.s.-.s.L.K.K.",
"g J J M ~ 3.H   + f ^ w M M J M ! 2.H + $ f 1.M M M H M N <.L d 8 M J M ! <.H + X p <.! M M H M <.,.L #   p 2.N M M H M H 2.N v "
};
