/* XPM */
static char *nord[] = {
/* columns rows colors chars-per-pixel */
"64 64 249 2 ",
"   c #010204",
".  c #080706",
"X  c #010B0C",
"o  c #160B05",
"O  c #07130D",
"+  c #18140B",
"@  c #010D13",
"#  c #010B19",
"$  c #110E10",
"%  c #0C1413",
"&  c #071518",
"*  c #171818",
"=  c #281508",
"-  c #2E150A",
";  c #271B19",
":  c #25200E",
">  c #29271A",
",  c #362618",
"<  c #071926",
"1  c #171D22",
"2  c #0E1E30",
"3  c #281D23",
"4  c #0B2429",
"5  c #192328",
"6  c #0C2436",
"7  c #162835",
"8  c #163337",
"9  c #262527",
"0  c #392823",
"q  c #262D33",
"w  c #303437",
"e  c #512B0A",
"r  c #58340A",
"t  c #4A2A18",
"y  c #542D15",
"u  c #4C341A",
"i  c #563819",
"p  c #723709",
"a  c #633B19",
"s  c #4C3828",
"d  c #543C23",
"f  c #573925",
"g  c #503229",
"h  c #673621",
"j  c #5B411C",
"k  c #61441A",
"l  c #764218",
"z  c #5B4424",
"x  c #574529",
"c  c #4E4A32",
"v  c #574735",
"b  c #654728",
"n  c #644634",
"m  c #6E4E31",
"M  c #233648",
"N  c #165649",
"B  c #165D5A",
"V  c #2C5A4A",
"C  c #285B58",
"Z  c #365D51",
"A  c #19625C",
"S  c #2A6458",
"D  c #36675A",
"F  c #396B58",
"G  c #225E61",
"H  c #176866",
"J  c #187371",
"K  c #236462",
"L  c #276B65",
"P  c #326863",
"I  c #28746B",
"U  c #397667",
"Y  c #347C7C",
"T  c #5A4945",
"R  c #52574F",
"E  c #705851",
"W  c #466D5A",
"Q  c #77635E",
"!  c #536B74",
"~  c #6B7277",
"^  c #903C02",
"/  c #873E27",
"(  c #8A4304",
")  c #944505",
"_  c #974707",
"`  c #944906",
"'  c #9B4B05",
"]  c #9C4E0B",
"[  c #9C5106",
"{  c #8A4A15",
"}  c #8F541A",
"|  c #9C5415",
" . c #A64A05",
".. c #A44D04",
"X. c #A34E0A",
"o. c #B44E04",
"O. c #A65206",
"+. c #A3540D",
"@. c #AB540C",
"#. c #AC590E",
"$. c #B3560C",
"%. c #B95409",
"&. c #B45A0D",
"*. c #BB590E",
"=. c #A64D13",
"-. c #A45612",
";. c #AB5611",
":. c #A75814",
">. c #A5571B",
",. c #AC5B1B",
"<. c #B25710",
"1. c #BB5B13",
"2. c #B95917",
"3. c #B45E19",
"4. c #BB6116",
"5. c #B5611B",
"6. c #BB621B",
"7. c #914D2E",
"8. c #9A5539",
"9. c #AA5728",
"0. c #B05A28",
"q. c #A75938",
"w. c #AB5C3C",
"e. c #B55D39",
"r. c #BA6724",
"t. c #AA6335",
"y. c #B76538",
"u. c #BC623B",
"i. c #BA7336",
"p. c #C4580D",
"a. c #C25C14",
"s. c #C85C17",
"d. c #D55E18",
"f. c #C3641B",
"g. c #C5651A",
"h. c #D0601B",
"j. c #C66825",
"k. c #C36D24",
"l. c #D2692A",
"z. c #CB7429",
"x. c #D67728",
"c. c #C8663A",
"v. c #C97939",
"b. c #D77C35",
"n. c #E97E31",
"m. c #8B5A48",
"M. c #995B45",
"N. c #935F53",
"B. c #A95D43",
"V. c #B15E44",
"C. c #926253",
"Z. c #996554",
"A. c #A86248",
"S. c #B46444",
"D. c #BB6543",
"F. c #B2644A",
"G. c #B96948",
"H. c #A66853",
"J. c #B76B54",
"K. c #B97354",
"L. c #966960",
"P. c #C46944",
"I. c #C86B46",
"U. c #C36B49",
"Y. c #C87A47",
"T. c #CB714F",
"R. c #D47749",
"E. c #D57757",
"W. c #CF7D62",
"Q. c #CE823E",
"!. c #DA833B",
"~. c #E4843C",
"^. c #E88638",
"/. c #E58A3D",
"(. c #EA8C3C",
"). c #EC933F",
"_. c #BD8955",
"`. c #9B8575",
"'. c #CB8345",
"]. c #C88649",
"[. c #D38547",
"{. c #DA8544",
"}. c #DD8944",
"|. c #D38B4C",
" X c #DC8C4B",
".X c #D9904B",
"XX c #C98A54",
"oX c #D38C52",
"OX c #D78B58",
"+X c #C89259",
"@X c #D99356",
"#X c #E48642",
"$X c #E58B45",
"%X c #EA8C43",
"&X c #E98D4A",
"*X c #EB9244",
"=X c #E5914C",
"-X c #EB934C",
";X c #F19449",
":X c #E78E51",
">X c #E69556",
",X c #EB9852",
"<X c #EC9B5B",
"1X c #F39C56",
"2X c #F2A15A",
"3X c #CB926A",
"4X c #D69964",
"5X c #ED9B66",
"6X c #E89E65",
"7X c #D7A26F",
"8X c #EBA264",
"9X c #F5A866",
"0X c #E9A873",
"qX c #626D80",
"wX c #6D7885",
"eX c #787D88",
"rX c #2F8686",
"tX c #7F8086",
"yX c #7B8A94",
"uX c #848689",
"iX c #978D8B",
"pX c #898B92",
"aX c #948E92",
"sX c #8B9196",
"dX c #979595",
"fX c #A6978B",
"gX c #A69B98",
"hX c #B79C92",
"jX c #B4A69D",
"kX c #8E9BA3",
"lX c #96A8B3",
"zX c #A6B0B6",
"xX c #C3AE9E",
"cX c #CEB4A8",
"vX c #CEC5B3",
"bX c #D8CCBB",
"nX c #ABBBC7",
"mX c #C0BDC4",
"MX c #BAD0D6",
"NX c #CAD1C9",
"BX c #D7D5C6",
"VX c #C8D7D8",
"CX c #D7DCD4",
"ZX c #E7D6C8",
"AX c #E5DDD7",
"SX c #D6E2DB",
"DX c #CBE7E7",
"FX c #D5E5E5",
"GX c #E4E2E1",
/* pixels */
"~.0X~ q MXcX^.$X$X$X$X~.6X~ 9 nXvX~.#X$X$X$X$X~.<X`.1 zXbX#X~.#X~.<X`.1 zXbX#X#X$X$X$X~.,XiX* lXBX$X~.$X#X#X$X#X%XfX5 sXCX:X~.$X",
") k.,.E vX^ [ ] ] ] ] ) 6.5.T bX^ ' [ ] ] ] ] ) 1.k.n bX .) ] ] ) :.k.n bX .) ] ] ] ] ] ;.x.b BX;.) ] ] ] ] ] ] X.x.a vXy.^ [ ] ",
"-.*.l m (.' :.-.-.-.-.-.&.p x (. .-.:.-.-.-.-.-.1.{ c (.O.-.-.-.-.1.{ x %XO.-.-.-.-.-.-.#.] x %X$.+.-.-.-.-.-.-.:.X.s |.4.[ :.-.",
"+.d.Q U (.X.:.:.:.:.:. .s.C.U $XO.-.:.:.:.:.:.+.3.Z.D $X;.-.:.:.+.a.Z.I $X;.-.:.:.:.:.+.*.F.H  X1.-.:.-.:.:.:.-.O.S.V XXg.[ :.:.",
"[ h.L.W ^.) :.+.+.+. .9.W.A.W (.' :.:.-.-.:.+.[ 6.F.c %XX.-.:.:.[ 1.H.F (.X.-.+.+.+.+.>.W.T.S $XO.-.:.-.-.-.-.+.+.T.c |.1.] :.:.",
"1.v.m n 9X&.*.k.k.4.p.3XcX/ f 9X6.1.1.6.6.4.r.6.d.m.L 8Xg.1.4.1.1.l.8.f 9Xg.$.6.r.6.p.E.cXq.y 6Xz.1.1.4.6.4.6.6.a.y.C 7Xx.:.1.4.",
"S.7.  6 dXi.{ w.V.q.M.F.7.  < dXz.^ ( ] w.( 8.F.m.. # pXv.` ] { B.8.. # pX'.{ q.F.q.8.F.8.o X eX].( ^ ( w.( 7.B.Z.=   wX+X' ] { ",
"W y > > , c L <   q rXF i > > > s k f 2 X 9 n c L > > > z w X 9 Y f > > , c P 6   5 Y U i > > > s k z 7 @ 1 T z P w , > i s @ * ",
"vX^.,X-X=X/.0XwX9 MXbX^.-X,X).3XgX).9XuX1 nXBX$X$X,X,X(.8XkXo t.BX-X-X-X$X$X2XaX* zXCX=X%X,X*X:XgX=X,XgX< lXCX,X/.-X-X&X-XjX7 ) ",
";.;.;.;.;.' z.r.E bX .O.;. .9.E.u.' g.r.v BX=. .O.;.;.O.6.Q.r :.O.;.;.;.;.X.4.z.b NX,.O.;. .-.E.c.+.1.!.a NXi. .O.;.;.O.;.$Xi ] ",
"+.-.-.-.-.-.1.p m *X' -.+.9.OX[.' -.1.( c *X .-.-.-.-.-.1.] u :.O.-.-.-.-.-.:.` z &XO.[ +.>.E.$X+.+.O.| x $X1.[ -.-.-.-.-.;.i | ",
":.-.:.:.:.+.d.E U /.X.+.>.E.}.' :.+.a.C.P $XO.+.:.:.:.+.1.H.S :.;.:.:.-.:.-.1.A.L $X1.+.-.U.:X-.+.:.$.A.H |.1.[ :.:.-.-.;.D.K } ",
"-.:.-.-.+.[ s.Z.U ^.' :.:.-.[ +.-.[ 6.B.j *XX.+.-.-.-.[ 1.J.A +.O.:.-.-.-.[ *.J.I $XO.-.:.-.+.+.-.+.#.U.i /.1.' -.-.-.+.O.I.L } ",
"4.$.5.1.6.4.h.E U 1X1.1.1.1.3.6.5.1.k.8.z 2Xk.T.1.6.6.4.g.A.C 4.g.$.3.1.6.6.g.M.K 6Xg.:.1.1.1.6.5.3.a.w.f >Xz.U.3.1.6.6.6.G.C | ",
"i.7.7.] F.e.7.  6 gXv.( ( ] F.q.q.F.M.. < iXXXsXB.q.S.e.9.+   | '.} 8.` S.e.9.o # aX[.` ( ` S.q.9.V.A.= @ eXoXdXZ.9.S.e.q.,   l ",
"R F g < @ 9 v ; : 9 j k s < @ 9 n c K : : , x I K 1 X 3 v > : , c F f 1 @ 1 v 9 : 9 f k f < O * v z K 9 ; > i S I 6 X * v 0 : > ",
"$X%X0X~ 5 MXbX(.-X$X$X%X0XwX1 nXBX(.$X,X-X$X$X/.8XuX* zXCX-X-X$X$X$X8XuX* lXCX-X&X$X$X%X<XdX@ kXSX:X$X,X;X%X$X$X-XgX< uXFX<X;X,X",
"1. .x.t.R ZX=.&.1.1.:.+.z.r.T ZX>.O.<.1.1.:.:.@.g.v.v CX,.$.1.1.:.O.k.v.v CX,.O.1.1.:.;.6.!.f SXi. .<.1.1.1.:.O.*./.f NXY.@.3.3.",
"-.-.1.p m -X) -.-.-.-.-.&.^ v -X .-.-.-.-.-.-.-.:.( a ,X .[ -.-.-.-.#.] b -XO.+.-.-.-.-.:.` x -XO.[ -.-.-.-.-.-.-.+.r oX6.' -.+.",
":.+.k.7.b %X] :.:.:.:.+.a.m.F /.+.-.:.:.:.:.:.+.6.8.f %X;.-.:.:.:.-.3.8.x %X:.-.:.:.:.-.1.B.S $X1.-.:.:.:.:.:.-.:.y.u [.r.[ :.:.",
":.+.d.Q U %XX.:.:.:.:.+.r.M.c =X+.-.-.;.:.:.:.+.a.Z.L =XO.-.:.:.:.-.a.Z.L =X<.-.:.:.:.-.3.B.f $X3.-.:.:.:.:.:.-.O.D.K +Xg.] :.:.",
"-.[ d.Q W (.' :.-.-.-.[ a.Z.U /.X.-.-.-.-.-.-.+.1.H.L $X@.+.-.-.-.[ 1.H.L %XO.-.-.-.-.+.1.S.S $X$.-.:.:.-.-.-.+.O.P.S oX1.' ;.-.",
"3.#.l.7.b 1XO.1.1.1.<.$.h.C.U ;X$.:.:.1.1.1.1.$.g.q.f 1X3.G.1.1.3.:.g.q.f 1X1.1.1.1.1.$.a.S.H <Xs.;.:.1.1.1.1.<.1.G.s @Xk.F.r.&.",
"w.I.8.. 7 jXz.] J.w.q.G.q.o 6 jXQ.) ` | J.B.w.G.q.o < fX@XiXw.B.B.D.w.= < dX!.' F.B.w.S.S.= @ sX@X] ` ] F.F.w.S.S.,   eX4XfXH.q.",
"i a 0 & % 0 f & % 6 J D y % o 8 L a u < * 4 J S u % + 7 L i u 9 i a s & % > f < @ < H L f % + 4 H j i < @ < H J f * O * H x i 5 ",
"$X(.3XfX(.^.0X! * nXNX~.$X=X&X{.oX%X6X~ % lXVX}.$X=X&X{.|.#X$X}.$X%XOXaX$X^.>XtX@ kXDX@X#X$X&X{.|.&X,XaX@ yXDX@X~.$X,X}.oX$X&X X",
"5.:.u.T.4.O.!.i.R AX1.&.5.6.6.4.1.;.z.v.T AXr.$.5.6.6.6.1.5.5.6.5.1.r.T.6.:.k.{.v FXc.%.3.6.6.6.1.:.6.%Xf VXY.o.1.5.6.6.1.5.5.6.",
"-.-. .,.e.[ 1.p m -X) -.+.+.-.-.-.-.:.( z ,X .[ -.-.-.-.-.-.-.-.+.-.+.;.y.[ #.` j ,XO.] -.-.+.+.-.-.+.-.i :X$.] -.+.+.+.+.+.+.+.",
":.-.-.:.,.[ a.m.U ^.] :.;.-.:.:.:.+.a.m.F ^.+.:.:.:.:.:.-.-.-.-.:.:.-.-.,.+.1.B.L ^.O.-.:.:.-.:.-.-.$.S.H !.1.-.:.:.-.:.:.-.-.-.",
":.$.<.O.:.+.d.L.U ;XO.:.<.<.$.1.:.O.s.C.I -X$.O.1.1.O.<.:.:.1.:.:.<.$.;.:.:.a.H.L ,X1.:.1.<.O.<.:.:.p.H.J @Xg.O.1.1.;.;.;.:.:.1.",
"[ 9.y.,.y.c.q.o 8 xXb.' [ ,.y.+.e.I.w.= 6 jX!.] [ ,.u.+.e.D.F.w.[ >.y.:.y.c.y.= < gX$XX.[ -.c.-.e.I.S., # sX>X+.] +.G.:.0.D.S.S.",
"c H H V y R B . % q a s H B H N h c H O % 9 x L A B B N C x G ; i L H N e v K % O 5 a i A A A N f z K & . 5 x S A B B N K x Z q ",
"{.7X~ 7 nXvXQ.{.{.v.R.{.4XwX4 lXvXQ.].[.{.v.Y.|.3XuX< kXMX[.'.Y.{.@XuX< kXNXXX!.{.v.Y.{.@XsX< yXVX|.Q.|.{.v.Y.oXoXdX6 wXVX@XQ.].",
"O.x.r.T AX1.%.6.6.6.3.O.l.v.f AXr.$.1.4.6.6.1.$.h.b.f CXr.$.1.6.:.g.b.f FXi.o.4.6.6.3.1.a.^.i VX].O.*.1.6.4.3.1.*.;Xy mXOX@.1.4.",
"-.1.p b -X) -.-.-.-.-.-.#.( x -X .-.-.-.-.-.-.-.:.` z -XO.[ -.-.-.:.` i ,XO.[ -.-.-.-.-.+.X.i  X&.] -.-.-.-.-.-.-.O.t XX6.' -.-.",
"+.a.E U (.+.-.:.-.-.:.+.p.m.L /.O.-.:.:.:.-.-.-.1.M.S $X1.-.:.:.:.*.C.H $X1.-.:.-.-.:.+.%.w.H |.1.+.:.:.:.:.-.:.O.y.C ].g.[ :.:.",
"[ d.L.U /.] :.-.-.-.+.>.E.H.F $XX.-.:.:.-.:.-.+.1.F.c %X;.-.:.:.+.*.H.L %XO.-.-.-.-.+.-.U.T.S |.1.[ :.-.-.-.-.-.+.T.s '.6.] :.:.",
"&.k.7.x 2XO.$.3.4.1.*.W.cX8.f 1X1.:.:.1.1.1.1.1.p.A.K 1Xg.:.1.1.&.6.w.f 1X6.O.1.5.1.$.I.cXJ.y :Xk.+.:.1.3.1.3.:.*.P.C +Xx.+.1.1.",
"D.M.. 6 jXb.] e.D.w.w.J.B.o < gX!.` ` -.y.] q.G.A.= < sX$X .| | y.S.= # sX$X] q.U.e.q.F.G., X uX,XX.] ] S.| 9.F.G.t X eX6XO.[ | ",
"F u % * ; v A < o 4 J S y * * 5 f a u < @ * f x H * + 5 k t O 4 I f * * * z S 4 $ * H H i + * 1 s a i 1 & % s a S 4 o 1 f i * % ",
"vXn.-X$X#X$X0X~ * zXNX$X%X,X%XXXaX(.6XeX% lXCX%X X,X-X~.:XsXX } SX-X%X-X#X#X>XpX& pXDX@X^.-X&X{.aX@X-XaX& eXDX<X#X:X,X$X$XjX6 p ",
"r.1.6.6.5.O.x.i.T AX3.$.5.&.3.E.U.O.k.[.v SXy.$.1.6.6.1.k.:Xi ;.r.1.1.6.5.:.g.%Xf DXY.o.3.1.1.R.T.,.5.;Xi NXXXO.1.6.6.5.3.6Xz ) ",
" .-.-.-.-.| 1.^ b ,X) -.[ | T. X .[ #.` z ,X .[ -.+.+.-.O.+.i -.O.-.-.-.-.-.;.' i ,XO.] +.[ D.>X:.' +.O.i @X1.' -.+.+.+.+.1.r { ",
":.:.:.:.:.+.a.m.F /.+.+.-.T.:X+.-.-.1.M.S $X<.-.:.:.:.-.1.A.B | 1.:.:.:.:.:.1.q.A }.1.+.-.D.6Xr.+.-.$.w.C |.g.[ :.:.:.:.#.u.C } ",
"-.:.-.:.-.[ a.Z.U $XX.-.-.,.:.+.:.+.3.B.x -XO.+.-.-.-.+.*.J.H | $.-.-.:.-.+.$.G.H .X1.+.:.,.:.+.-.-.O.U.f |.r.' -.-.-.-.+.I.P } ",
":.O.:.:.:.#.d.Z.U ;XO.:.:.#.O.1.:.O.g.w.i ;X3.c.1.:.:.:.1.G.A :.*.;.:.:.1.:.p.S.H :Xa.-.:.:.+.:.:.:.&.I.u  Xk.e.3.#.:.:.#.I.P } ",
"v.| q.-.U.I.q.o 7 jX!.] [ ;.U.y.e.I.S.= < fX>XgXS.y.I.c.y., X >.$X>.q.-.I.I.y., & aX,X+.] +.G.D.e.D.G.u X uX<XgXH.e.I.D.c.f @ { ",
"c S t * * 0 s @ O 9 i r t * * ; f v B X O 9 x J B 1 * ; s % X ; x S s * * ; s % X 4 f r r * * * f f K & . 1 u S H 5 * * g * X ; ",
"oX.X4X! % lXNX}. XY.[.}.4XwX@ kXNX{.|. X X[.[.|.4X~ @ yXVX@X}.[.[.oX@XeXX yXVX@X}.[.[. X@XpX# ~ VX@X|.oXoX[.[.|.oXdX< ~ VX4X{.oX",
"6.$.!.K.R GXy.4.6.6.6.1.b.].T GXu.*.1.6.6.6.6.1.k. Xs FXY.1.6.6.6.1.z.$Xx DXY.1.6.r.r.5.k.<Xf VXXX1.6.r.r.r.r.1.1.2Xf MX3X<.6.r.",
"+.[ &.( b ,X) [ +.+.+.[ #.( b <X .[ [ +.[ +.+.[ O.[ b <XO.] +.+.+.[ O.' a <XO.] +.+.+.[ +.O.i @X$.` +.[ +.+.+.+.+.&.e XX4.) +.[ ",
":.+.r.7.k (.+.-.:.:.:.:.1.m.F /.O.-.:.:.:.:.:.:.1.8.i ^.3.-.:.:.:.:.1.8.i ^.3.-.:.:.:.:.1.q.C |.4.+.:.:.:.:.:.:.:.y.y v.k.[ :.:.",
":.+.a.N.F $XX.-.:.:.:.+.6.M.c =X;.-.:.:.:.-.:.-.1.H.K =X1.+.:.:.:.-.1.Z.A :X1.+.:.:.:.-.:.G.s |.6.+.:.:.:.-.:.-.O.G.C _.g.] :.:.",
":.+.a.C.U /.X.-.-.-.:.+.1.Z.F $XO.-.:.:.:.-.:.-.*.A.J $X$.[ -.-.-.+.*.Z.H -X1.+.:.-.-.-.:.D.V oX1.+.:.:.-.-.-.-.O.D.L +Xg.' -.:.",
"#. .k.M.x ;XX.:.#.#.O. .a.H.I *Xo.:.:.:.:.:.O.O.1.F.x ;X1.e.:.#.:.+.1.F.x ;X3.+.:.:.O.O.&.G.H @Xa.+.:.:.:.:.O.O.#.T.s |.g.e.,.O.",
"D.T.S.= q cX!.;.T.c.y.I.D.; 7 jX!.O.+.:.T.I.y.I.G., * gX>XhXG.D.D.I.G.t % gX,XO.I.I.y.I.I.u & aX>X1.+.#.I.U.y.D.T.f   uX8XhXK.c.",
"u f 0   @ w u * ; 9 K F t   . M P r e * ; 3 C D g   X 7 P c g 3 u i u   X q f ; ; 3 C P s .   7 P u e ; ; ; C L s o   6 P c g 3 ",
"].Q._.aX'.v.3X! @ kXMX].'.XX|.Y._.|.3XqXX pXMX+X'.XX|.Y._.'.].].].'._.aXXXz.XXeX@ ~ MX+Xv.|.oXY._.XXoXuX@ ! MX3Xv.XXoX'._.].].].",
"k.6.v.W.6.6.}.XXT GXc.g.k.k.k.k.g.6.Q.OXv FXY.a.k.k.k.k.g.k.k.k.k.r.k.W.k.6.z.<Xf DXOX1.k.k.k.k.g.r.k.9Xf MX4X*.k.k.k.k.g.k.k.k.",
"] ]  .>.w.' &.( b 8X^ ] ] ] ] ] [ ] O.' k 8X .' ] ] ] ] ] ] ] ] ] ] ' ;.w.] +. .a 6XO.) [ ] ] ] [ ] +.#.r 3X1.) [ ] ] ] ] ] ] ] ",
":.:.-.:.9.+.1.m.F ^.+.:.:.:.:.:.:.-.1.8.D ^.;.-.:.:.:.:.:.:.:.:.:.:.:.-.9.:.&.8.C ~.1.+.:.:.:.:.:.:.&.q.C [.g.[ :.:.:.:.:.:.:.:.",
":.;.O.#.+.[ s.H.U *XX.:.:.:.O.;.+. .a.J.I -XO.+.:.:.O.:.O.+.O.#.:.:.O.:. . .*.J.J =X*.+.:.:.+.;.+.+.%.K.J oXa.] :.:.O.:.O.+.O.+.",
"&.a.c.1.T.R.c., M cX*X$.%.a.c.*.U.R.c.t 8 cX,X%.%.1.c.*.c.T.I.I.&.1.c.*.I.R.c.u 4 jX9X1.%.*.c.1.c.T.R.a & gX9Xp.o.*.c.1.k.T.c.c.",
"g S P Z a n C   % w l i S Z P V a n C X . w b Z V V D S Z x Z 0 i Z P V a b D O . q b a V S D S f h P & . q b Z V V D V D v W M "
};
