/* XPM */
static char *sud[] = {
/* columns rows colors chars-per-pixel */
"64 64 222 2 ",
"   c #020303",
".  c #0C0503",
"X  c #040905",
"o  c #0B0A05",
"O  c #00050B",
"+  c #030A0B",
"@  c #0B0D0C",
"#  c #140A03",
"$  c #190E06",
"%  c #120E0C",
"&  c #06120F",
"*  c #0B110D",
"=  c #15130D",
"-  c #1C150D",
";  c #020D13",
":  c #0B0E11",
">  c #140E11",
",  c #041214",
"<  c #0C1214",
"1  c #05131C",
"2  c #0C151B",
"3  c #0B1A1B",
"4  c #131314",
"5  c #1C1512",
"6  c #1C1912",
"7  c #13151A",
"8  c #17191A",
"9  c #22130A",
"0  c #28170B",
"q  c #2E1C0D",
"w  c #361B07",
"e  c #321C0C",
"r  c #251B15",
"t  c #2D1B13",
"y  c #321E12",
"u  c #391E16",
"i  c #1B201B",
"p  c #2D220D",
"a  c #3A240C",
"s  c #3C290E",
"d  c #2D2214",
"f  c #22201D",
"g  c #2D2219",
"h  c #2E2A1B",
"j  c #342414",
"k  c #3A2513",
"l  c #342A16",
"z  c #3A2A14",
"x  c #332519",
"c  c #3A271D",
"v  c #342B1B",
"b  c #3C2B1B",
"n  c #37311D",
"m  c #0A1823",
"M  c #171C21",
"N  c #152826",
"B  c #14212A",
"V  c #0B332C",
"C  c #1B362C",
"Z  c #1B392E",
"A  c #093835",
"S  c #0D3935",
"D  c #0D3C3B",
"F  c #133534",
"G  c #193634",
"H  c #133A35",
"J  c #1B3B34",
"K  c #1B3D3A",
"L  c #2B2F20",
"P  c #342A23",
"I  c #362A25",
"U  c #27362B",
"Y  c #393225",
"T  c #223731",
"R  c #233C33",
"E  c #383737",
"W  c #4C2502",
"Q  c #4A2608",
"!  c #532602",
"~  c #592500",
"^  c #552A04",
"/  c #5B2D05",
"(  c #542C0A",
")  c #5B2F09",
"_  c #5D3106",
"`  c #5E3109",
"'  c #482916",
"]  c #572C15",
"[  c #5C2E1C",
"{  c #4D3412",
"}  c #583415",
"|  c #622E05",
" . c #6A2E03",
".. c #622D08",
"X. c #643106",
"o. c #6A3206",
"O. c #62330B",
"+. c #6B350B",
"@. c #67380D",
"#. c #6C390E",
"$. c #76350A",
"%. c #73350C",
"&. c #612E1A",
"*. c #643412",
"=. c #6B3611",
"-. c #6D3A11",
";. c #63341E",
":. c #68381B",
">. c #6C3B1B",
",. c #723D13",
"<. c #783811",
"1. c #4C2B20",
"2. c #562E21",
"3. c #4D342A",
"4. c #5B3423",
"5. c #563528",
"6. c #55372B",
"7. c #5C3A2D",
"8. c #493934",
"9. c #533730",
"0. c #543B33",
"q. c #5C3C32",
"w. c #633523",
"e. c #693621",
"r. c #653926",
"t. c #633728",
"y. c #653A2B",
"u. c #733C24",
"i. c #793E26",
"p. c #723E29",
"a. c #663E31",
"s. c #0C403D",
"d. c #1B4036",
"f. c #13423D",
"g. c #1C443D",
"h. c #254337",
"j. c #23433B",
"k. c #6C421D",
"l. c #734116",
"z. c #7A4215",
"x. c #74431B",
"c. c #7B461A",
"v. c #7C491D",
"b. c #6C4322",
"n. c #794521",
"m. c #744925",
"M. c #7B4B25",
"N. c #74412C",
"B. c #7A432D",
"V. c #744C2C",
"C. c #7B4D2A",
"Z. c #75502E",
"A. c #7C512D",
"S. c #6B4733",
"D. c #7B4532",
"F. c #774835",
"G. c #6E5234",
"H. c #745334",
"J. c #7C5332",
"K. c #75563A",
"L. c #7C5A3B",
"P. c #093F40",
"I. c #343C46",
"U. c #0B4343",
"Y. c #174644",
"T. c #174F50",
"R. c #3D444B",
"E. c #434549",
"W. c #4B4B4D",
"Q. c #554D4B",
"!. c #5B524E",
"~. c #4A4E52",
"^. c #485358",
"/. c #535354",
"(. c #5B5554",
"). c #585959",
"_. c #755644",
"`. c #625956",
"'. c #665B56",
"]. c #6B615B",
"[. c #76675D",
"{. c #4C5C64",
"}. c #586569",
"|. c #5A666B",
" X c #606B6F",
".X c #796763",
"XX c #78756B",
"oX c #666F72",
"OX c #6A777A",
"+X c #767A76",
"@X c #7C7B71",
"#X c #757D7C",
"$X c #864A1D",
"%X c #854B1E",
"&X c #894E23",
"*X c #834E29",
"=X c #884F28",
"-X c #865125",
";X c #8A5225",
":X c #85522B",
">X c #8C582E",
",X c #824A3B",
"<X c #835532",
"1X c #8A5633",
"2X c #8B5A34",
"3X c #835A39",
"4X c #8A5D3A",
"5X c #905C33",
"6X c #905D39",
"7X c #90633D",
"8X c #825C41",
"9X c #896142",
"0X c #817669",
"qX c #867E74",
"wX c #758179",
"eX c #7C817C",
"rX c #84827D",
"tX c #88827B",
"yX c #737E80",
"uX c #6B8182",
"iX c #798585",
"pX c #848583",
/* pixels */
";X9XE.8 OX.X$X:X:X:X:X&X4XE.7 oXXX&X:X:X:X:X:X&X2XQ.4  X@X;X&X:X&X2XQ.4  X@X:X&X:X:X:X&X2X!.< |.#X:X&X:X:X:X:X-X:X`.7 ).eX1X&X:X",
"^ l.O.E 0X~ / / / / / ^ -.-.Y XX~ / / / / / / ^ @.,.b @X/ / / / ^ O.,.b @X/ / / / / / / O.z.k @XO.! / / / / / / / $Xs XX:.! ( ( ",
"O.+.' Y ;X/ O.O.O.O.O.` o.Q v ;X/ O.O.O.O.O.O.O.+.Q v ;XX.` O.O.O.+.Q l ;XX.` O.O.O.O.O.O.^ j &X+.` O.O.O.O.O.O.O./ d C.#./ O.O.",
"X.<.E j.&X/ O.O.O.O.O./ %.0.g.-X..O.O.O.O.O.O.` +.6.J :XO.` O.O.` %.0.Y.:XO.` O.O.O.O._ o.y.s.:X+.` O.O.O.O.O.O.O.r.G A.,./ O.O.",
"_ <.8.h.$X/ O._ ` ` / :.,X7.R -X/ O.O.O.` O.` / #.y.v ;X/ ` O.O._ +.a.J -X..` ` ` ` _ } D.r.Z -XX.` O.O.` O.` _ X.p.h M.+./ O.O.",
"%.x.' b 7X+.o.,.,.#.%._..X' x 7X#.O.+.#.,.#.-.#.<.6.K 4X,.O.#.+.%.,.2.j 4X,.o.,.,.-.%.D..X4.e 4Xx.O.+.#.-.#.-.-.%.r.F L.c.O.+.%.",
"r.1.  m (.k.' w.w.[ 4.y.]   , /.x.W W ( w.W [ y.6.  O ~.m.~ ( Q w.4.  O ~.m.Q [ t.2.4.7.2..   E.C.^ W ! w.! ] w.7.%   R.H./ ^ ( ",
"j.e 6 6 0 Y K ;   M T.T e 6 6 6 g s x 1   7 P v J 6 - 6 z f   7 Y.j 5 6 r v K 1   < Y.g.j r 6 - g z j 2 O : P z J i - 6 j g + % ",
"XX$X:X:X:X-X9XE.7 OXXX&X:X:X;XK.`.;X7XW.< oX@X;X:X:X:X-X4X).. } @X:X:X:X:X-X2X/.: |.eX:X:X:X:X<X`.:X2X`.< {.rX2X&X:X:X:X:X].2 ^ ",
"O.O.O.O.O./ z.:.Y 0X| X.O./ *.D.:./ ,.,.P @XO...O.O.O...-.M.w O.O.O.O.O.O./ #.c.c #X=...O./ O.D.u./ O.$Xk +Xk./ O.O.O.O.O.:Xs ^ ",
"X.O.O.O.` ` +.Q b ;X/ ` ` *.F.M./ ` +.Q v :X..` ` ` O.` O.( p O.X.` ` ` O.O.O.^ j :XX._ ` *.D.:XX.` X.` h :X+./ O.O.O.` O.O.p ` ",
"O.O.O.O.O.` %.8.j.-X/ _ ` D.-X/ O.` %.8.J -XO.` O.O.O.` +.7.H O.O.O.O.O.O.` +.7.K :X+.` ` N.:XO.` O.+.7.S A.+._ O.O.O.O.O.r.K { ",
"O.O.O.O.` _ %.0.j.&X/ O.O.O./ ` O._ -.w.z ;X/ ..` ` ` _ +.S.S ` ..O.O.O.O._ +.y.f.-XX.` O.O._ _ O._ O.r.j &X+./ O.` ` _ X.p.K { ",
"#.+.#.#.-.#.<.3.j.5X+.O.+.+.+.-.-.+.<.2.j 2X,.N.+.#.-.#.,.7.V #.%.+.+.#.#.#.%.4.K 2X,.O.O.+.+.-.-.+.%.w.y <Xx.p.=.+.-.#.#.r.F } ",
"b.' ] ^ r.e.]   1 `.x.! ^ ( y.;.&.r.6.  , Q.J./.4.;.r.e.&.@   ` m.{ [ ^ r.e.&.. O ~.C.^ ! ^ r.w.&.w.7.# O E.J./.0.&.r.w.;.-   Q ",
"L J t ; + 8 P = = 6 k s d , + 4 c v H = = - v f.H < + 4 P 4 = 9 v d.j : + 4 P 4 = 4 j s j 1 + : P l H 6 = = j d.f.2 + @ P 6 = 5 ",
":X;X9XI.4 OX0X&X:X:X:X;X9XR.< oX@X&X:X:X:X:X:X-X4XW.+ |.eX:X:X:X:X:X4XW.; |.eX:X:X:X:X:X2X/.+ ).iX:X&X:X:X:X:X-X:X).; ~.iX2X;X1X",
"+...v.:.E qX..+.+.O.O.( c.:.P qXO.X.+.O.O.O.O...,.x.P eX-.X.+.O.O...,.c.P eX-.X.+.+.O.O.-.$Xk eXk...+.+.O.O.O.O.+.&Xj +XV...+.#.",
"O.` +.Q ' :X~ ` ` ` ` ` +.W b :X/ ` ` ` ` ` ` ` O.^ s :X..` ` ` ` ` X.( z :X..` ` ` ` ` O.^ l :XX./ ` ` ` ` ` ` O./ w <X#./ ` O.",
"O._ ,.1.z ;X/ O.O.O.O.` %.3.R -X..O.O.O.O.O.O.` -.4.j ;XO.O.O.O.O.O.+.4.j ;XO.` O.O.O.O.+.4.H *X+.` O.O.O.O.O.O.O.r.d M.-./ O.O.",
"O._ <.8.j.;X/ O.O.O.O._ ,.2.v :X( O.O.O.O.O.O.` %.0.f.:XO.` O.O.O.` %.0.K :XO.` O.O.O.` O.w.j :X+.` O.O.O.O.O.O.O.r.K H.%./ O.O.",
"O._ %.8.h.;X/ O.O.O.O._ %.q.h.-X/ O.O.O.O.O.` _ %.7.g.:X....O.O.O._ %.q.f.-X..` O.O.O.` +.y.H :X+.` O.O.O.` O.` X.r.J A.+./ O.O.",
"+.O.,.1.b 5XO.+.+.+.+.X.<.6.j.>Xo.O.O.+.+.+.+.+.,.4.x >X,.r.O.+.O.O.,.4.x 2X#.O.+.+.+.+.%.r.S 2X%.O.O.+.+.+.+.+.+.r.y <Xl.r.:.+.",
"r.r.[ . m ].z.^ y.w.w.r.[ . 1 `.M.^ ^ ( r.w.w.r.w.# ; !.L.!.w.4.w.r.w.# ; ).&X/ y.t.w.y.w.$ + /.<X/ ^ / y.t.w.y.y.9   W.3X(.7.w.",
"j k r + * r j ; + 3 U.J e @ o m K s q ; + 1 U.J y @ o 7 K a t 7 j s t ; * 6 j < + , U.K d @ o 7 K j e < + ; S f.x % o < K l u 7 ",
":X&XK.`.;X$X8XI.@ oX+X&X*X:X:XM.A.;X4XR.@ |.wX:X&X:X:X*XA.*X*X*X:X&XJ.(.:X$X<XW.+ ).iX<X&X:X:X&XA.:X1X/.+ ~.iX2X&X:X:X*XA.*X:X:X",
"-.O.:.N.#.O.v.k.E rX+.o.#.#.-.#.+.O.c.n.P rX-.o.#.#.-.#.+.-.#.#.-.O.-.N.-.O.l.&Xv iXx.o.#.#.-.#.+.O.-.;Xx yXV. .+.-.-.-.+.-.-.-.",
"` ` / *.;./ +.W b >X~ ` ` ` ` ` ` ` O.! z 2X/ ` ` ` ` ` ` ` ` ` ` ` / O.w.( O./ k 2X../ ` ` ` ` ` ` X.` j <X+./ ` ` ` ` ` ` ` ` ",
"O.O.O.O.O._ %.3.h.$X/ O.O.O.O.O.O._ %.3.d.$X..O.O.O.O.O.O.O.O.O.O.O.O.O.O.` +.4.K &XO.` O.O.O.O.O.` o.r.S &X+.` O.O.O.O.O.O.O.O.",
"+.+.+.O.O.X.<.8.j.:X..O.+.O.O.O.O.X.<.0.g.:XO.X.+.O.O.O.O.O.O.O.O.O.O.O.O.O.%.y.f.:X+.O.+.O.O.O.O.O.o.y.P.<X%...+.O.O.O.O.O.O.+.",
"/ } ;.O.r.u.4.. m [.v./ ^ *.r.` :.p.w.# 1 `.&X/ ^ O.r.` :.r.y.w./ ` :.O.r.u.r.$ ; ).:X/ ^ ` r.` ;.r.r.9 + /.1X_ ^ ` r.O.;.r.r.r.",
"h S D N w U S   + 8 Q d S S S N u P S X + 8 v H S S S V J v F 5 a H D V w v K + o 7 k a H S S V j k K , o 4 j J S S S V K v G 7 ",
"&X_.R.2 |.XXM.*XM.n.M.&XL.E.1 |.XXM.C.C.*Xn.C.A.L.W., {.OXC.M.M.&XL.W.1 {.+XA.M.*Xn.M.*XJ./.1 ^.#XA.M.C.*Xn.M.J.J.).1 R.uXJ.M.C.",
"X.c.:.P rX+.o.#.#.#.-.O.z.x.P rX-.o.+.#.#.#.+.o.,.$Xk eXx.o.+.#.O.%.$Xk iXk. .#.#.#.#.O.%.&Xu #XV...+.#.#.#.#.+.+.:Xu oXJ...+.#.",
"` +.W b :X/ ` ` ` ` ` ` O.W b :X/ ` ` ` ` ` ` ` O.^ l :XX./ ` ` ` O.^ j :XX./ ` ` ` ` ` O./ a :X+./ ` ` ` ` ` ` O.O.p H.#./ ` O.",
"O.%.8.j.&X..O.O.O.O.O._ o.6.g.&XO.` O.O.O.O.O.O.+.6.H &X+.` O.O.` +.6.S &X+.` O.O.O.O.`  .w.S A.+.` O.O.O.O.O.O.X.r.F V.,.( O.O.",
"_ %.0.h.-X/ O.O.O.O._ } D.q.d.-X..O.O.O.O.O.O._ +.y.h ;XO.` O.O.` +.a.K ;XO.` O.` ` ` ` p.a.H A.+.( O.O.O.O.O.` X.p.g V.-./ O.O.",
"o.,.2.b 5XO.+.+.#.+. .F..X[ j 5X+.O.O.+.+.+.O.O.%.7.K 2X%.O.+.+.+.-.w.j 5X-.X.+.#.+.o.u..Xa.q :Xl.O.O.+.+.+.O.O.o.r.F K.z.O.+.#.",
"r.4.  2 `.v.( w.r.w.w.S.t.. ; `.&X^ ^ ( r./ ;.r.7.# ; ).*X/ ( ( r.t.# O /.:X( ;.r.w.;.r.r.9 O W.1X/ ^ / r.( *.y.y.0   R.3XX./ ` ",
"K e @ * 5 n S ; . < U.Z e @ * < j s y : + : x v S * @ 4 k q o , f.x % * 4 l H 1 @ : P.K a % * < d s a < + @ g k H 3 # < j a @ @ ",
"+X$X:X:X&X&X9XR.@ |.wX&X=X:X;XZ.(.;X4XE.+ |.eX:X:X:X:X&X<X/.  { eX:X=X:X&X&X2X~.; ~.iX2X&X:X:X&X(.<X:X(.; E.iX2X&X<X:X&X*X`.m W ",
"-.+.#.#.-.O.z.n.P rX=.o.-.+.+.D.N.X.l.M.P iXk.X.+.#.#.O.,.<Xe O.,.+.#.#.#.O.%.&Xx iXn. .+.+.O.B.F.*.#.:Xj OXH...+.-.-.#.+.4Xk ^ ",
"..` ` ` ` ` O.W b 2X/ ` / ( N.*X/ ( O.^ l 1X../ ` ` ` ` O.` e ` ..` ` ` ` ` O./ a 1XX./ ` ( r.<XO./ O.O.a J.+./ ` ` ` ` ` +.e ( ",
"O.O.O.O.O.` %.3.R -XO.` ` N.<XO.` O.+.6.J &XO.` O.O.O.O.+.7.S ` +.O.O.O.O.O.+.4.S &X+.` ` r.1X-._ O.O.w.F C.%./ O.O.O.O.O.:.G { ",
"O.O.O.O.O._ %.q.g.-X/ O.O.*.O.( O._ =.w.l :XO./ O.O.O.` +.S.D ) O.O.O.O.O.` +.y.s.:X+.` O.*.O._ ` O.O.p.j C.-./ O.O.O.O.X.i.K { ",
"+.O.O.O.O.X.%.6.j.:XX.O.O.O.O.O.O.X.%.w.k :X=.r.O.O.O.O.+.y.S ` +.O.O.O.O.O.+.y.S 1X%.O.O.O.O.O.O.O.+.r.e :Xx.e.=.O.O.O.O.u.K { ",
"M.] ;.O.p.u.;.. m ].&X/ / O.p.r.e.p.r.$ ; `.<X(.r.e.p.u.e.5 X ` &X` ;.` r.u.e.9 ; (.1XX./ _ r.r.w.r.r.q   W.2X`.q.:.p.r.u.y O Q ",
"L J t @ : 5 t + + 7 k a q : @ 4 y v S + + 4 v f.H < % = g @ X - v J d @ : 4 t @ X 2 j s e * < > y j H , X < j H S 2 % : g = X = ",
"A.A.3XI.@ |.XX&X*XM.C.-X3XR.+ ).+XM.A.:X:XM.C.A.L.E.O ^.#X:X&XC.C.A.<XE.+ ~.#X<X&XM.C.:X<X~.; R.yX<XM.J.:XM.C.A.J./.; E yXL.&XJ.",
",.X.M.b.E rX:.#.-.-.-.O.v.C.P pXb.+.+.-.-.-.-.+.z.*XP iXV.+.-.-.-.+.x.:Xx iXV.+.-.-.-.-.,.1Xj yXH.+.#.-.-.-.-.+.%.5Xj OX_.+.-.,.",
"` ( O.W b 2X~ ( ( ( ( ( O.^ b 2X/ / ` ( ( ( ( ( X./ z 2X../ ` ( ` ( O./ s 2X../ ` / / / O.X.a <X+.^ ` / ( / / ( ` X.w J.#.! ` _ ",
"O.O.-.' k ;X` O.O.O.O.O.%.6.J &XO.` O.O.O.O.O.O.+.4.j &XO.` O.O.O.O.+.[ a &X=.` O.O.O.O.O.4.F C.#.` O.O.O.O.O.O.O.e.q m.,./ O.O.",
"O._ <.9.R :X/ O.O.O.O._ -.6.h :XO.O.O.O.O.O.O.O.+.7.K :X+.` O.O.O.O.+.q.H :X+.` O.O.O.O.O.r.g A.-./ O.O.O.O.O.O.O.r.F G.,./ O.O.",
"O._ %.6.j.-X/ O.O.O.O._ %.7.R :XO.O.O.O.O.O.O.` +.7.U.:X+./ O.O.O.` +.7.s.:X+.` O.O.O.O.O.r.C A.+./ O.O.O.O.O.O.X.r.K H.%./ O.O.",
"O._ ,.4.v >X/ O.O.O.X.X.%.q.Y.:X..O.O.O.O.O.O.X.+.y.x :X+.:.O.O.O.X.#.y.j :X+.O.O.O.O.X.+.r.s.J.%._ O.O.O.O.O.X.X.p.g C.,.;.*.X.",
"r.N.r.# 7 [.$XO.p.r.r.p.r.$ 7 ].&X.._ O.p.u.r.u.r.9 @ `.2X`.r.r.r.p.r.9 @ ).1XO.u.p.r.r.p.q ; (.2XO./ O.u.p.r.r.N.j   Q.4X`.S.u.",
"y k r   + M y @ > 4 K R t     B R w 0 @ 5 4 H J t     m J h t 7 t j t     7 j % = > F K d .   2 K p w % 4 > F K g .   2 K L y 5 ",
"C.M.G./.M.x.K.I.+ ).OXZ.m.A.C.m.G.C.K.I.  ~.OXH.m.C.C.m.G.M.V.V.V.M.V./.Z.x.V.E.O E.uXK.m.C.A.m.G.A.J.W.+ E uXK.n.V.A.m.G.V.C.V.",
"x.-.n.F.l.#.-XV.P pXn.%.,.l.l.,.,.-.M.J.P iXV.%.,.l.l.l.,.,.,.l.,.-.x.Z.l.-.c.1Xx iXJ.%.,.l.l.l.,.-.x.6Xj OX8X%.,.l.l.l.,.,.,.l.",
"/ / / *.;.^ O.! b 4X~ / / / / / / / X./ z 4X/ / / / / / / / / / / / / O.;./ _ ..s 3X..^ / / / / / / / X.w L.+.! ( / / / / / / / ",
"O.O.O.O.*.` +.3.R &XO.O.O.O.O.O.O.O.+.6.Z &XO.` O.O.O.O.O.O.O.O.O.O.O.O.*.O.+.4.F &X+.` O.O.O.O.O.O.O.4.F M.%._ O.O.O.O.O.O.O.O.",
"O.O.O.O._ _ %.q.g.;X..O.O.O.O.O.O._ %.a.Y.:X..O.O.O.O.O.O.O.X.O.O.O.O.O.X._ o.a.U.:X+.` O.O.O.O.O._ o.S.U.J.%./ O.O.O.O.O.X.O.O.",
"X.=.,.+.N.B.u.- B [.;XX.o.+.,.+.p.B.u.0 7 [.:Xo.o.+.,.+.u.p.i.u.O.+.,.+.p.B.i.e , ].5X+. .+.,.+.u.B.i.u + ).7Xo...o.u.+.,.N.u.u.",
"u J K C ' P F   + B ' a Z Z K C k b G X . M b Z Z Z J J T c G r e Z K C k c J +   M ' s C J J Z k k K & . 7 b T H C J Z J c T B "
};
