/* XPM */
static char *ss_front[] = {
/* columns rows colors chars-per-pixel */
"64 64 190 2 ",
"   c None",
".  c #000001",
"X  c #00000C",
"o  c #09090D",
"O  c #190D05",
"+  c #19120D",
"@  c #000015",
"#  c #00001D",
"$  c #0C0C1C",
"%  c #0D0A12",
"&  c #1E0F10",
"*  c #12121A",
"=  c #1C1C1C",
"-  c #191616",
";  c #26180A",
":  c #321908",
">  c #221415",
",  c #361F1A",
"<  c #3A230F",
"1  c #20201C",
"2  c #35251A",
"3  c #332417",
"4  c #000025",
"5  c #00002C",
"6  c #0E0729",
"7  c #140926",
"8  c #1E1D24",
"9  c #1C1C2A",
"0  c #1B1627",
"q  c #000033",
"w  c #00003B",
"e  c #0A0B38",
"r  c #1F1F35",
"t  c #161631",
"y  c #222223",
"u  c #2C2C2D",
"i  c #272729",
"p  c #32302F",
"a  c #2C2C34",
"s  c #292936",
"d  c #323232",
"f  c #33333A",
"g  c #3A393B",
"h  c #3F3732",
"j  c #472C1A",
"k  c #4E3318",
"l  c #5B391D",
"z  c #55391D",
"x  c #602C00",
"c  c #603F1F",
"v  c #44342A",
"b  c #593A23",
"n  c #523829",
"m  c #4C3B33",
"M  c #45383E",
"N  c #6A4625",
"B  c #724A27",
"V  c #774B29",
"C  c #7B4B2B",
"Z  c #7A4A30",
"A  c #000043",
"S  c #00004B",
"D  c #0A0A4D",
"F  c #1C1D44",
"G  c #000054",
"H  c #00005B",
"J  c #0B0757",
"K  c #171753",
"L  c #282846",
"P  c #3C3C41",
"I  c #393946",
"U  c #39395A",
"Y  c #000063",
"T  c #01016B",
"R  c #0D0965",
"E  c #160B65",
"W  c #19196A",
"Q  c #181863",
"!  c #000073",
"~  c #0C0671",
"^  c #00007B",
"/  c #09097F",
"(  c #100E71",
")  c #101076",
"_  c #403651",
"`  c #4F3570",
"'  c #482976",
"]  c #434444",
"[  c #4A4A4B",
"{  c #46494A",
"}  c #5A4E4D",
"|  c #50504F",
" . c #444452",
".. c #4C4C51",
"X. c #535354",
"o. c #5A5A5A",
"O. c #51515A",
"+. c #6C454A",
"@. c #734545",
"#. c #725041",
"$. c #575566",
"%. c #646464",
"&. c #6B6B6B",
"*. c #706D6D",
"=. c #656573",
"-. c #6F6F70",
";. c #727274",
":. c #7C7B7C",
">. c #84542F",
",. c #865C2C",
"<. c #8B5732",
"1. c #935D35",
"2. c #995E37",
"3. c #846227",
"4. c #9A603C",
"5. c #AB6A3F",
"6. c #A4653C",
"7. c #AA7639",
"8. c #945A4F",
"9. c #885F5D",
"0. c #986442",
"q. c #896655",
"w. c #A96844",
"e. c #B77245",
"r. c #BC7547",
"t. c #BD794D",
"y. c #A76A59",
"u. c #B77150",
"i. c #8B5566",
"p. c #947065",
"a. c #A76677",
"s. c #C37A4A",
"d. c #CB7D4E",
"f. c #C07749",
"g. c #C87F52",
"h. c #AD8C13",
"j. c #B9A628",
"k. c #E9D72B",
"l. c #BE8E43",
"z. c #AA9C55",
"x. c #CA8154",
"c. c #D38352",
"v. c #DA8B59",
"b. c #E38D56",
"n. c #EE935B",
"m. c #F4975D",
"M. c #FA9A5F",
"N. c #EBB84D",
"B. c #DB8767",
"V. c #DB9063",
"C. c #DE9679",
"Z. c #E49361",
"A. c #E99663",
"S. c #EF9A68",
"D. c #F59E6B",
"F. c #F79B63",
"G. c #DBA273",
"H. c #F9A26E",
"J. c #F7A877",
"K. c #E7B471",
"L. c #FDBA7F",
"P. c #000083",
"I. c #00008D",
"U. c #0B0B85",
"Y. c #1F1083",
"T. c #000093",
"R. c #00009D",
"E. c #121295",
"W. c #0000A2",
"Q. c #0101AB",
"!. c #1B0DA0",
"~. c #1515A8",
"^. c #0000B1",
"/. c #0000BA",
"(. c #512D8D",
"). c #5F5E83",
"_. c #794A90",
"`. c #6D6D91",
"'. c #727291",
"]. c #4646B2",
"[. c #6B6BA2",
"{. c #0000C3",
"}. c #3C22C0",
"|. c #3939CA",
" X c #888889",
".X c #BF8A9B",
"XX c #8080AE",
"oX c #F8AB81",
"OX c #FCB78E",
"+X c #C994A1",
/* pixels */
"                                                                                                                                ",
"                                                                                                                                ",
"                                                                                                                                ",
"                                                                                                                                ",
"                                                                                                                                ",
"                                                                                                                                ",
"                                                                                                                                ",
"                                                                                                                                ",
"                                                                                                                                ",
"                                                                                                                                ",
"                                                              Q.{.{.                                                            ",
"                                                          Q.Q././.G o                                                           ",
"                                                      {.{.{./.Q.D . . .                                                         ",
"                                                    /./././.Q.G . . . . .                                                       ",
"                                                    ~ ( ~ ! R 6 . o : x                                                         ",
"                                                    9.z.p.(.i.w.@.' 0.h.                                                        ",
"                                                    7.k.K.+XC.v.y..XG.j.3.                                                      ",
"                                                    7.N.L.OXJ.A.V.oXJ.l.,.                                                      ",
"                                                      m.D.J.Z.v.Z.D.v.d.                                                        ",
"                                                      M.n.D.A.Z.A.S.f.d.                                                        ",
"                                                      F.F.H.H.Z.D.A.d.5.                                                        ",
"                                                    m 0.x.c.g.e.t.e.6.C :                                                       ",
"                                                    u m w.f.r.e.1.>.V k O                                                       ",
"                                            R.W 1 y g :.q.r.d.c.1.V n g * @ @ 5                                                 ",
"                                          Q.Q.W 1 8 L $.*.#.C 2.l v M L J H H H H G                                             ",
"                                        ^.{./.W 1 r U.) U F 6 , 7 e L T T.T.T.T.I.Y G                                           ",
"                                      ^.Q.R.T.Q y 9 R ! ! ! T G T ! ! P.I.I.I.I.P.Y D A                                         ",
"                                    ^.^.R.^ ! / K 1 9 D ! ^ ^ H ! ^ T T T T Y T ^ G w w A                                       ",
"                                  ^.^.Q.T.! H ^ K 1 y 9 D ! ! H ! ! H P.P.P.^ D H A 5 q w                                       ",
"                                  Q.Q.R.^ Y w D D 9 = % # D G A H H A G G G D q q 4 # 4 q w                                     ",
"                                ^.Q.T.^ Y D 5 w Y A o . . @ 5 q w q q D D D A 5 4 # # 4 5 w                                     ",
"                                ^.Q.I.! G q @ w H D # . . y y i a s F q q q q 4 # 4 5 t r q w                                   ",
"                              ^.^.R.Q.Q.I.T L g U U I d g o.%.%.&.&.o.f f f f P P P  .O...e q                                   ",
"                                Q.Q.{./.Q.~.`.:.:.;.-.&.&.&.&.&.&.&.%.%.&.&.;.:.:. X X:.a q q                                   ",
"                                T Q.R.T.Q.].'.&.o.o.o.o.| [ [ [ [ ] [ [ [ [ [ [ o.o.o...6 q q                                   ",
"                                  ! T ^.|.XX=.} } { ] ] f i u d u y y 8 * - 2 3 2 2 h P 9 4                                     ",
"                                    D E.[.).` y.4.Z b v 8 0 ] ] ] u $ # # 2 B >.>.B z d ]                                       ",
"                                      K =.$.8.b.n.c.1.b > 8 [ [ [ a $ @ @ j 1.f.f.1.l p                                         ",
"                                         ._ u.m.n.e.B ; . = [ o.o.d o . . j 1.r.r.<.l +                                         ",
"                                            a.B.b.5.N ; . - ] ] ] y . . . < V <.>.c k                                           ",
"                                            }._.i.+.M 0 # @ $ $ $ # @ @ @ % & > > O                                             ",
"                                              !.Y.E J w 5 4 4 4 4 4 4 4 4 4 # #                                                 ",
"                                              T.^ Y D q 4 4 # # # 5 q q q 5 4 #                                                 ",
"                                              /.T.^ H w q 5 # # 5 A G G G w q 5                                                 ",
"                                              /.T.^ H w q 5 4 4 A G Y T T G w q                                                 ",
"                                              /.T.^ H w q 5 4 4 D Y Y T ^ Y D q                                                 ",
"                                              /.T.^ H w q 5 # 4 D Y Y T ^ Y D q                                                 ",
"                                              /.T.^ H w q 5 # 4 D Y T P.^ H A q                                                 ",
"                                              /.Q.P.H w q 5 # 4 D Y T P.^ G A q                                                 ",
"                                              /.Q.P.H w q 5 # 4 D G T P.! D D A                                                 ",
"                                              /.R.^ G w q 5 # 4 A Y T ^ ! D A A                                                 ",
"                                              {.{.R.T D A q 4 4 w H ! ^ P.T A q                                                 ",
"                                            /.^.Q.T.Y A w q 4 4 q D ! ^ I.H A w o                                               ",
"                                            /.R.^ Y D w 5 4 # 4 q D Y Y T w q q o                                               ",
"                                              ^ T G D w 5 # # # 4 A D A w q 5 # .                                               ",
"                                              q w 5 5 # @ o o   o # # # # # @ .                                                 ",
"                                              . # q # . . . .   . . @ q 4 . . .                                                 ",
"                                                q w 5 o . . .   . o 5 w q o .                                                   ",
"                                                4 5 q # . .       @ q 4 # . .                                                   ",
"                                                o @ # @ . .       o # 4 4 . .                                                   ",
"                                              o 4 q q 5 o . .   . @ 5 w 5 o . .                                                 ",
"                                              5 w A A w # . .   o 5 w w w 4 . .                                                 ",
"                                            o q w w w 5 @ . .   o 5 w w w 4 . . .                                               ",
"                                            . 4 q 5 # o . .       @ 5 q 5 4 . . .                                               "
};
