/* XPM */
static char *dark_green_up_left_down_png[] = {
/* columns rows colors chars-per-pixel */
"32 32 21 1 ",
"  c #0C3F18",
". c #164B1A",
"X c #164B1B",
"o c #174C1B",
"O c #1E551D",
"+ c #347926",
"@ c #347A26",
"# c #347B26",
"$ c #357B27",
"% c #357C27",
"& c #367C27",
"* c #377F27",
"= c #367E28",
"- c #377E28",
"; c #3E8B2B",
": c #3F8C2B",
"> c #45962E",
", c #45972E",
"< c #46972F",
"1 c #45982F",
"2 c #46992F",
/* pixels */
"22222222222222222222222222222222",
"22<>>>>>>>>>>>>>>>>>>>>>>>>>>>,,",
"21:=&+@$&+@$&+@$&+@$&+@$&+@$&@#%",
"2>*OXX.oXX.oXX.oXX.oXX.oXX.oXX.o",
"2>$o                            ",
"2>@.                            ",
"2>+X                            ",
"2>&X                            ",
"2>$o                            ",
"2>@.                            ",
"2>+X                            ",
"2>&X                            ",
"2>$o                            ",
"2>@.                            ",
"2>+X                            ",
"2>&X                            ",
"2>$o                            ",
"2>@.                            ",
"2>+X                            ",
"2>&X                            ",
"2>$o                            ",
"2>@.                            ",
"2>+X                            ",
"2>&X                            ",
"2>$o                            ",
"2>@.                            ",
"2>+X                            ",
"2>&X                            ",
"2>-Oo.XXo.XXo.XXo.XXo.XXo.XXo.XX",
"2<;*$@+&$@+&$@+&$@+&$@+&$@+&$@+&",
"221>>>>>>>>>>>>>>>>>>>>>>>>>>>>>",
"22222222222222222222222222222222"
};
