/* XPM */
static char *dark_green_down_right_png[] = {
/* columns rows colors chars-per-pixel */
"32 32 18 1 ",
"  c #0C3F18",
". c #154B1B",
"X c #164B1A",
"o c #164B1B",
"O c #164C1B",
"+ c #174C1B",
"@ c #1D551D",
"# c #347926",
"$ c #347A26",
"% c #357B27",
"& c #367C27",
"* c #377F28",
"= c #387F28",
"- c #3F8D2C",
"; c #45962E",
": c #46972F",
"> c #45982F",
", c #46992F",
/* pixels */
"                            .&;,",
"                            O%;,",
"                            X$;,",
"                            o#;,",
"                            o&;,",
"                            +%;,",
"                            X$;,",
"                            o#;,",
"                            o&;,",
"                            +%;,",
"                            X$;,",
"                            o#;,",
"                            o&;,",
"                            +%;,",
"                            X$;,",
"                            o#;,",
"                            o&;,",
"                            +%;,",
"                            X$;,",
"                            o#;,",
"                            o&;,",
"                            +%;,",
"                            X$;,",
"                            o#;,",
"                            o&;,",
"                            +%;,",
"                            X$;,",
"                            o#;,",
".OXoo+Xoo+Xoo+Xoo+Xoo+Xoo+Xo@*;,",
"&%$#&%$#&%$#&%$#&%$#&%$#&%$#=->,",
";;;;;;;;;;;;;;;;;;;;;;;;;;;;;:,,",
",,,,,,,,,,,,,,,,,,,,,,,,,,,,,,,,"
};
