/* XPM */
static char *dark_green_right_png[] = {
/* columns rows colors chars-per-pixel */
"32 32 10 1 ",
"  c #0C3F18",
". c #164B1A",
"X c #164B1B",
"o c #174C1B",
"O c #347926",
"+ c #347A26",
"@ c #357B27",
"# c #367C27",
"$ c #45962E",
"% c #46992F",
/* pixels */
"                            XO$%",
"                            .+$%",
"                            o@$%",
"                            X#$%",
"                            XO$%",
"                            .+$%",
"                            o@$%",
"                            X#$%",
"                            XO$%",
"                            .+$%",
"                            o@$%",
"                            X#$%",
"                            XO$%",
"                            .+$%",
"                            o@$%",
"                            X#$%",
"                            XO$%",
"                            .+$%",
"                            o@$%",
"                            X#$%",
"                            XO$%",
"                            .+$%",
"                            o@$%",
"                            X#$%",
"                            XO$%",
"                            .+$%",
"                            o@$%",
"                            X#$%",
"                            XO$%",
"                            .+$%",
"                            o@$%",
"                            X#$%"
};
