/* XPM */
static char *dark_green_left_up_png[] = {
/* columns rows colors chars-per-pixel */
"32 32 17 1 ",
"  c #0C3F18",
". c #164B1A",
"X c #164B1B",
"o c #174C1B",
"O c #1E551D",
"+ c #347926",
"@ c #347A26",
"# c #357B27",
"$ c #357C27",
"% c #367C27",
"& c #367D28",
"* c #3F8D2B",
"= c #45962E",
"- c #45972F",
"; c #46972F",
": c #45982F",
"> c #46992F",
/* pixels */
">>>>>>>>>>>>>>>>>>>>>>>>>>>>>>>>",
">>;=============================",
">:*&%+@#%+@#%+@#%+@#%+@#%+@#%+@#",
">-$OXX.oXX.oXX.oXX.oXX.oXX.oXX.o",
">=@.                            ",
">=#o                            ",
">=%X                            ",
">=+X                            ",
">=@.                            ",
">=#o                            ",
">=%X                            ",
">=+X                            ",
">=@.                            ",
">=#o                            ",
">=%X                            ",
">=+X                            ",
">=@.                            ",
">=#o                            ",
">=%X                            ",
">=+X                            ",
">=@.                            ",
">=#o                            ",
">=%X                            ",
">=+X                            ",
">=@.                            ",
">=#o                            ",
">=%X                            ",
">=+X                            ",
">=@.                            ",
">=#o                            ",
">=%X                            ",
">=+X                            "
};
