/* XPM */
static char *dark_green_left_up_right_png[] = {
/* columns rows colors chars-per-pixel */
"32 32 24 1 ",
"  c #0C3F18",
". c #154A1A",
"X c #164B1A",
"o c #164B1B",
"O c #174C1B",
"+ c #1D551D",
"@ c #1E551D",
"# c #347926",
"$ c #347A26",
"% c #357A26",
"& c #357B27",
"* c #357C27",
"= c #367C27",
"- c #377E27",
"; c #367E28",
": c #377E28",
"> c #3F8C2B",
", c #44962E",
"< c #45962E",
"1 c #45972F",
"2 c #46972F",
"3 c #45982E",
"4 c #45982F",
"5 c #46992F",
/* pixels */
"55555555555555555555555555555555",
"553<<<<<<<<<<<<<<<<<<<<<<<<<<255",
"54>;=#$&=#$&=#$&=#$&=#$&=#$&:>15",
"5<-@ooXOooXOooXOooXOooXOooXO+=15",
"5<&o                        X=<5",
"5<%o                        O#<5",
"5<%o                        X*,5",
"5<&o                        O#<5",
"5<&o                        X=<5",
"5<%o                        O#<5",
"5<%o                        X*,5",
"5<&o                        O#<5",
"5<&o                        X=<5",
"5<%o                        O#<5",
"5<%o                        X*,5",
"5<&o                        O#<5",
"5<&o                        X=<5",
"5<%o                        O#<5",
"5<%o                        X*,5",
"5<&o                        O#<5",
"5<&o                        X=<5",
"5<%o                        O#<5",
"5<%o                        X*,5",
"5<&o                        O#<5",
"5<&o                        X=<5",
"5<%o                        O#<5",
"5<%o                        X*,5",
"5<&o                        O#<5",
"5<&o                        X=<5",
"5<%o                        O#<5",
"5<%o                        X*,5",
"5<%.                        O#<5"
};
