/* XPM */
static char *dark_green_up_right_down_png[] = {
/* columns rows colors chars-per-pixel */
"32 32 28 1 ",
"  c #0C3F18",
". c #154B1B",
"X c #164B1A",
"o c #164B1B",
"O c #174C1B",
"+ c #1D551C",
"@ c #1D551D",
"# c #347926",
"$ c #347A26",
"% c #357A26",
"& c #357B26",
"* c #357A27",
"= c #357B27",
"- c #357C27",
"; c #367C27",
": c #367D27",
"> c #377E27",
", c #377E28",
"< c #377F28",
"1 c #3F8C2B",
"2 c #44962E",
"3 c #45962E",
"4 c #45972E",
"5 c #45972F",
"6 c #46972F",
"7 c #45982F",
"8 c #46982F",
"9 c #46992F",
/* pixels */
"99999999999999999999999999999999",
"44333333333333333333333333333699",
":%&=;#$=;#$=;#$=;#$=;#$=;#$=,159",
"XoXOooXOooXOooXOooXOooXOooXO@;59",
"                            X;39",
"                            O#39",
"                            X-29",
"                            O#39",
"                            X;39",
"                            O#39",
"                            X-29",
"                            O#39",
"                            X;39",
"                            O#39",
"                            X-29",
"                            O#39",
"                            X;39",
"                            O#39",
"                            X-29",
"                            O#39",
"                            X;39",
"                            O#39",
"                            X-29",
"                            O#39",
"                            X;39",
"                            O#39",
"                            X-29",
"                            O#39",
".Xoooooooooooooooooooooooooo+<39",
"*=%%==%%==%%==%%==%%==%%==%%>189",
"33333333333333333333333333333799",
"99999999999999999999999999999999"
};
