/* XPM */
static char *dark_green_left_right_png[] = {
/* columns rows colors chars-per-pixel */
"32 32 16 1 ",
"  c #0C3F18",
". c #164A1A",
"X c #164B1A",
"o c #164B1B",
"O c #164C1B",
"+ c #174C1B",
"@ c #347926",
"# c #357A26",
"$ c #357B27",
"% c #357C27",
"& c #367C27",
"* c #377E27",
"= c #44962E",
"- c #45962E",
"; c #45972F",
": c #46992F",
/* pixels */
":-@o                        O*;:",
":-%.                        +$-:",
":-@+                        o#-:",
":=%X                        o$-:",
":-@+                        o$-:",
":-&X                        o#-:",
":-@+                        o#-:",
":=%X                        o$-:",
":-@+                        o$-:",
":-&X                        o#-:",
":-@+                        o#-:",
":=%X                        o$-:",
":-@+                        o$-:",
":-&X                        o#-:",
":-@+                        o#-:",
":=%X                        o$-:",
":-@+                        o$-:",
":-&X                        o#-:",
":-@+                        o#-:",
":=%X                        o$-:",
":-@+                        o$-:",
":-&X                        o#-:",
":-@+                        o#-:",
":=%X                        o$-:",
":-@+                        o$-:",
":-&X                        o#-:",
":-@+                        o#-:",
":=%X                        o$-:",
":-@+                        o$-:",
":-&X                        o#-:",
":-@+                        o#-:",
":=%X                        o$-:"
};
