/* XPM */
static char *dark_green_up_down_png[] = {
/* columns rows colors chars-per-pixel */
"32 32 17 1 ",
"  c #0C3F18",
". c #14491A",
"X c #154B1B",
"o c #164A1A",
"O c #164B1A",
"+ c #174B1A",
"@ c #164B1B",
"# c #164C1B",
"$ c #174C1B",
"% c #337826",
"& c #347926",
"* c #347A26",
"= c #357B27",
"- c #357C27",
"; c #367C27",
": c #45962E",
"> c #46992F",
/* pixels */
">>>>>>>>>>>>>>>>>>>>>>>>>>>>>>>>",
"::::::::::::::::::::::::::::::::",
"%*=;&*=;&*=;&*=;&*=;&*=;&*=;&*=-",
".@+@@O$@@O$@@O$@@O$@@O$@@O$@@O$o",
"                                ",
"                                ",
"                                ",
"                                ",
"                                ",
"                                ",
"                                ",
"                                ",
"                                ",
"                                ",
"                                ",
"                                ",
"                                ",
"                                ",
"                                ",
"                                ",
"                                ",
"                                ",
"                                ",
"                                ",
"                                ",
"                                ",
"                                ",
"                                ",
"X#O@@$O@@$O@@$O@@$O@@$O@@$O@@$O@",
";=*&;=*&;=*&;=*&;=*&;=*&;=*&;=*&",
"::::::::::::::::::::::::::::::::",
">>>>>>>>>>>>>>>>>>>>>>>>>>>>>>>>"
};
