/* XPM */
static char *dark_green_down_left_png[] = {
/* columns rows colors chars-per-pixel */
"32 32 18 1 ",
"  c #0C3F18",
". c #154B1B",
"X c #164B1A",
"o c #164B1B",
"O c #174C1B",
"+ c #1D551D",
"@ c #347926",
"# c #347A26",
"$ c #357A26",
"% c #357A27",
"& c #357B27",
"* c #367C27",
"= c #377E27",
"- c #3F8C2B",
"; c #45962E",
": c #46972F",
"> c #45982F",
", c #46992F",
/* pixels */
",;%.                            ",
",;&X                            ",
",;$o                            ",
",;$o                            ",
",;&o                            ",
",;&o                            ",
",;$o                            ",
",;$o                            ",
",;&o                            ",
",;&o                            ",
",;$o                            ",
",;$o                            ",
",;&o                            ",
",;&o                            ",
",;$o                            ",
",;$o                            ",
",;&o                            ",
",;&o                            ",
",;$o                            ",
",;$o                            ",
",;&o                            ",
",;&o                            ",
",;$o                            ",
",;$o                            ",
",;&o                            ",
",;&o                            ",
",;$o                            ",
",;$o                            ",
",;=+oOXooOXooOXooOXooOXooOXooOXo",
",>-**&#@*&#@*&#@*&#@*&#@*&#@*&#@",
",,:;;;;;;;;;;;;;;;;;;;;;;;;;;;;;",
",,,,,,,,,,,,,,,,,,,,,,,,,,,,,,,,"
};
