/* XPM */
static char *dark_green_left_down_right_png[] = {
/* columns rows colors chars-per-pixel */
"32 32 23 1 ",
"  c #0C3F18",
". c #154A1B",
"X c #164B1A",
"o c #174B1A",
"O c #164B1B",
"+ c #174C1B",
"@ c #1D551C",
"# c #1E551D",
"$ c #347926",
"% c #347A26",
"& c #357A26",
"* c #357B27",
"= c #357C27",
"- c #367C27",
"; c #367D27",
": c #377F28",
"> c #3E8B2B",
", c #3F8D2C",
"< c #44962E",
"1 c #45962E",
"2 c #46972F",
"3 c #45982F",
"4 c #46992F",
/* pixels */
"41*.                        O%14",
"41$O                        o&14",
"41%X                        O*14",
"41*+                        O*14",
"41-O                        O&14",
"41$O                        O&14",
"41%X                        O*14",
"41*+                        O*14",
"41-O                        O&14",
"41$O                        O&14",
"41%X                        O*14",
"41*+                        O*14",
"41-O                        O&14",
"41$O                        O&14",
"41%X                        O*14",
"41*+                        O*14",
"41-O                        O&14",
"41$O                        O&14",
"41%X                        O*14",
"41*+                        O*14",
"41-O                        O&14",
"41$O                        O&14",
"41%X                        O*14",
"41*+                        O*14",
"41-O                        O&14",
"41$O                        O&14",
"41%X                        O*14",
"41*+                        O*14",
"41:@+X+X+X+X+X+X+X+X+X+X+X+X#;14",
"43>:$=$-$=$-$=$-$=$-$=$-$=$--,34",
"44211<111<111<111<111<111<111344",
"44444444444444444444444444444444"
};
