/* XPM */
static char *green_down_png[] = {
/* columns rows colors chars-per-pixel */
"32 32 12 1 ",
"  c #0C3F18",
". c #154B1B",
"X c #164B1A",
"o c #164B1B",
"O c #164C1B",
"+ c #174C1B",
"@ c #347926",
"# c #347A26",
"$ c #357B27",
"% c #367C27",
"& c #45962E",
"* c #46992F",
/* pixels */
"                                ",
"                                ",
"                                ",
"                                ",
"                                ",
"                                ",
"                                ",
"                                ",
"                                ",
"                                ",
"                                ",
"                                ",
"                                ",
"                                ",
"                                ",
"                                ",
"                                ",
"                                ",
"                                ",
"                                ",
"                                ",
"                                ",
"                                ",
"                                ",
"                                ",
"                                ",
"                                ",
"                                ",
".OXoo+Xoo+Xoo+Xoo+Xoo+Xoo+Xoo+Xo",
"%$#@%$#@%$#@%$#@%$#@%$#@%$#@%$#@",
"&&&&&&&&&&&&&&&&&&&&&&&&&&&&&&&&",
"********************************"
};
