/* XPM */
static char *_0_1[] = {
/* columns rows colors chars-per-pixel */
"64 64 200 2 ",
"   c #0A0B06",
".  c #0D0D0B",
"X  c #0B1204",
"o  c #0D100E",
"O  c #121407",
"+  c #12130E",
"@  c #161F0E",
"#  c #181C0B",
"$  c #131412",
"%  c #181714",
"&  c #151B13",
"*  c #1A1B15",
"=  c #16191A",
"-  c #1C1D1B",
";  c #201F1C",
":  c #1B240E",
">  c #1B280F",
",  c #1D3409",
"<  c #152413",
"1  c #1C2314",
"2  c #1D2A14",
"3  c #1D221C",
"4  c #1D291B",
"5  c #1F301D",
"6  c #21220E",
"7  c #262B0B",
"8  c #25370F",
"9  c #303B0D",
"0  c #222515",
"q  c #222C14",
"w  c #2A2D15",
"e  c #22241D",
"r  c #28271D",
"t  c #242B1C",
"y  c #2A2C1C",
"u  c #302F19",
"i  c #243314",
"p  c #2B3416",
"a  c #233A13",
"s  c #2C3A16",
"d  c #25321D",
"f  c #2B331D",
"g  c #233A1C",
"h  c #2C3B1B",
"j  c #343714",
"k  c #343C12",
"l  c #393A16",
"z  c #31341C",
"x  c #333B1C",
"c  c #393D1C",
"v  c #1D1F21",
"b  c #1E2321",
"n  c #1F2B24",
"m  c #1A2129",
"M  c #242523",
"N  c #282724",
"B  c #252A24",
"V  c #2A2C25",
"C  c #252629",
"Z  c #282528",
"A  c #262A2A",
"S  c #2B2D2B",
"D  c #302E27",
"F  c #302E2B",
"G  c #253322",
"H  c #2C3324",
"J  c #253A23",
"K  c #2D3B23",
"L  c #27332A",
"P  c #2D322C",
"I  c #2D3A2B",
"U  c #323524",
"Y  c #333B24",
"T  c #3A3D23",
"R  c #32332C",
"E  c #38372C",
"W  c #343B2C",
"Q  c #3A3C2C",
"!  c #242C31",
"~  c #2C2E31",
"^  c #282E3B",
"/  c #312F30",
"(  c #273430",
")  c #2D3233",
"_  c #2D3B33",
"`  c #2E3439",
"'  c #2D383C",
"]  c #333433",
"[  c #393634",
"{  c #353A33",
"}  c #3A3C34",
"|  c #333639",
" . c #38363B",
".. c #353A3B",
"X. c #3B3C3B",
"o. c #413E35",
"O. c #413E3C",
"+. c #2C400F",
"@. c #33410E",
"#. c #37480E",
"$. c #3F570B",
"%. c #234115",
"&. c #2E4514",
"*. c #23411C",
"=. c #28401B",
"-. c #3D4516",
";. c #394B14",
":. c #34431D",
">. c #3C421B",
",. c #33491C",
"<. c #3B4919",
"1. c #33511E",
"2. c #2E4224",
"3. c #2E412A",
"4. c #2F4B2E",
"5. c #344324",
"6. c #3C4324",
"7. c #364A23",
"8. c #3C4B24",
"9. c #35432C",
"0. c #3C422C",
"q. c #364A2E",
"w. c #3C4B2C",
"e. c #365127",
"r. c #385227",
"t. c #3C522B",
"y. c #354232",
"u. c #3C4233",
"i. c #374932",
"p. c #3D4932",
"a. c #35413D",
"s. c #3C423C",
"d. c #3C4A3B",
"f. c #3D5034",
"g. c #444A14",
"h. c #43471B",
"j. c #414A1B",
"k. c #494A1A",
"l. c #4E5714",
"z. c #46531E",
"x. c #505316",
"c. c #55571E",
"v. c #47651E",
"b. c #536518",
"n. c #586E1D",
"m. c #424424",
"M. c #434B23",
"N. c #4B4D25",
"B. c #42442C",
"V. c #444B2A",
"C. c #4A4C2C",
"Z. c #435222",
"A. c #4C5422",
"S. c #4B5E24",
"D. c #45522C",
"F. c #4A512B",
"G. c #4D5A2E",
"H. c #505425",
"J. c #5A5D23",
"K. c #50512A",
"L. c #52582F",
"P. c #414334",
"I. c #444B33",
"U. c #494C35",
"Y. c #42433B",
"T. c #48453C",
"R. c #434A3A",
"E. c #4B4D3C",
"W. c #415433",
"Q. c #4C5433",
"!. c #475239",
"~. c #4E523B",
"^. c #515331",
"/. c #505C31",
"(. c #51523A",
"). c #5A5C3C",
"_. c #5D6629",
"`. c #60622B",
"'. c #66682A",
"]. c #6C702A",
"[. c #2F3641",
"{. c #363540",
"}. c #353C42",
"|. c #3B3D42",
" X c #423F42",
".X c #344145",
"XX c #3D4143",
"oX c #3F4A44",
"OX c #3D444B",
"+X c #3E4751",
"@X c #434443",
"#X c #434A43",
"$X c #494C43",
"%X c #42454A",
"&X c #49454B",
"*X c #444A4A",
"=X c #4B4B4B",
"-X c #4D504F",
";X c #535642",
":X c #4E5154",
/* pixels */
"P S S X.{ i.V.{ { t.f..X}..X+XOX| ) ] | ] R S P X. X..) ) ) 4 M m U S X.s._ U ] C.l e B 5.R [ ( n 3 B I Z M M Z S ] P | ` M - - ",
"N R ) |.| u.7.) { I.OX|.XX*XoX{.S S ! R P P M A #XX.] ..M B h Y ] S ] Y.XXs.y.{ Q N N w.G R K 3 < 1 K W ~ |.~ Z ~ ]  .{ ] ] ; y ",
"S S ..s.y.{ 6.E XXd.*X..T.@X.X ./ @X@Xu.B L 4 I W [ ] XX{ W { } ) F ] s..XL 3.R.9.B K V.q 3 < q = b P A ~ X./ ~ ) ~ { A M N y >.",
"P ] X.| s.P.Q U s.u.a.s.#XO.OX| ] @X=X_ { { d K b S S L ] _ u.V.| R E u.u.y.!.R.W h V d g.0 & V S C A - S ^ S M S U | ~ 3 S Q D ",
"S [ ] S X.Q R y ] W oXs.{ } @XX.s.|.@X) ~ K A C { ) ] V ..[ ] { { ] u.E 0.] (.~.0.h & 3 1 : 3 ) S A U B X.^ ) A ~ S ~ ) ] P / ~ ",
"] C.S ] } Y.] r w w.X.{ XX|.XX+X| ^ A ' b V A A } #XY.| S ) @Xu.G.} ..X.{ ..~.X.m.-.2 s &.p 3 b I < Y I  .] ~ | R | L L A W V ~ ",
"N { S A P E U w y W } P y.| | [.` ^ ^ | S S S A u.~.;X] S XXT.!.i.{ | I H ] ) N C.f 2 a g 1 d 3 T >.A ~ Q X. X XX.} W S W S Q 0.",
"R X...E S R Q 6.h.R ..}.| A ! ^ A ` a.s.} I S ..XX0.5.V C ` ` ..| R. .P S [ F M V W V d 3 @ p y B c C ! ] ` {.|.` S ~ @X{ ~ A R ",
"Y.X...o.[ P W W U ] | ` ! ~ ` }.X.) @X#XX.] ] =X=X..L b A ..) ] ] X.] ] ] ..S S V H h.x y 6 s d b I ..~ Y.@X|.{.~  .S ] Z M S [ ",
"X.] ] X.u...] [ S - C ~ ..) XX..XX}.%X&XO.X.X.-X@X{ A n ] S ) / ] X.M } R } p ) d H l T A.x.;.G x i.] { s. X|  .X./ ~ Z S S S | ",
"E.P.] ) { X...] R % - S | }.*X}.X.{ XX=X@X%X|.|.R R C 3 M ) X.@X@X/ N N { R W @X{ ] W h M.-.w H K I W S ..| ~ |.%X|...N N ~ ~ @X",
"..X.` ]  .X.|.{ S S v M ] |.OXXXP.I.R.s.@X@XR.| ) 3 ~ n M ) S ) X.F M P X.~ S ....0.} { S % k H 7.0.R ] } | ~ |. X .N Z F ]  .@X",
"R ] R @X#X..P...) V S ~ ] XX) }...#XI.R.Y.0.0.` ) P ~ K 2.V G 3.P ~ M F  .S [ :X@XR ] { S q 5.T P.} V.} R R C | O.[ Z / S R @X@X",
"X.] S @X@Xd.{ ~ { E A | ) ..( L d.|.{ 0.{ H ~ u...} W.V.j.K K f.8.S G S [ Z ..Y.{ S R ) A t d 6.P.} L.} ] B v F [ ] S Z R F @XP.",
"@X| X.*XY.{ ..C A ] ] ] ) *X] C a.XX*X' b y.! 5.[ 9.3.V.z Y A { 5.G B { ] / / s.] ~ S P I H V P f.{ E ] V z M M M ~ v F  .] X.d.",
"XX] X.[ ] ) ` ) ` R.s.XX..| ` }.s.:X%XA < I M 4 K P 7.6.P 7.K ' ) I R H X.] [ [ [ B e B W W { 5.{ ..W L ~ ~ o.N S  .v [ [ / Y.@X",
"P ) ) M A L A ` ] f ~ ) | | ) s.s.XX| A 4 *.J 4 4._ a.p.S.L n ) { y.5.W R S s.|.s.V U U V w.M.s I | ..X.}.}.| S ] S ~ ] |.| X.~ ",
"x M A V V P W R ) b N [ Q S ) ] ~ ( b $ n B V _ ..a.s.s.t.I S { s.T.w.Y x Y u.=XX.t x W } R K i B [ X.%X| }.M S S S [ } @X| ) A ",
"c z X.s.P { ] I y.P X. XI ]  .) b M X.T W ( L V XX..XXq.9.~ A { | | I 6.R P.=XX...e B ..S P 9.R N I s.| ) S H M M Z S |.=XS S P ",
"B U Q.I.P { I _ L | { @X..) ^ ) g 5 ] H h ,.J V d.a...9.] S A ( ] C Q k.{ s.&X|.H x U ) [ I W H S { [ ) ..R t v - Z | ~ A = M N ",
"w e V F S | | J P A ..P S L ` ~ H @ H x.V k B ] ] ) ) ) I { A H ) | } 0.] P } ] S B.z B.R.w.W R N S S ) ) B M / C Z ] [ M - b >.",
"c.R { t.A { P I [ ) ~ ! e G ~ ~ V f H B z k 6.y.s.X.C 9.q.W P U ] X.S | X.{ G.u.W R 6.]./.R V R S P ~ | M B 3 S S ] / ] ] N ] m.",
"I.] p.W ] P P U u.W S I I ..S M h f S q @.k { i.f.} ! ) { ) S S ~ M R X.%X[ X. .| S Q M.R } o.[ ] L B M N N S A S S / S M S S S ",
"=X|.y.) A V t H R [ A U i...P - i B K :.#.f { XXXX{ S ) ) S [ V P S S  X$X@X| ] { ] N R R F Q @XX.d 5.R R N ] S O.S M 3 - S ~ ] ",
"X.u.M C B B R R T T f } [ S r - = b - < ;.J P { y.R S S ] ~ ~ ] R R } X.} X.S S 3 H [ / ] S ] ..Q.U W u.H R V S / / y M M } ) @X",
"W Z.- 3 N B B { U.J.3 N F R ] S ) ~ * 0 $.%.H d A { [ S Z / |.] D V M S V Z M ; * [ ] S Q M [ @XP.P.Q R M R N Z S / N [ M N ) ] ",
"!.I.R h p y B V V V S + Q } ] P P Y f 0 q M V 3 M { @X .] r V B H T S N N v - N R R V B V S ..) [ Q E V 1 d y [ [ [ Z Z M M ..} ",
"P.R [ V t B t f 3 U N B G A b b K r.f 3 e B t S B |.E.X.O.B R L R R ] F B M - ; W H P A ] [ A M e l x h 2 H e ] Z F Z Z S V P } ",
"S R R N e q W 8.8.C.S B K G & g - 1 - 3 < 3 H B K { ..] [ R P W E P.X.X.V n q z T S ~ [ s.W N 6 y f B R R R N F R R M S S F V S ",
"N e N B & e 5.6.V ] M 3 G n b 5 I *.2 4 > U H H H.#X} ~._.9.P M { @XO.{ b J p N R ] | R.R.T V F R D H F O. .V N N M B R F V r N ",
"V D E N % M B V V N +.2 $ & A I J J M 8 & t M k.`.E.| P.Z.K M N U u.u.W 8.S y Q W | @X#XR.S E O.F h.e N | V ; S ] / B q N S e - ",
"V V R U s U P H K N , 1 - - b P L 2 = & + d P T F.R.} R f N.U H W 5.7.H W y 6.N.R Q U.] R.S B.} o.Q B S N N S M S N N r e r N % ",
"j V ] H 2 e R S R e 8 H F b B L a l.t 3 2 V S e M.E B.Q B N.K 7.P A 2.5.S x H ;.z V F V P.R M B H y M M 0 e S * + $ > * 3 ; + * ",
"% l y * N R H V B B 0.P R V M 9.1.b.Y j g.z M H Q E ] { Q R h ,.H W 5.5.H g Y :._.V.] R C.P.3 x & M R B R [ * e e + : . % V N y ",
"- 7 0 i d S P K E P.9.5.W N H r.v.n.H V y g.R W W u.R [ ..[ P :.;.E R =.9 Y H x J.m.B N K.X.x j.* M V V M ; % $ N # # & * N ] [ ",
"F N 3 & 3 M N R ] I.W { 7.K ..K 8.<.y E l w P.E 9.R W |.Y.] N U 9.P G Y x { H ] X.} ..| 0.] u.t i q N S S E U 1 0 %   * ; R V R ",
"S :.K 2 M - M ..s.} o.} R Y 0.V P y N.C.# u m.B.).[ 9.y...R ] h.8.H [ [ D.] R Y.R.P.[ X.N S V 3 i t V Z e E z : X   + e ] ] X.Q ",
"..S B e & p U P [ I.R V R O.u.E S Y U T 7 y l } (.(...oXXX|.[ S 8.V r E V.Q B.@XX.X.XX..{ ] - o % t q R U r % - O ; M S [ W X.R ",
"o.] E [ 0 u B.S I { ) L s.s.p.H V T x q s D o.} } R.XX*X*X|.S N z R R D O.F B.I.O.X.' | ] P 4 3 . = e B N % * ; + ; M F u...{ ] ",
"P.B.6.P.o.y f - - U :.J 1 } H N m.p 3 2 z.R P.{ { ) s.XX}.{ M D m.6.R } [ Z / } R [ I V ] Y 2.p 3 e N e % $ $ N z l - r Q m.V R ",
"Q z U E U Q y y e H S e & < S W x c 8.5.w.9.o.0.Y.s...} s.I L N S U O.} H - d K 3 B [ 0.} u.8.Y ] B V N 0 6 ; e ; + - R R U.Q ] ",
"K y C.Q B.E z V U [ P [ R S V T M.5.{ f 5.I } 0.P XXX.|.) q P S F y S S t 3 i w t M Q 5.W R >.A.} ] S { U D j r * e * D R Q U W ",
"R W } H z.U y r B R W T.R.T...Y :.#.Y V M A ] W ( { S R.) G R E N.T y e r t t 0 S M R R.Q R T B.V F R R e E u N % N ; u D F m.] ",
"M G 0.E f e 1 3 h V ,.Q 6.E E e a 9 K ] Y H F.] S W ) .._ M B { [ Q M r * x :.v N R ] } R Q D S H E Q E o.U % M N $ $ N F R C.S ",
"q H 6.u.H 3 B H B V Q T Q E R - < 0 u.O.E V K L S U R ] S P 5.^.o.u V : * 1 p 1 V P ] [ D R R F S X.I.V.<.3 # : 0 ; N E ] R U D ",
"t d V.9.N o f t 4 t u.R.6.R * q t R U.E.R { { P ) y M H R [ 8.0.B.; S $ U q p R } [ X.B [ E R ~ V P.U.V.f $ - f M G W [ E D m.T ",
"5.s f H - & q t n - ] Y.X.] V H t N F X.] ] } 8.P.[ ..0.F.u.W B N M N F R M.:.R { { { V F R ) ) R } } R e ; ; S ] V  .[ [ W { R ",
"p T ,.U P x f H e t S X.X.~ ) W R - - M M F S / I X.R.5.W W 5.R [ O.E o.} B.Z.M.U 2.5.u.R V ( OX} e W D w S M M S ] D z :.G ] e ",
"R 3 f M } B B 6.V x b |...~ b V ] S F V N S M ..R |.] Y { ..u...@XO.O.E.] W x W 5.&.5.O.{ H ` |.S t R t V R t N N } S k.H.o.} V ",
"] S C C ] e H V.E 6.~ ' S M ) A R.b F s.; M S S s.|.W W } Q U.} X.X.T.E.} { P } U >.u.R.{ b v ~ { } S :.T N ; R [ o.F E o.$XP.R ",
"6.S ) P S H U I 8.e._ L s.s.@X] V v S X.R M M F { S ] R ] P 0.] @XX.O.Y.Y.Q 0.} ] 3 h m.M S S N R S o.} - N V R } E D D X.$XT.R ",
"c N.Q R.u.W W W W t.3.I r.d...] A M V V S N S F P R N X.X.S f }  .} @XO.Y.h { } H N N M { X.~ S v S [ X.R B r R T.o.o.[ W } R N ",
"u.J.E.a.y.9.W D.2._ A L I s.A } S ] ..( P S S M B N F ] ../ P { } P } E [ N } P B.x % e ] ] ~ A v / S [ X.X.] H u.R.T.E U S G M ",
"] R _ 5.W W | d.3.A J X.X.XX{ W M ( XX....S S R Q V ) X./ ) W [ O.F V f y V T.W R V P ~ M X.A ] R [ V X.O.[ } [ Y.} P.0.N N S { ",
"X.y.5.s >.>.7.f._ A L P.#XXX{ L b B H S } X.N s.o.R R ) ] ..R ..] M M - * y Y.} I M U } R S v S N ] [ R M.R U E E U.0.U Y h.u.s.",
"P.] C x T W K 7.J i.P i...X.s.A V K X.] X.Y.{ [ [ Y P } ~ 6.N S B b - M e o.I.E I M ] P.R...A M M V D N y % r V * x p 0 > 6.I.R.",
"[ Q R E R R K H I ) L R I ] i...u.y...) s.s.X.] V P } ] t & F ] A A S S M S R } S R { [ X.X.} / P W H H r e F B w h.H 4 0 K E } ",
"] P.R R } W W I 0.{ } u.] I I ) _ | ) _ ) } ] ] ) [ O.@X] V [ S H Z P ) ` ..X.[ P { } W u.{ Q R R { { 2.S B S H p U y N } K R.} ",
"{ I.R.] P.] R R R { X.} W A G w.' _ L ' ) _ ~ | ` | s.Y.R V ) R [ ~ ^ { | X.X.u.U _ } 9.u.X.u.V P ) M 5 G r I I V K B H ] ] } X.",
"~ { [ ] { } } R B V P V P ~ ~ _ }..X_ A n | |... .! ..] V S M A X.~ ~ ..{ W U.B.} I 9.5.t.R.{ Y W S 1 4 V L B M H t * V M V S S ",
"H { ] N ] { ] ] W } H M S A | ..' [.` ) ' |.W s.X.| ~ I 5 A C / ] B S @X..R Q B.P J 2.d q.w.W Y T N a 5.] V M e w H S Z M A R S ",
"N [ u.] X.R.u.R o.B.f L A C ~ | I .X' | ' | P XX|  .|...b M v v A R ] Q } Q U Q 0.M.2.e.{ ) W K N 3 ;.K { e = = e A ] M v M R V ",
"S ..P B ) a.I.P X.] C n v ' ( ` }.OX..X.| ] C S X.|.{...M N K S S S V ) Q B.Q R (.'.5.2.R.] P f V f x S W M 4 H S S S ; M v e N ",
"M / S S ) y.R P R { ..` ! }.[.|.*X.XXX] { @X) S X.XXa.( R ) 5.R ] U .X..} R S S B.U [ 0.W P ] ) d 3 M A 3 - N W S M S A 3 B v M "
};
