/* XPM */
static char *door[] = {
/* columns rows colors chars-per-pixel */
"64 64 7 1 ",
"  c #3E5E7F",
". c #455D7D",
"X c #515B7A",
"o c #AE383F",
"O c #B63232",
"+ c #2E5F81",
"@ c #305F81",
/* pixels */
"OOOOOOOOOOOOOOOOOOOOOOOOOOOOOOOOOOOOOOOOOOOOOOOOOOOOOOOOOOOOOOOO",
"OOOOOOOOOOOOOOOOOOOOOOOOOOOOOOOOOOOOOOOOOOOOOOOOOOOOOOOOOOOOOOOO",
"OOOOOOOOOOOOOOOOOOOOOOOOOOOOOOOOOOOOOOOOOOOOOOOOOOOOOOOOOOOOOOOO",
"OOOOOOOOOOOOOOOOOOOOOOOOOOOOOOOOOOOOOOOOOOOOOOOOOOOOOOOOOOOOOOOO",
"OOOOOOOOOOOOOOOOOOOOOOOOOOOOOOOOOOOOOOOOOOOOOOOOOOOOOOOOOOOOOOOO",
"OOOOOOOOOOOOOOOOOOOOOOOOOOOOOOOOOOOOOOOOOOOOOOOOOOOOOOOOOOOOOOOO",
"OOOOOOOOOOOOOOOOOOOOOOOOOOOOOOOOOOOOOOOOOOOOOOOOOOOOOOOOOOOOOOOO",
"OOOOOOOOOOOOOOOOOOOOOOOOOOOOOOOOOOOOOOOOOOOOOOOOOOOOOOOOOOOOOOOO",
"OOOOOOOOOOOOOOOOOOOOOOOOOOOOOOOOOOOOOOOOOOOOOOOOOOOOOOOOOOOOOOOO",
"OOOOOOOOOOOOOOOOOOOOOOOOOOOOOOOOOOOOOOOOOOOOOOOOOOOOOOOOOOOOOOOO",
"OOOOOOOOOOOOOOOOOOOOOOOOOOOOOOOOOOOOOOOOOOOOOOOOOOOOOOOOOOOOOOOO",
"OOOOOOOOOOOOOOOOOOOOOOOOOOOOOOOOOOOOOOOOOOOOOOOOOOOOOOOOOOOOOOOO",
"OOOOOOOOOOOOOOOOOOOOOOOOOOOOOOOOOOOOOOOOOOOOOOOOOOOOOOOOOOOOOOOO",
"OOOOOOOOOOOOOOOOOOOOOOOOOOOOOOOOOOOOOOOOOOOOOOOOOOOOOOOOOOOOOOOO",
"OOOOOOOOOOOOOOOOOOOOOOOOOOOOOOOOOOOOOOOOOOOOOOOOOOOOOOOOOOOOOOOO",
"OOOOOOOOOOOOOOOOOOOOOOOOOOOOOOOOOOOOOOOOOOOOOOOOOOOOOOOOOOOOOOOO",
"OOOOOOOOOOOOOOOOOOOOOOOOOOOOOOOOOOOOOOOOOOOOOOOOOOOOOOOOOOOOOOOO",
"OOOOOOOOOOOOOOOO+++++++++++++++++++++++++++++OOOOOOOOOOOOOOOOOOO",
"OOOOOOOOOOOOOOOO+++++++++++++++++++++++++++++OOOOOOOOOOOOOOOOOOO",
"OOOOOOOOOOOOOOOO+++++++++++++++++++++++++++++OOOOOOOOOOOOOOOOOOO",
"OOOOOOOOOOOOOOOO+++++++++++++++++++++++++++++OOOOOOOOOOOOOOOOOOO",
"OOOOOOOOOOOOOOOO+++++++++++++++++++++++++++++OOOOOOOOOOOOOOOOOOO",
"OOOOOOOOOOOOOOOO+++++++++++++++++++++++++++++OOOOOOOOOOOOOOOOOOO",
"OOOOOOOOOOOOOOOO+++++++++++++++++++++++++++++OOOOOOOOOOOOOOOOOOO",
"OOOOOOOOOOOOOOOO+++++++++++++++++++++++++++++OOOOOOOOOOOOOOOOOOO",
"OOOOOOOOOOOOOOOO++++++++@++++++++++++++++++++OOOOOOOOOOOOOOOOOOO",
"OOOOOOOOOOOOOOOO+++++@+++++++++++++++++++++++OOOOOOOOOOOOOOOOOOO",
"OOOOOOOOOOOOOOOO+++++++++++++++++++++++++++++OOOOOOOOOOOOOOOOOOO",
"OOOOOOOOOOOOOOOO+++++++++++++++++++++++++++++OOOOOOOOOOOOOOOOOOO",
"OOOOOOOOOOOOOOOO+++++++++++++++++++++++++++++OOOOOOOOOOOOOOOOOOO",
"OOOOOOOOOOOOOOOO+++++++++++++++++++++++++++++OOOOOOOOOOOOOOOOOOO",
"OOOOOOOOOOOOOOOO+++++++++++++++++++++++++++++OOOOOOOOOOOOOOOOOOO",
"OOOOOOOOOOOOOOOO+++++++++++++++++++++++++++++OOOOOOOOOOOOOOOOOOO",
"OOOOOOOOOOOOOOOO+++++++++++++++++++++++++++++OOOOOOOOOOOOOOOOOOO",
"OOOOOOOOOOOOOOOO+++++++++++++++++++++++++++++OOOOOOOOOOOOOOOOOOO",
"OOOOOOOOOOOOOOOO+++++++++++++++++++++++++++++OOOOOOOOOOOOOOOOOOO",
"OOOOOOOOOOOOOOOO+++++++++++++++++++++++++++++OOOOOOOOOOOOOOOOOOO",
"OOOOOOOOOOOOOOOO+++++++++++++++++++++++++++++OOOOOOOOOOOOOOOOOOO",
"OOOOOOOOOOOOOOOO+++++++++++++++++++++++++++++OOOOOOOOOOOOOOOOOOO",
"OOOOOOOOOOOOOOOO+++++++++++++++++++++++++++++OOOOOOOOOOOOOOOOOOO",
"OOOOOOOOOOOOOOOO+++++++++++++++++++++++++++++OOOOOOOOOOOOOOOOOOO",
"OOOOOOOOOOOOOOOO+++++++++++++++++++++++++++++OOOOOOOOOOOOOOOOOOO",
"OOOOOOOOOOOOOOOO+++++++++++++++++++++++++++++OOOOOOOOOOOOOOOOOOO",
"OOOOOOOOOOOOOOOO+++++++@+++++++++++++++++++++OOOOOOOOOOOOOOOOOOO",
"OOOOOOOOOOOOOOOO++++++@@+++++++++++++++++++++OOOOOOOOOOOOOOOOOOO",
"OOOOOOOOOOOOOOOo++++++@@+++++++++++++++++++++OOOOOOOOOOOOOOOOOOO",
"OOOOOOOOOOOOOOOo++++++@++++++++++++++++++++++OOOOOOOOOOOOOOOOOOO",
"OOOOOOOOOOOOOOOo++++++@++++++++++++++++++++++OOOOOOOOOOOOOOOOOOO",
"OOOOOOOOOOOOOOOO++++++@++++++++++++++++++++++OOOOOOOOOOOOOOOOOOO",
"OOOOOOOOOOOOOOOO++++++@++++++++++++++++++++++OOOOOOOOOOOOOOOOOOO",
"OOOOOOOOOOOOOOOO++++++@++++++++++++++++++++++OOOOOOOOOOOOOOOOOOO",
"OOOOOOOOOOOOOOOO++++++@++++++++++++++++++++++OOOOOOOOOOOOOOOOOOO",
"OOOOOOOOOOOOOOOO+++++++++++++++++++++++++++++OOOOOOOOOOOOOOOOOOO",
"OOOOOOOOOOOOOOOO+++++++++++++++++++++++++++++OOOOOOOOOOOOOOOOOOO",
"OOOOOOOOOOOOOOOO+++++++++++++++++++++++++++++OOOOOOOOOOOOOOOOOOO",
"OOOOOOOOOOOOOOOO+++++++++++++++++++++++++++++OOOOOOOOOOOOOOOOOOO",
"OOOOOOOOOOOOOOOO+++++++++++++++++++++++++++++OOOOOOOOOOOOOOOOOOO",
"OOOOOOOOOOOOOOOO+++++++++++++++++++++++++++++OOOOOOOOOOOOOOOOOOO",
"OOOOOOOOOOOOOOOO.++++++++++++++++++++++++++++OOOOOOOOOOOOOOOOOOO",
"OOOOOOOOOOOOOOOO.++++++++++++++++++++++++++++OOOOOOOOOOOOOOOOOOO",
"OOOOOOOOOOOOOOOO ++++++++++++++++++++++++++++OOOOOOOOOOOOOOOOOOO",
"OOOOOOOOOOOOOOOO ++++++++++++++++++++++++++++OOOOOOOOOOOOOOOOOOO",
"OOOOOOOOOOOOOOOO ++++++++++++++++++++++++++++OOOOOOOOOOOOOOOOOOO",
"OOOOOOOOOOOOOOOOX++++++++++++++++++++++++++++OOOOOOOOOOOOOOOOOOO"
};
