/* XPM */
static char *door[] = {
/* columns rows colors chars-per-pixel */
"64 64 256 2 ",
"   c #151A0C",
".  c #0E1C1C",
"X  c #0C1917",
"o  c #1A1514",
"O  c #161C14",
"+  c #1B1C15",
"@  c #13161C",
"#  c #1B161D",
"$  c #141B1D",
"%  c #1B1C1C",
"&  c #121315",
"*  c #221C1C",
"=  c #271A19",
"-  c #34191D",
";  c #2C1C0F",
":  c #1C2215",
">  c #14231C",
",  c #1C221C",
"<  c #1B2A1E",
"1  c #142619",
"2  c #112214",
"3  c #242216",
"4  c #23231D",
"5  c #2B231D",
"6  c #262818",
"7  c #33251D",
"8  c #372A1A",
"9  c #3E3016",
"0  c #0E1C28",
"q  c #1C1522",
"w  c #151C23",
"e  c #1C1D22",
"r  c #151D2B",
"t  c #1B1D2A",
"y  c #161526",
"u  c #1A1B31",
"i  c #151C34",
"p  c #1A0F25",
"a  c #221D23",
"s  c #2B1D24",
"d  c #21162C",
"f  c #241B2A",
"g  c #291928",
"h  c #341B28",
"j  c #231932",
"k  c #0E2428",
"l  c #152223",
"z  c #1C2225",
"x  c #1C2A24",
"c  c #15232B",
"v  c #1C232B",
"b  c #1C2A2C",
"n  c #152A28",
"m  c #142434",
"M  c #1C2334",
"N  c #1D2A33",
"B  c #1E243A",
"V  c #172936",
"C  c #1F3238",
"Z  c #10312A",
"A  c #232324",
"S  c #2A2423",
"D  c #252A25",
"F  c #2B2B24",
"G  c #23252B",
"H  c #2A242A",
"J  c #242A2D",
"K  c #2B2B2C",
"L  c #3C2C24",
"P  c #322C2D",
"I  c #362A26",
"U  c #223124",
"Y  c #26312C",
"T  c #2E322E",
"R  c #2B3627",
"E  c #32322D",
"W  c #383528",
"Q  c #232432",
"!  c #252B32",
"~  c #2B2C33",
"^  c #24243A",
"/  c #242B39",
"(  c #2D2C3A",
")  c #2E233A",
"_  c #322E31",
"`  c #362A34",
"'  c #243132",
"]  c #2C3234",
"[  c #25333D",
"{  c #2D343B",
"}  c #2F3B37",
"|  c #333333",
" . c #393533",
".. c #353A36",
"X. c #3A3B35",
"o. c #33353B",
"O. c #343A3C",
"+. c #3B3C3C",
"@. c #3B363A",
"#. c #573A0C",
"$. c #4D2D19",
"%. c #482814",
"&. c #522E19",
"*. c #4A3518",
"=. c #543513",
"-. c #5A3514",
";. c #553B14",
":. c #5C3B15",
">. c #563C1A",
",. c #5C3C1A",
"<. c #57331A",
"1. c #4B320E",
"2. c #692C1B",
"3. c #613E1C",
"4. c #663918",
"5. c #693F0B",
"6. c #452B25",
"7. c #43362B",
"8. c #493829",
"9. c #5D3E21",
"0. c #53382A",
"q. c #423D3B",
"w. c #483835",
"e. c #4D332E",
"r. c #673723",
"t. c #793B2E",
"y. c #3B4333",
"u. c #3C433C",
"i. c #364536",
"p. c #394A34",
"a. c #5B4114",
"s. c #5C421C",
"d. c #564318",
"f. c #5B450D",
"g. c #684909",
"h. c #685409",
"j. c #745601",
"k. c #765C05",
"l. c #795705",
"z. c #644315",
"x. c #6C4213",
"c. c #63421D",
"v. c #694819",
"b. c #764918",
"n. c #765418",
"m. c #7A4A0C",
"M. c #5C4321",
"N. c #5D4A24",
"B. c #564326",
"V. c #42433E",
"C. c #49483B",
"Z. c #564739",
"A. c #44503E",
"S. c #4F472E",
"D. c #634322",
"F. c #644925",
"G. c #694827",
"H. c #714B2E",
"J. c #785123",
"K. c #694B37",
"L. c #724535",
"P. c #6A5036",
"I. c #72532E",
"U. c #7B630D",
"Y. c #192A44",
"T. c #1C314C",
"R. c #382D44",
"E. c #2F3C44",
"W. c #2C3342",
"Q. c #353B43",
"!. c #3C3C43",
"~. c #353747",
"^. c #262945",
"/. c #433745",
"(. c #4D3C4D",
"). c #3D4344",
"_. c #3B4B44",
"`. c #3C444A",
"'. c #3E4C4B",
"]. c #354544",
"[. c #3D5149",
"{. c #3C4752",
"}. c #37494F",
"|. c #434544",
" X c #4A4645",
".X c #454A45",
"XX c #4A4B45",
"oX c #44454B",
"OX c #4B464B",
"+X c #444B4B",
"@X c #4B4C4C",
"#X c #524C4C",
"$X c #554846",
"%X c #43524C",
"&X c #4C524D",
"*X c #485545",
"=X c #535245",
"-X c #52524D",
";X c #5B554A",
":X c #4D4652",
">X c #444D52",
",X c #4C4D52",
"<X c #494559",
"1X c #544C52",
"2X c #594E55",
"3X c #564A58",
"4X c #455353",
"5X c #4C5253",
"6X c #4C5952",
"7X c #4C5559",
"8X c #4E5A5B",
"9X c #535353",
"0X c #5A5554",
"qX c #5B5B53",
"wX c #53555A",
"eX c #5C565B",
"rX c #545A5B",
"tX c #5B5C5C",
"yX c #555A53",
"uX c #67524A",
"iX c #625858",
"pX c #6C4F47",
"aX c #5A615A",
"sX c #656459",
"dX c #4A5A62",
"fX c #565C62",
"gX c #595E61",
"hX c #585664",
"jX c #4F4A60",
"kX c #645C63",
"lX c #5D6364",
"zX c #5D626A",
"xX c #586265",
"cX c #626466",
"vX c #63696B",
"bX c #68676B",
"nX c #70666E",
"mX c #844B04",
"MX c #884D08",
"NX c #875406",
"BX c #835219",
"VX c #915415",
"CX c #946400",
"ZX c #996902",
"AX c #AA631D",
"SX c #B8661A",
"DX c #80593C",
"FX c #AD6727",
"GX c #B6692A",
"HX c #BA7128",
"JX c #B56931",
"KX c #AE7036",
"LX c #CA6B18",
"PX c #CB700C",
"IX c #CB7425",
"UX c #AB6B47",
/* pixels */
"mXs.,.:.,.:.:.:.s.2.,.s.,.-.c.#.#.D.:.3.#.,.4.>.=.3.,.9.:.M.M.MXMX:.c.:.>.4.c.-.,.2.D.#.D.:.=.#.*.:.>.c.>.3.r.9.:.4.:.c.-.s.c.mX",
"s.' +.@X7XV.+X).].u./.>X6XoX@XQ.>X|.oX).>X+.} +X6X| i.wX X] ] M.s.b T |.>XV..X@X8Xp.XX7X].~..XQ._.+.|._.). XA.5X5X!.).>X@X} v N.",
":.|.eX#X5X#X5X X*X4X$X4X6X3X#X/.OXoXhX%X@X;X4X X@XwX-X,XeXtX|.:.:.|.-X-X7X-X9XXXXX4X;X,X%X3X2X|.oX#X0X_..X#X%XXX@X0XyX@X9XaXXX;.",
"4.&X#XP !.K e D 6 j * A $ a % : 3 % a a O * ^ + S a , K  .,X,XG.a.@X=XK D D G t , j 4 & G % o 4 + f * t , a j D z $ O ~  ..XcXI.",
",.4XoXz Q.} w w z %.w > y 1 $ l w v 2 f < w %.t e !.%Xo.K 7XfX*.,.wX1X~ { +./ @ z %.z 1 u 2 w l c y . a . y &.l e { `.].J 5XcX=.",
":.XXXX* G X.| ~ o.ZXv z h < A u u z U g D ] ZX^ D !...z 4 +XqXG.:.qX X+ J X.o.| Q CX' Y g U S y M + U = l U ZXt o.@.V.o.= XX@Xc.",
"D.+X@X] c z v oX/ l.N c g 1 G B / e b g . n l.u H @ l b % >XcXM.D.fX@XG N % $ ~ / l.l b g $ t ^ M e $ a ! ' j.N Q.t ] ' G 6X@Xs.",
"-.5X@X| J F q @X4 6.oX+X:XXX0XeX0XcX&XkX6X).L z ~ f z v S +XeX,.9.fXOX, v G e K v e.+X6XhXiXsXaX9XbXV.(..X>Xe.v +.# ] ] * +XlX:.",
"3.).@XH w | v ~ W.K AXIXJXuXB.7 3 Z.pXKXPXGX} < | $ | z K @XlXs.D.wX,X+.G S e x W.: FXLXFX;XZ.q.8.i.uXKXPXAXK b +.w ] J A @XrXs.",
":.5X.XD ! S G $ C.r $XiXsX_.w.a s O.~.fXuX$Xm (.t o.u.! K @XlX:.G.zX9X] } V.w @ F M Z.w.=XdXu.S s '.7X@X8. Xv W + G  X] A  XvXs.",
"G.9X5X| ! H gX!.7.r m E.J c D t G > ! J ' m b 6.o.lX] { A 9XlXD.G.vXXX$ !.K gX).S.M Q M x m A t t z H / [ N v $X!.gX|.v % @XrXD.",
"-.5X.X.Xv S O.$ 4 >X% q.W Q $ ] J z S ; +.~.! a D O.+ r |  XlX,.,.@X.XK v S { $ D @X#XF S f e x w a S 5 E O. .~ e ~ O.! K @XcXs.",
"3.5X,XD { A t $ oX).v S a w 0 + j + O.eXv > : a @ e A ! u.@XlXD.3.oXXXK v % J z zXo.t + c i t   w + , &X{ / + z $ G + J * 9X+Xc.",
"-..X X| !  .$ J 8Xe N 5 6 7 v = L %.~ #XW v O M a v K O.G 1XrX,.-.rX@XH z % $ % '.~ t 4 R , $ = 7 8 v &XF e e c D @ z v A ,XlX:.",
",.5X9XO.G A w w c * v =.J.b.4  .h.l.B.h.5.a B w z % +.' K &XlX>.c.).9X& Q.K z z z + v 6.=.=.G H S.d.P r.#.3 G v e ~ G v % +X7Xc.",
":.wX@XD ! % G e e S l =.BXb.W S e.b.e.<.b.* , 4 e z +.! a @XlXs.4.+X@XX.{ K v e a A k 9 -.>.l S 9 f.8 v.a.M w 3 % G + v | @XlX:.",
":.5X&XT ,XD e v f 4 l *.x.VX*.Z.x.BX%.mX7.l m A e e | ~ | @XlXs.-.rX@X% ~ OXw e a A c L *.4.6.W =.a.d.c.h.B u < $ e ..~ z @XlXD.",
"D.@XXXG J a e z c = G B.v.g.3 I n.n.B.m.c.3 e @ e J ] w E 9X+X:.:..X5X+.v D v e v % + *.8.*.3 * s.s.7.0.5.F * w G $ |.v % #X5X,.",
":.@X.XA z H w z w F x + G G l 6 * + i w S $ A v e J , v % OXvXI.G.cXXX% J S e e c z $ 4 c e e S e e @ z 3 e f m e z ..`.+ oXrX,.",
"c.oX@XO.z _ ~ $ v G w % z l 0 i + z v k # e = r z e G O.+ ,XlXc.3.rX@Xt J % w z w z $ $ 0 w c e c % : l m t * O e G o.! G  X+XM.",
"=.5XXXK !  .! $ R K ~ ( H A A v c n D x K ' ! [ t O., J A 9XrX>.r.vX9Xz ! E O.$ K G S _ 5 4 A v c f ` a v e Q v e ] +.{ S OXgXD.",
"3.>X|.A w +.gXoXo./ D b w M S a a N H b o.> G C.@.zXH ! F &XvX:.F.8X@X).{ S gX!. .t i V z J A , e , A > Z D V 3 ).lXK z e 5XxX:.",
"3.yX5XK J H v e y.r Z.iXsX4X8.a S Q.>XuXkXV.Y.:Xz v G ! % 9XlXs.G.vX@XD !. .~ $ +.A C.|.;XwXV.% = .XzXiX Xw.Y.W @ G @X! A @XfXD.",
"c.+X.X| ! S w K / 5 AXIXKXK.B.] L &XP.SXLXSXF T |.z A o.K @XlX:.D.wX9X@ ~  .@ J [ 8 JXGXGXP.K. .I XXpXJXPXSX/.! ~ z K ! e @XrXc.",
":.@X.XOX! z e !., 8.~.y.<XW 0XsXsXwXW jXi.o.8 A f z $ J  .@XaX:.>.@X@XH b $ f S , 8.fXy.R.y.bX=XsXeXy.<X..`.Z.E O.G O.v ~ &X9X:.",
">.OXoX* J G # G M k.v c H > e M ^ v % H b t U.M ! w G c J +XzXs.,.>X XH l % v Q N k.Q.v h n w u u z 1 q b ~ j.! |.f z v a oX:X,.",
"s. X.X+ ] Y K v t CXx v - x , M u , G - v + ZXt | G V.T * #XtXc.3..X#XO K K O.A !.CX] H h < < ^ i F U - v ..CX! ] J x b + &XqXs.",
"=.,X>X!.].J ! . w &.w l q . z $ l l w # > $ $.w l Q.o.7X~ ,XtX=.:.Q.5X] {.Y [ z z %.c l # X z . l @ X Q . w &.l e ~ J ! $ 7XlX=.",
":.iX|.I H + S A 4 d a , v + a   6 t + w O % p 4 + z o J a 0X.XG.3.@XOXI z 4 z + 3 ^ S + t + e : 2 # 4 y + a ) + % a + H P 1XkXc.",
"a.).6X@X4X+X|.+XXX'.OXXX>X1XOX5X9X:X@X4X.X X_..X@X,XXX@X0X-X+.:.:.).#XtX9XXX+X1X&X4XOX@X4X1XOXOX5X1X1X4X@X2X_.yX7X@X+X4X-X&X5Xs.",
"M.D |.1X4XyXwX9X+X*X&X>X'.@X.X7X>X@X7X8X7X&X=X>X@XoXyX'.XX.X' M.:.u.@X X4X@X,X).&Xp.5XfXwXwX9X,X].0XOX+X`.tXA.5X,X0X9X9X#X).!.s.",
"mXM.d.:.>.c.D.:.s.2.:.d.c.:.z.:.a.4.M.:.;.a.2.d.:.M.:.>.c.:.M.MXmXB.3.D.,.z.,.3.:.r.:.s.z.;.z.:.:.z.3.a.d.:.r.;.M.D.d.M.4.s.>.NX",
"MXd.:.3.;.-.H.D.<.4.3.#.3.-.c.#.:.:.9.H.,.>.9.,.=.3.s.<.4.;.M.NXmXM.;.c.:.c.-.:.s.2.s.:.c.N.4.a.#.c.:.3.:.:.2.M.-.G.z.s.,.:.>.mX",
"M.G )..X7X|.xX,XrXu.X.{.+X~.).fX XXX5X&XwX@Xi.XX).|...,XtX].} 1.N.~ ).q.5Xu.OX).4XXX.X4XdXzX:X4X+X@X!._.oXOX*X+X>X8X-XwX9XO.' M.",
"=.oX#X#X5X#X,XwXXX4X;XOX_.3XwX@XXXOX2X+X.X-X[.@X9X@X9X9X X9XOX=.M.@.9X2X0X&X1X X|.&X9X).8X,X2X5X@X2X2X+X@X#XrX@X@XwX0X5X@X0X6X,.",
"G.&X-X .G + | H A d S R o.% *   3 e % W.D A u E G @.+ G @.@XwXF.I.gX@Xq.~ X.~ e + ) * : r H ` : 4 K  .t 3 S Q : H A P o.I 9XlX:.",
">.8X.X!.>XG c $ . &.@ O j 2 w $ w c 0 q l 0 %.w l `.`.! A '.wX>.*.rX`.A {._.o.$ X $.w > q > w . c O > q > w $.v w v O.W.J +XxXM.",
"3.-XV.V.]  .X.R ^ CXz > h U A ^.!.: < - K 1 NX~ A +.: J +.V.tXz.c.q..XK G , OX+ / CXXXv h $ < j M 4 x 6.b ] ZX!.F O.E J A |.&X3.",
"=.5X,XA c z w z r j.v z f z t u Q l x a z b k.w z e b w t .XgXN.=.,X+Xz v @ e ~ N k.O.v a x G M i G x H c / k.b !.v $ v G |.@Xs.",
"z. X#XK z | % H v 6.] 6X1X|.iXyX-XbX XR.u.W.L Q @.q ] ~ _ @XtX=.,.|.5Xe v e a | D 7.:X*X<XI rX;XqX1XXX<X*X>Xe.D !.e A J $ @XvX-.",
":.rX X+.J % e z v A FXLXJXqX$X7.L Z.2XAXPXSXE o.] e X.v G @X,X>.:.+X@X| ] K $ +.N 5 FXHXKXK.pXR F Z.DXUXLXFX,X$ G e 4 z J OXtXs.",
"c.,X&X| o.e v J 5 m q.;X=X}.| H 4 +.Y.| 6.w.^.R.+ v K ! D @X+X=.-.+X#XK ] | z @  .b uXI S / L R 5 `.wX,XZ.7.! 0X$ z A ! K 9XvX,.",
">.,X&X% >Xa lX!.7.N 0 }.O.v e r x x e z V z V * OXwXT ! %  X>XM.c.5X@XA J .XrX|.W c ] n l N S z S V ' ] N V M 2XoXgX|.G A &XvXs.",
"c.5X@X% z A o.z e ] = S a K J w m @ = 5 ' 4 ] R @ ~ $ J A OXwXG.3.rX9XK v D ' % A t A A = a v N : k f h J J Q R $ | O.{ e 9XlX=.",
",.+X.X| z _ e e 0 z o 4 c w 0 S a * + z X > + + e A % b A &XrXD.G.tX@XJ G 4 z e w v t $ 1 w t + g V m e 6 2 a < e J | { K @X|.D.",
":.@X@X| ~ K v $ w D v 5 8 L @ 4 %.8 J | 7 v q i e w H J H @XaX:.D.lXOXK J J z t m # v 4 K _ w = $.7 D 8 8 z t i A $ |.o.e @X5X,.",
":.+X5XK z +.z G z % l c.b.x.D E F.n.*.s.m.z , v % $ D v K @XlXs.,.lX,XK v K e A b = a *.1.1.S  .g.g.N.G.r.t f v e v u.! e 9XtXF.",
"c.5X|.z H A v e e 4 c v.m.b.D 8 &.n.h <.5.m > * t v K J | oXlX:.D.gXOX+.{ +.v z < = 0 w.d.4.K S 6.MX-.x.n.: v 3 A $ X.{ A .XlXD.",
",.9XXXK o.o.@ G a x c c.g.BX0.,.f.b.r.*.g.z r $ z G K ] K @XvX3.H.lX@XD `. .t e 1 u m *.1.x.*.S.x.b.8.=.BX# V 4 A @ &X! % @XgXG.",
"3.rX5X@X~ D ~ $ f l l D.m.v.5 I N.z.-.M.z.e # G e z H ! A @XlXs.,..X9XD w @.e z z a t =.N.,.5 7 h.I.9 b.l.t v 3 $ v K ! K @XzX:.",
",.,X&X+.( K e $ % z M e G 4 w : d G $ z : i % $ G @ D ! +.9XlXs.r.4X@XG ~ % w G < + % * l z z 5 y H l z + m z : a v K ~ K @XrX,.",
"c.+XXXJ ~ +.@ J m S + , k c 0 t * $   G z t = A e ] T { K @XwXF.,.+XXXz w S G $ r t G x X l Q W.v + 4 a r t % f G z T v $ @XrXD.",
":.+X@X+.J D { e Y e I G _ G % , t n x S c f t k $ >X.XJ o. XlX:.=.yX@XA H % ] v ] ] e G P S % ).l b + F Y ] Q.b $ | O v S @XlX=.",
",.5X.X| v S gX|. .N M ' A G 4 Q s $ r z l 3 G i.+.fXo.e z  XrX:.c.|..X+.`.F vXo.~ / b m G v $ Q s G G J ]   x 7./.lXe G e @XxXD.",
"3.6X1XK o.% z $ w.w V.=XuXE.E = 6  .[ E W 0.^.{ e t K ! | .XrXs.z..X@Xe w +.v % E H $Xy.7 ( +.6 h y.dX`.(.0.Y.<X$ v J v a 9XgXD.",
":.5XXXz Q.a v ~ v I FXLXHXuX=X7 u.pXP.JXLXAXg , @.w D J D OX9X=.>.XX5Xe ! X.$ o.v I JXIXSXpXuX6 5 =XpXKXLXAX> X.O.@ u.! % @XvX=.",
":.-X@Xo v 4 e | z 8.`..X~.R eXqXqXeXA.<X*X{.6.z D $ v w a >X5XF.4.@XXX .z , v A x e.W.+X3Xu.nXiX-XcX/.R., !.L v ] $ ] { # @X@X,.",
":.+XOXJ v J w 5X/ j.N w h > v ^ B A , g N v j.r ! # $ H a @XcXD.:.fX,Xw N @ v { ! k.z l H 1 z u ! z : a > ] h.Q +.H x Q P OX Xc.",
"z.XXXX .G K vXXX( ZXi.t - < , R.M , Y e.{ Y ZX/ G J x J , i.aX;.D.aX XF J X.K A o.ZX] D 6.i.: M t , 6 = , +.ZX/ G rXaX] 4 _.9Xa.",
">.`.+Xz >X+Xv z e $.. > q n w l k w > f l w %.w w ( ' / H oXgX>.M.7XoX! Q.Q.' y c $.r $ u z w l l t . u > r %.t $ !.+X/ t +XbX>.",
"-.+X@XP v + + H * t a R e + z + : a + t : S p 6 H a F o.I @XkX:.G.lX0X_ O.A $ G 4 u * z e # G , : K G v , % j z S # A H P @XcX3.",
"c.u.9X@X+X-X@X@X-X_.$X@X4XOXOX@X>X:XOX'.&X1X'..X&XoX+X5X@X6X.Xs.,.5X1X1X,X9X1X9X&X[.$X9X.X1X@X|.+X/.,X%X5XC.>XXX5X.X6X%X-X&XXXs.",
"s.b .X9XfX+X).5XoX*XtX4X6X@X9XzXxX5X,X'.'.oX*X&X1XeX-XwXtXoXK M.s.J u..X8X=XrX|.fXaX-X>X[.@XXX'.4X@XwX%X4XaXsX'.5X1X&X,X9XO.~ s.",
"mXN.D.H.>.c.M.:.:.r.d.:.c.s.:.c.F.-.,.c.>.z.r.d.:.c.;.s.G.F.M.NXMXs.,.3.,.:.D.s.B.t.H.d.G.-.,.;.;.r.=.D.d.B.t.K.=.D.a.>.z.;.c.MX"
};
