/* XPM */
static char *floor[] = {
/* columns rows colors chars-per-pixel */
"64 64 184 2 ",
"   c black",
".  c #0B0706",
"X  c #130D0B",
"o  c #191008",
"O  c #1A1210",
"+  c #1E1613",
"@  c #1E1614",
"#  c #251A0E",
"$  c #221811",
"%  c #221A17",
"&  c #231A17",
"*  c #291D13",
"=  c #261D1A",
"-  c #2A1F18",
";  c #2F2114",
":  c #2C2016",
">  c #2F2219",
",  c #2A201C",
"<  c #2D221F",
"1  c #342412",
"2  c #362615",
"3  c #372615",
"4  c #3B2A16",
"5  c #312319",
"6  c #32251B",
"7  c #362618",
"8  c #35261A",
"9  c #30241D",
"0  c #35271E",
"q  c #36281E",
"w  c #392818",
"e  c #39291A",
"r  c #3B2A1B",
"t  c #3B2B1B",
"y  c #3B2B1D",
"u  c #392A1F",
"i  c #3E2C1C",
"p  c #3D2D1F",
"a  c #302521",
"s  c #372920",
"d  c #352822",
"f  c #3A2B22",
"g  c #3B2C23",
"h  c #3F2E20",
"j  c #3F2F22",
"k  c #3E2E23",
"l  c #402D18",
"z  c #402E1C",
"x  c #43301F",
"c  c #44311D",
"v  c #412F20",
"b  c #433121",
"n  c #423022",
"m  c #453221",
"M  c #473423",
"N  c #413124",
"B  c #423124",
"V  c #433224",
"C  c #443224",
"Z  c #453324",
"A  c #463324",
"S  c #473425",
"D  c #483421",
"F  c #4A3521",
"G  c #4B3620",
"H  c #483522",
"J  c #4A3623",
"K  c #4D3721",
"L  c #4D3723",
"P  c #493525",
"I  c #4C3726",
"U  c #4D3823",
"Y  c #4E3822",
"T  c #4E3923",
"R  c #4D3C23",
"E  c #4D3824",
"W  c #4E3924",
"Q  c #4E3925",
"!  c #4F3925",
"~  c #4C3826",
"^  c #4E3926",
"/  c #4F3A26",
"(  c #47382D",
")  c #4A3A2F",
"_  c #533B22",
"`  c #503A27",
"'  c #503B27",
"]  c #523C27",
"[  c #543D24",
"{  c #553D26",
"}  c #553E26",
"|  c #553E27",
" . c #563E26",
".. c #563F28",
"X. c #573F28",
"o. c #463A34",
"O. c #4A3D36",
"+. c #4B3E37",
"@. c #4E3F35",
"#. c #5A4024",
"$. c #584026",
"%. c #5B4226",
"&. c #574028",
"*. c #594128",
"=. c #5A4129",
"-. c #5C4328",
";. c #5C4329",
":. c #5F4428",
">. c #5E4429",
",. c #5D4729",
"<. c #5F452A",
"1. c #554130",
"2. c #574331",
"3. c #524238",
"4. c #51443C",
"5. c #53453D",
"6. c #54463D",
"7. c #5D4B3D",
"8. c #5F4D3F",
"9. c #624729",
"0. c #60462A",
"q. c #62472A",
"w. c #62482A",
"e. c #65492B",
"r. c #684B2C",
"t. c #6A4D2C",
"y. c #6D4F2D",
"u. c #624B30",
"i. c #624A33",
"p. c #614B38",
"a. c #624C3A",
"s. c #634D3A",
"d. c #6B5432",
"f. c #6C5334",
"g. c #68503B",
"h. c #705835",
"j. c #735A37",
"k. c #765936",
"l. c #7F623B",
"z. c #7F633E",
"x. c #534843",
"c. c #554944",
"v. c #5F4F44",
"b. c #574F4B",
"n. c #5D524B",
"m. c #5A514C",
"M. c #5B514D",
"N. c #5C524D",
"B. c #615046",
"V. c #695340",
"C. c #695541",
"Z. c #6B5647",
"A. c #61544D",
"S. c #6E5C4F",
"D. c #6F5D4F",
"F. c #7A6044",
"G. c #7E6444",
"H. c #736050",
"J. c #746454",
"K. c #6D6663",
"L. c #6F6764",
"P. c #766B64",
"I. c #766B65",
"U. c #776C65",
"Y. c #7F7066",
"T. c #81643D",
"R. c #856945",
"E. c #896940",
"W. c #826A4E",
"Q. c #8A6F4F",
"!. c #917447",
"~. c #99794A",
"^. c #9A7A4B",
"/. c #9C7B4D",
"(. c #846D53",
"). c #846D56",
"_. c #8B7154",
"`. c #9E7F57",
"'. c #A27F4E",
"]. c #A18157",
"[. c #94816E",
"{. c #9A856F",
"}. c #A58865",
"|. c #A88A65",
/* pixels */
"X < f ] ] ] P P / m m / ] f 9.m.<.] / +.] O < a ] ] ] ] f ] m x / ] P <.3.8.] ] ) 2.P <.] ] ] ] ] f e.] ] ] ] ] P ] A.] ] / 3.m ",
"  = f ] ] ] P P * = O f ] 7 ] S.<.] / s./ . O a ] ] ] ] f y O X d / m / 8.C.] ] 2.i.x <.] ] ] ] ] f e.] ] ] ] ] y / H...] / g.y ",
"    a P ] ] P O < a y ] ] : j.x x P P P #     = f ] ] ] = O a < ] ] x d.P l P P P y 2 ..] ] ] ] ] f e.] ] ] / ] / i.l P P P m o ",
"    f / ] ] m . O a m ] ] y E.] <.<.<.<.m X   = / ] ] ] X   a f ] ] m T.....<.<.<...P <.] ] / / ] 7 <.] ] ] / ] e.j.] <.<.<.<.y ",
"X = ] <.] ] m X O < a ] ] f ] I.<.] ) 2.P & O f e.] ] ] O   < < m ..P ] m.H.] / 3...m <.] ] P P ] f e.] ] ] <.] P ] Y.<./ +.<.f ",
"= y r.<.m ] x   7 7 < f m 7 f ..] ] 2.i.P a * <.e.m ] ]   O v O m f m < ] ..] / g...f ] ] ] P P ] 7 <.] ] ] ] ] x <.<.] / s.<.f ",
"e.] <.] ] ] x X f f O m m O f ] ] ] ] ] x %.] <.] ] ] ] . < P O f P = = ] ] ] ] ] ] l <.] ] ] ] ] f e.] ] ] ] ] y <.] ] ] ] ] : ",
"<.] ] ] ] ] x P / / m f P * f ] ] ] ] ] x P ] ] ] ] ] ] 3 ] ] m m m y = ] ] ] ] ] ] 2 ..] ] ] ] ] 7 e.] ] ] ] ] P <.] ] / / ] : ",
"] ] ] ] ....x %./ o.<./ 3.2 f ] ] ] ] ] m m ] ] ] ] <.] l <.( 2./ +.P = ] ] ] ] ] ] 7 ] ] ] / / ] : e./ +...) 2.P <.] ] ] ] ] 7 ",
"] ] <.<.<.<.x %./ s.<./ s.7 d / ] ] <.] P P ] ] <.] e.] l <.2.i./ s.y < m ] ] <.] ] f ] ] ] ] ] ] : e./ g...2.i.P <.] ] ] ] ] f ",
"e.] <.<.<.r.x 7 x x x : X   7 o / e.] ] m <.] ] e.] r.<.# x x x y O   = # y <.<.] ] m <.] ] <.<.] : x x m m P m 4 <.] ] <.<.] y ",
"e.] r.<.] e.x !.%.%.X O < X / P / <.] ] m <.] <.e.] <.<.d.l.%.2 & < O y / m ....] ] m <.] ] ] ] ] : /.%.<.<.<./ : ] ] ] ] ] ] y ",
"e./ ] ] / ] P <.) 2.a & O a e.] ] ] ] ] P <./ / ] / ] ] P ..3.m < . a <.] ] ] ] ] ] P <./ ] / / ] f e.+...m.<.] P <.] ] / / ] f ",
"<.L./.m B.<.m %.G.R.m a < & <.] ] ] <.] m %.m.}./ c.<.] x ..].] a < < / ] ] ] <.] ] x ] [.l.+.s.] 7 e.`...S.<.] y ..] ] ] ] ] 7 ",
"e.<.] ] <.] P &.] / ] ] a & ] ] <.] r...x %.<.<.] <.] ] m <./ / ] f < m ] <.] e.<.] l <.<.] <.<.] f <.] ] ] ] ] : ] ] ] / / ] : ",
"<.] ] ] ] ] m m ] / ] m m a ] ] e.] 9.<.x P ] ] ] ] ] ] 7 ] / / / m a P ] e.] <.e.] 2 ..] ] ] ] ] 7 ] ] ] ] ] ] y ] ] ] P P ] : ",
"j.P l l y <   x ] ] x ] ] y <.] <.] ] ] x d.P x f l < X : ] ] P P ..m ] ] <.] ] ] ] / i.P f l P m o ] ] ] ] <.] m <.] ] P P ] : ",
"E.<.<.%...*   ] ] ] X m ] y <.] <.e.] ] m T.<.<...<.y   4 <.] : q ] m ] ] ] e.<.] ] i.j.<...<.<.<.y <.] ] ] <.] m <.] ] P P ] y ",
"e.+.<.] / < . %.] f d d ] y e.] <.<.m ] P <.) 2.] ] y . x <.P a f P m <.] ] <.m ] ] P ..3...] / +.m e.] ] m ] ] P <.] ] / / ..f ",
"..s.<.] / f < <.] / / / ] : e.] ] ] ] ] m / 2.i.] ] m < P <./ P / / x %.] ] ] ] ] ] y ] g...] / g.m e.] ] ] ] ] l <.] ] ] ] ..7 ",
"e.] ] ] ] ] m <.] ] ] ] ] f e.] ] ] ] ] P <.] ] ] ] ] ] P <.] ] ] ] P <.] ] ] ] ] ] P <.] ] ] ] ] y e.] ] ] ] ] P <.] ] ] ] ] f ",
"e.] ] ] ] ] m <.] ] ] ] ] f e.m ] ] ] m P <.] ] ] ] ] ] P <.] ] ] ] P <./ / ] ] / / P <.] ] ] ] ] y e.] ] ] ] ] P <.m ] ] ] m f ",
"e.] P a ] ] P <.] ] ] ] ] y %.I.<.] / B.] <.] ] ] ] ] ] P <.] ] ] ] m ] m.H.] ] 2.g.P <.] f f ] ] f e.] ] ] ] ] m P Y.<.] m C.m ",
"<.] P a ] ] P <.] ] ] ] ] : 7 l 7 f f m # P ] ] ] ] ] ] P <.] ] ] ] x # f 2 f f m y 2 ..] f f ] ] f e.] ] ] ] ] o y 4 y f f m o ",
"e.] = = / ] m ] ] ] ] m m & '.9.e.e.e.e.m %.] ] ] / ] ] m <.] ] / / m /.e.e.e.e.e.<.x <.P O f / ] y <.] ] ] m f j.E.9.e.e.e.<.7 ",
"e.] = X f ] m ] ] ] ] m a a 9.L.<.] / / P <.] ] ] f ] ] m <.] ] <.<.P <.m.S.] ] m ] P <.P O & P ] y <.] ] ] f a P ] I.<.] m ] f ",
"] ] 7 < f ] m ] ] ] / / P < d <.] ] 3.g.P P ] ] ] f ] ] m <.] ] ] ] m <.<.<.] m C.<.f ] / - a P ] y <.] ] m ] f < f <.] / B.<.f ",
"<.] f a / ] m ] ] ] ] ] f O f ] ] ] ....m ] ] ] ] / ] ] m <.] ] ] ] x %.] ] ] ] <.] l <./ d f / ] y <.] ] ] / d O P ] ] ] <.] 7 ",
"<.] f f / ] P <.] ] ] ] a O f ] ] ] ] ] x ] ] ] ] ] ] ] m <.] ] ] ] m %.] ] ] / ] ] 4 <.P f m / ..y e.] ] ] P a O P ] ] ] ] ] : ",
"] ] ] ] f ] x %.] v / f < . f ] ] ] ] ] x x ] ] ] m ] ] y <.P P ] m P <.] ] ] / ] ] : ] ] ] P P ..: e.] v m f & O P ] ] ] ] ] : ",
"] ] ] ] ] ] x %./ B.&.a   X f / ] e.<.] P P ] ] ] ] ] ] l <.3.g./ B.&.<.] ] ] ] ] ] f ] ] ] ] ] ..: e.m C.m =   & m ] ] r...] f ",
"<.] ] ] <.] x P / m f &   X a f ] e.<.] P &.] ] ] <.] ] 2 ......] <.m %.] ] ] <.] ] m <.] ] <.<.] : <.m m d X   & a m ] r...] f ",
"e.] ] ] ] ] x d.l l l P m o m ] m <.] ] m %.] ] ] ] ] ] / <.x x P P # x ] ] ] ] ] ] x <.] ] ] ] ] : j.l l l P y & P / / <.] ] 7 ",
"e.] ] ] ] ] m T.........<.y <.] ] ] ] ] P <.] ] ] ] ] ] i.j.] <.] <.m ] ] ] ] m ] ] P <.] ] ] ] ] y E.] <.] <...m <.] ] ] ] ] f ",
"e.m.l./ 2...m <.C.G.A.H.] y <.] 9.<.] ] m <.3.W./ +.<.] P ] _./ Y.<.m ] ] ] ] ] ] ] P ..H.d.) 2.] y <.).<.I.<.] m <...r.] ] ] y ",
"e.S.l./ g...m <.d.d.....] : ] <.r...] ] x %.8.Q./ s.<.] P <.l.] <.] x x ] ] ] ] ] ] l ..).d.2.i.] y e.l.] <.] ] : ] r.9.] ] ] : ",
"<.] ] ] ] ] m m ] m P P ] 7 ] <.e.] ] ] x ] ] ] ] ] ] ] y ] ] ] ] ] m m ] ] ] f ] ] 4 <.] ] ] ] ] y ] ] m P / ] 7 ] r.<.] ] ] : ",
"7 f 7 7 7 f # x ] ] a m ] f <.] e.] ] ] x # f 7 y : f 7 : ] ] ] ] ] P &.] ] ] f ] ] o y y y : y y o ] ] P a / ] m <.<.<.] ] ] : ",
"'.e.<.<.<.&   P ] f . / ] 7 <.] ] ] 7 ] m /.e.e.<.e.e.<.y ..] ] <.<.m / ] ] ] f ] ] j.E.e.<.e./     <.] = X <.] y ..] ] m m ] 7 ",
"e.m ] ] ] :   %.] f < a ] f e.] ] ] f ] P <./ / ] ] P P P <.] ] m ] P <.] ] ] f ] ] P <.m ] ] ]     e.] < < f ] P <.] ] P P ] f ",
"<.B.<.] / d & <.] m m m ] : e.] ] ] ] ] m ] 3.g.] ] 3.g.P <.] ] ] ] x %.] ] ] ] ] ] m / C.<.] m < < e.] f / m ] l <.] ] ] ] ] y ",
"<.<.] ] ] / m <.] ] ] ] ] y e.] ] ] ] ] m ] ....] ] ....P <.] ] ] ] m <.] ] ] ] ] ] m <.<.] ] ] P f e.] ] ] ] ] P <.] ] ] ] ] y ",
"e.] ] ] ] ] m %.] ] ] ] ] f e./ ] ] ] / P <.] ] ] ] ] ] x <.] ] ] ] P <./ / ] ] / / m / P / ] ] ] 7 <.] ] ] ] ] P <./ ] ] ] / f ",
"e.] ] ] ] ] P <.] ] ] ] ] f <.L.<.] / c.&.<.] ] f / ] ] P <.] ] ] ] P <.b.S.] ] +.s.= X a P ] ] ] f ] m : y ] ] P / I.<.] m B.m ",
"<.] ] ] ] ] P <.] ] ] ] ] : m ] m P P &.7 ] ] ] a P ] ] P <.] ] ] ] x 7 / P P P ] /     < m ] ] ] f y O = 7 m ] # m ] m P P ] # ",
"<.] ] ] ] ] P <.] ] ] m ] : /.%.%.<.<.<.7 ] ] m & P ] ] P <.] ] / / 7 !.<.%.<.<.<./     O a ] ] ] f . < d / ] ] d.T.%.<.<.<.] # ",
"e.] ] ] f ] m / ] ] ] <.] f e.m.<.] / / P <.] f X < ] ] y ..] ] / f a <.3.8.] ] / ] =   & ] ] ] ] 7   = a m <.] P ..A...] / ] f ",
"<.] ] ] f ] P <.] ] ] <.] f e.S.<.] +.s.P ] ] f X < ] ] P <.] ] m P a m 3.C.] m B.<.< X f e.] ] ] 7   = & a / ] f f H.../ c.<.f ",
"<.] ] ] m ] m / ] ] ] ] ] : e.] ] ] <.<.m / ] / a f ] ] y ..] ] ] / = = ] ] ] ] <.] q y <.r./ / ] : O P = y f m o P ] ] ] <.] y ",
"e.] ] ] ] ] P <.] ] ] ] ] : e.] ] ] ] ] x %.] f a P ] ] P <.] ] ] f = = ] ] ] ] ] ] l <.....] ] ] : < P = = f d o P ] ] ] ] ] : ",
"] ] ] ] / ] x %.] P ] ] / f e.] ] ] m ] x x ] ] ] f ] ] l <./ / P f O = ] ] ] ] ] ] : ] ] ] ] ] ] : e.] P ] m / O P ] ] ] ....: ",
"] ] ] ] / ] x %./ c.<.m B.m e.] ] ] ] ] m m ] ] ] / ] ] l <.+.s.a &   = ] ] <.<.] ] y ] ] ] ] <.] : e.m v.<.+.s.O P ] ] ] ] ..y ",
"<.] ] ] <.] x ] ] <.] ] <.y e.] ] ] <.] P ] ] ] ] <.] ] 4 <.] ] < X X < f / <.r.] ] m ..] e.] e.<.: <.] <.] P 2 < < P ] <.<.] f ",
"e.] ] ] <.] x # : y 7 f y o <.] ] ] <.] m %.] ] ] <.] ] o : O O O =   = P m <.<.] ] x <.] e.] <.e.: : : : : = X O y & / e.] ] 7 ",
"e.] ] ] ] ] m /.e.e.e.e.<.7 <.] ] ] / ] P <.] ] ] ] ] ] j.E.9.e.9.e.m / ] ] ] ] ] ] P <.<.e.] ] <.7 '.9.] < X < y ..] ] ] ] ] f ",
"e.m ] ] m ] P <.+.s.m.S.] f e.] ] ] / ] P <./ / ] m ] ] P ] B./ I.<.P <.] ] <.] ] ] P <.m ] / / ] f 9.c.&.a O = P <.] ] ] ] ] f ",
"9.I./.m C.<.m %.l.l.<.<.] : ] ] ] ] ] ] x %.A.|./ B.<.] x <./.] <.] x x ..r.<.] ] ] l ] {.l.3.g.] 7 e./.] m f a : ] ] ] <.<.] : ",
"e.<.] ] <.] P ] ] ] ] ] ] : ] ] ] ] m ] x %.....] <.] ] m ../ / ] ] x x <.r.] ] ] ] l <.<.] ....] f <.] m ] P a y ] <.<.<.r.] : ",
"m P m m m P 7 x ] ] ] ] ] f <.] ] ] f ] x 7 P m m x P m : ] ] f d / P ] ] e.] ] ] ] # m m m x m m # ] ] ] ] m m m ..<.<.] <.] : ",
"/.<.] ] %.<.7 x ] ] ] <.] 7 <.] ] ] f ] x !.<.%./ %.< . : ] / - l <.m / ] <.] y ] ] d.T.<./ %.m X   ] ] P : <.] y ......] ] ] : ",
"e./ ] ] ] P P <.] ] / / ] f e.] ] ] f ] P <./ / ] ] x   l <.P & a P P <.] ] ] f ] ] P <./ ] ] ]     e.] y < f ] P <.] e.<./ ] f ",
"9.c.<.] / c.&.<.] ] / / ] 7 e.] ] ] / ] P <.+.s.] ] d X P <.P a m P m %.] ] ] / ] ] P ] B.<.] m O O e.] a m f ] x <.] <./ / ] f ",
"<.<.] ] ] <.P <.] ] ] ] ] 7 e.] ] ] ] ] m / <.<.] ] / f P <.] ] ] ] m %.] ] ] ] ] ] y ..<.] ] ] f d e.] ] ] ] ] x <.] ] ] ] ] 7 ",
"e.] ] ] ] ] m %.] ] ] ] ] f e.] ] ] ] ] P <.] ] ] ] ] ] x <.] ] ] ] P <.] ] ] ] ] ] P <.] ] ] ] ] 7 e.] ] ] ] ] P <.] ] ] ] ] f "
};
