/* XPM */
static char *green_stone[] = {
/* columns rows colors chars-per-pixel */
"64 64 234 2 ",
"   c #030404",
".  c #050B06",
"X  c #050609",
"o  c #060A09",
"O  c #090E0C",
"+  c #06130A",
"@  c #0A130D",
"#  c #0B1B0D",
"$  c #061407",
"%  c #0A0D11",
"&  c #070712",
"*  c #0C1413",
"=  c #0E1B13",
"-  c #0E1419",
";  c #0E1B19",
":  c #111615",
">  c #111C15",
",  c #11151B",
"<  c #121D1B",
"1  c #0E2B0C",
"2  c #0D250D",
"3  c #0E2313",
"4  c #0E2715",
"5  c #112315",
"6  c #132B16",
"7  c #14231C",
"8  c #18251E",
"9  c #152B1C",
"0  c #192D1D",
"q  c #0F3112",
"w  c #133215",
"e  c #16321B",
"r  c #1A331D",
"t  c #163A19",
"y  c #1B3B1D",
"u  c #13300E",
"i  c #0F1C20",
"p  c #141D22",
"a  c #181E24",
"s  c #141623",
"d  c #162422",
"f  c #192524",
"g  c #162A22",
"h  c #1A2B23",
"j  c #15262A",
"k  c #1A262A",
"l  c #172B2C",
"z  c #1C2C2B",
"x  c #173221",
"c  c #1C3324",
"v  c #1D3B23",
"b  c #1D332B",
"n  c #1E3A2A",
"m  c #173627",
"M  c #1D2E31",
"N  c #1E3332",
"B  c #1F3A36",
"V  c #212F2C",
"C  c #213426",
"Z  c #213C25",
"A  c #21342D",
"S  c #223B2C",
"D  c #2A3B2F",
"F  c #212C31",
"G  c #252F39",
"H  c #223533",
"J  c #243B34",
"K  c #2A3A35",
"L  c #23353A",
"P  c #253B3A",
"I  c #293D3C",
"U  c #283438",
"Y  c #30393D",
"T  c #1B461C",
"R  c #214E15",
"E  c #1E4323",
"W  c #1E4726",
"Q  c #1F5020",
"!  c #1E4334",
"~  c #214326",
"^  c #234B26",
"/  c #22432C",
"(  c #254B2C",
")  c #294D2D",
"_  c #29472F",
"`  c #235426",
"'  c #26522C",
"]  c #2A552E",
"[  c #2A5A2D",
"{  c #254333",
"}  c #294435",
"|  c #264B33",
" . c #2A4C34",
".. c #26423A",
"X. c #2B443C",
"o. c #2C4B3B",
"O. c #274D3A",
"+. c #324C3F",
"@. c #2B5433",
"#. c #2D5C33",
"$. c #2D533B",
"%. c #2D5B3B",
"&. c #275130",
"*. c #31533D",
"=. c #315B3D",
"-. c #325736",
";. c #31582C",
":. c #2C6334",
">. c #2F653A",
",. c #33653E",
"<. c #356B3D",
"1. c #346439",
"2. c #316D2C",
"3. c #273B41",
"4. c #2A3D42",
"5. c #2D3F49",
"6. c #2C4443",
"7. c #2D4B44",
"8. c #2D454A",
"9. c #2E4C4A",
"0. c #274141",
"q. c #314643",
"w. c #314C44",
"e. c #32454A",
"r. c #334C4B",
"t. c #2E5342",
"y. c #2D5348",
"u. c #325445",
"i. c #345A45",
"p. c #34534B",
"a. c #38534E",
"s. c #355B4B",
"d. c #3A5C4D",
"f. c #395841",
"g. c #334D53",
"h. c #384F51",
"j. c #374956",
"k. c #355353",
"l. c #3A5454",
"z. c #3B5C55",
"x. c #36535A",
"c. c #3B555B",
"v. c #355B5A",
"b. c #3C5B5B",
"n. c #365B55",
"m. c #2E5553",
"M. c #346243",
"N. c #3A644D",
"B. c #376744",
"V. c #397448",
"C. c #3C6253",
"Z. c #3D6B55",
"A. c #3E625B",
"S. c #376053",
"D. c #3B7058",
"F. c #3D5D62",
"G. c #3D5B67",
"H. c #3F6162",
"J. c #3F6168",
"K. c #425D5D",
"L. c #425658",
"P. c #437949",
"I. c #416456",
"U. c #436C56",
"Y. c #42635C",
"T. c #45695E",
"R. c #496A59",
"E. c #467457",
"W. c #425C64",
"Q. c #415D6A",
"!. c #436463",
"~. c #456A64",
"^. c #496B64",
"/. c #45656A",
"(. c #4A666C",
"). c #466A6B",
"_. c #4A6C6B",
"`. c #4A6465",
"'. c #4A7164",
"]. c #4B736B",
"[. c #4F7B6D",
"{. c #497664",
"}. c #52766B",
"|. c #537A6D",
" X c #547A68",
".X c #4B6D72",
"XX c #466A70",
"oX c #516F72",
"OX c #4D7474",
"+X c #4D7877",
"@X c #537575",
"#X c #537A74",
"$X c #557B7B",
"%X c #597B7B",
"&X c #597878",
"*X c #506B6A",
"=X c #3E8946",
"-X c #528559",
";X c #478B4B",
":X c #568969",
">X c #55857D",
",X c #5A887E",
"<X c #588976",
"1X c #628A7C",
"2X c #5CA468",
"3X c #68B568",
"4X c #557A81",
"5X c #5B7F81",
"6X c #4C7B83",
"7X c #5C8384",
"8X c #5D8489",
"9X c #598583",
"0X c #658C8B",
"qX c #658989",
"wX c #699189",
"eX c #648D90",
"rX c #688F90",
"tX c #6B9492",
"yX c #6B9997",
"uX c #739C9D",
"iX c #729B99",
"pX c #79A59B",
"aX c #6CAE81",
"sX c #759DA3",
"dX c #79A7A6",
"fX c #7BA9B0",
"gX c #82B29F",
"hX c #84ADAA",
"jX c #85B7AB",
"kX c #80ADB0",
"lX c #84B4B8",
"zX c #89B8B7",
"xX c #97BFC4",
"cX c #94C3C2",
/* pixels */
"z p.8Xf.c c / * @ h ..c = y Z } C.i.C 9 W { 6 r C = 9 5 v S z.r.7 8 * 3 v S o.u.g.b d l O O * o 9 ; J S !.K s.o.9 r k.$./ S c m ",
"C b o.} k e O.6 5 S c y 5  .u.I h S v S ( S 5  ./ c c | ..N d c H 7 5 5 c 9 d A @.Z >   * 7 * b @   w 9 m 9.b z < < e ( @.y 5 > ",
"s.O.7 < m 7 v 8 0 h E E c  .T.{ f 5 v ~ K 8 9 e H n = b ( A h > 5 9 9 5 b ~ d * c 6 =   @ > f 9 @ * ' ^ z = c c X.| ~ v 7 r 6 S ",
"x...} L f :.9 X.K.d.`.Y._.K  .z L P h D.9 #.,.i.n S b b p.< I H z m 0 h 0 @.f S C m O.* = h c 6 # S | ^ } 4.r.6.6./ 5 c 9 9 T 8 ",
"* = 7 < d ; * ).4XF.r.$X_.g M h 7 < h 8 V zXgXdX0X0XXXH O 7 : f b.].9XA.* 7 * < f < , f x.b.k.k.8Xx.* = O f * < % = ~ $.o.X.o.8 ",
"J c C h N = 7 S n.p.H !.e 5 < f ..J V } oXiXgXuXtX$Xw.z   * z X.H k.!.v d 7 ; = 0 c < 5 n k.I V OX0 8 < 8 h = 9 * L o.0Xy.g.r.y ",
"= 7 z 6.d * 5 c c a.z.c f 9 : h V o.0 E *X%XsXqX'.6.l.;   * 0 0 6.N C h m O = z z = @ 5 H b.p.} h c * = z L 8 = 7 7 k.b. .H m @.",
"= 6 5 c y 6 J A f K H c d b 0 y Z } / 9 Y.L.d.@Xw.J { . $ 9 O h < d p b z = = 8 6 5 > | z v H b 7 h 7 5 3 5 e = = J h / c 5 5 Z ",
"0 S h r h z b $.b 7 * 9 f j 9 ~ ) %.0 C d.7.I V { < C 6 @ 5 > @ @ ; 7 0 h 9 < > g f y S v V > 7 8 g 9 8 < = 7 7 ; P { w > h ^ -.",
"> r h ' v C b.7.H H J < L L w.kXdX0X0X_.w./ 8 < S 0 f > < S 5 O = * f $.c > = 9 < 7 = ..} c < d b 8.5 9 > 7 > 7 0 y.K q...H -.[ ",
"b .X#X,X}.@Xz.< : z < @ : , >XhXiXxXsX7XR.{ I 6.{ 1.<.b F & > < < j P l z k.a.6.x.F.6.l m d f d < f A l._.d.z.K.A.7.8 H H A 7 O ",
"H Y.&XtXhXqXb = J C C H A : u.%X,XzXfXlX/.+.d f 7 8 c f c Y 4.z k * * * z a.k.H H r.y.@ = d 7 z 7 O 6.d._.^.h.7.k.K._.|._.}.].@ ",
"d *.qX#X0X5X$.9 h / r.Z > 0 #.qXtX#XqX&Xc.G I k h c v h K c.w.A f # X d g l H b.N } { < < g z f 3 = g ~ .X$Xp.J 9.8.7.dXI.g.n ; ",
"r } ~.~.( J n = : b $.0 > p.-.<X:X:XC.l.e.U V f H v -.v 6.w.g.I g @ @ g b x ; N P k c h O 7 H < O h b H  .u.b h c H u.OXI.z > e ",
"' 8.~ ] c z.h 5 r y C ] y / u.N.2XE.*X`.L.+.I u.z h , p V f f F 0 . < z i ; N 7 < ; 7 9 w y 7 v 6 2 $ q.h f ; N z I { { r f x 6 ",
"Z.y.{.r.7.{.s.* : 0 / c 8 { A A 9.H @XfXsX&X(.$X8.( < f : o r * < 1 1 + o * z 7 < < 7 N 9 y > h -XP.*.h S N M M f P H r.p.J g 9 ",
"# 7 f f f d c   b p.a.7.P J H J 8 , ].yXsX_.G.4.3.K < < e.X.C : +.1XR.I p o * f b * * - H I 5.h.hXgXiXuXrXW.z   < > V r._.qXi.3 ",
"L XX!.^.@Xl     7.%Xq.,X$XV J h > h h k.qXc.U a z m h 7.c.r.8.j.L.wX&X`.M g.3.j.p > = < k./..X.X&XwXwX*Xl.r.<   f F H J 4.I >   ",
"[.lXOXz.<XP.9   8 M.H o.y z e.6 6 9 n P (.h.G p M c / n z.w.Q.r.L.&X`.r.J 3.e.Q.g f 5 S z y.J w.`.qX*XR.P b     * h 7 A k < = @ ",
"~.sX^.d.c y 9   @ k.z.m f * # 7 % * b 7 , - f 4.g & z 0.f , X.F U 5.c.8.d 6.g.r.L * = ! g o.!.o.A +.Y.} ; ~ # = = * 0 a * @ o = ",
"O { t.s.] { | g = h f n 0 $ u 5 4   g f P M - 5.0.5 & a , > I e.C V V a * z z * 7 9 9 B ..c S C 8 > 5 r : h # * K < : : * : @ 0 ",
"d  .S ~ <.` v e = 8 8 e 8 D ;.P.=X- - B j -   & k z s - f X * < : @ O q.h @ z 7 < 5 g E Z c < 7 y 5 h { ) *.f M y * f 5.s a < 7 ",
"/.o.o.o.~ =X:.S ..C C c =.w.R.2.T 3 n n.g.n.g.M X.6.j - H * * * c ; f l.z = 5 = < < 5 O.%.f b h C M.f.C <.E.y.8.V 9 J j.d f V h ",
"9.< g f = B # s.yXrX|.T.,XL.*. .S X.6X{ 7 '.U.s.s.W.N @ * d f J K J K A L z./.z.#X).c.9 d O < O @ h I b.k.^.).[.q.K z P g.9.Y.4.",
"  @ 8 7 m # X p.7X0X&X~.4.I r.P C K ~.e 9 ~ I %.'.v > y * P | y.b.a.9X].6.c Y.].$Xs.o.7 o h < > f   0 ~ OXw.z.r e 7 J b.a.b 9 h ",
"* # d z 8 @ 4 9 o.>X!.X.< ; P ..*.:Xv e 9 b #.s.}.6 9 0 = 8 %.} A.C.k.+Xh b X._.6.Z b g = @ d < = O 3...9.o.r.c S f m u.s.P 5 g ",
"= = f 6.v 6 w v { l.l.h 7 j * m } t v 5 E B.#.n v { 9 ~ r ) *.o.O.s.J } r z f I o.9 9 8 * > f < 3 + o.0 7 P 9 5 c v x { z 9 = 5 ",
"| W r h v f 3 b 9 = @ h f h h { y c -.V u.N.:Xi.d.<X .@.n | / o./ H 8 > 6.} P 8 > m / / y v 7 0 0 5 < 0 g @ d 3 b @.~ v c ^ 9 m ",
"v c 3 T r c = n S b J d N B = 7 V u.s.Y.|.| ! s.|.<Xo.i.w.{ A.o.c 7 f e S o.J 6.P ^ V.] 7 6 5 c z 8 g...h z 7 z { h 0 v 0 h 2.W ",
"l.5X:X-X2X3XC 7 L N 7             o *     + 4 g c 5 w o.l.S o.#.8 0 b ` T c ..7.J ~ T ^ r ] } o.K.7.$.r.S H S J A b 8 Z S I | c ",
"z.T.dXjX3X;X) S s.C.U.|.s.4 @ ; ~  .| ! J 4 g E m 7 b i.o.b o.v h b = g m l 3.h } c w ~ Z Z.V.o.o.7.p.OX@X@X6.c.A A.n.b.o.C c g ",
"v '.,X:X-X:X<Xk.t.#.v ~.c 5 9 O.v | | e E e g ! Q x g ~ ^  .9 c c e v 3 * - =   + @ @ 6 < ) o.B.M.$.z.~.].b.u.O.} M...k.J o.w.< ",
"> = = = 9 OX+X*.aX2XE.J o.n b c 5 O.J i.Z.t.b m $.z b b { y.7 9.X.H n m , - o o * 5 < = % g z { y.I A.l.l.b.A O.K S.{ X.N < U 7 ",
"p.r.6.6.l z b .XcXjXlXlXpX/.H . 3 9 S b.OXyXs.= 5 7 h n g g m n.A.g.B p d f * d < L 9.d 7 / @.( < H H A b b 7 9 g 5 # m 3 5 > 7.",
"x.r.N { { m t.8XwXpXiX{.k.p.7 . f ..b ..p.7.v h 9 g f n n 7 9 y.k.r.b z * % * o * * * N 9.z.b.=.A b J Z g.f 5 7 8 f d = = r h } ",
"J J x } } 6 e z.5XtX#XA.{ J . O = v 9 { N n { N ; 7 I b 3 = S d S ..g = * * ; ; 5 = ; 6.!.r.l.v c X.l.q.9.b f h I J b I 6.X.J } ",
"m h 9 3 6 2 6 ].w.+.!.{ = m 1 2 = * 0 f d g b c 9 9 h 9 b r $.0 m g # * ;   @ p < O z 7._.~.!.v O.S.9Xc.L b 7 9 d h s.J.G.H.k.W ",
"r 0 A J _ H 7 0 0 > = 5 5 = $ + K 5 < 9 8 c v b y d 8 b 9 c } v d ; 7 - z O O = > 5 5 b !.~.8.5 @.~ ( c f g e 3 = g P L a._.S m ",
"9 9 r.K.*X&XK.a.1 < > r T E d a u * r c.z J i.c I J J b f 9 y.B b f 5 g M = # 9 v 0 e 7 } b.b.* - L d h h d 7 @ g L d b.p.P h x ",
"# h +.l.qXW.`.c < z h * T | h d , r I K.z d N 6.)./.v.!.OX9.f d G.P j * * 7 5 9 c 6 6 6 0 Z c 5 ; o o < z < 3 > < b g 8 J v < d ",
"Z } _ 6.&X&X&XM b   * # * 4 z c r.q.z < C h h w.b.w.b.H q./ < n ..k.d # = P !./.I.p.c y ' c Z 5 % d ..g = 7 E < g F.c f 7 > 5 < ",
"h b.(.6.6.U F s - =   ; w 6 # H r.l.Y C  .S z { K X.l.I 8.h d e k.k.c = h OX~.~.!.z.#X/ v ^ v 7 % ; ;   . v B g z H - 7 * = # m ",
"b /.(.z 9 * * o   + + = 6 ! 7 4.6.4.I h { P b.r.7.a.p.K { h h t.b  .I = l e $X6.).s.).9 9 r r > # X o 6.!.4X'.].G.f 7 z h = 7 : ",
"7 o.p.k * 5.8.j.z I 4.& #   * f : * 8 : C C A K a.r.A V J { { i.{ X.w.h 5 m 6.J =./ y 0 r 9 6 0 < @ 2 J 9.K z.N.c = M g P f b # ",
"z d P b < H L.c.e.r.5.j y % %   $ a * < h I 4.r.h.h.X.h b 9 c t.*.o.k.l.y T x w.c v v c 9 > 7 C h 7 S  .~.r.N.9 / 3 @ * b p O > ",
"b 5 < < 7 < < G 6.M - a , X - L f G p j L L.!.%XtX7Xr.x.F.r.K m.J I r.r.h ~ E 9 v 9 9 C S b.l.a.I r.h ..c B *.9 W 6 = # 9 9 = 8 ",
"7 < > : 6 = 5 8 g = f * # , P j.a O < < 7.^.(.(.Q.!.r.P g.).k.7 g H P 8./ ( b 9 y E v c q.Y.).K.J X.9 c z 7 9 x t m 7 * * ; * 6 ",
"l ; m f 7 [ r e E 9 ; 7 9 = 9 d : , < c h ..>XT.v d I F.z s.| < c J H J o.v 5 9 g ~ ( m r.k.r.l.b } b N.E m b Q 2.r L e.7.I P p ",
"; * < @ = * @ 9 9 z 5 c h g N.b M < l { n c O.z.b 8 7 X.I h v J 7 z I 0 E t 9 6 e w o d N < > 8 = r 5 > @ H 8 b N = 6.k.c.8.g.= ",
"j H X.X.r.A * 7 7.c.c.n.o.w.G.p.b M 8.W.S $.H 7 8 h ..A z l z g w t = v v N ..E  .` g < % * * : # 5 8 p 9 5 7 M   * 9.H H I 3.< ",
"8 4.z A.!...h z r.b 6.g.y h z d b P z.x.#.@.J f g z f f f 8 m J e v   6 0 E v b c v 7 z r.b.7...y.l d 7 f d b g @ = 8 H f d j 7 ",
"f I S J v z 6.A 3.P c L 7 9 z h 8 K U.'.~.c ..L * * < A A < < j c 9 $ 5 y b E v E ( h 8.%X!.x.k.y.g f = = z h @ = r = H 7 d - < ",
"N 7 h z 7 f b S S S 0 5 c = f S b f X.} 1.h J U f 8.5.6.d < < z v.).v...9 y A.'.E ] N.a.W..X0 K n 9 * > < * 7 > f m z = = ; d 5 ",
"7 g * < 7 8 h 6.Z 9 J c h E I S < d #.S } yXiXrXz.G.G.Q.b H r S N v.4 $.N.s.#Xb.x.J @. .w.r.X.0 v 5 O < 7 l 7 L p p.z 7 7 z 8.< ",
"8.f l 7 5  .n Z y h ~ v h b 6.; H H ;X-. .-.wXI.h.} K.!.L 5 9 ! m z.x.n K { v 7 h 8 n X.6 H > 7 9 4 . X f f d O , f * d < * z ; ",
"d * 7 < < c S w.X.} b 0 7 : I @ f z @.@.:.=.:XI.X.!.o.V 9 e h y.B n u.X.h H  .} t.9.J 7.M > > 5 e 2   z z f H f 4.P L C K J g i ",
"* z 7 7 b = 7 7.+.i.B.#.6.z = s H H X.6. .U.V.L.u.0 J 8 9 c m ! } n H e.H k./.p.A.b } } V k > c ' =   h b 6   d 7._..Xx.k.9.6.* ",
"% < f p ; + b P z 8 :.t.J n 4.~ e.Y A ~ <.Y. .~ r c 7 : d 8 m N.B.P 6.I h a.9.t n H 6.b.l.6.a.I H <   h C r w f P c b.T.Y...v 3 ",
"9 > b P d < L < z S c n } w.(.^.6.K  .( :.( m h c s.9.7.!.J.k.J O.z 8.7.= r 7 < * = H =.eX!.P x.p.<   7 0 b y h 5 L b.7Xz.z h W ",
"9 7 r h 7 p g 5 < c #.~ X.z.'._.I.Y. Xi.;XV.$.T.X.r./.:X8XC.p.f d ..N g.9 * * O * ~ ' ..!.b.d { r 0 O A { X.+.S 7.7.X.} S g g 9 ",
"7 7 f : 8 7 > c h v / O...~.T.].<XqXuXU.J 9 > f a f I L.N J { N k H M I b f 7 = < Z b ( d %.o.v = = * /.8XK.OXz.{ v p.u.7.v y  .",
"J X.X.4X@X_.u.].l.f c > c X. .d. XtXdXpXA * ~ S A +.: < M 5.p...J P c 8.z < M c A z } o.c n A d f 7 I (._.^.eXz.n : O 0 > 9 Q E ",
"b.u.Y.#X1X}.U.~.b...7.9 r 9 } '.E.}.0X'.z + r C h 9     L c..X.Xf f = 3.j F._.d.b.b.e ' 9 < p 7 < 9 s.8X4X%X0Xb.A g./.).T.c./.h ",
"S r.tX%X,Xi.@.b z z H o.n > $.I.^.T. .J E 5 5 I I > + : b p.K 6.d d g 7 6 X..Xt.k.X.7.M.0 z N 7 6.6. .k.^.].}.X.J X.C.$Xs.I J 9 "
};
