/* XPM */
static char *leaves[] = {
/* columns rows colors chars-per-pixel */
"64 64 226 2 ",
"   c #040405",
".  c #080706",
"X  c #060906",
"o  c #090B06",
"O  c #060608",
"+  c #080709",
"@  c #070A09",
"#  c #0A0D0B",
"$  c #100F0D",
"%  c #0F1807",
"&  c #0C120D",
"*  c #0E1B0D",
"=  c #07140F",
"-  c #11160E",
";  c #121B0E",
":  c #191F0D",
">  c #0D0E10",
",  c #0D1511",
"<  c #0E1914",
"1  c #111611",
"2  c #121C14",
"3  c #181D14",
"4  c #161718",
"5  c #131E19",
"6  c #1A1E19",
"7  c #0F220E",
"8  c #13230D",
"9  c #19230F",
"0  c #11280F",
"q  c #13310F",
"w  c #152215",
"e  c #1A2314",
"r  c #142914",
"t  c #1B2B15",
"y  c #15231B",
"u  c #1A251B",
"i  c #162B1A",
"p  c #1C2B1B",
"a  c #173312",
"s  c #1B3215",
"d  c #1F3B16",
"f  c #17341B",
"g  c #1D331C",
"h  c #1E3A1C",
"j  c #212D14",
"k  c #21251C",
"l  c #222C1D",
"z  c #272B14",
"x  c #223414",
"c  c #233D16",
"v  c #22331D",
"b  c #29341D",
"n  c #243B1C",
"m  c #2A3A1D",
"M  c #313C15",
"N  c #162621",
"B  c #1A2620",
"V  c #162821",
"C  c #1B2B23",
"Z  c #1C2D28",
"A  c #1E3322",
"S  c #1F322A",
"D  c #202623",
"F  c #222D22",
"G  c #242F29",
"H  c #233423",
"J  c #2A3524",
"K  c #253A24",
"L  c #2A3C24",
"P  c #24332B",
"I  c #2A332B",
"U  c #253B2A",
"Y  c #2B3C2B",
"T  c #323C24",
"R  c #313D2C",
"E  c #253531",
"W  c #2A3531",
"Q  c #2C3D32",
"!  c #283D38",
"~  c #273E33",
"^  c #323F3A",
"/  c #24441C",
"(  c #2C451C",
")  c #254A1D",
"_  c #2D4E1D",
"`  c #324D1D",
"'  c #35471C",
"]  c #2D511C",
"[  c #32521E",
"{  c #345B1C",
"}  c #3B5A1D",
"|  c #3E5817",
" . c #254024",
".. c #2C4325",
"X. c #254921",
"o. c #2E4E25",
"O. c #2C432C",
"+. c #2E4A2B",
"@. c #324325",
"#. c #344C24",
"$. c #3A4D23",
"%. c #32442C",
"&. c #334B2C",
"*. c #3A4C2C",
"=. c #2F5221",
"-. c #325223",
";. c #3B5625",
":. c #355925",
">. c #3C5A25",
",. c #33532B",
"<. c #3B532D",
"1. c #3E592C",
"2. c #2E4432",
"3. c #2F4933",
"4. c #2F4139",
"5. c #324432",
"6. c #3A4730",
"7. c #344B33",
"8. c #3A4D34",
"9. c #354C3A",
"0. c #3A4E3B",
"q. c #35443C",
"w. c #355133",
"e. c #3B5434",
"r. c #3D5934",
"t. c #37503B",
"y. c #3C543B",
"u. c #3E5B3B",
"i. c #3C6135",
"p. c #4A5C1E",
"a. c #455015",
"s. c #445B25",
"d. c #4A5D24",
"f. c #42562C",
"g. c #445C2B",
"h. c #485D2B",
"j. c #415221",
"k. c #464D3A",
"l. c #435534",
"z. c #435C34",
"x. c #485D34",
"c. c #41553C",
"v. c #435C3C",
"b. c #4B5C3C",
"n. c #406125",
"m. c #446229",
"M. c #4B622C",
"N. c #4A692F",
"B. c #456134",
"V. c #4C6333",
"C. c #4E6935",
"Z. c #45623D",
"A. c #4A643D",
"S. c #4D6A3B",
"D. c #506937",
"F. c #52663D",
"G. c #526C3B",
"H. c #596E3B",
"J. c #506435",
"K. c #4B703C",
"L. c #4C793F",
"P. c #5A733A",
"I. c #364742",
"U. c #344F40",
"Y. c #3B4E46",
"T. c #3D5442",
"R. c #3F5A42",
"E. c #3F594A",
"W. c #444C48",
"Q. c #415643",
"!. c #485340",
"~. c #435B43",
"^. c #495D45",
"/. c #425549",
"(. c #445C4B",
"). c #485E4A",
"_. c #4B554E",
"`. c #485F52",
"'. c #466243",
"]. c #4A6444",
"[. c #4D6A44",
"{. c #46614C",
"}. c #4C644A",
"|. c #4E6A4A",
" X c #506443",
".X c #526C44",
"XX c #5B6F42",
"oX c #51674E",
"OX c #526B4B",
"+X c #5A6F4E",
"@X c #537145",
"#X c #5C7243",
"$X c #54724B",
"%X c #5C754C",
"&X c #5C7C4A",
"*X c #4C6452",
"=X c #4D6C52",
"-X c #4B6858",
";X c #536C53",
":X c #526D5C",
">X c #4E7354",
",X c #577153",
"<X c #597153",
"1X c #597C52",
"2X c #55745B",
"3X c #58735B",
"4X c #5A7D59",
"5X c #62725A",
"6X c #538449",
"7X c #59904F",
"8X c #5D8355",
"9X c #5A8659",
"0X c #5B9250",
"qX c #618447",
"wX c #618554",
"eX c #65895C",
"rX c #65875B",
"tX c #64925B",
"yX c #68935C",
"uX c #698B64",
"iX c #68806E",
"pX c #668D64",
"aX c #74836C",
"sX c #669460",
"dX c #6A9462",
"fX c #6B9966",
/* pixels */
"F &     x r.*Xu.&.  D F F u J 5.R 3 y 5       y Q S <       0.T.      b A.^.  e S 2.y O     a.d.p.M   F /.2.g .   @ &.c.<.y.%.L ",
"        L y.).t.w.  & 0.~./.Q.~.Q.}.].].L   @ I P 2         %.).  6 m J ^.@.& H S 3.V 7 <             - y.Q.Y C .   l e.l.8.H   ",
"        ..e.(.,...w 5 , F 7.).*X}.{.].^.*.1 # U 2           C ).J l j + %.5 r A 3.4.S 2 K ..h - - &     7.).0.%.Y #   3 3 &     ",
"  # , u &.y.y.&.n U 3 2   @ U 6.c.^.].].H *.%.B     2 O.7.e.l.G.eXwXrXY     f U 3.U.O.y   # l v n J H   5.y.(.7.0.F             ",
"& < & g &.u.e.e...2.p p &   H 8.e t H k   , b.5   o &.&.Q.}.*.yXdXpXwXO.#   i U 3.U.~ i   x z.v.8.O...  O.y.'.7.0.P             ",
"5 5 # f &.~.r.e.O.O.H A i   3 y.H       , 5 u k   Y y.*.!.z.r.eXeXrX8XC 5 2 i U t.U.S r v f.x.z.}.'.v   3 y.v.).0.t.w         < ",
"5 < X @ w.}.z.z.g O.K g p o @ T.y.<   o y 5 5 , # v.c.:X~.c.z.wXuX8XR.5 5 i y O.T.2...&.6.x.x.V.J. XL X & 5.'.'.Q./.S       < y ",
"y <     # 6.%.J   H  .g A @   0.).O.  y y 3 N > p b.:XA.r.+.e.uX1Xu.< < N V Z 3.O...r.r.t %.G.@X.Xx.2 8 & o y.}.|.R.y O O y V i ",
"y & & c x p       H O.f p     H {.0.p u y y C # 1 f..XOXr.p y.$X*., < 5 5 y P 2.i 1.r.i.n     L b 2   q o   # 7.=X0.  @ N C V B ",
"8.e ( :.-.o.c     - L e &   w 0.Q.t.U y y N G J k L b.*.3 % ~.r.3 & , 5 y y Z , ,.A.Z.B.v   p e       0     . j m @ + & Z C V R ",
"B 6.h.g.[ -.o.h     p 2   , v 6 ~.Q.0.G u C Q G O     L   # <.y 4.O.p 5 5 y y , v.[.A.1.@   2 H p     *   x M.C.C.3 o - Z Z V y ",
"& m [ r.v.,.o.o.g     o 5 u p   c./.9.F N C y 4     @.;Xz.x w < U 7.O.O.V 5 2 < v .XS.#.    7 H U v 6 # o h.V.h.D.@.. k C C C y ",
"  e _ [ #.u.y.+.O.e , 5 y C y # 7.c.y.V y N 5 ,   l A.}.{.*.O y H 9.O.9.y.B   O p q.v.2     ; K O.O.3.2 p g.s.V.G.o.t , P V V 5 ",
"a o ) ( o.( +.7.3.6.5 y y V 5 O O.0.Q.5 y < >     &.A.}.~.y.# = p L t.%.y.t.  e oXF.z.H     < g 9.3.w.9.w g.h.g.<.:.>.H , 5 5 # ",
";   ; a K c c K g H y 5 N C C O - 7.y.u 2   #     l.A.'.~.y.& r 2 K t.8.t.Q.# z.}.[.v.<.o   & g O.U.3.3.u   % < ] | s.{     # i ",
"k..     K 3 o # 2 y N N C C V @   p 8.L - p B.z.3 e.'.~.y.H 0 # % H %.R.<.r.y f..XA.z.r.X   X A U E.+.3...  Y & _ =.:.:.  & 2 < ",
"#.V.l j s.r   3 y y N Z V V y       Y L 1 m .X[.e.n ~.y.Y Y % B > g +.!.e.e.g e ).=X,.l     < K U E.O.+.+.X p O X.,.:.g & < w 2 ",
"f.V.L $.m.t @ y N V C V V y X       # .., L A.].r.v w.9.J  X&.7.F 3 o 5.w.7.3 &.].'.7.  X 2 v J U 7.t.3.+.& Y   t / a & 1 3 2 p ",
"g.g...' g.& , y y V V y <   Y '.v.$X1 2 6 U '.'.v.H u & ;X5X@X'.7.u.6.F O   ..r.].~.'.e X <.$X~.U 7.E.3...2 &.t   O & , 2 2 2 p ",
"B.z...; $.  , y y 5 # X e O '.|.oX[.#   o 2 u.v.Z.v     OXwX$X|.u.'.H +.&   ..r.'.u.R.e %.S.<X~.U 3.t.t.K x.S.C.w # & , 5 < & t ",
"B.z...  v   2 y , X = p Q v Z.OXOXv.O n ;.8.H &.z.*.    %.].OX[.u.8.@ 7.H   v r.~.r.+.  <.S.OX].7.g O.R.v A.S..X8.# > , , ,   e ",
"1.g.v     & 2 2 f A g /.H &.[.OX].R O g.A.;X7.- n L &   & O.[.^.,.g   L w   e r.'.w.g   $..XS.A.u   w t.L L G..Xf.& # , , #   p ",
"<.r.2     & @ f /  .7.3.H y.,Xv.F     r. XoXv.Q # # . o @ l v.u.K X   7 +   o r.r...e & 8..XA.b       t +.  z.%Xz.O # # #     p ",
"<.O.          n K O.R.7.K Z.A.J       L z.}.A.].o l %.J o # v.+.%         &   c.+.&     0.y.e   @ u H p     e A.z.3 $.d.<.X   - ",
"&.w A f X     h O.+.Q.7.H ].L         e L e.oXA.Y A.'.).G O 7.; * 2     o e o L 2             , U O.5.&.l     v f.T J.M.H.m .   ",
"t / X.) a   j (  .R.5.U 3 r.          . 3 F *.,X5.$XOX}.6.B + 0.0.l 1 2 * t - o F C * H U 2   f Y 7.c.].y.e o & o @.#XH.XX@.    ",
"] =.=.X.#.z * A 7.9...y     # & # +   u A.].8.L u '.[.;Xv.Q.L /.Q W 2 F u L - ..E.-X-X(.9.2 e K U Q.z..XI 3 y 2 3 e XXP.#XL   n ",
"-.;.>.] d # I 2.t...,       , , 2 2 o %.[..X$Xc.1 Y v.'.oX'.y F I G b.7.P b *.u.-XE.`.9.U & K O.T.r.'.l.- u u 3 y < I 5X!..   [ ",
"g.-.o.) 0 u I.t.O.2 + # p u & y 5 5 2 y ]. X.Xe.1 6 1 Y ~.$XF w C r.@Xu.~ A u.'.>X>X9.2.u s ..7.&.<.v.Y % v F u w 2   F +   + ` ",
"] _ _ c o H 9.t.p O # y 0.7., 2 y V 2 H v.OXb.p   J 8.7.I '.A f & r.[.'.7.H t.{.>X2XU.~   h L +.%.T.+.e   t v O.u 3   -   , > W.",
"A n s @ 3 L t.u.&.o , p 0.~.H y B u L @XqXl.5.u W Y q.0.|.5.H A   +.[.|.t.A +.R.R.~.Y &   g ..O.t.7.@.n X X H %.C w X % X . # < ",
"    & n &.7.u.u.3.< 3 u O.y.8.p k r r.C.&XA.+ 0.q.W y 5 P 2.S w @ L $X'.+.y A 2.T.O.C     K 2.O.7.N.<.p p K p K I % ; T J F #   ",
"= < , n K.i.u.i.K O.p u O.w.).7.p ; v B.#X.X# ~.T.P y & y V P < # ..t.V ,   C H Y.Y H e   v B.u.C.N.m # r.Z.{.'.H & e #.m l b   ",
"y 2 @ v K.'.r.&.y O.P 5 3.2.=X'.l o   z.OX.X1 2.y.%.+.y X 5 P < e t   < 5 < & y I.H H +.m 1.x.S.V.H.M   i.[.>X|.R.K & R J 3 X , ",
"5 <   * i.u.o.t & U H f H O.{.=Xy.&   w S.|.< , I l e       y 2 5 ~ V < y V , 5 G ^ K &.z.A.x.l.f.P.L @ w.Z.|.|.9X7.2 u H # < y ",
"y <     w K r o X %...U O.A 7.:X~.O.  o %.Z.y , , &         @ & 1 y u 2 u B V u G ^ H H o 8.G.XXx.h.2 8 e ,.e.].[.U -   e y V y ",
"5 ,   8 8 3       v O.H A w ~ ).{.7.u y y y V # O     X X X = L F V y y y y S , 5 P Y y &   - $.*.e o a &   2 &.].w   + y C V N ",
"H O ( :.] _ t     e L u < O 3 U ~.t.U u y N C       & < ,   r   G Q E V 5 y C #   5 Q y 2   p w       r       : %.e   & Z C B R ",
"T l.;.g.-.-.-.g     K - O @ v u ~./.t.H y C k.e.X   * %   & w X I 5.S 5 5 y y ,   o 9.g     w A w O   7   j s.J.g.3 + # Z C N y ",
"< n 1.z.,.&.=.=.w     X < N l O c.~.9.P V C y y   : v c.o.2 ,   I 2.4.< < < 5 ,     9.y     2 K H H & & o h.N.V.J.@.O D N C N N ",
"O j [ -.<.v.&.&.+.w # 5 y C 5 > 8.T.T.y V y y < o v B.3X;X8.O   B Y 7.2 X X X o H O.Y 2     w K O.3.O.@ b s.h.N.G.<.w < S V V y ",
"8 @ ) ( X...8.w.7.5.5 y y C < # &.t.Q.1 y 5 ,     %.S.}.~.~.  X @ K 5.y X     w [.|.v.H     2 p 2.O.9.3.j s.h.M.f.o.} g 2 y w = ",
"9   e h / / n K U Y 5 5 u C V @ e 7.y.p 1         r..X'.'.y.o r O % U H     o r.[.|.v.r.@   & g 2.9.+.t.5 - p & _ | s.{     # r ",
"R       L w * w 1 y V N C Z V #   p e.Y - w A.v.2 e.].~.'.Y r   < e F v X   . 1.OX].B.z.@ O o A U U.2.7...  v - ] -.{ :.  & < < ",
"&.V.y t m.t   2 y V N Z C N y       Y ..- K @XOXe.K }.u.7.3 &     v e H ;   # u }.=X,.x     % H U R.O.+.3.  %.. X.:.:.h & 2 2 < ",
"f.V.T ` m.s O y y N C C N N #       & L 2 K [.S.Z.A y.y.5 G.C & F H H , ; - # #.}.~.w.    w y U U 3.t.3.+.& I + i X.h o < w w 2 ",
"g.z.#.m s.2 , y y V V y < + l v.c.oX# k 2 ..'.|.'.v U u ;X5X:XI /./.&.T     ..e.].u.i.w - e.$X!.U 3.R.3.+.* 8.8   O , , 2 2 2 p ",
"m.r...- #.  , y y y ,   y O '.OXoX[.2 O # u R.v.}.l O + 4X3X*X|.4X=Xv.g *   &.u.'.u.'.2 L G.<X~.U 3.9.t. .z.S.C.e @ # , 2 , , p ",
"z.z...O H   2 y <   O r Q l ].OX|.].@ t 8.8.L e.'.L 2   ,X3X8XpXpX9X9Xr.v   H r.'.r.&.  <.G.OX].9.H 3.R.H S.S.@X7.& > , , ,   p ",
"1.r.v     # 5 , i f A T.U %.].,XOX%.  r.[.<X0.2 <.K L F 8.,XdXdXfX0XsXi.t   6 u.v.*.v   &.S.[.A.K   u 9.K %.G.@Xc.o > > , #   w ",
"<.<.w     , o t  . .+.3.g r.3XZ.%.  . v.|.}.~.P b 5 R 8.9.c.1XyXfXsX7X=.&   - r.y.K ; - &.OX].%.      p ..O x.OXl.+ + + o     e ",
"r.&.          h K O.T.9.U v.].L       7.Z.oX].e.l 2 Y v.v.'.'.tXfX7X@Xt       c.+.; -   %.~.J     < p i &   p S.x.e } d.f.    2 ",
"&.w f i @     h O...R.7.H  X6.        u e.v.).p l L l y.Z..Xr.tX0X6XA X       L p L R F @.,   & K ..%.7.l     L l.T J.J.#Xm     ",
"w / ) / r @ 3 (  .t.7.U p z.#         # . v %.l G.S.oXF ..v.8.8X9X,.X @ o ,   O ].;X^.0.2.<   p 2.9.y.v.k.- @ # $ T XXH.#X*.    ",
"X.] _ o.( e ; K 7.9...V   X # & # X   - 8.l.R &.6X&X,Xt.& l l Z. .  X < 1 z   7.-X{.-X).U.5 2 K U 0.v.F.5.2 e 3 3 j #X#X%XL   x ",
"-.1.;.=.s + w +.t...3       , , , 2   ..[.S.OXl.@X%XOXv.0.# & &   , y V C z   &.T.`.`.9.O.& n K U.e.v.D.2.- 2 2 5 & 6.aX X@   -.",
"z.:.] _ 0   p 7.2.w   # y & & 2 5 y 2 u A.A.@Xr.%.V.'.^.y.2 &.7.5.< y V E < 5 O.t.(.9.9.C g K 7.&.<.Z.u.& , 2 w y 1 + W.      [ ",
";._ _ /   X A O.2   Q Q.y.0.@ 5 y u 3 5 c..X.Xv - t T ~.r.L ].].E.I 5 E Z Z C 5.T.T.9.Y   h  .&...y...X   & < u w 3 @ ;     3 _.",
"A ( n o     y X - e !.}.).~.l y y V 5 5 v [.G.p & t e : 8.F ~.~.T.2.! Z C N H 9.).9.O.&   g O.+.t.7.<     o 2 u y 2 .       . , ",
"    o t K - & 8 &   y.;X}.v.%.y u B B y 1   # 3 u p ^.,   J L T.R.E.4.S V , v R.7.C O     v O.2.O.2       o w u w 2 O   X       ",
"7.7...,.%.o # p H   R <X.Xb.z.*.u w u u <   = e e p T.V   2 F Y '.T.T.T.C   %.0.H &       O.7.O.%.u & w   @ 2 u 3 2     v Y L %.",
"r.v.*.F @   7.~.O.  $ k l.].Z.z.2 , 3 V y # * i i Q Z V   y 0.p C O.0.b.O.> &.O.  w * h K c.$.j.B.g.e Y &   & u 2 %   l 8.8.7.e.",
"T.7.H     Q ].[.}.  6 b   , 1 O     @ , y , & y u q.B y   # T.Y P @ t OXv.e L # 2 H w D # ' M.h.h.f.$.2.J @   y w   p K 6.c.(.~.",
"%.Y &   # e.v.-XT.o I l                 o <   w 2.S V &     /.T.<     J A.6.@ # f U &     : d.d.j.f.M Q t.H   # & & %.y.).c.0.Y "
};
