/* XPM */
static char *panel1[] = {
/* columns rows colors chars-per-pixel */
"64 64 80 1 ",
"  c #030406",
". c #050609",
"X c #07080A",
"o c #0A0B0D",
"O c #1D0709",
"+ c #1E0A0D",
"@ c #0D0E11",
"# c #1D0E11",
"$ c #0F1012",
"% c #111214",
"& c #151619",
"* c #17181A",
"= c #1C1C1D",
"- c #350304",
"; c #23160B",
": c #2B1B0D",
"> c #321E0C",
", c #251910",
"< c #2E1A19",
"1 c #301B1B",
"2 c #352007",
"3 c #3C2407",
"4 c #342108",
"5 c #3A2309",
"6 c #2E2110",
"7 c #362310",
"8 c #392A18",
"9 c #1F1F20",
"0 c #1F2021",
"q c #242424",
"w c #292420",
"e c #272728",
"r c #2C2C2C",
"t c #333333",
"y c #393939",
"u c #450001",
"i c #452505",
"p c #4B2B07",
"a c #422209",
"s c #442A0A",
"d c #4B2D0A",
"f c #562F04",
"g c #4E330D",
"h c #543104",
"j c #5E3B04",
"k c #513209",
"l c #492F11",
"z c #402E19",
"x c #4C3617",
"c c #46311A",
"v c #4B361A",
"b c #533B1A",
"n c #643F05",
"m c #653F08",
"M c #674004",
"N c #6A4205",
"B c #6E4802",
"V c #674208",
"C c #6E4608",
"Z c #6F4808",
"A c #724703",
"S c #754A04",
"D c #794C02",
"F c #714908",
"G c #7F5107",
"H c #52443A",
"J c #444444",
"K c #4F4F4F",
"L c #5E5E5E",
"P c #615F5F",
"I c #646464",
"U c #6D6C6C",
"Y c #747473",
"T c #835201",
"R c #885600",
"E c #A1866F",
"W c #838383",
"Q c #BDBDBD",
"! c #D4D4D4",
"~ c #EAEAEA",
/* pixels */
"%%%$$@$$$$%%%%%@@o$%%&@%%%o%@@$%%$%%%o@$%%%%%$$$$$$$$%$$$$oo$%&%",
"&%&&&&&%&&&&%*&$%$&*&&&&&&%&&%&&&&&&%%%&*&&%&&&&%&%&&*&**%%%%***",
"o$o&&.... ..... ..*&*%..X......X..X... .X.%**9,422554533sg2@%oo%",
"%%o&5TTTTTTTTTTTTG6qqvDDDDDDGTTTDDSSDDDDTTbwq6GTTTTGTTTGDSS>%o$%",
"%@$&jMFFAAASFFFNMMU!!vAAAANNNVVNmmCSAACnMMc!!UNNNNCNCAASSAAM%$o%",
"oo&4nnnnVmmnnmnnNAY~~vBNNVMMnmmVNCFSFANMMMz~~Ykhkkkkkgxg533i:%@o",
"&&&hnnAFZSSSSSSSSScTTvSSSSSSSSSSDSSSSSDSSSxTTzDDDSSSSDSSDDSSj%%%",
"%sASDSDSSSSDSADSSAcRTxSAAFZZFASSDSSSSSSSAAxTRcNNZZFAZASSSSSSSAg%",
"%;2aa3aidkkhhhggdicRR8hhhhfjhhhhkpiiipkkhh8TRcfkffffhhhhhkkdi3,&",
"%@%-uuuuuuuuuuuuuuHEE1uuuuuuuuuuuuuuuuuuuu<EEHuuuuuuuuuuuuuu-%%%",
"@o&#uuuuuuuuuuuuuuY~~<uuuuuuuuuuuuuuuuuuuu<~~Yuuuuuuuuuuuuuu#&$$",
"%%%%-uuuuuuuuuuuuuPQQ1uuuuuuuuuuuuuuuuuuuu1QQPuuuuuuuuuuuuu-*&%%",
"%%@%#uuuuuuuuuuuuuqqq1uuuuuu-uuuuuuuuuuuuu<qqquuuuuuuuuuuuu%&$%$",
"$@@%&#+O+O++++++++%&%%++++#++#++++O++##++##%%%++#+++O##O+##%%@$$",
"&&&&&&%%%%&&&&*&&&&**&&&&&*%$$%%=*&&&&&&&&&&%&&&%$%%%&&&&&*9&***",
"@@@$@$o@@@$%%%&%%$$$$$@$@$$$@@$$%%$&&%%@%%%@$@$$@@o#$$%%%%%$@$%$",
".o*****&=========&======******=====00=*=****==*=&**==**====*=&oX",
"ortttttrrrttttytterrtttrtrtttrrrtyttttrrtttttrtttrrrtttyytttrtro",
"&yrrtrtwrrrrytttterrtrtrrttrr0trtttyrtrertrttertrrqtrrtttttrwet&",
"*trIYtrrrrrttyttttttrrrtttttrrrrrttytttttrtrrtttttrrrttttytUItt=",
"*trLUrryyttytyytrtyyytrtytytttytytyyttrtytttryytttttyttyytrULtt9",
"9ytttttttytytyyttttytyytytrrrryyyytttertyytttyyttttttyttyyrqtty0",
"=yttttrqqqq0qqq00qqqqqq00r06eqrtreer000r0ee6qqq0qqqqqqqqqtrrttyq",
"=ttytyteeeqeeqeeeqqeeeeqerrrrrreerre0tr0re0eeeeeqqqrrqrqqrtrrtt0",
"9ttytyreqeeqee0eeeqeee6ee0reyetttr0ttqqeeqeqeeqeqqrqreqrettrrrtq",
"9trtyyt=====*90*==*=*=0*===errtrrrrrq=======*=======*==*=rrrrqr=",
"9trytytqrqwq0reeeqqqqeeqertrrtrererrqeeqqqqq8eqqqqqqwqqqqttrrry9",
"=ttytytrqqqqer006eeqeeqrerrtttrtrrrrtretqeqqe0eeqeqqrqqqqtyttrt=",
"*ttytyt0q99q=960000000rerttrrrq=000tetterqqq=9q9w990=q9=qryyttt9",
"=rrtyytqqqqqqq0q0eq0ee0errrre0qqe0e0trrtrrrqqqqqqqqqqqqqqtytytt0",
"=rqttytqqqqqqqqqeeeereqq0treeqqqee0e0rrrrrrrqeqeqqqqqqqqqtyyyty0",
"9trttytqqq9q=qq=eetetrqqt0000qq=000r06qqtrrrqrq9qq0q=qqqrrytttt0",
"=ttrtyreqq00eq0eqrrtrrqr06q9qq0q000qqq=e0teerrqrqqq0q00r0tytyty0",
"=tttrte0qreqqererrrrtrqq0qqqqqqqeeqqqeqqeeerereeqeeqert0eeyttty0",
"=trtty00reerrrqtrrrrqqqq0eqqqqqqqq0qqqqq0q0qrrerr=qtr0ereryttyy0",
"=ttttyreqqerrerretq9q09q009=q0=q0q==0==q=00=qqrtqq=q0rreeyyttry0",
"0trtrytetettttrtteqrqeqeeeerqqeqrr0rqqeerqqrqeerr00rrtrrttyttry0",
"=ttttyrreertrtrrrqqqqqqqe0e0wqqq00r0qqqqqqqqqqqrq=qttrrtetyttry0",
"=yrtttt00r60rrtrr6q*====*=**======0*====*===06rrrq06errrrttttrt=",
"=ttrtyr00rrtrrrer0qrqeqqeeqrqqqqee0r0ee6rqqrrqqtertrrrrtreyrret0",
"=ttttye=eteqeeetr0rrr0reqqeqeqqre0eeeqqeeet6errrrrr0eerttrytttt0",
"=trttteqq9*=*===errrrrr0=====9==========qqererr00======0rtyttty=",
"=tttttteeqqqeeeqerrrrr0rrqqqwqqqqqq0qeetett0etee0e6eqqqqetretty0",
"0yttttreqqqqe60r0rretrrtrrreqqqeqeeqreertrtrreqe0eeqee0eettrtty0",
"0ttytyt0q99q=00=0=9q0rertrqrqqq=600r000rrtrq00q=000000006etrrty0",
"0ytytyrqqqq0qqqqqqqq0qqrtrtrqqqq0ere0re0req000q0qqr0r00e0rtetry0",
"=trttyteqqqqqqqqqqqqqeeqrrrrtrrrr0rtr=rreeqreeqee00er0qqetrrret=",
"0trytyt0q0qq9qq=qq0q0000qqrtrrrtrrr00r00q0000000qq0e00000rrrrrt=",
"=ttytyt00000e00e0qq=qq9q9qqqyrtrtrqtrq0q=qq0qq0q000qr0000yyttrt*",
"=ttttJt0rr0eeeqqqqqqqqqqqqqrrtttttrtreqqqqqqqeqqqqqe0r0r0tyytty=",
"*tttyyt600eeqqq0q0qqqqqqqrrrrtrrrrrrereqqq0qqqqqqqq000qqrtytyry=",
"=rettyte0000q00e=qq=qq0e9qrrqrrtqrqqrqrr=qq9q00q=q006q0e0tttytt0",
"=tettytryytyyyyyyyyyytttrtttttyyyyytttttyyyyttttyytyyyytyyytyry0",
"=ttyKttrtttttttyytyyttttrtttrtttttytyyytytttttttytryttyttttKJty0",
"=trYWtttttttttttytyytttttttttrtrtttttytyyttttttrttrtrrtyttyWUty=",
"&yryJeqqrrrrrrtyttttttrtrtrrqrtrrrrttttttttrttrtrqrtrrrrtytJyty%",
"$eytyyrttrrytytytytyyytttyytrtrrytttyytyyyytyttytrrtrtytttyyyyt$",
"$%=099=*0=0000000qq0q000000====00q00q0q000q00000====*000000000&$",
"@$$@$$o@$@$&$$&$$$$$$$$%$$$oo$$$$%$%*$$$$$$$$$$$$o@@%$$$&%%$@$$@",
"@$@@$$X$$@$$$$&$o$$$$$o$$o$$o@$$$$$$&$X$%o$%$o$$@$o@&$o%%o$%@@$@",
"o%@o%$X$$ $&@$$@o$oX$$o%$X$$oo@o$%$o$$X$$X$$X@$oo$XX$$X*%X$$Xo$@",
"o$@o&$X@$X$$@$$$@$oo$@X$%o$%oo$oo%$$&$X$$X$$X$$$$$oX$$X%*X%%X@$o",
"X$oX$$X$$ @$@$&@o$@o$$ $$X$$Xo$oo$$o$$X$%X$$X$$$@$$X$$X%&X$$X$$X",
" XX XX oX XX XX  XX oX Xo Xo XXXXXXXXX oX XX XX  XX XX oo XXXXXX"
};
