/* XPM */
static char *Porta_chiusa[] = {
/* columns rows colors chars-per-pixel */
"64 64 214 2 ",
"   c #0C0F0E",
".  c #26160F",
"X  c #2E2B1F",
"o  c #392918",
"O  c #142432",
"+  c #2E2F30",
"@  c #523618",
"#  c #6B2D00",
"$  c #6F3601",
"%  c #753600",
"&  c #743B07",
"*  c #633914",
"=  c #7E3E11",
"-  c #493F27",
";  c #7D4104",
":  c #78471B",
">  c #574C36",
",  c #6E4223",
"<  c #694524",
"1  c #734624",
"2  c #764A22",
"3  c #7B4E24",
"4  c #784C2A",
"5  c #7D512A",
"6  c #6D4D37",
"7  c #7A5534",
"8  c #2D5459",
"9  c #385F7B",
"0  c #356A71",
"q  c #5B5449",
"w  c #5C5F5D",
"e  c #6A584A",
"r  c #486E5C",
"t  c #6A6356",
"y  c #736453",
"u  c #786855",
"i  c #4D5F69",
"p  c #4D6678",
"a  c #586A77",
"s  c #59727A",
"d  c #676869",
"f  c #677278",
"g  c #7A7A79",
"h  c #983800",
"j  c #844407",
"k  c #964706",
"l  c #9B4E0B",
"z  c #9D510A",
"x  c #864B17",
"c  c #89571D",
"v  c #965115",
"b  c #A14E0B",
"n  c #A2550D",
"m  c #B5590D",
"M  c #A65713",
"N  c #AB5512",
"B  c #A75815",
"V  c #A95B17",
"C  c #B85D13",
"Z  c #9C6813",
"A  c #AD6C0D",
"S  c #AB7806",
"D  c #BA631A",
"F  c #845324",
"G  c #8A5725",
"H  c #8C5A24",
"J  c #84552A",
"K  c #89562B",
"L  c #86592D",
"P  c #905F2F",
"I  c #834A39",
"U  c #895731",
"Y  c #855B32",
"T  c #8B5B31",
"R  c #915F30",
"E  c #A65C30",
"W  c #976225",
"Q  c #91602E",
"!  c #9A652C",
"~  c #9F6929",
"^  c #8A6033",
"/  c #916031",
"(  c #A0692A",
")  c #BA6728",
"_  c #AB6A34",
"`  c #AB7135",
"'  c #CB5A15",
"]  c #C8611B",
"[  c #CD7229",
"{  c #E57F33",
"}  c #926559",
"|  c #B76343",
" . c #A77548",
".. c #AE6F54",
"X. c #8F7E6E",
"o. c #C96C48",
"O. c #54807E",
"+. c #B78204",
"@. c #AE8116",
"#. c #BA8D16",
"$. c #B38618",
"%. c #BC8E1D",
"&. c #BE901C",
"*. c #BA8D20",
"=. c #B88D2A",
"-. c #C68407",
";. c #C79115",
":. c #C4961C",
">. c #EE9D0E",
",. c #ED9F11",
"<. c #E39D19",
"1. c #F2A30F",
"2. c #F1A210",
"3. c #E8873A",
"4. c #FECD06",
"5. c #FFCC09",
"6. c #FFD505",
"7. c #FED10A",
"8. c #EEC210",
"9. c #FFE03A",
"0. c #B69353",
"q. c #A1836B",
"w. c #CF8B50",
"e. c #E58A46",
"r. c #E58A48",
"t. c #E9934A",
"y. c #E99655",
"u. c #DA9C68",
"i. c #EFA86E",
"p. c #FBDE49",
"a. c #F4DF70",
"s. c #F9E579",
"d. c #386180",
"f. c #446A86",
"g. c #4A6F8A",
"h. c #516D82",
"j. c #47708E",
"k. c #4D718C",
"l. c #57748A",
"z. c #4C7593",
"x. c #547691",
"c. c #587B95",
"v. c #5A7D9A",
"b. c #677888",
"n. c #647A8C",
"m. c #7A7B81",
"M. c #6C7F92",
"N. c #877E81",
"B. c #75828B",
"V. c #64839C",
"C. c #6A859B",
"Z. c #728694",
"A. c #739192",
"S. c #5C84A6",
"D. c #6485A3",
"F. c #6988A3",
"G. c #6C89A2",
"H. c #6C8DAC",
"J. c #738DA5",
"K. c #738EAA",
"L. c #7892A6",
"P. c #7B95AE",
"I. c #6E96B7",
"U. c #7393B2",
"Y. c #7C96B1",
"T. c #7698B6",
"R. c #7C98B3",
"E. c #7B9CBB",
"W. c #749DC2",
"Q. c #799FC2",
"!. c #76A0C3",
"~. c #7BA2C5",
"^. c #77A2C8",
"/. c #7DA5C9",
"(. c #978885",
"). c #8F8F92",
"_. c #A7978A",
"`. c #A59C94",
"'. c #B2A89F",
"]. c #8197B0",
"[. c #829AB3",
"{. c #839EBA",
"}. c #99A6A8",
"|. c #87A2BC",
" X c #D0A693",
".X c #FCE780",
"XX c #D3C3AF",
"oX c #82A4C5",
"OX c #89A7C6",
"+X c #82A7CA",
"@X c #85AACC",
"#X c #8AACCD",
"$X c #91AECF",
"%X c #84ABD0",
"&X c #8BAED1",
"*X c #91AFD0",
"=X c #8EB1D3",
"-X c #8EB3D9",
";X c #93B3D5",
":X c #98B5D7",
">X c #95B5D9",
",X c #98B7D9",
"<X c #9CBADC",
"1X c #AEBEC9",
"2X c #A0BDDF",
"3X c #97BBE0",
"4X c #9CBCE1",
"5X c #A2BEE1",
"6X c #B8C8D4",
"7X c #A5C1E4",
"8X c #A9C4E6",
"9X c #A5C3E9",
"0X c #AAC6E9",
"qX c #D4D5CB",
/* pixels */
"3.i.d + 6XXX3.e.e.e.e.3.u.g + 1XXX3.r._.J.[.[.[.[.R.L.E.{.[.[.n.l.[.R.L.R.{.[.[.[.].[.J._._.. }.qXr.3.e.e.e.e.e.e._.O ).qXt.3.r.",
"k [ V t XXh l l l l z k D D q XXh ( g E.7X7X7X<X4X7X8X7X7X<X<XD.v.0X8X<X;X7X5X7X7X<X;X7XoX(.e qXN k z l l l l l b { * XX) h l l ",
"M m : 6 3.k M M M M M M m = > 3._ B.#X7X<X<X5X@X;X5X;X<X5X2X7XD.v.<X>X2X2X>X+X5X5X<X<X<X7X&XC.u.m z M M M M M M B b - w.D z M M ",
"n ' d 0 3.b M B B B M b ' } A.`.L.,X0X7X>X<X7X<X2X;X#X<X#X@X7XD.v.;X@X5X5X<X,X<X<X5X7X>X>X0X<XU.(.X.V M M M M M N | 8 w.] z B M ",
"z ] } r 3.k M n n n b .. X(.f.v.D.D.D.D.D.D.#X7X5X<X#X<X+X/.5XD.v.<X>X5X<X2X7X=X#X;XD.D.D.D.D.D.S.f.X. . .M n n n o.> w.C z M M ",
"C [ 4 6 i.m m ] ) D q.K.#XoXx.x.x.x.x.x.x.f.F.<X5X;X<X;X<X;X7XD.x.=X#X>X;X;X>X<X,XL.f.x.x.x.x.x.x.z.D.*XU.q.) D ' _ 8 u.[ B D D ",
"| I   O `.` x E ..N.H.;X<X&X<X<X;X5X5X;X<XL.9 oX7X>X,X~.+X=X;XD.k.~.#X<X2X<X~.@XOX9 F.4X;X5X5X;X,X<X#X<X>XU.m...} .   n.w.k k x ",
"r @ X X o > 0 8 h.+X<X~.#X>X@X@X&X=X7X@X;X<XH.f.OX,X~./.&X/.;Xv.x.#X@X#X&X~.@XoXg.D.<X>X+X7X;X#X#X/.>X&X~.>X#Xn.O.+ o X @ >   . ",
"XX3.y.t.t.e.'.U.<X0X;X<X7X;X/.&X;X&X<X<X4X7X#Xk.V.#X=X&X=X&X/.v.x.;X@XW.;X<X;XF.g.oX7X2X<X<X;X;X=X/.=X5X4X;X8X<XR._.y.t.t.'.O k ",
"N M N N _ g x.U.U.H.F.H.U.#X=X5X7X,X#X#X,X5X0XE.9 S./.%X/.>XW.z.z.W.%X/.W.-X~.d.H.0X2X<X#X#X;X7X5X;X=XT.H.F.H.U.U.x.f _ N e.* k ",
"n M M  .Z.D.k.g.g.g.g.f.g.#X;X#X<X@X~.;X&X<X,XV.t y y u t e y y y y y t e y e > l.>X5X&X;X~.@X<X#X=X;Xx.f.k.g.g.g.k.D.C. .N @ v ",
"M M M g ;X7X;X<X<X:X,X;Xf.x.7X,X~.~.;X2X7X#Xh.7 P P P P G : G P P P P F : P H j * a @X7X5X;X~.~.>X8XV.9 $X<X,X<X<X;X2X<XB.| 8 c ",
"M V X.K.=X&X#X=X7X;X@X5XoXk.D.7X<X&X,X9XQ.d 1 F / P P Q J 2 K R P P / 5 2 K / / x % q T.9X4X&X<X7XH.g.{.5X&X&X7X;X&X&X=XY.(.0 c ",
") X.E.<X/.~.,X@X2X,X<X5X5XD.f.OX8X~.n.B.t L : J / P P Q J 2 K R P Q / F 2 K P R / G : q f f E.9X;Xk.v.2X5X<X,X5X@X>X+X~.<XoXc.` ",
"B.~.<X#X=X<X2X<X;X#X<X5X5X<Xg.z.T.d K H P K 2 J / P K Q J 2 K P P Q / J 2 K P K P / 3 3 x % q U.v.f.;X5X5X<X#X=X<X5X2X;X@X<X@Xn.",
"H.7X+X@X=X&X2X>X~.&X&X>X5X7XE.p 6 K P P P K 2 J / P K Q J 2 K P P P / J 2 K P K P P 3 3 / K j , i T.7X7X>X#X&X~.;X5X=X&X@X/.5XU.",
"L.@X~.&X+X&X@X~.@X@X@X<X7X~.f 4 : Q T P P K 2 J / P K Q J 2 K / P P P F 2 K / Q / K 3 5 P / R x & w Q.7X<X@X@X@X~.@X&X+X#X~.+XR.",
"K.=X&X=X@X~.&X#X;X@XW.>X{.t K 3 3 K P P P K 2 J / P K Q L 2 K / P K Q F 3 K / P / P 3 5 P P / / x % > Y.>XT.+X=X#X#X~.@X&X&X=XY.",
"V.+X#X@X;XW.~.;XW.#X+X/.V.L P 3 5 P R P Q K 2 J / P P Q L 2 K / K K P 5 3 K Q K P K 3 5 P P K / H % % n./.~.#XW.=X~.T.;X#X&X@XF.",
"f.g.k.k.k.g.g.k.g.g.k.g.f.^ P 3 5 P P P Q K 2 J / P K Q J 2 K / K K P 5 3 K P K P K 3 5 P K K / G % % p j.k.k.g.k.k.g.k.g.k.g.f.",
"J.#X#XoX+X#X#X#X#X#XoX@XC.Y P 3 5 P K K Q K 2 J / K K Q L 2 K Q P P / 5 2 K Q P P P 3 3 P K P / G % $ n.#XoX#X#X#X#X#X#XoX#X#XP.",
"R.0X7X@X<X5X;X<X&X>X<X-XF.Y P 3 3 P K K / K 2 J / P P Q J 2 K Q Q Q / J 2 K Q K P P 3 5 P P P / G % $ n.-X<X,X&X4X;X5X4X@X7X0X|.",
"P.7X5X;X2X<X+X,X~.@X,X>XJ.Y P 3 3 K K K / K 3 J / P K Q J 2 K Q P Q / J 2 K Q K P P 3 3 P P P / H % % M.>X>X&XW.;X@X<X5X;X5X7X[.",
"Y.7X;X&X;X2X5X<X;X<X>X4XF.Y P 3 3 K K K / K 3 J / P P Q L 2 K Q P / / J 2 K / P P P 3 3 P P P / H % $ n.4X,X<X;X<X5X2X;X&X;X7X{.",
"Y.8X;X#X~.<X<X#X=X/.@X4XC.Y P 3 3 P P P P K 2 J / P P Q J 2 K / P P P F 2 K R P P P 3 3 P P P / H % $ n.4X&X~.=X&X<X<X~.@X;X7XE.",
"[.5X@X&X@X~.@X&X+X#X/.%XF.Y P 3 3 P P K P K 2 J / Q K Q L 2 K / P K P F 2 K R K P P 3 3 P P P / H % $ n.%X~.#X+X#X#X~.+X#X@X4X|.",
"[.=XT.@X=X&X&X~.#X=X&X=XF.Y K 2 2 T T T T K 1 5 T T T K J 1 J T T T T 4 2 K T T T K 2 3 T T T T F % $ n.-X&X=X&X~.#X&X=X#XW.%X|.",
"F.~.@X@XT.;XT.~.;X@X#X/.v.Q ( H H ~ ~ ~ ( W c W ( ( ( ( W c W ( ~ ( ( W c ~ ( ( ~ ~ c H ( ~ ~ ( W j j h.^.#X@X;X~.T.;XQ.+X@X~.J.",
"f.k.x.k.g.k.k.k.k.k.k.j.s <.1.2.2.2.2.2.2.2.2.2.2.2.2.2.2.2.2.2.2.2.2.2.2.1.2.1.2.2.1.2.2.2.2.2.2.1.,.s j.k.k.k.k.k.k.k.g.x.k.f.",
"K.#X#X*X*X#X*X#X#X+X#X*XA.8.4.5.5.5.5.5.5.5.5.5.4.5.5.5.5.5.5.4.5.5.5.5.5.5.5.5.5.5.5.5.4.4.5.5.5.7.5.A.&X#X+X#X#X$X#X$X$X#X@XP.",
"J.=X<X;X&X<X;X7X>X@X7X0XL.$.&.$.$.%.&.%.%.%.@.$.%.%.%.&.%.@.%.&.%.*.*.$.S %.*.*.%.%.$.$.%.%.%.%.%.S S Z.9X7X#X;X7X;X<X=X=X2X;XY.",
"L.;X<X@X~.,X+X5X<X>X5X7XJ.7 K 1 2 T T T T J , 4 T T T T 5 , J T T T T 4 , J T T T T 1 2 T T T T F # # M.9X5X,X<X5X@X;X/./.<X=XT.",
"P.4X;X<X;X<X2X<X=X#X>X7XJ.Y P 3 3 P P P Q K 2 J / K K Q J 2 K R K K P F 2 K P P P P 3 3 P K K / G % $ M.9X,X&X=X<X5X2X;X<X>X4XR.",
"J.4X/.+X=X&X<X;X!.&X>X7XJ.Y P 3 3 K P P Q K 2 J / P P Q L 2 K / K K Q F 2 K P P / P 3 3 P P P / G % $ M.9X<X&X!.;X2X&X&X@X/.<XP.",
"J.@X~.#X+X&X@X/.@X@X&X7XJ.Y P 3 3 K K P Q K 2 J / P K Q L 2 K Q Q Q Q F 2 K / Q / Q 3 3 Q P P / G % % Z.7X&X@X@X~.@X&X+X&X/.+XL.",
"K.=X&X=X@X~.&X&X;X@XT.>XL.Y P 3 3 P K Q Q K 2 J / P K Q L 2 K Q Q Q / J 2 K Q Q / Q 3 3 / P P / G % $ Z.,XT.+X=X#X&X~.@X&X=X=XP.",
"V./.#X@X;XT.Q.;XT.@X+X~.V.Y P 3 5 P Q Q P K 2 J / Q P Q J 2 K Q / / / J 2 K Q P P P 3 2 T K K / G % % n./.oX#XT.=X~.T.;X@X&X/.C.",
"h.g.k.k.k.k.k.k.k.k.x.k.f.T P 3 5 P Q Q P K 2 J / Q K Q J 2 K / K R / J 3 K Q P P T 3 A *.0.` K G % % p k.x.k.g.k.k.k.k.k.x.g.h.",
"K.;X#XoX#X$X*X$X*X*X#X#XC.Y P 3 5 P P K P K 2 J / P P Q J 2 K / K K R J 2 K P K T Q ;.5.6.9.a.=.G % $ n.&X+X$X;X#X$X$X#XoX#X;XP.",
"T.0X7X@X<X5X=X<X&X>X<X-XF.Y P 3 5 K P K P K 2 J / P P Q J 2 K / K K R 5 2 K P / F A 7.7.5.4.p..XZ % $ n.-X<X>X%X<X;X2X<X+X5X0XE.",
"E.7X5X;X2X<X@X,X~.@X,X>XJ.Y P 3 5 P P K Q K 2 J R P K Q J 2 K P P P / J 2 K P / : A 7.7.5.4.p.s.Z % % M.>X>X&X!.;X@X<X5X;X5X7X[.",
"Y.7X;X&X;X2X5X<X;X<X>X<XF.Y P 3 5 P P K Q K 2 J R P P Q L 2 K P P Q / J 2 K P / F & -.5.6.9.a.=.G % % n.4X,X<X;X<X5X2X;X&X;X7X[.",
"P.8X;X#XQ.<X<X#X=X/.@X<XC.Y P 3 3 P P P Q K 2 J R P K Q L 2 K P P P / J 2 K P P / F & Z S 0.` K G % $ n.4X@X/.&X&X<X<X~.@X;X7X{.",
"Y.5X@X@X@X~.#X#X/.&X/.%XF.Y P 3 3 K P P Q K 2 J / P P Q L 2 K P K K / J 2 K P P P Q 3 1 J K K / G % $ n.%X~.@X+X#X#X~.+X#X@X<X|.",
"[.=XT.#X=X&X#X~.&X=X&X=XF.Y K 3 2 K T T T K 1 5 T T T T J 1 J T K K T 5 2 K T T T K 3 3 T T T T G % $ n.-X&X=X=X~.@X=X&X&XW.%X|.",
"F.W.+X+XT.$XT.W.;XoX+XW.v./ ! F F ! ! ! ! Q c H ! ! ! ! P F P ! ! ! ! H F Q ! ! ! ! F F ! ! ! ! H j ; h.W.+XoX;X~.I.*XT.~.+XT.F.",
"h.k.x.g.g.k.g.k.k.k.k.j.s <.1.,.,.,.,.,.,.,.,.,.,.,.,.,.,.,.,.,.,.,.,.,.,.,.,.,.,.,.,.,.,.,.,.,.,.>.<.f j.g.k.k.k.g.k.g.g.x.k.f.",
"K.&X#X;X;X;X;X;X#X#X;X>XA.8.4.5.5.5.5.5.5.5.5.5.5.5.5.5.5.5.5.5.5.5.5.5.5.5.5.5.5.5.5.5.5.5.5.5.5.5.5.A.>X;X#X#X;X;X;X;X;X#X#XU.",
"L.;X<X=X&X<X=X7X>X@X7X9XL.*.:.#.#.:.:.:.:.:.#.&.:.:.:.:.&.#.:.:.:.:.:.#.#.:.:.:.:.:.#.#.:.:.:.:.:.+.S Z.9X7X&X;X7X=X<X&X&X2X;XR.",
"P.;X<X@X/.,X@X2X<X>X5X7XJ.7 K 1 1 T T T T J , 4 T T U T 5 , J T T T T 4 , U T T T U 1 1 T T U T F # # M.9X5X>X<X5X@X;X+X+X<X;X[.",
"K.4X;X<X;X2X5X<X=X#X>X7XJ.Y P 3 3 K P P P K 2 J / P Q Q J 2 K R P K R J 2 K P K P K 3 3 / P K / H % % M.9X>X&X&X<X5X2X;X<X;X4XP.",
"J.4X/.+X&X&X<X;X!.&X>X7XJ.Y P 3 3 K P K P K 2 J / P P Q J 2 K R K K R J 2 K P K P K 3 3 P P K / H % % M.9X,X&X!.=X<X&X&X@X~.<XP.",
"J.@X~.&X/.&X@X!.@X@X@X7XJ.Y P 3 5 P P K P K 2 J R P P Q J 2 K P P K R J 2 K P P P P 3 3 R K P / G % $ Z.7X@X@X#X~.+X=X~.&X+X/.L.",
"K.>X&X=X&X~.&X&X=X@XT.>XL.Y P 3 5 K P K P K 2 J R K P Q L 2 K P P K R 5 2 K / P Q P 3 3 R P Q / G % $ Z.,XT.@X=X=X&X~.&X=X=X;XP.",
"V.~.@XoX;XT.W.&XT.+X~.W.V.Y P 3 5 P P K P K 2 J / P K Q L 2 K Q Q P / J 2 K / Q P P 3 3 R K Q / G % % n.!.~.@XT.#X~.I.;X+X@X~.V.",
"h.g.k.k.k.g.g.k.g.g.k.k.f.T P 3 5 P P P Q K 2 J / P K Q L 2 K / K K / J 2 K Q Q P P 3 3 R P Q / G % % p k.k.k.g.k.k.g.k.k.k.g.h.",
"K.:X;X@X&X;X;X;X;X;X#X&XF.Y P 3 5 Q Q P Q K 2 J / P P Q L 2 K R K K Q J 2 K P P P Q 3 5 Q P P / G % $ n.=X#X;X;X;X;X;X&X@X;X;XL.",
"[.8X7X@X<X5X=X<X@X;X<X-XF.Y P 3 5 Q K K Q K 2 J / P P Q L 2 K / P P / J 2 K P K Q P 3 5 Q K P / G % $ n.-X<X;X@X<X=X2X<X+X5X8X|.",
"R.7X5X;X<X<X@X<X~.#X,X>XJ.Y P 3 3 P K K Q K 2 J R K P Q L 2 K Q Q Q / J 2 K / Q P P 3 3 Q K P / H % $ M.>X>X&X~.;X#X<X5X;X5X7X|.",
"P.7X;X&X=X2X5X<X;X<X;X<XC.Y P 3 3 K K K Q K 2 J R K K Q J 2 K Q Q Q / J 2 K Q Q P P 3 3 Q K K / H % $ n.4X>X<X;X<X5X2X;X&X;X7X{.",
"Y.8X;X&XQ.,X<X#X=X/.@X<XC.Y P 3 5 P K K Q K 2 J R K P Q L 2 K Q P K / J 2 K Q Q P K 3 3 Q P P / H % $ n.3X@X/.=X#X<X<X~.@X;X7X{.",
"P.5X@X#X@X~.@X&X/.&X~.@XF.Y P 3 5 P K K Q K 2 J / K Q Q J 2 K R P K / J 2 K Q P P P 3 3 P K P / H % $ n.%X~.&X+X#X#X~.+X&X+X<X{.",
"[.=XT.@X=X=X#X~.&X&X&X=XF.Y P 3 5 Q Q Q Q K 2 J / P Q Q J 2 K / K K P J 2 K P K P P 3 3 P P P / G % $ n.-X&X&X=X~.@X=X&X&XW.@X|.",
"V.T.~.~.T.OXI.U.OXQ.oXE.v.Y T 4 3 K ^ L K L 2 5 ^ T ^ ^ L 2 L K K T ^ 5 2 K T L L K 3 3 T T T ^ G & & s T.Q.oX#XE.H.#XT.~.oXT.F."
};
