/* XPM */
static char *Porta_aperta[] = {
/* columns rows colors chars-per-pixel */
"64 64 193 2 ",
"   c #000000",
".  c #051516",
"X  c #1B1A18",
"o  c #26160F",
"O  c #2E2B1F",
"+  c #392918",
"@  c #142432",
"#  c #2E2F30",
"$  c #522C15",
"%  c #523A19",
"&  c #613916",
"*  c #7E3E11",
"=  c #493F27",
"-  c #71421D",
";  c #554D34",
":  c #6F4B35",
">  c #3B4957",
",  c #265959",
"<  c #385F7B",
"1  c #296666",
"2  c #38776D",
"3  c #3E627F",
"4  c #5A5249",
"5  c #5C5F5D",
"6  c #6C564B",
"7  c #416C5F",
"8  c #507159",
"9  c #4D5F69",
"0  c #4E6475",
"q  c #4D6B7F",
"w  c #586A77",
"e  c #59727A",
"r  c #676869",
"t  c #657177",
"y  c #7A7A79",
"u  c #983800",
"i  c #944505",
"p  c #984A06",
"a  c #9B4E0B",
"s  c #9C5103",
"d  c #9D500D",
"f  c #874919",
"g  c #8C581B",
"h  c #965115",
"j  c #A14E0B",
"k  c #A2550D",
"l  c #A9560C",
"z  c #B5590D",
"x  c #A65713",
"c  c #AB5512",
"v  c #A75815",
"b  c #A95814",
"n  c #A95D1A",
"m  c #B85D13",
"M  c #B96217",
"N  c #BB641C",
"B  c #834A39",
"V  c #A15F23",
"C  c #AB583E",
"Z  c #BA6728",
"A  c #AB6A34",
"S  c #B0603D",
"D  c #AD7337",
"F  c #CB5A15",
"G  c #C8611B",
"H  c #C36A21",
"J  c #D87B2B",
"K  c #CD7134",
"L  c #85665E",
"P  c #986556",
"I  c #B76343",
"U  c #A77548",
"Y  c #AE6F54",
"T  c #997E64",
"R  c #857D77",
"E  c #C96C48",
"W  c #54807E",
"Q  c #EB8734",
"!  c #E4833A",
"~  c #EC8D3C",
"^  c #998570",
"/  c #A98167",
"(  c #D48947",
")  c #C98E59",
"_  c #E68944",
"`  c #E58A46",
"'  c #E58A49",
"]  c #E9934A",
"[  c #E48E52",
"{  c #EB9A56",
"}  c #D59566",
"|  c #E59F66",
" . c #D3A06C",
".. c #EFA86E",
"X. c #386180",
"o. c #426682",
"O. c #456984",
"+. c #456E8D",
"@. c #4A6F8A",
"#. c #516D82",
"$. c #47708E",
"%. c #4D718C",
"&. c #5B7383",
"*. c #51738F",
"=. c #5C788B",
"-. c #4C7491",
";. c #4C7898",
":. c #547691",
">. c #547894",
",. c #5D7D94",
"<. c #557B9C",
"1. c #5A7D9A",
"2. c #677888",
"3. c #647A8C",
"4. c #7A7B81",
"5. c #6C7F92",
"6. c #877E81",
"7. c #5E829E",
"8. c #75838D",
"9. c #7B908B",
"0. c #64839C",
"q. c #6A869D",
"w. c #728393",
"e. c #738A95",
"r. c #619190",
"t. c #75919A",
"y. c #5C84A6",
"u. c #6485A3",
"i. c #6B87A0",
"p. c #6788A4",
"a. c #678AA9",
"s. c #6C8DAC",
"d. c #738DA5",
"f. c #738EAA",
"g. c #7590A7",
"h. c #7993A6",
"j. c #7B95AE",
"k. c #6E96B7",
"l. c #7393B2",
"z. c #7C96B1",
"x. c #7698B6",
"c. c #7C98B3",
"v. c #7B9CBB",
"b. c #7EA0BF",
"n. c #749DC2",
"m. c #799FC2",
"M. c #76A0C3",
"N. c #7BA2C5",
"B. c #77A2C8",
"V. c #7DA5C9",
"C. c #978885",
"Z. c #8F8F92",
"A. c #A7978A",
"S. c #A59C94",
"D. c #B2A597",
"F. c #8197B0",
"G. c #829AB3",
"H. c #839EBA",
"J. c #99A6A8",
"K. c #89A2BB",
"L. c #B2ABA6",
"P. c #D29385",
"I. c #CFB9A2",
"U. c #DAC2A7",
"Y. c #CFC4B4",
"T. c #82A4C5",
"R. c #89A7C6",
"E. c #82A7CA",
"W. c #85AACC",
"Q. c #8AACCD",
"!. c #91AECF",
"~. c #84ABD0",
"^. c #8BAED1",
"/. c #91AFD0",
"(. c #8EB1D3",
"). c #8EB3D9",
"_. c #93B3D5",
"`. c #98B5D7",
"'. c #95B5D9",
"]. c #98B7D9",
"[. c #9CBADC",
"{. c #AEBEC9",
"}. c #A0BDDF",
"|. c #97BBE0",
" X c #9CBCE1",
".X c #A2BEE1",
"XX c #B8C8D4",
"oX c #A5C1E4",
"OX c #A9C4E6",
"+X c #A5C3E9",
"@X c #AAC6E9",
"#X c #D3D3C7",
"$X c #D5D7D3",
/* pixels */
"! ..r # XXI.! ` ` ` ` ! | y # {.Y.! ' A.d.G.G.G.G.c.g.v.H.G.G.3.=.G.c.g.c.H.G.G.G.F.G.d.A.A.X J.#X' ! ` ` ` ` ` ` A.@ Z.$X[ ! ' ",
"i H n 5 U.u d a a a d i N N 4 Y.u V y v.oXoXoX[. XoXOXoXoX[.[.u.1.OXOX[._.oX.XoXoX[._.oXT.C.6 #Xc i d a a a a a j J & Y.Z u d a ",
"x z - : ~ p v x x x x x z * ; ~ A 8.Q.oX[.[.oXW._..X_.[..X}.oXu.1.[.'.}.}.'.E..X.X[.[.[.oX^.q.} z k x x x x x x b j ; ( M d v x ",
"k F r 2 ~ j b b b b v j F P r.S.g.].@XoX'.[.oX[.}._.Q.[.Q.W.oXu.1._.W..X.X[.'.[.[..XoX'.'.@X[.l.C.T n v v v v x l I , ) G d b v ",
"s G L 8 Q i v k k k j Y P.C.o.1.u.u.u.u.u.u.Q.oX.X[.Q.[.E.V..Xu.1.[.'..X[.[.oX(.Q._.u.u.u.u.u.u.y.o.R U U x k k l E ; ( m a v x ",
"m K : : ..z z H Z N / f.Q.T.>.:.:.:.:.:.:.O.p.[..X_.[._.[._.oXu.>.(.Q.'._._.'.[.].g.O.:.:.:.:.:.:.-.u./.l.^ Z N F S ,  .J b m M ",
"I B   @ S.D f C Y 6.s._.[.^.[.[._..X.X_.[.g.< T.oX'.].N.E.(._.u.%.N.Q.[.}.[.N.W.R.3 p. X_.}..X_.].[.Q.[.'.l.4.Y P o   3.) p p f ",
"7 $ O O + ; 1 > #.E.[.N.Q.'.W.W.^.(.oXW._.[.s.O.R.].N.V.^.V._.1.:.Q.W.Q.^.N.W.T.@.u.[.'.E.oX_.Q.^.E.'.Q.N.'.Q.3.W # + O % = . X ",
"U.Q { ] ] ` D.l.[.@X_.[.oX_.V.^._.^.[.[..XoXQ.%.0.Q.(.^.(.^.V.1.>._.W.n._.]._.s.@.T.oX}.[.[._._.(.V.(..X X_.OX[.c.A.{ ] ] L.@ i ",
"c c c c A y :.l.l.s.a.s.l.^.(..XoX].Q.Q.]..X@Xv.< y.V.~.V.'.n.;.-.n.~.V.n.).T.X.s.@X}.[.Q.Q._..X.X_.(.x.s.a.s.l.l.>.t A c ` % p ",
"k x x U w.u.%.@.@.@.@.O.@.Q._.Q.[.W.N._.^.[.].0.                                =.'..X^._.N.W.[.Q.(._.*.O.%.@.@.@.@.u.q.U c % h ",
"v v v y _.oX_.[.[.].]._.O.:.oX].N.N._.}.oXQ.&.                                    w W.oX.X_.N.N._.OX7.3 !.[.].[.[._.}.[.8.I 1 g ",
"x n T g.(.^.^.(.oX_.W..XT.%.u.oX[.^.].+Xm.r                                         4 x.+X X^.[.oXs.@.H..X^.^.oX_.^.^.(.c.C.2 g ",
"Z R v.[.V.N.].W.}.].[..X.Xu.O.R.OXN.3.                                                    t v.+X_.%.1.}..X[.]..XW._.E.N.[.T.,.D ",
"8.N.[.Q.(.[.}.[._.Q.[..X.X[.@.-.x.r                                                         4 l.<.O._..X.X[.Q.(.[..X}._.W.[.W.3.",
"s.oXE.W.^.^.}.'.N.^.^.'..XoXv.0                                                                 9 x.oXoX'.Q.^.N._..X(.^.W.V..Xl.",
"g.W.N.^.E.^.W.N.W.W.W.[.oXN.t                                                                     5 m.oX[.W.W.W.N.W.^.E.Q.N.E.c.",
"f.(.^.(.W.N.^.Q._.W.n.'.H.                                                                            c.'.x.E.(.Q.Q.N.W.^.^.(.z.",
"0.E.Q.W._.n.N._.n.Q.E.V.0.                                                                            3.V.N.Q.n.(.N.x._.Q.^.W.p.",
"O.@.%.%.%.@.@.%.@.@.%.@.q                                                                             0 $.%.%.@.%.%.@.%.@.%.@.O.",
"d.Q.Q.T.E.Q.Q.Q.Q.Q.T.W.q.                                                                            3.Q.T.Q.Q.Q.Q.Q.Q.T.Q.Q.j.",
"c.@XoXW.[..X_.[.^.'.[.).p.                                                                            3.).[.].^. X_..X XW.oX@XK.",
"j.oX.X_.}.[.E.].N.W.].'.d.                                                                            5.'.'.^.n._.W.[..X_..XoXH.",
"c.oX_.^._.}..X[._.[.'. Xp.                                                                            3. X].[._.[..X}._.^._.oXH.",
"c.OX_.Q.m.[.[.Q.(.E.W. Xq.                                                                            3. X^.V.(.^.[.[.N.W._.oXv.",
"G..XW.Q.W.N.W.^.E.^.V.~.p.                                                                            3.~.N.Q.E.Q.Q.N.E.Q.W. XK.",
"G.(.x.W.(.^.^.N.Q.(.^.(.p.                                                                            3.).^.(.^.N.Q.^.(.Q.n.~.K.",
"p.N.W.W.x._.x.N._.W.Q.V.,.                                                                            &.B.Q.W._.N.x._.m.E.W.N.d.",
"O.%.:.%.@.%.%.%.%.%.%.+.e                                                                             e +.%.%.%.%.%.%.%.@.:.%.O.",
"f.Q.Q././.Q./.Q.Q.T.Q.^.t.                                                                            9.^.Q.E.Q.Q.!.Q.!.!.Q.W.j.",
"d.(.[._.^.[._.oX'.W.oX@Xh.                                                                            e.+XoXQ._.oX_.[.(.(.}._.c.",
"g._.[.W.N.].E..X[.'..XoXd.                                                                            5.+X.X].[..XW._.V.V.[._.x.",
"j. X_.[._.[.}.[.(.Q.'.oXd.                                                                            5.+X].^.(.[..X}._.[.'. Xc.",
"d. XV.E.(.^.[._.M.^.'.oXd.                                                                            5.+X[.^.M._.}.^.^.W.V.[.j.",
"d.W.N.Q.E.^.W.V.W.W.^.oXg.                                                                            w.oX^.W.W.N.W.^.E.^.V.E.g.",
"f.(.^.(.W.N.^.^._.W.x.'.h.                                                                            w.].x.E.(.Q.^.N.W.^.(.(.j.",
"0.V.Q.W._.x.m._.x.W.E.N.0.                                                                            3.V.T.Q.x.(.N.x._.W.^.V.q.",
"#.@.%.%.%.%.%.%.%.%.*.%.O.                                                                            0 %.*.%.@.%.%.%.%.%.*.@.#.",
"f._.Q.T.Q.!./.!././.Q.Q.q.                                                                            3.^.E.!._.Q.!.!.Q.T.Q._.j.",
"x.@XoXW.[..X(.[.^.'.[.).p.                                                                            3.).[.'.~.[._.}.[.E..X@Xv.",
"v.oX.X_.}.[.W.].N.W.].'.d.                                                                            5.'.'.^.M._.W.[..X_..XoXG.",
"c.oX_.^._.[..X[._.[.'.[.p.                                                                            3. X].[._.[..X}._.^._.oXG.",
"j.OX_.Q.m.[.[.Q.(.V.W.[.q.                                                                            3. XW.V.^.^.[.[.N.W._.oXH.",
"c..XW.W.W.N.Q.Q.E.^.V.~.p.                                                                            3.~.N.W.E.Q.Q.N.E.Q.W.[.K.",
"G.(.x.Q.(.^.Q.N.^.(.^.(.i.                                                                            3.).^.(.(.N.W.(.^.^.n.~.K.",
"p.n.E.E.x.!.x.n._.T.E.n.,.                                                                            &.n.E.T._.N.k./.x.N.E.n.p.",
"#.%.*.@.@.%.%.%.%.%.%.+.e                                                                             t +.@.%.%.%.@.%.@.@.*.%.O.",
"f.^.Q._._._._._.Q.Q._.'.t.                                                                            9.'._.Q.Q._._._._._.Q.Q.l.",
"g._.[.(.^.[.(.oX'.W.oX+Xh.                                                                            e.+XoX^._.oX(.[.^.^.}._.c.",
"j._.[.W.V.].W.}.[.'..XoXd.                                                                            5.+X.X'.[..XW._.E.E.[._.G.",
"f. X_.[._.}..X[.(.Q.'.oXd.                                                                            5.+X'.^.^.[..X}._.[._. Xj.",
"d. XV.E.^.^.[._.M.^.'.oXd.                                                                            5.+X].^.M.(.[.^.^.W.N.[.j.",
"d.W.N.^.V.^.W.M.W.W.W.oXd.                                                                            w.oXW.W.Q.N.E.(.N.^.E.V.g.",
"f.'.^.(.^.N.^.^.(.W.x.'.h.                                                                            w.].x.W.(.(.^.N.^.(.(._.j.",
"0.N.W.T._.x.n.^.x.E.N.n.0.                                                                            3.M.N.W.x.Q.N.k._.E.W.N.0.",
"#.@.%.%.%.@.@.%.@.@.%.%.O.                                                                            0 %.%.%.@.%.%.@.%.%.%.@.#.",
"f.`._.W.^._._._._._.Q.^.d.                                                                            3.(.Q._._._._._.^.W._._.g.",
"G.OXoXW.[..X(.[.W._.[.).i.                                                                            3.).[._.W.[.(.}.[.E..XOXK.",
"c.oX.X_.[.[.W.[.N.Q.].'.d.                                                                            5.'.'.^.N._.Q.[..X_..XoXK.",
"j.oX_.^.(.[..X[._.[._.[.q.                                                                            3. X'.[._.[..X}._.^._.oXH.",
"c.OX_.^.m.].[.Q.(.V.W.[.q.                                                                            3.|.W.V.(.Q.[.[.N.W._.oXH.",
"j..XW.Q.W.N.W.^.V.^.N.W.i.                                                                            3.~.N.^.V.Q.Q.N.E.^.E.[.H.",
"G.(.x.W.(.(.Q.N.^.^.^.(.p.                                                                            3.).^.^.(.N.W.(.^.^.n.W.K.",
"0.x.N.N.x.R.k.l.R.b.T.v.,.                                                                            e x.v.T.Q.v.s.Q.x.N.T.x.p."
};
