/* XPM */
static char *sparo[] = {
/* columns rows colors chars-per-pixel */
"47 56 223 2 ",
"   c None",
".  c #010000",
"X  c #0E0905",
"o  c #050708",
"O  c #0C0C0C",
"+  c #141414",
"@  c #1C1C1D",
"#  c #0E0E0E",
"$  c #1D1F21",
"%  c #1F2325",
"&  c #252525",
"*  c #2C2C2C",
"=  c #262829",
"-  c #343434",
";  c #3B3B3B",
":  c #37312E",
">  c #40311B",
",  c #691131",
"<  c #533B23",
"1  c #5E411F",
"2  c #4B423C",
"3  c #6C4529",
"4  c #7B4A24",
"5  c #714726",
"6  c #6F4D37",
"7  c #444444",
"8  c #4B4B4B",
"9  c #494747",
"0  c #545454",
"q  c #5C5C5C",
"w  c #575654",
"e  c #7D4747",
"r  c #765454",
"t  c #605E5C",
"y  c #736359",
"u  c #555F65",
"i  c #586269",
"p  c #646464",
"a  c #6C6C6C",
"s  c #696663",
"d  c #786F6A",
"f  c #747474",
"g  c #7A7675",
"h  c #7C7C7C",
"j  c #6E7075",
"k  c #8D0000",
"l  c #940101",
"z  c #960707",
"x  c #8C1B1B",
"c  c #B40202",
"v  c #AF1514",
"b  c #8D0031",
"n  c #962422",
"m  c #882B2B",
"M  c #B1372B",
"N  c #C50202",
"B  c #DB0606",
"V  c #DE1616",
"C  c #DE0B17",
"Z  c #E30202",
"A  c #EB0C0C",
"S  c #F40000",
"D  c #FD0101",
"F  c #F50C0C",
"G  c #F71617",
"H  c #E91112",
"J  c #C42D2C",
"K  c #D7332B",
"L  c #F12C29",
"P  c #F03133",
"I  c #925C38",
"U  c #81532C",
"Y  c #B4443F",
"T  c #9C623E",
"R  c #A5663E",
"E  c #AA6539",
"W  c #B16A3D",
"Q  c #DE420E",
"!  c #C0703D",
"~  c #903D4D",
"^  c #CE3856",
"/  c #8A4444",
"(  c #984B4B",
")  c #8A5858",
"_  c #9A5655",
"`  c #97564F",
"'  c #A54444",
"]  c #B25C5C",
"[  c #926E58",
"{  c #8E705D",
"}  c #8E6952",
"|  c #AB6B42",
" . c #A66740",
".. c #B26E42",
"X. c #B86F40",
"o. c #B47145",
"O. c #BA7142",
"+. c #B27249",
"@. c #A37558",
"#. c #B67C56",
"$. c #957561",
"%. c #8A7A70",
"&. c #907770",
"*. c #AD6E6E",
"=. c #AA7474",
"-. c #CD4545",
";. c #DB5E44",
":. c #FC5947",
">. c #FD4C58",
",. c #FD5A5A",
"<. c #FD5557",
"1. c #EF4D4D",
"2. c #C47A4B",
"3. c #CB7D4B",
"4. c #C47848",
"5. c #D37D48",
"6. c #CD7151",
"7. c #FC6159",
"8. c #F3734C",
"9. c #FD5F64",
"0. c #F96867",
"q. c #F97474",
"w. c #ED6666",
"e. c #B3815F",
"r. c #9A8375",
"t. c #A4836D",
"y. c #B5886B",
"u. c #BD8E71",
"i. c #D5814D",
"p. c #D58351",
"a. c #DA8753",
"s. c #DB8C5D",
"d. c #D88958",
"f. c #CA865B",
"g. c #E28A56",
"h. c #E98D59",
"j. c #E88A55",
"k. c #EE935C",
"l. c #F4955C",
"z. c #FC9B5E",
"x. c #FA9659",
"c. c #FD8D55",
"v. c #DB8E62",
"b. c #D2936D",
"n. c #E19A6F",
"m. c #ED9866",
"M. c #F39B66",
"N. c #FB9C63",
"B. c #F29D68",
"V. c #F19663",
"C. c #EB946C",
"Z. c #FCA26D",
"A. c #F9A16B",
"S. c #FDA672",
"D. c #FEA975",
"F. c #FCAD7C",
"G. c #F6A979",
"H. c #FEB07F",
"J. c #FDC850",
"K. c #FFFF48",
"L. c #D7D06F",
"P. c #FDD06F",
"I. c #F1E566",
"U. c #758483",
"Y. c #838383",
"T. c #8C8C8B",
"R. c #868789",
"E. c #918F92",
"W. c #959595",
"Q. c #999897",
"!. c #96999B",
"~. c #9B9A9A",
"^. c #959798",
"/. c #978986",
"(. c #B69784",
"). c #AC9390",
"_. c #AEA998",
"`. c #B9B590",
"'. c #9D9BA3",
"]. c #AF9DA6",
"[. c #9CA3B0",
"{. c #A3A4A4",
"}. c #A8A7A7",
"|. c #AAAAAA",
" X c #A6A9A8",
".X c #B5B5B4",
"XX c #BBBBBB",
"oX c #B8B8B6",
"OX c #AAAAAB",
"+X c #C49B82",
"@X c #FC8C8B",
"#X c #F98686",
"$X c #FB9898",
"%X c #FB8791",
"&X c #D4AE8C",
"*X c #E4AA86",
"=X c #F0AD83",
"-X c #FBAF80",
";X c #FCB282",
":X c #FCB68B",
">X c #FEB989",
",X c #F8A996",
"<X c #FBBD99",
"1X c #FBB992",
"2X c #E1A19C",
"3X c #DF9BA1",
"4X c #FD9AA3",
"5X c #E19CA7",
"6X c #F3B2A5",
"7X c #C5C68F",
"8X c #FEC09B",
"9X c #FCCAAB",
"0X c #FDC6A4",
"qX c #F9CDB3",
"wX c #F8D2BC",
"eX c #C4C4C4",
"rX c #CDCDCD",
"tX c #D2D2D2",
"yX c #FBD6C1",
"uX c #FCD9C5",
"iX c #FDDDCB",
"pX c #FFE1CE",
"aX c #FFE3D2",
/* pixels */
"                                          l ,                                                 ",
"                                    &.( ( N v ` /.                                            ",
"                                    / l l D B k )                                             ",
"                          C Q       ~ Z B #X1.Z )       J V                                   ",
"                          D K M 8.v.Y S A 4X0.S )       K D                                   ",
"                          b ^ 6.;.:.:.G L $Xq.G ] =.*.*.-.-.                                  ",
"                            ~ ,.,.,.,.7.0.4X#X,.,.,.,.<.).                                    ",
"                            n G L @X@X@X@XI.P.%X0.,.1.F _                                     ",
"                            n D H 4X4X$X,XK.P.4X9.>.P S `                                     ",
"                            M G L ;X,X3X2XL.L.5XV.c.:.G M )                                   ",
"                          k J ,.7.K.L.[. Xj R.OXI.K.J.>.G Z                                   ",
"                      m n K w.@X@X7X_.E.W.oX|.E.`.7X&X@X,.P n x r                             ",
"                      x v <.q.$X$X{.!.T.W.tXoXR.'.[.].$X0.1.z l e                             ",
"                          l N S V g W.oX.XrXeX.XT.U._ S c z                                   ",
"                          l N D A h !.oX.XtXeX.XT.U._ D c z                                   ",
"                          e / ' ( 0 Y.oX.XtXeXoXf w r ' / e                                   ",
"                                  7 f .X|.rXeX.Xp ; 0                                         ",
"                          f g h h h p 8 0 T.f 8 f h h h f j                                   ",
"                          0 a h h T.p - ; q 0 - p f f h a p                                   ",
"                          & 0 Y.h {.a & * & * * 0 p a Y.q 0                                   ",
"                          & 0 Y.h ~.a & * * * * 0 p a Y.q 0                                   ",
"                          & 0 Y.h |.T.p p f a p p p a Y.q 8                                   ",
"                          & 0 Y.h |.W.h h Y.Y.h a p a Y.0 7                                   ",
"                          & 0 Y.h |.{.~.~.~.~.~.f q a Y.7 *                                   ",
"                          & 0 Y.h |.{.W.W.W.W.~.f p a Y.7 *                                   ",
"                          * 7 0 q ~.{.|.|.|.|.|.p 8 0 q @ O                                   ",
"                          * - ; 7 T.W.W.W.W.W.~.8 - ; 7 + X                                   ",
"                          * & @ * h p 7 8 7 7 8 + . O & o X R E                               ",
"                      +Xy.* & @ & f q - ; ; ; ; O . O & o X  .E @.t.                          ",
"                      C.i.= & @ & p 8 & * * * * O . O & o X R  .W o.                          ",
"                    /.n.s.2 : @ = p 8 & * * * * O . O & O + R  . .+.                          ",
"                r.l.k.S.F.>X} o % a 0 * - - * - O . O & > 1 R  ...+.                          ",
"                %.N.M.;X1X9Xy.3 6 - & + + + + + + O + $ < 5  . ...o.[ [ d                     ",
"                %.S.Z.<X9XaX*X5.O.. . . . . . . @ & & @ < U ..o.o.o.O.! {                     ",
"                %.S.Z.F.1XuXwXqX6X+.I 3 5 3 5 3 I T  .3.p.p.p.p.4.4.o.O.{                     ",
"                %.Z.Z.F.:XuXuXiXwXi.E 5 4 4 4 4 R ..4.l.h.h.a.a.i.4.o.O.{                     ",
"              r.u.D.D.F.:XuXyXuXwX*Xb.y.y.e.#.#.f.f.s.V.h.h.h.h.p.4.o.O.{                     ",
"              n.D.;X;XH.:XuXuXuXuXiXpXaXpXqX0X8X1X;XH.S.V.h.h.h.h.a.o.O.{                     ",
"              n.D.-X;XM.m.:X9XuXyXyXyXyXwX0X<X:X;XF.F.Z.N.l.h.h.h.a.4.4.$.                    ",
"              n.D.-X;Xk.h.F.0XiXuXiXiXiXuX9X8X1X;X;XF.S.A.z.h.h.h.a.4.5.$.                    ",
"              n.D.;X;XB.V.A.1XqX9X9X9X9X9X<X1X:XF.F.D.Z.N.z.h.h.h.a.4.4.$.                    ",
"              n.D.;X;XD.Z.g.B.;XF.F.F.F.F.F.F.;XS.Z.Z.z.N.N.h.h.h.a.4.4.$.                    ",
"              v.N.;XH.F.D.x.N.Z.Z.;X;X;X;X;XF.D.S.S.Z.z.z.z.j.j.h.a.4.5.$.                    ",
"              f.C.=X=X=X=XB.B.M.B.G.F.F.F.F.D.Z.Z.Z.Z.z.M.m.s.v.s.f.#.4.$.                    ",
"            a W.~.~.~.Q.~.}.}. X_.4.a.l.k.k.k.k.k.k.k.l.(.!.Q.Q.~.Q.%.h h h                   ",
"            a T.~.W.W.W.~.|.|.|.}.4.a.M.l.l.l.l.x.z.l.c.(.!.Q.W.~.!.h h h h                   ",
"            T.~.{.{.{.~.W.~.T.Y.Y.{ @.4.4.4.4.O.@.$.t.(._.{.{.{.~.W.T.T.Y.h                   ",
"          Y.~.{.|.|.|.~.W.T.h a a i y R  . .T T y u j !.{.|.|.|.~.W.~.~.T.h p a               ",
"      T.W.~.|.|.{.~.~.~.W.h f f j p t w w 9 w s g h Y.T.{.|.|.|.~.~.~.~.~.W.h f p p           ",
"    Y.~.~.{.|.{.{.W.~.W.T.h f a a p q 0 0 8 0 p f h Y.T.~.{.~.~.!.W.W.W.W.~.T.h p p p         ",
"  Y.~.{.|.|.|.~.W.~.~.Y.h h f a a p q 0 0 0 q p f h Y.T.W.W.T.T.T.T.T.T.W.~.~.T.p p 0         ",
"a Y.~.{.|.{.|.~.W.~.~.Y.h h f a a p q 0 0 0 q p f h Y.T.W.~.T.T.T.T.T.T.W.~.~.T.p p 0 q       ",
"a f h h h T.~.~.W.h h f a p p p p p q 0 0 0 q p f Y.f p f Y.W.W.{.{.{.{.~.W.~.T.h h p q 8 p   ",
"Y.Y.Y.T.Y.W.~.~.W.Y.Y.h f a a p p p q 0 0 0 q p f f a p h T.!.!.~.{.|.|.{.~.~.T.h h a q 7 q p ",
"oX|.W.|.|.|.|.~.W.~.~.Y.h h f f a p q 0 0 0 q p p p p p T.~.W.~.W.Q.{.|.|.|.~.T.h h a q 7 7 7 ",
"oX{.W.}.|.|.|.~.~.~.~.Y.h h f f f p q 0 0 0 q p p p p p T.~.~.~.~.~.|.|.|.|.~.E.h h a q 9 8 9 "
};
