/* XPM */
static char *specchio[] = {
/* columns rows colors chars-per-pixel */
"100 100 3 1 ",
"  c #A8962C",
". c #CC7AD0",
"X c #7AC4D0",
/* pixels */
"....................................................................................................",
"....................................................................................................",
"....................................................................................................",
"....................................................................................................",
"....................................................................................................",
".......................................                  ...........................................",
"....................................                        ........................................",
"..................................                            ......................................",
"................................                                ....................................",
"...............................                                  ...................................",
"..............................                                    ..................................",
".............................                                      .................................",
"............................                                        ................................",
"...........................                                          ...............................",
"..........................                                            ..............................",
".........................                                              .............................",
".........................                     XXXX                     .............................",
"........................                    XXXXXXXX                    ............................",
".......................                   XXXXXXXXXXXX                   ...........................",
".......................                  XXXXXXXXXXXXXX                  ...........................",
"......................                  XXXXXXXXXXXXXXXX                  ..........................",
"......................                 XXXXXXXXXXXXXXXXXX                 ..........................",
".....................                 XXXXXXXXXXXXXXXXXXXX                 .........................",
".....................                XXXXXXXXXXXXXXXXXXXXXX                .........................",
"....................                XXXXXXXXXXXXXXXXXXXXXXXX                ........................",
"....................               XXXXXXXXXXXXXXXXXXXXXXXXXX               ........................",
"....................               XXXXXXXXXXXXXXXXXXXXXXXXXX               ........................",
"...................               XXXXXXXXXXXXXXXXXXXXXXXXXXXX               .......................",
"...................              XXXXXXXXXXXXXXXXXXXXXXXXXXXXXX              .......................",
"...................              XXXXXXXXXXXXXXXXXXXXXXXXXXXXXX              .......................",
"..................              XXXXXXXXXXXXXXXXXXXXXXXXXXXXXXXX              ......................",
"..................              XXXXXXXXXXXXXXXXXXXXXXXXXXXXXXXX              ......................",
"..................             XXXXXXXXXXXXXXXXXXXXXXXXXXXXXXXXXX             ......................",
"..................             XXXXXXXXXXXXXXXXXXXXXXXXXXXXXXXXXX             ......................",
".................             XXXXXXXXXXXXXXXXXXXXXXXXXXXXXXXXXXXX             .....................",
".................             XXXXXXXXXXXXXXXXXXXXXXXXXXXXXXXXXXXX             .....................",
".................             XXXXXXXXXXXXXXXXXXXXXXXXXXXXXXXXXXXX             .....................",
".................            XXXXXXXXXXXXXXXXXXXXXXXXXXXXXXXXXXXXXX            .....................",
".................            XXXXXXXXXXXXXXXXXXXXXXXXXXXXXXXXXXXXXX            .....................",
"................             XXXXXXXXXXXXXXXXXXXXXXXXXXXXXXXXXXXXXX             ....................",
"................            XXXXXXXXXXXXXXXXXXXXXXXXXXXXXXXXXXXXXXXX            ....................",
"................            XXXXXXXXXXXXXXXXXXXXXXXXXXXXXXXXXXXXXXXX            ....................",
"................            XXXXXXXXXXXXXXXXXXXXXXXXXXXXXXXXXXXXXXXX            ....................",
"................            XXXXXXXXXXXXXXXXXXXXXXXXXXXXXXXXXXXXXXXX            ....................",
"................           XXXXXXXXXXXXXXXXXXXXXXXXXXXXXXXXXXXXXXXXXX           ....................",
"................           XXXXXXXXXXXXXXXXXXXXXXXXXXXXXXXXXXXXXXXXXX           ....................",
"................           XXXXXXXXXXXXXXXXXXXXXXXXXXXXXXXXXXXXXXXXXX           ....................",
"................           XXXXXXXXXXXXXXXXXXXXXXXXXXXXXXXXXXXXXXXXXX           ....................",
"................           XXXXXXXXXXXXXXXXXXXXXXXXXXXXXXXXXXXXXXXXXX           ....................",
"................          XXXXXXXXXXXXXXXXXXXXXXXXXXXXXXXXXXXXXXXXXXXX          ....................",
"................          XXXXXXXXXXXXXXXXXXXXXXXXXXXXXXXXXXXXXXXXXXXX          ....................",
"................          XXXXXXXXXXXXXXXXXXXXXXXXXXXXXXXXXXXXXXXXXXXX          ....................",
"................          XXXXXXXXXXXXXXXXXXXXXXXXXXXXXXXXXXXXXXXXXXXX          ....................",
"................          XXXXXXXXXXXXXXXXXXXXXXXXXXXXXXXXXXXXXXXXXXXX          ....................",
"................          XXXXXXXXXXXXXXXXXXXXXXXXXXXXXXXXXXXXXXXXXXXX          ....................",
"................          XXXXXXXXXXXXXXXXXXXXXXXXXXXXXXXXXXXXXXXXXXXX          ....................",
"................           XXXXXXXXXXXXXXXXXXXXXXXXXXXXXXXXXXXXXXXXXX           ....................",
"................           XXXXXXXXXXXXXXXXXXXXXXXXXXXXXXXXXXXXXXXXXX           ....................",
"................           XXXXXXXXXXXXXXXXXXXXXXXXXXXXXXXXXXXXXXXXXX           ....................",
"................           XXXXXXXXXXXXXXXXXXXXXXXXXXXXXXXXXXXXXXXXXX           ....................",
"................           XXXXXXXXXXXXXXXXXXXXXXXXXXXXXXXXXXXXXXXXXX           ....................",
"................            XXXXXXXXXXXXXXXXXXXXXXXXXXXXXXXXXXXXXXXX            ....................",
"................            XXXXXXXXXXXXXXXXXXXXXXXXXXXXXXXXXXXXXXXX            ....................",
"................            XXXXXXXXXXXXXXXXXXXXXXXXXXXXXXXXXXXXXXXX            ....................",
"................            XXXXXXXXXXXXXXXXXXXXXXXXXXXXXXXXXXXXXXXX            ....................",
"................             XXXXXXXXXXXXXXXXXXXXXXXXXXXXXXXXXXXXXX             ....................",
".................            XXXXXXXXXXXXXXXXXXXXXXXXXXXXXXXXXXXXXX            .....................",
".................            XXXXXXXXXXXXXXXXXXXXXXXXXXXXXXXXXXXXXX            .....................",
".................             XXXXXXXXXXXXXXXXXXXXXXXXXXXXXXXXXXXX             .....................",
".................             XXXXXXXXXXXXXXXXXXXXXXXXXXXXXXXXXXXX             .....................",
".................             XXXXXXXXXXXXXXXXXXXXXXXXXXXXXXXXXXXX             .....................",
"..................             XXXXXXXXXXXXXXXXXXXXXXXXXXXXXXXXXX             ......................",
"..................             XXXXXXXXXXXXXXXXXXXXXXXXXXXXXXXXXX             ......................",
"..................              XXXXXXXXXXXXXXXXXXXXXXXXXXXXXXXX              ......................",
"..................              XXXXXXXXXXXXXXXXXXXXXXXXXXXXXXXX              ......................",
"...................              XXXXXXXXXXXXXXXXXXXXXXXXXXXXXX              .......................",
"...................              XXXXXXXXXXXXXXXXXXXXXXXXXXXXXX              .......................",
"...................               XXXXXXXXXXXXXXXXXXXXXXXXXXXX               .......................",
"....................               XXXXXXXXXXXXXXXXXXXXXXXXXX               ........................",
"....................               XXXXXXXXXXXXXXXXXXXXXXXXXX               ........................",
"....................                XXXXXXXXXXXXXXXXXXXXXXXX                ........................",
".....................                XXXXXXXXXXXXXXXXXXXXXX                .........................",
".....................                 XXXXXXXXXXXXXXXXXXXX                 .........................",
"......................                 XXXXXXXXXXXXXXXXXX                 ..........................",
"......................                  XXXXXXXXXXXXXXXX                  ..........................",
".......................                  XXXXXXXXXXXXXX                  ...........................",
".......................                   XXXXXXXXXXXX                   ...........................",
"........................                    XXXXXXXX                    ............................",
".........................                     XXXX                     .............................",
".........................                                              .............................",
"..........................                                            ..............................",
"...........................                                          ...............................",
"............................                                        ................................",
".............................                                      .................................",
"..............................                                    ..................................",
"...............................                                  ...................................",
"................................                                ....................................",
"..................................                            ......................................",
"....................................                        ........................................",
".......................................                  ..........................................."
};
