/* XPM */
static char *tetto[] = {
/* columns rows colors chars-per-pixel */
"64 64 32 1 ",
"  c #6E320E",
". c #71350E",
"X c #7C370F",
"o c #75390F",
"O c #79390F",
"+ c #723610",
"@ c #773B10",
"# c #7D4014",
"$ c #813E13",
"% c #834316",
"& c #894616",
"* c #8B4A17",
"= c #864519",
"- c #894619",
"; c #8D4B1A",
": c #914D1C",
"> c #8F501B",
", c #99541E",
"< c #965420",
"1 c #9F5E29",
"2 c #A35F25",
"3 c #A45F28",
"4 c #9F6026",
"5 c #9F6027",
"6 c #A36026",
"7 c #A5622A",
"8 c #A86329",
"9 c #A8652C",
"0 c #A7682D",
"q c #AA682E",
"w c #A76430",
"e c #A86330",
/* pixels */
"77<17761%,6 %1779219999<17761-&9@#17777<97772<7721,$7:o>77w7<799",
"79<17721%,6 %1799319999117761-&9@#17799<97993<7766,$7:o;77e9<799",
"99<17321%,1.%1799719997117721;*9@#<7799<99993<7766,$7:o;79e9<799",
"79<17721%,6.%1799719999117725;&9@#17999<99992<7766,$7:o;79e9<799",
"99<17721%,2.%3799219999117773;&9$@17997<99773<7726,$7:O:7999<797",
"77<57721#,2.%1799219999117721-*7$@17997<9979317761,@7:X;7999<799",
"77<17721%,2.%17792<9999117761&*7$@17997<99973<7721,$7:O;7797<797",
"79<57721%,1+%1799319999217773;&7$%17997<9997317761,$7:@<7799<797",
"99177761%,1.%3799319999217763;*7@#17997<9779717766,%7;@:7999<799",
"99<37761%,1+=1999219999217762;*9$%<7e9719799717762,%7;@,7999<799",
"79177761%,1+=1999319999217666;*9$%<7997199997<7762,%7;@,79991799",
"79<37761%,1+=3999319997217667;*9$%<799719799717762,%7;@;77792797",
"79<37761%,1+=3999719997117666;*9$%<7997199997<7762,%7;@;777q1799",
"77177721%<1.=3997619997117761;*9$%17997<9999717772,%7;@:77e91799",
"79<37721%<1o-3997619997119761;*9$%17997<9999717772,%7;@:67e91799",
"79<37761%<1o-2999719997117667;*9$%179971q999717732,%7;@:77e9<799",
"99<37721%<3o-3999619997117666;*e$%17997<9999317772,%7;@:77e9<799",
"99<37721%<3@-2799719999117722;*9$%17997199993<7772,%7:@,6799,799",
"99<37721%<1@-279931q997117722;;9%%17997<99977<7772,%7;$,67e9<799",
"99<37721%<1@-3779319997117662;*7%%17997199977<7772,%3;$,7779<799",
"99<37761%<1@-3779319999117662;;9%%17997199773<7732,%7:$,7799<797",
"79<37721%<1@-2779219977117722;;7%%<7997<99993<7731,%7:$>79791799",
"99<17721%,1@-1799219997119665;;7%=<9997<97793<7771,%7:$,99w71777",
"79<17721%,1@-1799219977117661;*9%%<7997<99993<7771,%7;$,79w7,777",
"79<17721%,1@=1799329777117661;*9%%<7977199993<7771,%7;$,79wq1797",
"99<17721%,1@-1779329977117621**9%=<7979199973<7771,%7:$,79w71797",
"99<17761%<2O=1799219777117722**7%%17997199997<9721,%7;@,67771797",
"79117761%<2O=1779319977117722**9$%17997199997<7761<%7;@;77w01799",
"7911w761%<2.=1799719997117772**9$%17799<99997<7766<%7;@;777q,799",
"79117721%<2.=1799319977117772**9$%<7999<99997<7726<%7;@;67771799",
"79127721%<1.%3779719997117762;*7$%<7999<77997<7762<%6;@:77701799",
"99137721%<3o=27997199971<7762;*9$%<7999<99997<7366<%6;@:77971797",
"79<37761%<1o=2779719999117762;;9$%17999<99997<7766<%6;@:77991799",
"79<37761%<1o=2799719997117766;;e%%17999<79997<7776<%6;@:79991797",
"99<37721%<3@-2799719997117766;;e%%17999199997<7766,%7:@,79991797",
"99<27721%,1@-17993199772<7766;;e%%16e96<99977<7721,%7:#,9799<797",
"99<27721%,3@-17797199972<7662;;9%%<7799<99977<7771,%7:#,77991799",
"99<17721%<1@-17793199972<7762;;9%%17797<99777<7771,%7:#,7799<7e7",
"79<17721%<1@-17992199771<7661;;9%%<7797<99777<7731,%7:#,79991797",
"79<27721%<1@-3779219777117733;;7%%16779<97997<7771,%7;@:77e9<797",
"77<17761%<1@-2799219997117732;;9%%16999<99977<7772,&7;$:69w91799",
"77<17721%<1@-2799219977117723;;7%%<7799<99777<7732,&7;@;69e91799",
"77<17721%<1@=1779319977117733;;7%%17799<99777<7772,%7;@;67e91797",
"99<37761%<1@=1799319997117662;;7%%17997199997<7732,%7:@;79we1799",
"99<37721%,3@=1799319999117662;*7%%1799719999717772,%6:@,77e9<799",
"99<37721%,3@-1779319979117722**9$%<799719999717772,%7:@,77e9<799",
"99<37761%,3@=1799319979117722;*9%%17997<7799717772,%6:@>77e9<799",
"99<37721%,2@=2799719999117662;*9$%17997<q9977<7772,%7:@>77e9,799",
"99<37721%,2+-3799719999117662;*e$%17997<99997<9766,%7:@,77e91799",
"99<37771%,1+=3799619997119661**e$%17997,99993<9766,%7:@,77991799",
"99<37721%,1+%2799619999117661**9$%17996<99997<9766,%7;@;77e91799",
"99<37731%,1+%3799619997117762;*e$%17997199997<7766,%7;@,77e91797",
"77<77721%,1+=3779319977117762;;9$%17997177997<7772,%7:@:99991799",
"97<37761%,1+=3979319977117762;;e$#1799717799717766,%7:@,9999<799",
"77137761%,1+=3979219999117722;;9$%17997<9799717761,%7:@,999e<799",
"77157761%,1+-3999219999219722-;9$%17997<9999717766,%7;@,9999<799",
"79<17761%,1+=2999319999217727;*9$%17999<e999317726,%7:@,7799<799",
"77<77761%,2+%27991199992<7727;*9$@<7999<e7772<7722,@7:@;9799<799",
"99<77721%,6 =39977199991<7721&&9$@<7799<e9993<7722:$7:o;7799<799",
"99<77761%,1.=29971<9997117721-&9$@17999<e999317762,$7:o;9779<799",
"79<37721%,2 =299931e977117771-&9$@17999<99993<7766,$7:o;7799<799",
"77<17721%,2 =2799319977117761-&7@@<9997<99793<7762,%7:o;7799<799",
"79<17721%,6 =27793199791<7762;&7@@<9997<99773<9761,%7:o;9779<799",
"77<17761%,6 =27972<97791<7761-&9@#<7797<99772<7766,@7:o:7779<797"
};
