/* XPM */
static char *texture[] = {
/* columns rows colors chars-per-pixel */
"32 32 67 1 ",
"  c #020D15",
". c #090D16",
"X c #030E19",
"o c #0D0E1C",
"O c #100E19",
"+ c #031116",
"@ c #0A1217",
"# c #04141C",
"$ c #0B131C",
"% c #02191D",
"& c #0A191E",
"* c #11141D",
"= c #021522",
"- c #0C1621",
"; c #021A23",
": c #0A1A23",
"> c #001C29",
", c #111521",
"< c #121922",
"1 c #002024",
"2 c #00222C",
"3 c #002C34",
"4 c #032F38",
"5 c #003235",
"6 c #003D37",
"7 c #01343B",
"8 c #003A3C",
"9 c #023541",
"0 c #013A42",
"q c #093943",
"w c #004142",
"e c #257576",
"r c #26767A",
"t c #2B767C",
"y c #267B7C",
"u c #297B7E",
"i c #347C7C",
"p c #19817E",
"a c #23837E",
"s c #29817E",
"d c #267E81",
"f c #2B7B81",
"g c #357E84",
"h c #1D8484",
"j c #1B8A86",
"k c #1D868B",
"l c #128888",
"z c #1C8B8C",
"x c #1C908E",
"c c #1D8E92",
"v c #1E9393",
"b c #1B9298",
"n c #2C8385",
"m c #238A87",
"M c #24858B",
"N c #2C8389",
"B c #238B8C",
"V c #2B8B8C",
"C c #328285",
"Z c #32848C",
"A c #338C8A",
"S c #24918D",
"D c #298791",
"F c #238D92",
"G c #2C8C90",
"H c #229292",
"J c #299194",
/* pixels */
"rpBhn7%;$+#-o$#$$#$o@$$###1%8nVj",
"5upzhu8#=-X-:+$$$$@#$o-o;%%6nzzV",
"%5eMzjyq==-X+$##=#$##@$o+>5nkHHr",
"$=7yhzMf0==@#-#######$$:#0nBVMe7",
"o$=4eMkMfq#;$.$$####@$##9nBBVt7=",
"$@=X7fMMBu8;-$$,+&+@$@%wnzzVt3##",
"$$--X4fMzBn7#$$@@$$@%%8szvMt7%$$",
"$-X=:X7thjBf7;=$$o@&%0uHvzn3%&@$",
"+$-$$-#3ykHhs8;=-@:%5nSlBy3;:+$$",
"@X-- :##7yhSzu8;=;;8ChzVf3;:#@@&",
"$$X$$-@$%5yjjBn0>>7NmxVt4=:##-$$",
"#&$X#$-*$%5yMFDew0NkcVt7=-X%$,$*",
"$$X-$$@$X#=7fDMVhhFcVu7=-$$-#-oo",
"@$$$##$$.,=>5uVzcczmy5%$*,$o----",
"@$$--## <oo=>8acbxBa6;=$O-$,-+$$",
"$$#$$##%$.o=20kFvlHp82=#--;+#:##",
"%#$$$%#+$@#>0dFzzvzBN0;>-+%&+&$%",
"#$$####&+&%8DkcMmhzHMZ0=;#@&%@&@",
"#@@#@%@-%%6sMHFy89NBFMnq=:= &*@&",
"$$$@$$#.;6njvDf5;>9fFFFC9=:$&@$@",
"@##$o$$>8sxxMf3;;=>4fFFVZq=:@$$@",
"&##&$-=wnzzVf3#$o$=#9fMFJf0>:@,*",
"+#:+=;quzHFt7=*OO&&:X4fkcHG0>:$*",
"$$%%;8yFvMC3=-@*@&+#:=9fzvFf0>=o",
"*#%18nJzBf3;:#**@%&#-:=7nzHSCq>;",
"o:;6nmMVf3;:##-OO@1$X,=;7fjHHZ9;",
"$>7nhVMt5%:+#-$$*&+$--#=;8uBvFNw",
"#0nFvVu5%&+&@---#:#oo$-$:#3nFcJC",
"8nBzFu7#&@@&o-$$$#$--$$*@#>5fJHA",
"NzjSy5;#$$&@$$-$$#$=$$$$-$;#8iAS",
"zHVy7;-$$$$%#$$-;$##$-$o$:;>%5iV",
"xVg3;;$#$#%#$$$$$$#:#$$,$-+%;%8u"
};
