/* XPM */
static char *texture2[] = {
/* columns rows colors chars-per-pixel */
"32 32 179 2 ",
"   c #0A3522",
".  c #00431E",
"X  c #004E24",
"o  c #064528",
"O  c #0B472B",
"+  c #044D2C",
"@  c #0B4B2E",
"#  c #14462F",
"$  c #164D2E",
"%  c #005027",
"&  c #02542C",
"*  c #08522F",
"=  c #005A2B",
"-  c #0A4F32",
";  c #144C34",
":  c #1A4934",
">  c #184F3A",
",  c #0D5433",
"<  c #045D34",
"1  c #0C5B34",
"2  c #0C5D3A",
"3  c #145234",
"4  c #1A5735",
"5  c #105A35",
"6  c #135338",
"7  c #1C533B",
"8  c #145C3B",
"9  c #1B5A3E",
"0  c #204D38",
"q  c #25533C",
"w  c #21593D",
"e  c #295C3D",
"r  c #00632E",
"t  c #046434",
"y  c #0B6236",
"u  c #066837",
"i  c #04653A",
"p  c #0A643A",
"a  c #056A3A",
"s  c #0B6B3C",
"d  c #14633B",
"f  c #1C623E",
"g  c #126A3D",
"h  c #03723D",
"j  c #08703D",
"k  c #1F5B42",
"l  c #2C5642",
"z  c #245A43",
"x  c #285E4E",
"c  c #305B47",
"v  c #375C4C",
"b  c #0D6E41",
"n  c #146341",
"m  c #1C6542",
"M  c #146C43",
"N  c #1C6C46",
"B  c #077641",
"V  c #0C7342",
"C  c #147145",
"Z  c #187347",
"A  c #157449",
"S  c #1A734B",
"D  c #226345",
"F  c #24664B",
"G  c #29664A",
"H  c #266A4D",
"J  c #2A6E49",
"K  c #33604C",
"L  c #207B4F",
"P  c #336D52",
"I  c #3E6A57",
"U  c #267351",
"Y  c #2F7252",
"T  c #347153",
"R  c #3C765A",
"E  c #397B60",
"W  c #456757",
"Q  c #437059",
"!  c #43785C",
"~  c #4F6F60",
"^  c #4C7260",
"/  c #457A62",
"(  c #567E66",
")  c #617D6F",
"_  c #368F63",
"`  c #428260",
"'  c #4B8365",
"]  c #448B69",
"[  c #508066",
"{  c #55876D",
"}  c #5C8B76",
"|  c #638F7B",
" . c #6A8B7A",
".. c #66917D",
"X. c #69997F",
"o. c #778C83",
"O. c #6F978E",
"+. c #6D9C88",
"@. c #739584",
"#. c #7F998C",
"$. c #5EA482",
"%. c #61AF87",
"&. c #6CAC8A",
"*. c #74A68B",
"=. c #7AA68F",
"-. c #7AA592",
";. c #7DAE9B",
":. c #7BB69A",
">. c #84A696",
",. c #91AC9D",
"<. c #87B89B",
"1. c #81B7A0",
"2. c #8EBBA7",
"3. c #8DB9AC",
"4. c #9ABDA6",
"5. c #9CBBAC",
"6. c #A9B2AF",
"7. c #BBBFBE",
"8. c #95C3A7",
"9. c #A3C6BC",
"0. c #A4CDB8",
"q. c #B4CDBE",
"w. c #93EABD",
"e. c #BCCDC3",
"r. c #A7D2C1",
"t. c #A4DFC3",
"y. c #ACDBC3",
"u. c #B5D6C5",
"i. c #B8D4C6",
"p. c #BCD6CA",
"a. c #B3DEC9",
"s. c #B9DBCB",
"d. c #B0E1CB",
"f. c #BAE0D1",
"g. c #BCE8D3",
"h. c #B4F2D9",
"j. c #C1DBCE",
"k. c #C8D9D1",
"l. c #CAE6D6",
"z. c #C7E8D7",
"x. c #C7E5D9",
"c. c #C3EAD9",
"v. c #D1E0D9",
"b. c #DAE3DE",
"n. c #D1E9DD",
"m. c #DFEEE9",
"M. c #CBF6E2",
"N. c #C4FBE3",
"B. c #D5F3E2",
"V. c #DBF7E3",
"C. c #D7F8E5",
"Z. c #DDF3E9",
"A. c #D4FEEC",
"S. c #DCFBEC",
"D. c #DDFEF2",
"F. c #E2EEE5",
"G. c #ECEEEC",
"H. c #F1EDEE",
"J. c #E0F1E7",
"K. c #E4F3EC",
"L. c #EBF4EE",
"P. c #E1FAED",
"I. c #EAFCEE",
"U. c #F0F2EE",
"Y. c #F3EDF0",
"T. c #E0F7F1",
"R. c #ECF6F3",
"E. c #E4FEF3",
"W. c #EDFDF5",
"Q. c #E6FFFA",
"!. c #ECFFFA",
"~. c #F4F4F4",
"^. c #FAF4F6",
"/. c #F3FCF6",
"(. c #F9FAF7",
"). c #F6F6F9",
"_. c #FCF6F9",
"`. c #F4FEFB",
"'. c #FCFDFD",
/* pixels */
"(.(.'.E.a.9 H O ! u./.~._.(.(.'.`.W.R.`.k.v.W.G.).'._.'.R.`.p.Q ",
"'.)./.E.M.9 8 8 4 [ E.`.'.`./.`./.R.`.`.`._.'._.'._.'.R.`.p.W @ ",
"'.'.'.!.g.+ N p & 1 ' B./././././.'.'.'.'.'.'.'.'.'.`.!.S.I 6 d ",
"'.'.`.T.| 8 + b A p f e 8.V.I./.'.'.).'.'.'.'.'.'.'.`.Z.} ; H < ",
"'.'.'.o.  F N i s < d f $ ( l.'.H._.'.'.'.'.'.'.'.'.'.`.p.O.Y 2 ",
"'.'.`.p.} - S & j C 1 f $ q ,.`.'._._.'.'.'.'.'.'.'.'.'.!.S.1.6 ",
"'.'.'.!.h.E 2 < A Z y * G =.S.'.U._.'.'.'.'.`.'._.'._._.`.Q.A.F ",
"'.'._.B.D.h.k b < X d R d.E.D./.'.'.).'.'.'.'.'.'._._.).'.`.D./ ",
"'.'.'.`.Q.N.6 N d d &.S.P.P.`./.R.`.'.'.'.'.'.'.'.'.'.'.Y.'.j.v ",
"'.'.'.'.P.2.G , d ` A.E.`.R.W.`./.'./.'.'.'.'.'.'.'.'._._.'.m.u.",
"'._._.'.K.W $ w w <.P./.'.U./.'.!.`.`.`.`.W.L.`.`.`.'._._._.`.!.",
"~._._.).K.#.^ l q 4./.U._.'.'._.'.'./.W.P.@.v 5.Q.T.R.'.).'.'.`.",
"'._.'.'.'./.E.j.q.I./.'.Y.U.^.^.(././.S.} w > q ;.Q.Q.).).'.'.W.",
"L.'._._.~.W./.E./.(.G.'._.'.'._.(.R.P.&.9 8 U + z 2.Q.Q.`.).'.~.",
"E.`.(._.'.`.W.R./.'.'.'.'.'.G.L./.V.8.3 N s p Z , F ;.Q.`.R.'.'.",
"Q.`.'.~._.'.`.'.'.U.^.(.'./.`./.l.*.4 d i a b p 2 n k 3.D.`.`.'.",
"-.m.`.'.'.R.R.`.'.'._.R.'.K.Q.a.' J d g g u u j p y n x r.`.).).",
"# } R.`.'.`.`.'.)._.).'.v.) ! P 5 %.w.= s s t t s C n 6 O.m.`.`.",
"9 c B.`.'.'.'.'.'.'.'.W.q.0 : D m d _ C & s C p p i N z l D.`.R.",
"o | E./.`.`._.'.'.'.'.`.v.~ : 7 Y J % y C b = i Z g 1 w ~ S.`.`.",
"P c.Q.'.'.'._._._._.'.`./.e.,.4.g.t.] < b i b A < 1 Y -.9.Q.W.`.",
"<.E.R.U.(.'.'.'.'.'.'.).'.'.W./.Q.D.:.m s < b p & $.N.S.!.`.W.`.",
"P.J.'./.'.'.'.'.'.'.'.'.).'.(.(.K.P.0.3 n M M + T y.D.Q.!.`./.'.",
"`./.'.(.^.~.`.'.`.!.Z.`.`.'.).'.'.'.P.K > 6 6 > =.E.!./.R.`./.`.",
"F.'.U./.'.`.P.n.n.A.Q.R.`.'.`._.(.`.L.E.s.f.c.x.E.`.`.'.'.'.'.`.",
"(.'.'././.z.+.0 : | r.Q.Q.`.'.'.'.'.'.`.T.`.!.`.'.~._._._.'.'.'.",
"(.(././.q.R O D 9 + T S.`.R.`.).(.'.'.'.'.'.'.'._.'._._._._.'.`.",
"(./.E.a.Y 3 S 1 < M + >./.!.R.'.'.'._.'.'._._.'.'.'.'._.'.~.7.6.",
"/.W.u.T y 1 s i u g * 6.'.'.'.(._.'.'._._.'.'.'.'.'.'.'.'.'.b.k.",
"'.d.{ . L j = V j % m 0.W.L./.(.'.'.'.'.'.'.'.'.'.`.`.'.U.`.W.W.",
"P...* N t t h j u r 1 X.Q./.J.(.'.(.'.'.'.`.'.`.'.`.`./.`.W.E.D.",
"i.e , M r h B r u g & T y.C./././._.'.'.'.'.`.'.'.`.`.`.q. .{ / "
};
