/* XPM */
static char *texture4[] = {
/* columns rows colors chars-per-pixel */
"100 100 5 1 ",
"  c black",
". c #114F2A",
"X c #9F3126",
"o c #F73523",
"O c #A8962C",
/* pixels */
"....................................................................................................",
"....................................................................................................",
"....................................................................................................",
"....................................................................................................",
"....................................................................................................",
"....................................................................................................",
"....................................................................................................",
"....................................................................................................",
"....................................................................................................",
"....................................................................................................",
"....................................................................................................",
"....................................................................................................",
"....................................................................................................",
"....................................................................................................",
"....................................................................................................",
"....................................................................................................",
"....................................................................................................",
"....................................................................................................",
"....................................................................................................",
"....................................................................................................",
"....................................................................................................",
"....................................................................................................",
"....................................................................................................",
"...........................oooooooooooooooooooooooooooooooooooooooo.................................",
"...........................oooooooooooooooooooooooooooooooooooooooo.................................",
"...........................oooooooooooooooooooooooooooooooooooooooo.................................",
"...........................oooXXXXXXXXXXXXXXXX XXXXXXXXXXXXXXXXXooo.................................",
"...........................oooXXXXXXXXXXXXXXXX XXXXXXXXXXXXXXXXXooo.................................",
"...........................oooXXXXXXXXXXXXXXXX XXXXXXXXXXXXXXXXXooo.................................",
"...........................oooXXXXXXXXXXXXXXXX XXXXXXXXXXXXXXXXXooo.................................",
"...........................oooXXXXXXXXXXXXXXXX XXXXXXXXXXXXXXXXXooo.................................",
"...........................oooXXXXXXXXXXXXXXXX XXXXXXXXXXXXXXXXXooo.................................",
"...........................oooXXXXXXXXXXXXXXXX XXXXXXXXXXXXXXXXXooo.................................",
"...........................oooXXXXXXXXXXXXXXXX XXXXXXXXXXXXXXXXXooo.................................",
"...........................oooXXXXXXXXXXXXXXXX XXXXXXXXXXXXXXXXXooo.................................",
"...........................oooXXXXXXXXXXXXXXXX XXXXXXXXXXXXXXXXXooo.................................",
"...........................oooXXXXXXXXXXXXXXXX XXXXXXXXXXXXXXXXXooo.................................",
"...........................oooXXXXXXXXXXXXXXXX XXXXXXXXXXXXXXXXXooo.................................",
"...........................oooXXXXXXXXXXXXXXXX XXXXXXXXXXXXXXXXXooo.................................",
"...........................oooXXXXXXXXXXXXXXXX XXXXXXXXXXXXXXXXXooo.................................",
"...........................oooXXXXXXXXXXXXXXXX XXXXXXXXXXXXXXXXXooo.................................",
"...........................oooXXXXXXXOXXXXXXXX XXXXXXXXOXXXXXXXXooo.................................",
"...........................oooXXXXXXXOXXXXXXXX XXXXXXXXOXXXXXXXXooo.................................",
"...........................oooXXXXXXXOXXXXXXXX XXXXXXXXOXXXXXXXXooo.................................",
"...........................oooXXXXXXOOOOXXXXXX XXXXXXXOOOOXXXXXXooo.................................",
"...........................oooXXXXXOOXXOOXXXXX XXXXXXOOXXOOXXXXXooo.................................",
"...........................oooXXXXXOXXXXOXXXXX XXXXXXOXXXXOXXXXXooo.................................",
"...........................oooXXXXXOXXXXOXXXXX XXXXXXOXXXXOXXXXXooo.................................",
"...........................oooXXXXXOXXXXOXXXXX XXXXXXOXXXXOXXXXXooo.................................",
"...........................oooXXXXXOOXXOOXXXXX XXXXXXOOXXOOXXXXXooo.................................",
"...........................oooXXXXXXOOOOXXXXXX XXXXXXXOOOOXXXXXXooo.................................",
"...........................oooXXXXXXXXXXXXXXXX XXXXXXXXXXXXXXXXXooo.................................",
"...........................oooXXXXXXXXXXXXXXXX XXXXXXXXXXXXXXXXXooo.................................",
"...........................oooXXXXXXXXXXXXXXXX XXXXXXXXXXXXXXXXXooo.................................",
"...........................oooXXXXXXXXXXXXXXXX XXXXXXXXXXXXXXXXXooo.................................",
"...........................oooXXXXXXXXXXXXXXXX XXXXXXXXXXXXXXXXXooo.................................",
"...........................oooXXXXXXXXXXXXXXXX XXXXXXXXXXXXXXXXXooo.................................",
"...........................oooXXXXXXXXXXXXXXXX XXXXXXXXXXXXXXXXXooo.................................",
"...........................oooXXXXXXXXXXXXXXXX XXXXXXXXXXXXXXXXXooo.................................",
"...........................oooXXXXXXXXXXXXXXXX XXXXXXXXXXXXXXXXXooo.................................",
"...........................oooXXXXXXXXXXXXXXXX XXXXXXXXXXXXXXXXXooo.................................",
"...........................oooXXXXXXXXXXXXXXXX XXXXXXXXXXXXXXXXXooo.................................",
"...........................oooXXXXXXXXXXXXXXXX XXXXXXXXXXXXXXXXXooo.................................",
"...........................oooXXXXXXXXXXXXXXXX XXXXXXXXXXXXXXXXXooo.................................",
"...........................oooXXXXXXXXXXXXXXXX XXXXXXXXXXXXXXXXXooo.................................",
"...........................oooXXXXXXXXXXXXXXXX XXXXXXXXXXXXXXXXXooo.................................",
"...........................oooXXXXXXXXXXXXXXXX XXXXXXXXXXXXXXXXXooo.................................",
"...........................oooXXXXXXXXXXXXXXXX XXXXXXXXXXXXXXXXXooo.................................",
"...........................oooXXXXXXXXXXXXXXXX XXXXXXXXXXXXXXXXXooo.................................",
"...........................oooXXXXXXXXXXXXXXXX XXXXXXXXXXXXXXXXXooo.................................",
"...........................oooXXXXXXXXXXXXXXXX XXXXXXXXXXXXXXXXXooo.................................",
"...........................oooXXXXXXXXXXXXXXXX XXXXXXXXXXXXXXXXXooo.................................",
"...........................oooXXXXXXXXXXXXXXXX XXXXXXXXXXXXXXXXXooo.................................",
"...........................oooXXXXXXXXXXXXXXXX XXXXXXXXXXXXXXXXXooo.................................",
"...........................oooXXXXXXXXXXXXXXXX XXXXXXXXXXXXXXXXXooo.................................",
"...........................oooXXXXXXXXXXXXXXXX XXXXXXXXXXXXXXXXXooo.................................",
"...........................oooXXXXXXXXXXXXXXXX XXXXXXXXXXXXXXXXXooo.................................",
"...........................oooXXXXXXXXXXXXXXXX XXXXXXXXXXXXXXXXXooo.................................",
"...........................oooXXXXXXXXXXXXXXXX XXXXXXXXXXXXXXXXXooo.................................",
"...........................oooXXXXXXXXXXXXXXXX XXXXXXXXXXXXXXXXXooo.................................",
"...........................oooXXXXXXXXXXXXXXXX XXXXXXXXXXXXXXXXXooo.................................",
"...........................oooXXXXXXXXXXXXXXXX XXXXXXXXXXXXXXXXXooo.................................",
"...........................oooXXXXXXXXXXXXXXXX XXXXXXXXXXXXXXXXXooo.................................",
"...........................oooXXXXXXXXXXXXXXXX XXXXXXXXXXXXXXXXXooo.................................",
"...........................oooXXXXXXXXXXXXXXXX XXXXXXXXXXXXXXXXXooo.................................",
"...........................oooXXXXXXXXXXXXXXXX XXXXXXXXXXXXXXXXXooo.................................",
"...........................oooXXXXXXXXXXXXXXXX XXXXXXXXXXXXXXXXXooo.................................",
"...........................oooXXXXXXXXXXXXXXXX XXXXXXXXXXXXXXXXXooo.................................",
"...........................oooXXXXXXXXXXXXXXXX XXXXXXXXXXXXXXXXXooo.................................",
"...........................oooXXXXXXXXXXXXXXXX XXXXXXXXXXXXXXXXXooo.................................",
"...........................oooXXXXXXXXXXXXXXXX XXXXXXXXXXXXXXXXXooo.................................",
"...........................oooXXXXXXXXXXXXXXXX XXXXXXXXXXXXXXXXXooo.................................",
"...........................oooXXXXXXXXXXXXXXXX XXXXXXXXXXXXXXXXXooo.................................",
"...........................oooXXXXXXXXXXXXXXXX XXXXXXXXXXXXXXXXXooo.................................",
"...........................oooXXXXXXXXXXXXXXXX XXXXXXXXXXXXXXXXXooo.................................",
"...........................oooXXXXXXXXXXXXXXXX XXXXXXXXXXXXXXXXXooo.................................",
"...........................oooXXXXXXXXXXXXXXXX XXXXXXXXXXXXXXXXXooo.................................",
"...........................oooXXXXXXXXXXXXXXXX XXXXXXXXXXXXXXXXXooo.................................",
"...........................oooXXXXXXXXXXXXXXXX XXXXXXXXXXXXXXXXXooo.................................",
"...........................oooXXXXXXXXXXXXXXXX XXXXXXXXXXXXXXXXXooo................................."
};
