/* XPM */
static char *texture3[] = {
/* columns rows colors chars-per-pixel */
"100 100 67 1 ",
"  c #000000",
". c #070800",
"X c #0B0C00",
"o c #131300",
"O c #171800",
"+ c #1B1B01",
"@ c #1F2000",
"# c #232401",
"$ c #272801",
"% c #2B2C02",
"& c #2F3002",
"* c #333402",
"= c #363802",
"- c #3B3C03",
"; c #3F4003",
": c #434403",
"> c #474904",
", c #4B4D04",
"< c #4E5004",
"1 c #535505",
"2 c #575805",
"3 c #5A5B06",
"4 c #5F6107",
"5 c #616307",
"6 c #646508",
"7 c #676808",
"8 c #6C6D09",
"9 c #6E700A",
"0 c #72740B",
"q c #76790B",
"w c #797C0C",
"e c #7E800C",
"r c #82840E",
"t c #878A0F",
"y c #8A8D0F",
"u c #8D900F",
"i c #8F9110",
"p c #929510",
"a c #979A12",
"s c #9A9D12",
"d c #9EA113",
"f c #A2A514",
"g c #A7AA14",
"h c #ABAE15",
"j c #AFB116",
"k c #B1B417",
"l c #B6B817",
"z c #BBBE17",
"x c #B7B918",
"c c #BABD18",
"v c #BEC219",
"b c #C2C51A",
"n c #C6C91B",
"m c #C9CD1B",
"M c #CED11C",
"N c #D2D61D",
"B c #D6D91D",
"V c #DADD1E",
"C c #DEE21F",
"Z c #E0E31F",
"A c #DFE320",
"S c #E2E620",
"D c #E6EA21",
"F c #E9ED21",
"G c #EEF122",
"H c #F3F723",
"J c None",
/* pixels */
"                                                                                                    ",
"                                                                                                    ",
"                                                                                                    ",
"                                                                                                    ",
"                                                                                                    ",
"                                                                                                    ",
"                                                                                                    ",
"                                                                                                    ",
"                                                                                                    ",
"                                                                                                    ",
"                                                                                                    ",
"                                                                                                    ",
"                                                                                                    ",
"                                                                                                    ",
"                                                                                                    ",
"                                                                                                    ",
"                                                                                                    ",
"                                                                                                    ",
"                                            o#$&&#+Ooo...                                           ",
"                                     oXoo$*:,1,:;*%$@OoX.                                           ",
"                                  . O$$36pkBFHHHHnlkbmNCZq3>%Oo.                                    ",
"                                oX$$37qimGHHHHHHHHHHHHHHHFCnp4,%OX                                  ",
"                              .O--6qfBHHHHHHHHHHHHHHHHHHHHHHSbg9:@OoX                               ",
"                             .&1rtsbFHHHHHHHHHHHHHHHHHHHHHHHHHHmw,-#+oX                             ",
"                             *8agbFHHHHHHHHHHHHHHHHHHHHHHHHHHHHHHf9:=*#O.                           ",
"                            %9fnFHHHHHHHHHHHHHHHHHHHHHHHHHHHHHHHHHVw7>=#oX                          ",
"                           $7hNGHHHHHHHHHHHHHHHHHHHHHHHHHHHHHHHHHHHSbe3-$o                          ",
"                           6fVHHHHHHHHHHHHHHHHHHHHHHHHHHHHHHHHHHHHHHHJw1=+X                         ",
"                          %aNGHHHHHHHHHHHHHHHHHHHHHHHHHHHHHHHHHHHHHHHHJw>%+.                        ",
"                          5jSHHHHHHHHHHHHHHHHHHHHHHHHHHHHHHHHHHHHHHHHHHJ9-#X                        ",
"                         OtvDHHHHHHHHHHHHHHHHHHHHHHHHHHHHHHHHHHHHHHHHHHGf,%o                        ",
"                      .X%1aBHHHHHHHHHHHHHHHHHHHHHHHHHHHHHHHHHHHHHHHHHHHHFp:+O.                      ",
"                      o$>wxFHHHHHHHHHHHHHHHHHHHHHHHHHHHHHHHHHHHHHHHHHHHHHFw-O.                      ",
"                     O=2qgBHHHHHHHHHHHHHHHHHHHHHHHHHHHHHHHHHHHHHHHHHHHHHHHm5$                       ",
"                     #,qdGHHHHHHHHHHHHHHHHHHHHHHHHHHHHHHHHHHHHHHHHHHHHHHHHDf:                       ",
"                    o:9hCHHHHHHHHHHHHHHHHHHHHHHHHHHHHHHHHHHHHHHHHHHHHHHHHHHVr+                      ",
"                    #,tCHHHHHHHHHHHHHHHHHHHHHHHHHHHHHHHHHHHHHHHHHHHHHHHHHHHFn0o                     ",
"                   o;qbHHHHHHHHHHHHHHHHHHHHHHHHHHHHH   HHHHHHHHHHHHHHHHHHHHHVr+                     ",
"                   O>pDHHHHHHHHHHHH   HHHH    HHHHHH   HHHHHHHHHHHHHHHHHHHHHSp+                     ",
"                   O<fGHHHHHHHHHHHH   HHHH    HHHHHH   HHHHHH  .HHHHHHHHHHHHHM8o                    ",
"                   O1zHHHHHHHHHHHHH    HHH    HHHHHH    HHHHH   HHHHHHHHHHHHHA0o                    ",
"                  X-pVHHHHHHHHHHHHH          HHHHHHH     HHHH   HHHHHHHHHHHHHSqX                    ",
"                  .:dFHHHHHHHHHHHHH          HHHHHHHH           HHHHHHHHHHHHHFrX                    ",
"                  .:kHHHHHHHHHHHHHHH        HHHHHHHHHH          HHHHHHHHHHHHHHB3.                   ",
"                  .:cHHHHHHHHHHHHHHHH .   HHHHHHHHHHHHH        HHHHHHHHHHHHHHHS5                    ",
"                  .-bHHHHHHHHHHHHHHHHHHHHHHHHHHHHHHHHHHHH    HHHHHHHHHHHHHHHHHF0.                   ",
"                  .*nHHHHHHHHHHHHHHHHHHHHHHHHHHHHHHHHHHHHHHHHHHHHHHHHHHHHHHHHHF9                    ",
"                   *NHHHHHHHHHHHHHHHHHHHHHHHHHHHHHHHHHHHHHHHHHHHHHHHHHHHHHHHHHH6                    ",
"                  .=VHHHHHHHHHHHHHHHHHHHHHHHHHHHHHHHHHHHHHHHHHHHHHHHHHHHHHHHHHH1                    ",
"                  .;SHHHHHHHHHHHHHHHHHHHHHHHHHHHHHHHHHHHHHHHHHHHHHHHHHHHHHHHHHH>                    ",
"                 .o>FHHHHHHHHHHHHHHHHHHHHHHHHHHHHHHHHHHHHHHHHHHHHHHHHHHHHHHHHHH-                    ",
"                 .O>xHHHHHHHHHHHHHHHHHHHHHHHHHHHHHHHHHHHHHHHHHHHHHHHHHHHHHHHHHH&                    ",
"                 X$1cHHHHHHHHHHHHHHHHHHHHHHHHHHHHHHHHHHHHHHHHHHHHHHHHHHHHHHHHHkX                    ",
"                 o&5cHHHHHHHHHHHHHHHHHHHHHHHHHHHHHHHHHHHHHHHHHHHHHHHHHHHHHHHHHj.                    ",
"                 o:0bHHHHHHHHHHHHHHHHHHHHHHHHHHHHHHHHHHHHHHHHHHHHHHHHHHHHHHHHHj.                    ",
"                 O,ufCHHHHHHHHHHHHH  .HHHHHHHHHHHHHHHHHHHH  .HHHHHHHHHHHHHHHHHj                     ",
"                  %pjSHHHHHHHHHHHHH   HHHHHHHHHHHHHHHHHHHH   HHHHHHHHHHHHHHHHVq                     ",
"                  %ykBHHHHHHHHHHHHH    HHHHHHHHHHHHHHHHHHH   HHHHHHHHHHHHHHHHV9                     ",
"                  #izNGHHHHHHHHHHHH     HHHHHHHHHHHHHHHHH    HHHHHHHHHHHHHHHFc1                     ",
"                   -xBGHHHHHHHHHHHHH     HHHHHHHHHHHHHHH     HHHHHHHHHHHHHHHSa&                     ",
"                   $smSHHHHHHHHHHHHHH      HHHHHHHHHHH       HHHHHHHHHHHHHHHVrX                     ",
"                    .hVHHHHHHHHHHHHHH       HHHHHHHH        HHHHHHHHHHHHHHHFh6.                     ",
"                     0BHHHHHHHHHHHHHHHH       HHH          HHHHHHHHHHHHHHHHSs=                      ",
"                     OgSHHHHHHHHHHHHHHHH                 HHHHHHHHHHHHHHHHHFv9o                      ",
"                      4mHHHHHHHHHHHHHHHHHH            HHHHHHHHHHHHHHHHHHHGMw*                       ",
"                      OsFHHHHHHHHHHHHHHHHHH         HHHHHHHHHHHHHHHHHHHHHAi+                        ",
"                       1kGHHHHHHHHHHHHHHHHHHHHHHHHHHHHHHHHHHHHHHHHHHHHHHFvo                         ",
"                       orMGHHHHHHHHHHHHHHHHHHHHHHHHHHHHHHHHHHHHHHHHHHHHFNg                          ",
"                        1sMFHHHHHHHHHHHHHHHHHHHHHHHHHHHHHHHHHHHHHHHHHHFScq                          ",
"                        $7aMFHGHHHHHHHHHHHHHHHHHHHHHHHHHHHHHHHHHHHHHHHFMi>                          ",
"                        .30sMDGHHHHHHHHHHHHHHHHHHHHHHHHHHHHHHHHHHHHHHFMs:                           ",
"                         %4qdMDGGHHHHHHHHHHHHHHHHHHHHHHHHHHHHHHHHHHHGVp&                            ",
"                         X:3qfMSDDHHHHHHHHHHHHHHHHHHHHHHHHHHHHHHHHFFVw&                             ",
"                          o=19dnNVSFHHHHHHHHHHHHHHHHHHHHHHHHHHHHHFFV6+                              ",
"                           o%;3rfjMNAFHHHHHHHHHHHHHHHHHHHHHHHHHGDFm,o                               ",
"                            X%$:38sfnNSGHHHHHHHHHHHHHHHHHHHHHHFVMf-X                                ",
"                             XoX+#17adnADFDGHHHHHHHHHHHHHHHFFSvh>&.                                 ",
"                                . o+37pxbMBVAHGHHHHHHHHHGNMvjf0*X                                   ",
"                                    X#1rypjjjjkbNVSDFcxkg0971>$.                                    ",
"                                       $--09752<,137033,-&%%X.                                      ",
"                                          +##+OoX.......  .                                         ",
"                                                                                                    ",
"                                                                                                    ",
"                                                                                                    ",
"                                                                                                    ",
"                                                                                                    ",
"                                                                                                    ",
"                                                                                                    ",
"                                                                                                    ",
"                                                                                                    ",
"                                                                                                    ",
"                                                                                                    ",
"                                                                                                    ",
"                                                                                                    ",
"                                                                                                    ",
"                                                                                                    ",
"                                                                                                    ",
"                                                                                                    ",
"                                                                                                    ",
"                                                                                                    "
};
