/* XPM */
static char *fps_player[] = {
/* columns rows colors chars-per-pixel */
"60 71 30 1 ",
"  c #040607",
". c #1D2226",
"X c #2E2E30",
"o c #27201C",
"O c #4E4E50",
"+ c #737474",
"@ c #69686A",
"# c #745946",
"$ c #905831",
"% c #B57147",
"& c #A2745A",
"* c #E9A882",
"= c #DD8952",
"- c #F29256",
"; c #FDAE7A",
": c #E3905A",
"> c #FEBC9C",
", c #817F84",
"< c #908E92",
"1 c #A8A7A8",
"2 c #A0A19F",
"3 c #FDB586",
"4 c #DEB292",
"5 c #FED9B9",
"6 c #FCC29B",
"7 c #FEDFC1",
"8 c None",
"9 c #87807E",
"0 c #C0B1A9",
"q c #7F7D82",
/* pixels */
"888888888888888888888888888888888888888888888888888888888888",
"888888888888888888888888888888888888888888888888888888888888",
"888888888888888888888888888888888888888888888888888888888888",
"888888888888888888888888888888888888888888888888888888888888",
"888888888888888888888888888888888888888888888888888888888888",
"888888888888888888888888888888888888888888888888888888888888",
"888888888888888888888888888888888888888888888888888888888888",
"888888888888888888888888888888888888888888888888888888888888",
"888888888888888888888888888888888888888888888888888888888888",
"888888888888888888888888888888888888888888888888888888888888",
"888888888888888888888888888888888888888888888888888888888888",
"888888888888888888888888888880088888888888888888888888888888",
"88888888888888888888888888880 X88888888888888888888888888888",
"88888888888888888888888888880 X88888888888888888888888888888",
"88888888888888888888888888889qq88888888888888888888888888888",
"888888888888888888888888889q+,,O@988888888888888888888888888",
"888888888888888888888888889O+q,O@988888888888888888888888888",
"888888888888888888888888889O@,,O@988888888888888888888888888",
"888888888888888888888888890++<<++988888888888888888888888888",
"88888888888888888888888@<,,,,2<,,,q<988888888888888888888888",
"88888888888888888888888#X+,,,22,,+OX088888888888888888888888",
"88888888888888888888888@O+,,<12,,+OX088888888888888888888888",
"88888888888888888888888#O+,,,22,q+OX088888888888888888888888",
"88888888888888888888888#O+,,,12qq+OX088888888888888888888888",
"88888888888888888888<<<q+@OO+,<+@++@@00888888888888888888888",
"88888888888888888888q++qqOOOO,qOO+qqqq@888888888888888888888",
"88888888888888888888qq+q+OOXO,,OX+++q,@888888888888888888888",
"88888888888888888888+qq+qOOOO+qOO++qq,2888888888888888888888",
"888888888888888889 9,,+11OXXXXXXX@++qq@998888888888888888888",
"888888888888888880..,,q21OXXXXXXXOO+q++@#8888888888888888888",
"888888888888888880XXqq+11+@OO@OOO+@@+q+O#8888888888888888888",
"888888888888888880.Xqqq112,,,,<q++@+q++O#8888888888888888888",
"888888888888888880 .q+q<1<,,,,,,,+@++q+O#8888888888888888888",
"888888888888888880 .qqq11<<,,<,<,+@@+q+X@8888888888888888888",
"888888888888888880 .q+q1111<1<1<2+++qq@.+8888888888888888888",
"888888888888888890 .qqq11<<<1<<11+@@+++.&8888888888888888888",
"888888888888888880XX,qq111<111<<2+@@q++.@8888888888888888888",
"888888888888888880.XO@O1111111111qOO@@O.@8888888888888888888",
"888888888888888880 .OXO1111111111qOOOOX $9999988888888888888",
"888888888888888880..OOO1111111111+OXOOO o-%%-*88888888888888",
"888888888888888880 .XX.,,+@O@@@@+XX.XXX o%%%%988888888888888",
"888888888888888890.....q,@OOOOXOO.   oo o%%%-088888888888888",
"888888888888888880X....q,@OOOXOOO.   .o o%%%%988888888888888",
"88888888888888899@XX...q,OOOOOOOOX   oo o%%%-=98888888888888",
"8888888888888883-:.X...+&OXXXXXXXo   oo o-%%%%%0888888888888",
"8888888888888883:<.X...@@X.......    oo o%%%%%%#888888888888",
"88888888888888843:.....@@O.......    oooo%%%%%%0888888888888",
"88888888888*33:;333,X..@@O........  ooO$$%%%%%%0888888888888",
"88888888888*3;-;33;:X.X@+XXo....X     o$$%%%%%:9888888888888",
"888888888880;--;3366$@$OOXo.oo... o oo$$$%%%%%:2009888888888",
"88888888888*-;3;;;77---o          ..ooo$O%%%%%%%%%&888888888",
"88888888888*3;;;;377---X         ....o$$$$%%%%%%%:*888888888",
"888888888880;-33;357--:o          ooo.O$$$%%%%%%%%@888888888",
"888888888880;;;;;;57666$$$ooo$ooX$$$$%%%%::::::%%%*888888888",
"88888888888*3:;;;377555:%%$$$$$$$$%%%-----:-:--:%%#888888888",
"888888888880;33-;375757:%%$$$$$$$$&%%-:-:--:---%%%*888888888",
"88888888823333;;;;7755766644444444;;;3;:-;--;--%%%2888888888",
"888888888=;;;;3;;37555757775763634;3;3;;;-;----%%%*888888888",
"888888888>3;3;;;;355757777757565663;;3;-;;-----%%:*888888888",
"888888888>333;;;--33555577577666663333;--;-----:%:*888888888",
"888888888*;;;3;;--635755775555466633;3;--------:%:*888888888",
"888888888*;;3;3---335575555776666633;3;;;------%4%*888888888",
"888888888>;;3;3---335555557575566633;;;--------:%:*888888888",
"888888888>;;;33;;;--66666666363334;:;;;-------;%::*888888888",
"888888888>63;3;3;;--;;;;3;3;333333;::--:-------%:%*888888888",
"888888888>33;;;33;--;;;3;3;3;3333;;:-----------:%:*888888888",
"888888888*;;3;33;---;--;33;;;3;;;;;------------::%#888888888",
"888888888*;3;33;3;-----;;;3;;;;;;;;--:---------:%:*888888888",
"888888888>63;333;;-;---;33333;3;;;;-------------::>888888888",
"888888888=333;36;;-;----3333333;;;;-------------:;=888888888",
"8888888880**#0**#0=0#0=*0*0=**0*0==00#=#0#0=0#0=#00888888888"
};
