/* XPM */
static char *fps_player_big[] = {
/* columns rows colors chars-per-pixel */
"60 71 179 2 ",
"   c #000000",
".  c #00060F",
"X  c #00080E",
"o  c #100F0D",
"O  c #000710",
"+  c #010A10",
"@  c #0F1113",
"#  c #031018",
"$  c #121314",
"%  c #1A1C1C",
"&  c #301D0F",
"*  c #3B210E",
"=  c #23201F",
"-  c #372216",
";  c #392215",
":  c #362218",
">  c #001E2F",
",  c #1A1D20",
"<  c #1E2225",
"1  c #1C252C",
"2  c #0D2831",
"3  c #232425",
"4  c #262825",
"5  c #22272A",
"6  c #2A272A",
"7  c #2C2B2D",
"8  c #302722",
"9  c #242C31",
"0  c #2E3032",
"q  c #323133",
"w  c #353739",
"e  c #3A3A3C",
"r  c #5E391C",
"t  c #4A2C18",
"y  c #5F3D26",
"u  c #613F2B",
"i  c #613F27",
"p  c #634028",
"a  c #7A4C2E",
"s  c #444445",
"d  c #484946",
"f  c #49494B",
"g  c #504E4E",
"h  c #4E4E51",
"j  c #545456",
"k  c #555559",
"l  c #5A5A5C",
"z  c #585657",
"x  c #60605E",
"c  c #5F5D62",
"v  c #645F62",
"b  c #5F6161",
"n  c #636365",
"m  c #6A6468",
"M  c #6B6C6C",
"N  c #646568",
"B  c #6F706F",
"V  c #6E6D71",
"C  c #737275",
"Z  c #767579",
"A  c #7A7C7B",
"S  c #777578",
"D  c #824F29",
"F  c #85512A",
"G  c #8A542D",
"H  c #8E5733",
"J  c #84573E",
"K  c #8E5936",
"L  c #915D3F",
"P  c #AC693F",
"I  c #B3693B",
"U  c #8A5E46",
"Y  c #996343",
"T  c #AC6C42",
"R  c #B56F43",
"E  c #B86E42",
"W  c #B57145",
"Q  c #BB7143",
"!  c #B5724B",
"~  c #B9764D",
"^  c #BA784E",
"/  c #BA7A56",
"(  c #B87752",
")  c #C37A4E",
"_  c #C87D4D",
"`  c #C37846",
"'  c #C37C53",
"]  c #D1804F",
"[  c #CC8051",
"{  c #CE895C",
"}  c #D58554",
"|  c #D98957",
" . c #DA8B5C",
".. c #D68859",
"X. c #EC8E54",
"o. c #EE9156",
"O. c #EE9259",
"+. c #F39255",
"@. c #F2955B",
"#. c #F4995E",
"$. c #F99C59",
"%. c #FEA15C",
"&. c #D98C60",
"*. c #C5926B",
"=. c #C6977F",
"-. c #ED9866",
";. c #EE9764",
":. c #F59C63",
">. c #F99E62",
",. c #F29E68",
"<. c #F99F6A",
"1. c #FAA166",
"2. c #F7A36C",
"3. c #FCA46B",
"4. c #EDAC7C",
"5. c #F6A571",
"6. c #FDA677",
"7. c #FDAA75",
"8. c #FEA678",
"9. c #F7AE7B",
"0. c #FCAD7A",
"q. c #F7A975",
"w. c #FEB27E",
"e. c #F7B07C",
"r. c #7F7D82",
"t. c #817F84",
"y. c #828185",
"u. c #878589",
"i. c #89878C",
"p. c #8B8A8C",
"a. c #8F908F",
"s. c #8E8C91",
"d. c #8F9190",
"f. c #939394",
"g. c #99979A",
"h. c #9B9A9C",
"j. c #9FA09F",
"k. c #A0A19F",
"l. c #A5A4A3",
"z. c #A9A9A6",
"x. c #A7A5A8",
"c. c #A9A7AA",
"v. c #ABA9AB",
"b. c #A7A8A5",
"n. c #C79680",
"m. c #CB9A80",
"M. c #C69880",
"N. c #CBA48D",
"B. c #D8A185",
"V. c #DEA985",
"C. c #D6A182",
"Z. c #CFA992",
"A. c #DDBB9F",
"S. c #DDB190",
"D. c #FDAD81",
"F. c #FDB483",
"G. c #FEB886",
"H. c #F4B28C",
"J. c #FDB68D",
"K. c #FDBA8C",
"L. c #F7BD95",
"P. c #FCBD94",
"I. c #FEBB9B",
"U. c #F7BF9A",
"Y. c #C7B7B0",
"T. c #E5BFA0",
"R. c #EDC39F",
"E. c #FEC095",
"W. c #FCC39D",
"Q. c #F2C29E",
"!. c #EEC6A2",
"~. c #FDC5A2",
"^. c #FFC8A3",
"/. c #FCCDAB",
"(. c #E1C5B4",
"). c #FFD9B7",
"_. c #FEDCBC",
"`. c #FEDFC1",
"'. c None",
/* pixels */
"'.'.'.'.'.'.'.'.'.'.'.'.'.'.'.'.'.'.'.'.'.'.'.'.'.'.'.'.'.'.'.'.'.'.'.'.'.'.'.'.'.'.'.'.'.'.'.'.'.'.'.'.'.'.'.'.'.'.'.'.",
"'.'.'.'.'.'.'.'.'.'.'.'.'.'.'.'.'.'.'.'.'.'.'.'.'.'.'.'.'.'.'.'.'.'.'.'.'.'.'.'.'.'.'.'.'.'.'.'.'.'.'.'.'.'.'.'.'.'.'.'.",
"'.'.'.'.'.'.'.'.'.'.'.'.'.'.'.'.'.'.'.'.'.'.'.'.'.'.'.'.'.'.'.'.'.'.'.'.'.'.'.'.'.'.'.'.'.'.'.'.'.'.'.'.'.'.'.'.'.'.'.'.",
"'.'.'.'.'.'.'.'.'.'.'.'.'.'.'.'.'.'.'.'.'.'.'.'.'.'.'.'.'.'.'.'.'.'.'.'.'.'.'.'.'.'.'.'.'.'.'.'.'.'.'.'.'.'.'.'.'.'.'.'.",
"'.'.'.'.'.'.'.'.'.'.'.'.'.'.'.'.'.'.'.'.'.'.'.'.'.'.'.'.'.'.'.'.'.'.'.'.'.'.'.'.'.'.'.'.'.'.'.'.'.'.'.'.'.'.'.'.'.'.'.'.",
"'.'.'.'.'.'.'.'.'.'.'.'.'.'.'.'.'.'.'.'.'.'.'.'.'.'.'.'.'.'.'.'.'.'.'.'.'.'.'.'.'.'.'.'.'.'.'.'.'.'.'.'.'.'.'.'.'.'.'.'.",
"'.'.'.'.'.'.'.'.'.'.'.'.'.'.'.'.'.'.'.'.'.'.'.'.'.'.'.'.'.'.'.'.'.'.'.'.'.'.'.'.'.'.'.'.'.'.'.'.'.'.'.'.'.'.'.'.'.'.'.'.",
"'.'.'.'.'.'.'.'.'.'.'.'.'.'.'.'.'.'.'.'.'.'.'.'.'.'.'.'.'.'.'.'.'.'.'.'.'.'.'.'.'.'.'.'.'.'.'.'.'.'.'.'.'.'.'.'.'.'.'.'.",
"'.'.'.'.'.'.'.'.'.'.'.'.'.'.'.'.'.'.'.'.'.'.'.'.'.'.'.'.'.'.'.'.'.'.'.'.'.'.'.'.'.'.'.'.'.'.'.'.'.'.'.'.'.'.'.'.'.'.'.'.",
"'.'.'.'.'.'.'.'.'.'.'.'.'.'.'.'.'.'.'.'.'.'.'.'.'.'.'.'.'.'.'.'.'.'.'.'.'.'.'.'.'.'.'.'.'.'.'.'.'.'.'.'.'.'.'.'.'.'.'.'.",
"'.'.'.'.'.'.'.'.'.'.'.'.'.'.'.'.'.'.'.'.'.'.'.'.'.'.'.'.'.'.'.'.'.'.'.'.'.'.'.'.'.'.'.'.'.'.'.'.'.'.'.'.'.'.'.'.'.'.'.'.",
"'.'.'.'.'.'.'.'.'.'.'.'.'.'.'.'.'.'.'.'.'.'.'.'.'.'.'.'.'.c.'.'.'.'.'.'.'.'.'.'.'.'.'.'.'.'.'.'.'.'.'.'.'.'.'.'.'.'.'.'.",
"'.'.'.'.'.'.'.'.'.'.'.'.'.'.'.'.'.'.'.'.'.'.'.'.'.'.'.'.'.  0 '.'.'.'.'.'.'.'.'.'.'.'.'.'.'.'.'.'.'.'.'.'.'.'.'.'.'.'.'.",
"'.'.'.'.'.'.'.'.'.'.'.'.'.'.'.'.'.'.'.'.'.'.'.'.'.'.'.'.'.  q '.'.'.'.'.'.'.'.'.'.'.'.'.'.'.'.'.'.'.'.'.'.'.'.'.'.'.'.'.",
"'.'.'.'.'.'.'.'.'.'.'.'.'.'.'.'.'.'.'.'.'.'.'.'.'.'.'.'.'.c Z '.'.'.'.'.'.'.'.'.'.'.'.'.'.'.'.'.'.'.'.'.'.'.'.'.'.'.'.'.",
"'.'.'.'.'.'.'.'.'.'.'.'.'.'.'.'.'.'.'.'.'.'.'.'.'.'.'.M V r.r.j k '.'.'.'.'.'.'.'.'.'.'.'.'.'.'.'.'.'.'.'.'.'.'.'.'.'.'.",
"'.'.'.'.'.'.'.'.'.'.'.'.'.'.'.'.'.'.'.'.'.'.'.'.'.'.'.j c t.r.j k '.'.'.'.'.'.'.'.'.'.'.'.'.'.'.'.'.'.'.'.'.'.'.'.'.'.'.",
"'.'.'.'.'.'.'.'.'.'.'.'.'.'.'.'.'.'.'.'.'.'.'.'.'.'.'.k c y.r.j l '.'.'.'.'.'.'.'.'.'.'.'.'.'.'.'.'.'.'.'.'.'.'.'.'.'.'.",
"'.'.'.'.'.'.'.'.'.'.'.'.'.'.'.'.'.'.'.'.'.'.'.'.'.'.i.M Z s.s.V V '.'.'.'.'.'.'.'.'.'.'.'.'.'.'.'.'.'.'.'.'.'.'.'.'.'.'.",
"'.'.'.'.'.'.'.'.'.'.'.'.'.'.'.'.'.'.'.'.'.'.'.p.i.y.t.t.y.h.g.t.t.Z l l '.'.'.'.'.'.'.'.'.'.'.'.'.'.'.'.'.'.'.'.'.'.'.'.",
"'.'.'.'.'.'.'.'.'.'.'.'.'.'.'.'.'.'.'.'.'.'.'.N s Z y.t.u.g.g.t.t.V s e '.'.'.'.'.'.'.'.'.'.'.'.'.'.'.'.'.'.'.'.'.'.'.'.",
"'.'.'.'.'.'.'.'.'.'.'.'.'.'.'.'.'.'.'.'.'.'.'.N s Z t.t.i.g.g.y.t.C s w '.'.'.'.'.'.'.'.'.'.'.'.'.'.'.'.'.'.'.'.'.'.'.'.",
"'.'.'.'.'.'.'.'.'.'.'.'.'.'.'.'.'.'.'.'.'.'.'.m s C y.y.u.g.g.y.t.C s e '.'.'.'.'.'.'.'.'.'.'.'.'.'.'.'.'.'.'.'.'.'.'.'.",
"'.'.'.'.'.'.'.'.'.'.'.'.'.'.'.'.'.'.'.'.'.'.'.n s Z y.y.i.h.h.y.t.V s w '.'.'.'.'.'.'.'.'.'.'.'.'.'.'.'.'.'.'.'.'.'.'.'.",
"'.'.'.'.'.'.'.'.'.'.'.'.'.'.'.'.'.'.'.'.a.a.a.A S x g h l p.i.N l B B M p.A l.'.'.'.'.'.'.'.'.'.'.'.'.'.'.'.'.'.'.'.'.'.",
"'.'.'.'.'.'.'.'.'.'.'.'.'.'.'.'.'.'.'.'.A A A A A z d s j t.A z d M A A A A f.'.'.'.'.'.'.'.'.'.'.'.'.'.'.'.'.'.'.'.'.'.",
"'.'.'.'.'.'.'.'.'.'.'.'.'.'.'.'.'.'.'.'.A A A A A j s s z y.t.z d M A A A A f.'.'.'.'.'.'.'.'.'.'.'.'.'.'.'.'.'.'.'.'.'.",
"'.'.'.'.'.'.'.'.'.'.'.'.'.'.'.'.'.'.'.'.A A A A A j s s f S S j d M A A A A j.'.'.'.'.'.'.'.'.'.'.'.'.'.'.'.'.'.'.'.'.'.",
"'.'.'.'.'.'.'.'.'.'.'.'.'.'.'.'.'.'.5 0 A A A k.b.j 7 7 7 6 6 7 6 x B B A A d.'.'.'.'.'.'.'.'.'.'.'.'.'.'.'.'.'.'.'.'.'.",
"'.'.'.'.'.'.'.'.'.'.'.'.'.'.'.'.'.'.+ < A A A k.z.l 7 0 0 7 7 7 7 k n n A A B s x '.'.'.'.'.'.'.'.'.'.'.'.'.'.'.'.'.'.'.",
"'.'.'.'.'.'.'.'.'.'.'.'.'.'.'.'.'.'.X < A A A b.z.B l l l l l l l b n N A A B d n '.'.'.'.'.'.'.'.'.'.'.'.'.'.'.'.'.'.'.",
"'.'.'.'.'.'.'.'.'.'.'.'.'.'.'.'.'.'.X < r.A A k.z.d.y.y.t.t.t.t.y.V n n A A B d n '.'.'.'.'.'.'.'.'.'.'.'.'.'.'.'.'.'.'.",
"'.'.'.'.'.'.'.'.'.'.'.'.'.'.'.'.'.'.X < A A A l.c.p.t.t.t.t.t.t.t.V n N A A V d x '.'.'.'.'.'.'.'.'.'.'.'.'.'.'.'.'.'.'.",
"'.'.'.'.'.'.'.'.'.'.'.'.'.'.'.'.'.'.X < A A A l.c.f.p.p.i.p.i.i.p.C N N A A M w B '.'.'.'.'.'.'.'.'.'.'.'.'.'.'.'.'.'.'.",
"'.'.'.'.'.'.'.'.'.'.'.'.'.'.'.'.'.'.+ < A A A l.b.h.g.g.g.g.g.g.g.A b N A A M 4 m '.'.'.'.'.'.'.'.'.'.'.'.'.'.'.'.'.'.'.",
"'.'.'.'.'.'.'.'.'.'.'.'.'.'.'.'.'.'.+ < A A Z l.b.j.g.g.g.g.g.g.g.A N N A A M 4 m '.'.'.'.'.'.'.'.'.'.'.'.'.'.'.'.'.'.'.",
"'.'.'.'.'.'.'.'.'.'.'.'.'.'.'.'.'.'.. < r.A A l.b.h.g.g.g.g.g.g.f.A N N A A N 4 N '.'.'.'.'.'.'.'.'.'.'.'.'.'.'.'.'.'.'.",
"'.'.'.'.'.'.'.'.'.'.'.'.'.'.'.'.'.'.+ < k c l l.v.c.x.c.c.c.c.x.x.A j k b b j $ x '.'.'.'.'.'.'.'.'.'.'.'.'.'.'.'.'.'.'.",
"'.'.'.'.'.'.'.'.'.'.'.'.'.'.'.'.'.'.. < f f f l.v.v.v.c.v.v.v.v.c.C f f f d e   g '.'.'.'.'.'.'.'.'.'.'.'.'.'.'.'.'.'.'.",
"'.'.'.'.'.'.'.'.'.'.'.'.'.'.'.'.'.'.O < f f f l.v.v.v.v.v.v.v.v.v.A f f f g e   - Q E R I '.'.'.'.'.'.'.'.'.'.'.'.'.'.'.",
"'.'.'.'.'.'.'.'.'.'.'.'.'.'.'.'.'.'.O < 7 9 7 r.u.M v c n v c b b s 3 3 6 q 6   : Q W W I '.'.'.'.'.'.'.'.'.'.'.'.'.'.'.",
"'.'.'.'.'.'.'.'.'.'.'.'.'.'.'.'.'.'.+ < < < < A t.l f f f f f f f 6     o = =   - Q W I I '.'.'.'.'.'.'.'.'.'.'.'.'.'.'.",
"'.'.'.'.'.'.'.'.'.'.'.'.'.'.'.'.'.'.O < 5 , 5 Z t.l f f f f s f d 6     o = =   ; Q W Q I '.'.'.'.'.'.'.'.'.'.'.'.'.'.'.",
"'.'.'.'.'.'.'.'.'.'.'.'.'.'.'.'.'.Y.# < , 5 , r.t.l f f f f f f f 6     o = =   ; Q R W I m.'.'.'.'.'.'.'.'.'.'.'.'.'.'.",
"'.'.'.'.'.'.'.'.'.'.'.'.'.'.'.H.;.&.2 9 , 5 , V S f w w w w w w w ,     $ = =   - Q W R E R I (.'.'.'.'.'.'.'.'.'.'.'.'.",
"'.'.'.'.'.'.'.'.'.'.'.'.'.'.'.H.-. .2 9 5 < < v m e < , < < < < < $     o = 3   - Q E R W E I '.'.'.'.'.'.'.'.'.'.'.'.'.",
"'.'.'.'.'.'.'.'.'.'.'.'.'.'.'.H.;.&.> 1 5 < 5 v m e < < < < < < < @     o = : & t ! E W E R I '.'.'.'.'.'.'.'.'.'.'.'.'.",
"'.'.'.'.'.'.'.'.'.'.'.U.D.8.,.7.9.D.4.*.9 5 < v m e < < < < < < < @     o = y G F P W R R R I '.'.'.'.'.'.'.'.'.'.'.'.'.",
"'.'.'.'.'.'.'.'.'.'.'.J.8.<.+.6.w.w.w.*.9 5 3 v m e < < < < < < < $     o 3 y F D T R W R W R '.'.'.'.'.'.'.'.'.'.'.'.'.",
"'.'.'.'.'.'.'.'.'.'.'.J.8.5.#.0.J.K.~.Q.U J J j j q , , , , , , , $ $ $ % 3 p F D T ! W R ! R Z.Z.N.'.'.'.'.'.'.'.'.'.'.",
"'.'.'.'.'.'.'.'.'.'.'.J.8.7.0.7.7.G._.`.#.$.+.*                   @ < < , < p F F T ^ ~ R ! ! R T ! =.'.'.'.'.'.'.'.'.'.",
"'.'.'.'.'.'.'.'.'.'.'.J.8.7.7.0.7.F._.`.#.+.+.;                   $ 5 , < < y F a P W ~ ! ! ~ / ( ~ M.'.'.'.'.'.'.'.'.'.",
"'.'.'.'.'.'.'.'.'.'.'.J.8.8.7.0.0.J._.`.@.+.+.;                   $ , < < < p F F P ! ! ~ ~ ~ / / ( =.'.'.'.'.'.'.'.'.'.",
"'.'.'.'.'.'.'.'.'.'.'.J.8.7.7.0.7.F._.`.L.L.L.Y K a r r r r r r r p J U L T Q ` ` | | ] } ....~ ! ! =.'.'.'.'.'.'.'.'.'.",
"'.'.'.'.'.'.'.'.'.'.'.J.8.7.0.7.7.G._._._._._.{ [ T F F F F F F D H ! ! _ +.o.o.o.#.X.X.X.O.:.' ! ! =.'.'.'.'.'.'.'.'.'.",
"'.'.'.'.'.'.'.'.'.'.'.J.8.7.0.0.7.G.`._._._._.{ _ P F F F F G F D H ! ! ) o.o.o.O.#.o.X.O.@.o.~ ! ! =.'.'.'.'.'.'.'.'.'.",
"'.'.'.'.'.'.'.'.'.~.D.G.F.F.w.0.0.G._._._._._.!.R.T.A.A.A.S.V.V.V.V.9.9.e.e.7.1.1.3.3.>.#.#.+.) ! ! n.'.'.'.'.'.'.'.'.'.",
"'.'.'.'.'.'.'.'.'.I.6.F.D.w.w.w.7.F._._._._._._._._._._._./.W.~.W.I.w.w.w.G.0.3.3.>.3.>.+.+.+.) ! ! n.'.'.'.'.'.'.'.'.'.",
"'.'.'.'.'.'.'.'.'.I.8.0.w.w.w.w.7.F._.)._._._._._._._._._./.W.W.W.W.w.e.F.G.q.#.3.3.:.+.X.+.+.) ! ~ m.'.'.'.'.'.'.'.'.'.",
"'.'.'.'.'.'.'.'.'.I.8.F.w.w.w.:.+.:.F.F.)._._._._._._._._./.W.~.W.W.e.F.e.G.q.#.>.:.+.+.+.+.+.} _ [ C.'.'.'.'.'.'.'.'.'.",
"'.'.'.'.'.'.'.'.'.I.8.0.w.F.w.1.+.#.G.F.)._._._._._._.)._./.U.W.~.~.F.G.9.G.w.1.3.#.+.+.+.+.+.} [ [ B.'.'.'.'.'.'.'.'.'.",
"'.'.'.'.'.'.'.'.'.I.8.F.w.w.G.1.+.#.G.w._._._._._._._._._./.~.~.Q.~.G.F.9.D.w.3.1.+.+.+.+.+.+.} [ [ B.'.'.'.'.'.'.'.'.'.",
"'.'.'.'.'.'.'.'.'.I.7.0.w.w.w.1.o.#.G.F.)._._._._._._._._./.~.~.U.U.e.G.G.w.q.#.>.+.+.+.+.+.+.| [ [ B.'.'.'.'.'.'.'.'.'.",
"'.'.'.'.'.'.'.'.'.I.7.w.w.w.w.9.q.2.1.1.E.E.E.E.E.E.E.P.P.P.P.G.H.G.9.,.2.5.,.$.$.+.+.+.+.+.+...[ [ B.'.'.'.'.'.'.'.'.'.",
"'.'.'.'.'.'.'.'.'.I.8.0.F.w.w.F.w.5.+.+.w.w.w.w.w.w.w.w.w.E.w.G.G.G.D.O.O.@.o.o.+.+.+.+.+.+.+.} _ _ B.'.'.'.'.'.'.'.'.'.",
"'.'.'.'.'.'.'.'.'.I.8.w.w.w.w.w.w.3.+.+.w.w.w.G.w.w.w.w.w.w.E.w.F.e.0.O.X.o.+.o.+.+.+.+.+.+.+.} _ } V.'.'.'.'.'.'.'.'.'.",
"'.'.'.'.'.'.'.'.'.I.8.0.F.w.w.F.w.1.o.o.%.%.%.0.w.w.w.w.w.w.e.e.9.9.e.+.o.o.+.o.+.+.+.+.+.+.+.} _ _ V.'.'.'.'.'.'.'.'.'.",
"'.'.'.'.'.'.'.'.'.I.8.F.w.w.w.w.w.q.$.%.%.%.%.w.w.w.w.w.w.w.e.0.G.G.e.X.+.o.+.+.+.+.+.$.+.+.+.} } _ V.'.'.'.'.'.'.'.'.'.",
"'.'.'.'.'.'.'.'.'.I.7.0.w.w.w.w.w.7.%.%.%.%.%.0.e.F.F.F.w.w.e.w.F.F.5.o.O.@.+.+.+.+.+.+.+.+.+.| _ _ V.'.'.'.'.'.'.'.'.'.",
"'.'.'.'.'.'.'.'.'.I.8.w.w.w.w.w.w.7.%.%.%.%.%.0.e.F.F.F.G.w.w.w.w.w.7.o.+.+.+.+.+.+.+.+.+.+.+.} } _ B.'.'.'.'.'.'.'.'.'.",
"'.'.'.'.'.'.'.'.'.'.7.w.F.w.F.w.w.7.%.%.%.%.%.e.9.G.F.F.G.e.w.w.e.w.7.o.+.+.+.+.+.+.$.+.+.+.+.| _ _ '.'.'.'.'.'.'.'.'.'."
};
