/* XPM */
static char *pistola[] = {
/* columns rows colors chars-per-pixel */
"47 56 185 2 ",
"   c None",
".  c #010000",
"X  c #0E0905",
"o  c #050708",
"O  c #0C0C0C",
"+  c #1B1109",
"@  c #000B13",
"#  c #141414",
"$  c #1C1C1D",
"%  c #1D1F21",
"&  c #1F2325",
"*  c #252525",
"=  c #2C2C2C",
"-  c #262829",
";  c #37312E",
":  c #343434",
">  c #3B3B3B",
",  c #40311B",
"<  c #4D3820",
"1  c #583D25",
"2  c #5E411F",
"3  c #4B423C",
"4  c #6C4527",
"5  c #6D462B",
"6  c #7B4A24",
"7  c #704729",
"8  c #734823",
"9  c #6F4D37",
"0  c #444444",
"q  c #484747",
"w  c #4B4B4B",
"e  c #4C4846",
"r  c #545454",
"t  c #595653",
"y  c #5C5C5C",
"u  c #525858",
"i  c #605E5C",
"p  c #6C635C",
"a  c #796355",
"s  c #555F65",
"d  c #586269",
"f  c #646464",
"g  c #6C6C6C",
"h  c #696663",
"j  c #786F6A",
"k  c #70706F",
"l  c #6E6E79",
"z  c #6D7376",
"x  c #747474",
"c  c #7A7675",
"v  c #7C7C7C",
"b  c #81532C",
"n  c #925C38",
"m  c #9C623E",
"M  c #A5663E",
"N  c #AB663B",
"B  c #A86435",
"V  c #B16A3D",
"C  c #C0703D",
"Z  c #89644C",
"A  c #9C6440",
"S  c #836C5E",
"D  c #926E58",
"F  c #8E705D",
"G  c #90705C",
"H  c #A66740",
"J  c #AB6B42",
"K  c #B26E42",
"L  c #B86F40",
"P  c #B47145",
"I  c #BA7142",
"U  c #B27249",
"Y  c #A37558",
"T  c #B67C56",
"R  c #89776D",
"E  c #957561",
"W  c #8D7B71",
"Q  c #837770",
"!  c #C17749",
"~  c #C47A4B",
"^  c #CB7D4B",
"/  c #CA7A47",
"(  c #D17D49",
")  c #D77E46",
"_  c #CC7D51",
"`  c #B3815F",
"'  c #9A8375",
"]  c #A4836D",
"[  c #B4876A",
"{  c #B6896C",
"}  c #BD8E71",
"|  c #D2814E",
" . c #DC824B",
".. c #CA865B",
"X. c #D58351",
"o. c #DA8753",
"O. c #DE8955",
"+. c #D28A5C",
"@. c #DB8C5D",
"#. c #E28A56",
"$. c #EB8C56",
"%. c #E98D59",
"&. c #E38652",
"*. c #EE935C",
"=. c #F4955C",
"-. c #F9975C",
";. c #FC9B5E",
":. c #FC9353",
">. c #CD8B63",
",. c #DD8E61",
"<. c #DE986F",
"1. c #CA9675",
"2. c #EF9562",
"3. c #EE9967",
"4. c #E19A6F",
"5. c #EB9A6A",
"6. c #F39B66",
"7. c #FB9C63",
"8. c #F29D68",
"9. c #F19663",
"0. c #E19A71",
"q. c #FCA26D",
"w. c #F9A16B",
"e. c #FDA672",
"r. c #FEA975",
"t. c #FCAD7C",
"y. c #F6A979",
"u. c #FEB07F",
"i. c #758483",
"p. c #838383",
"a. c #8C8C8B",
"s. c #868789",
"d. c #99908B",
"f. c #918F92",
"g. c #959595",
"h. c #989797",
"j. c #999897",
"k. c #96999B",
"l. c #9B9A9A",
"z. c #90979B",
"x. c #B49784",
"c. c #BB9883",
"v. c #A99E98",
"b. c #ACA39E",
"n. c #9D9BA3",
"m. c #A29FAB",
"M. c #9AA0AC",
"N. c #9EA5B3",
"B. c #A3A4A4",
"V. c #A8A7A7",
"C. c #AAAAAA",
"Z. c #A6A9A8",
"A. c #B0A8A3",
"S. c #A4ABB3",
"D. c #B5B5B4",
"F. c #BBBBBB",
"G. c #B8B8B6",
"H. c #C49B82",
"J. c #E4AA86",
"K. c #F0AD83",
"L. c #FBAF80",
"P. c #FCB182",
"I. c #FCB68B",
"U. c #FEB98D",
"Y. c #FFB982",
"T. c #FBBA92",
"R. c #FBBD99",
"E. c #F9B790",
"W. c #E9BFA6",
"Q. c #FEC09B",
"!. c #FCC5A5",
"~. c #FCCAAB",
"^. c #FFC8A4",
"/. c #FECEB1",
"(. c #F4CCB6",
"). c #F9D3BD",
"_. c #F7D1BB",
"`. c #C4C4C4",
"'. c #CDCDCD",
"]. c #D2D2D2",
"[. c #FBD6C1",
"{. c #FCD9C5",
"}. c #FDDDCB",
"|. c #FFE1CE",
" X c #FFE3D2",
/* pixels */
"                                                                                              ",
"                                                                                              ",
"                                                                                              ",
"                                                                                              ",
"                                                                                              ",
"                                                                                              ",
"                                                                                              ",
"                                                                                              ",
"                                                                                              ",
"                                                                                              ",
"                                      N.Z.l s.S.                                              ",
"                                      f.g.G.C.f.                                              ",
"                                  m.k.a.g.].G.s.n.M.                                          ",
"                                  c g.D.D.'.`.D.a.i.                                          ",
"                                  v k.G.D.].`.D.a.i.                                          ",
"                                  r p.G.D.].`.G.x u                                           ",
"                                  0 x D.C.'.`.D.h > r                                         ",
"                          x c v v v h w r a.x w x v v v x k                                   ",
"                          r g v v a.h : > y r : h x x v g h                                   ",
"                          * r p.v B.g * = * = = r h g p.y r                                   ",
"                          * r p.v l.g * = = = = r h g p.y r                                   ",
"                          * r p.v C.a.h h x g h h h g p.y w                                   ",
"                          * r p.v C.g.v v p.p.v g h g p.r 0                                   ",
"                          * r p.v C.B.l.l.l.l.l.x y g p.0 =                                   ",
"                          * r p.v C.B.g.g.g.g.l.x d g p.0 =                                   ",
"                          = 0 r y l.B.C.C.C.C.C.h w r y $ O                                   ",
"                          = : > 0 a.g.g.g.g.g.l.w : > 0 # X                                   ",
"                          = * $ - v h 0 w 0 0 w # . O * o X M N                               ",
"                      H.{ = * $ * x y : > > > > O . O * o X H N Y ]                           ",
"                      5. .- * $ * h w * = = = = O . O * o X M H V P                           ",
"                    d.4.@.3 ; $ - h w * = = = = O . O * O + M H H U                           ",
"                ' =.*.e.t.Y.Z @ & g r = : : = : O . O * , 2 M H K U                           ",
"                R 7.6.P.T.~.{ 5 9 : * # # # # # # O # % < 7 H H K P D D j                     ",
"                W e.q.R.~. XJ.) ! . . . . . . . $ * * $ 1 b K P P P I V G                     ",
"                W e.q.t.U.{._.(.W.U n 4 7 5 7 4 n m H _ o.o.o.o./ ! P I F                     ",
"                Q q.q.t.I.{.{.}._.| B 8 6 6 6 6 M K ! =.%.%.O.O.| ! P I F                     ",
"              ' } r.r.t.I.{.[.{.).J.1.{ { ` T T ..+.@.9.%.&.&.&.o./ P I F                     ",
"              4.r.P.P.u.I.{.{.{.{.}.|. X|./.^.Q.U.P.u.e.2.&.%.%.&.o.P I F                     ",
"              <.r.L.P.6.3.I.~.{.[.[.[.[.).!.R.I.P.t.t.q.7.=.%.%.&.o.! / E                     ",
"              4.r.L.P.*.%.t.!.}.{.}.}.}.{.~.Q.T.P.P.t.e.w.;.%.%.&.O./ ( E                     ",
"              4.r.P.P.8.2.w.E./.~.~.~.~.~.R.T.I.t.t.r.q.7.;.%.%.&.o./ / E                     ",
"              0.r.P.P.r.q.&.8.P.t.t.t.t.t.t.t.P.e.q.q.;.7.7.%.%.&.o.! / E                     ",
"              ,.7.P.u.t.r.-.7.q.q.P.P.P.P.P.t.r.e.e.q.;.;.;.$.$.&.O./ ( E                     ",
"              >.5.K.K.K.K.8.8.6.8.y.t.t.t.t.r.q.q.q.q.;.6.3.@.,.@.+.T ! E                     ",
"            g g.l.l.l.j.l.V.V.Z.b.! o.=.*.*.*.*.*.*.*.=.x.k.j.j.l.h.Q v v v                   ",
"            g a.l.g.g.g.l.C.C.C.A./ &.7.=.=.=.=.-.;.=.:.x.z.h.g.l.z.v v v v                   ",
"            a.l.B.B.B.l.g.l.a.p.p.S Y / ! ! ! I Y E ] c.v.B.B.B.l.g.a.f.p.v                   ",
"          p.l.B.C.C.C.l.g.a.v g g d a M A m m m p s k k.B.C.C.C.l.g.l.l.a.v h g               ",
"      a.g.l.C.C.B.l.l.l.g.v x x k h i t t e r h c v p.a.B.C.C.C.l.l.l.l.l.g.v x h h           ",
"    p.l.l.B.C.B.B.g.l.g.a.v x g g h y r r w r h x v p.a.l.B.l.l.k.g.g.g.g.l.a.v h h h         ",
"  p.l.B.C.C.C.l.g.l.l.p.v v x g g h y r r r y h x v p.a.g.g.a.a.a.a.a.a.g.l.l.a.d h r         ",
"g p.l.B.C.B.C.l.g.l.l.p.v v x g g h y r r r y h x v i.a.g.l.a.a.a.a.a.a.g.l.l.a.h h r y       ",
"g x v v v a.l.l.g.v v x g h h h h h y r r r y h x p.x h x p.g.g.B.B.B.B.l.g.l.a.v v h y w h   ",
"p.p.p.a.p.g.l.l.g.p.p.v x g g h h h y r r r y h k x g s v s.k.k.l.B.C.C.B.l.l.a.v v g y 0 y h ",
"G.C.g.C.C.C.C.l.g.l.l.p.v v x x g h y r r r y h h h h h a.l.g.k.g.h.B.C.C.C.l.a.v v g y 0 0 0 ",
"G.B.g.V.C.C.C.l.l.l.l.p.v v x x x h y r r r y h h h h h a.l.l.l.l.l.C.C.C.C.l.f.v v g y q w q "
};
